<?xml version="1.0" encoding="UTF-8" standalone="no"?>
<!-- Created with Inkscape (http://www.inkscape.org/) -->

<svg
   xmlns:dc="http://purl.org/dc/elements/1.1/"
   xmlns:cc="http://creativecommons.org/ns#"
   xmlns:rdf="http://www.w3.org/1999/02/22-rdf-syntax-ns#"
   xmlns:svg="http://www.w3.org/2000/svg"
   xmlns="http://www.w3.org/2000/svg"
   xmlns:sodipodi="http://sodipodi.sourceforge.net/DTD/sodipodi-0.dtd"
   xmlns:inkscape="http://www.inkscape.org/namespaces/inkscape"
   width="115mm"
   height="55mm"
   viewBox="0 0 115 55"
   version="1.1"
   id="svg3270"
   inkscape:version="0.92.5 (2060ec1f9f, 2020-04-08)"
   sodipodi:docname="teacher_coding_ex.svg"
   inkscape:export-filename="/home/kristian/projects/online_teaching_survival_guide/images/teacher_coding_ex.png"
   inkscape:export-xdpi="132.52"
   inkscape:export-ydpi="132.52">
  <defs
     id="defs3264">
    <clipPath
       clipPathUnits="userSpaceOnUse"
       id="clipPath3854">
      <rect
         style="fill:#ffffff;fill-opacity:1;stroke:none"
         id="rect3856"
         width="294.21225"
         height="296.65714"
         x="333.38882"
         y="53.534767"
         inkscape:export-filename="/home/krother/Desktop/mySpeakerBusiness/setting_your_fee.png"
         inkscape:export-xdpi="149.98193"
         inkscape:export-ydpi="149.98193" />
    </clipPath>
  </defs>
  <sodipodi:namedview
     id="base"
     pagecolor="#ffffff"
     bordercolor="#666666"
     borderopacity="1.0"
     inkscape:pageopacity="0.0"
     inkscape:pageshadow="2"
     inkscape:zoom="0.7"
     inkscape:cx="-150.38189"
     inkscape:cy="250.85307"
     inkscape:document-units="mm"
     inkscape:current-layer="layer1"
     showgrid="false"
     inkscape:window-width="1848"
     inkscape:window-height="1016"
     inkscape:window-x="72"
     inkscape:window-y="27"
     inkscape:window-maximized="1"
     inkscape:object-nodes="false" />
  <metadata
     id="metadata3267">
    <rdf:RDF>
      <cc:Work
         rdf:about="">
        <dc:format>image/svg+xml</dc:format>
        <dc:type
           rdf:resource="http://purl.org/dc/dcmitype/StillImage" />
        <dc:title></dc:title>
      </cc:Work>
    </rdf:RDF>
  </metadata>
  <g
     inkscape:label="Layer 1"
     inkscape:groupmode="layer"
     id="layer1"
     transform="translate(0,-242)">
    <g
       id="g8270"
       transform="matrix(0.36269064,0,0,0.36269064,39.335635,269.75573)"
       style="fill:#34a853;fill-opacity:0.50196078" />
    <g
       id="g9903"
       transform="matrix(0.8355076,0,0,0.8355076,98.006713,49.312888)">
      <g
         transform="matrix(0.07959759,0,0,0.07959759,-47.054231,249.31825)"
         id="g12591">
        <g
           transform="matrix(-2.9547636,0,0,2.9547636,-2236.6157,3002.616)"
           id="g2271">
          <path
             inkscape:export-ydpi="150.2803"
             inkscape:export-xdpi="150.2803"
             style="fill:#4285f4;fill-opacity:1;stroke:#000000;stroke-width:1.16856182px;stroke-linecap:butt;stroke-linejoin:miter;stroke-opacity:1"
             d="m -840.97928,-882.93273 -27.71665,16.9063 46.37904,31.62594 25.63321,-19.83077 -44.2956,-28.95231 v -38.34956 l 44.2956,21.83751 v 45.46436"
             id="path3806"
             inkscape:connector-curvature="0"
             sodipodi:nodetypes="cccccccc" />
          <path
             inkscape:export-ydpi="150.2803"
             inkscape:export-xdpi="150.2803"
             style="fill:#aac8fa;fill-opacity:1;stroke:#000000;stroke-width:0.99328619px;stroke-linecap:butt;stroke-linejoin:miter;stroke-opacity:1"
             d="m -799.85457,-897.5302 -38.37891,-19.06403 v 31.35531 l 37.87726,23.83008 z"
             id="path3831"
             inkscape:connector-curvature="0" />
          <path
             inkscape:export-ydpi="150.2803"
             inkscape:export-xdpi="150.2803"
             style="fill:none;stroke:#000000;stroke-width:0.99328619px;stroke-linecap:butt;stroke-linejoin:miter;stroke-opacity:1"
             d="m -840.99277,-878.96785 37.37558,25.33511"
             id="path3833"
             inkscape:connector-curvature="0" />
          <path
             inkscape:export-ydpi="150.2803"
             inkscape:export-xdpi="150.2803"
             inkscape:connector-curvature="0"
             id="path3835"
             d="m -843.50118,-877.46279 37.37554,25.33511"
             style="fill:none;stroke:#000000;stroke-width:0.99328619px;stroke-linecap:butt;stroke-linejoin:miter;stroke-opacity:1" />
          <path
             inkscape:export-ydpi="150.2803"
             inkscape:export-xdpi="150.2803"
             style="fill:none;stroke:#000000;stroke-width:0.99328619px;stroke-linecap:butt;stroke-linejoin:miter;stroke-opacity:1"
             d="m -846.26045,-875.70689 37.37554,25.33512"
             id="path3837"
             inkscape:connector-curvature="0" />
          <path
             inkscape:export-ydpi="150.2803"
             inkscape:export-xdpi="150.2803"
             inkscape:connector-curvature="0"
             id="path3839"
             d="m -848.76886,-873.70015 37.37555,25.33512"
             style="fill:none;stroke:#000000;stroke-width:0.99328619px;stroke-linecap:butt;stroke-linejoin:miter;stroke-opacity:1" />
          <path
             inkscape:export-ydpi="150.2803"
             inkscape:export-xdpi="150.2803"
             inkscape:connector-curvature="0"
             id="path3841"
             d="m -854.03657,-870.43919 37.37556,25.33512"
             style="fill:none;stroke:#000000;stroke-width:0.99328619px;stroke-linecap:butt;stroke-linejoin:miter;stroke-opacity:1" />
          <path
             inkscape:export-ydpi="150.2803"
             inkscape:export-xdpi="150.2803"
             style="fill:none;stroke:#000000;stroke-width:0.99328619px;stroke-linecap:butt;stroke-linejoin:miter;stroke-opacity:1"
             d="m -851.27731,-871.94424 37.37555,25.3351"
             id="path3843"
             inkscape:connector-curvature="0" />
          <path
             inkscape:export-ydpi="150.2803"
             inkscape:export-xdpi="150.2803"
             style="fill:none;stroke:#000000;stroke-width:0.99328619px;stroke-linecap:butt;stroke-linejoin:miter;stroke-opacity:1"
             d="m -856.54501,-868.18161 37.37555,25.33509"
             id="path3845"
             inkscape:connector-curvature="0" />
          <path
             inkscape:export-ydpi="150.2803"
             inkscape:export-xdpi="150.2803"
             style="fill:#4d4d4d;stroke:#000000;stroke-width:0.99328619px;stroke-linecap:butt;stroke-linejoin:miter;stroke-opacity:1"
             d="m -834.72168,-850.37177 -10.84895,-7.02361 -3.69994,2.00674 11.28791,7.27444 z"
             id="path3849"
             inkscape:connector-curvature="0"
             sodipodi:nodetypes="ccccc" />
        </g>
      </g>
      <path
         sodipodi:nodetypes="ccczcc"
         inkscape:connector-curvature="0"
         id="path13446"
         d="m -15.492895,274.88019 c 2.7024,-3.89131 5.5753071,-3.66541 8.5992989,0 l 0.378597,-0.0376 c 0,0 -1.83848,-3.218 -4.7968339,-3.18642 -2.958354,0.0316 -4.559657,3.18642 -4.559657,3.18642 z"
         style="fill:#b3b3b3;stroke:#000000;stroke-width:0.15042064;stroke-linecap:butt;stroke-linejoin:miter;stroke-opacity:1" />
      <path
         inkscape:connector-curvature="0"
         id="path13444"
         d="m -16.558305,278.67154 0.502536,1.78903 0.42213,-0.14071 -0.482434,-1.64832 z"
         style="fill:#b3b3b3;stroke:#000000;stroke-width:0.07959758px;stroke-linecap:butt;stroke-linejoin:miter;stroke-opacity:1" />
      <path
         inkscape:connector-curvature="0"
         id="path3083"
         d="m -11.201602,281.97146 c -1.464069,0 -2.839616,0.45332 -4.036903,1.25039 -1.009832,0.46901 -8.883755,4.89377 -8.883755,4.89377 l -5.99373,-1.63817 1.632735,2.71938 4.475096,2.2171 c 0,0 4.780518,-2.61991 4.711699,-1.97359 -0.196358,0.86432 -0.30122,1.77471 -0.30122,2.71484 0,0.90245 0.09649,1.77503 0.278403,2.60821 h 16.2353489 c 0.18191,-0.83318 0.293055,-1.70576 0.293055,-2.60821 0,-5.62419 -3.767501,-10.18372 -8.4107289,-10.18372 z"
         style="fill:#4285f4;fill-opacity:1;stroke:#000000;stroke-width:0.30084124;stroke-miterlimit:4;stroke-dasharray:none;stroke-dashoffset:0;stroke-opacity:1"
         inkscape:export-filename="/home/krother/Desktop/lehre/Teaching/pictures/teaching.png"
         inkscape:export-xdpi="149.99072"
         inkscape:export-ydpi="149.99072"
         sodipodi:nodetypes="sccccccsccss" />
      <circle
         id="path3085"
         style="fill:#4285f4;fill-opacity:1;stroke:#000000;stroke-width:0.30084124;stroke-miterlimit:4;stroke-dasharray:none;stroke-dashoffset:0;stroke-opacity:1"
         inkscape:export-filename="/home/krother/Desktop/lehre/Teaching/pictures/teaching.png"
         inkscape:export-xdpi="149.99072"
         inkscape:export-ydpi="149.99072"
         cx="-11.196115"
         cy="277.16931"
         r="4.6181006" />
      <path
         inkscape:connector-curvature="0"
         id="path13435"
         d="m -15.87149,274.84256 a 1.937251,1.937251 0 0 0 -1.937181,1.93719 1.937251,1.937251 0 0 0 1.937181,1.9373 1.937251,1.937251 0 0 0 0.378595,-0.0393 v -3.79753 a 1.937251,1.937251 0 0 0 -0.378595,-0.0376 z"
         style="opacity:1;fill:#b3b3b3;fill-opacity:1;stroke:#000000;stroke-width:0.15042064;stroke-linecap:round;stroke-linejoin:miter;stroke-miterlimit:4;stroke-dasharray:none;stroke-dashoffset:0;stroke-opacity:1" />
      <circle
         r="0.51169878"
         cy="280.67035"
         cx="-15.62649"
         id="path13440"
         style="opacity:1;fill:#b3b3b3;fill-opacity:1;stroke:#000000;stroke-width:0.15042064;stroke-linecap:round;stroke-linejoin:miter;stroke-miterlimit:4;stroke-dasharray:none;stroke-dashoffset:0;stroke-opacity:1" />
      <path
         style="opacity:1;fill:#b3b3b3;fill-opacity:1;stroke:#000000;stroke-width:0.15042064;stroke-linecap:round;stroke-linejoin:miter;stroke-miterlimit:4;stroke-dasharray:none;stroke-dashoffset:0;stroke-opacity:1"
         d="m -6.5149991,274.84256 a 1.937251,1.937251 0 0 1 1.93718,1.93719 1.937251,1.937251 0 0 1 -1.93718,1.9373 1.937251,1.937251 0 0 1 -0.378597,-0.0393 v -3.79753 a 1.937251,1.937251 0 0 1 0.378597,-0.0376 z"
         id="path13442"
         inkscape:connector-curvature="0" />
    </g>
    <path
       sodipodi:nodetypes="csssscccsccsc"
       inkscape:connector-curvature="0"
       id="path9856"
       d="m 58.826699,251.02773 h 38.359288 c 1.526488,0 2.755394,1.22891 2.755394,2.7554 v 14.77384 c 0,1.52649 -1.228906,2.75539 -2.755394,2.75539 H 81.011692 v 6.81537 l -6.59404,-6.81537 H 58.826699 c -1.52649,0 -2.755395,-1.2289 -2.755395,-2.75539 v -14.77379 c 0,-1.52649 1.228905,-2.7554 2.755395,-2.7554 z"
       style="fill:#4285f4;fill-opacity:0.50196078;stroke:#000000;stroke-width:0.5;stroke-linecap:round;stroke-linejoin:round;stroke-miterlimit:4;stroke-dasharray:none;stroke-dashoffset:0;stroke-opacity:1" />
    <flowRoot
       transform="matrix(0.26458333,0,0,0.26458333,18.577481,-16.071333)"
       style="font-style:normal;font-weight:normal;font-size:40px;line-height:1.25;font-family:sans-serif;letter-spacing:0px;word-spacing:0px;fill:#000000;fill-opacity:1;stroke:none"
       id="flowRoot9864"
       xml:space="preserve"><flowRegion
         id="flowRegion9860"><rect
           y="993.23395"
           x="150.71428"
           height="66.151207"
           width="390.72748"
           id="rect9858" /></flowRegion><flowPara
         style="font-size:16px"
         id="flowPara9862">my students</flowPara></flowRoot>    <flowRoot
       xml:space="preserve"
       id="flowRoot9872"
       style="font-style:normal;font-weight:normal;font-size:40px;line-height:1.25;font-family:sans-serif;letter-spacing:0px;word-spacing:0px;fill:#000000;fill-opacity:1;stroke:none"
       transform="matrix(0.26458333,0,0,0.26458333,18.577481,-10.28068)"><flowRegion
         id="flowRegion9868"><rect
           id="rect9866"
           width="390.72748"
           height="66.151207"
           x="150.71428"
           y="993.23395" /></flowRegion><flowPara
         id="flowPara9870"
         style="font-size:16px">should learn to</flowPara></flowRoot>    <flowRoot
       transform="matrix(0.26458333,0,0,0.26458333,18.577481,-4.490031)"
       style="font-style:normal;font-weight:normal;font-size:40px;line-height:1.25;font-family:sans-serif;letter-spacing:0px;word-spacing:0px;fill:#000000;fill-opacity:1;stroke:none"
       id="flowRoot9880"
       xml:space="preserve"><flowRegion
         id="flowRegion9876"><rect
           y="993.23395"
           x="150.71428"
           height="66.151207"
           width="390.72748"
           id="rect9874" /></flowRegion><flowPara
         style="font-size:16px"
         id="flowPara9878">write this code</flowPara></flowRoot>    <rect
       ry="0.73416227"
       y="282.9566"
       x="9.4147291"
       height="8.1051331"
       width="34.068233"
       id="rect7832"
       style="fill:#fbbc05;fill-opacity:0.50196078;stroke:#000000;stroke-width:0.47976667;stroke-linecap:round;stroke-linejoin:round;stroke-miterlimit:4.4000001;stroke-dasharray:none;stroke-dashoffset:0;stroke-opacity:1" />
    <flowRoot
       xml:space="preserve"
       id="flowRoot7840"
       style="font-style:normal;font-weight:normal;font-size:40px;line-height:1.25;font-family:sans-serif;letter-spacing:0px;word-spacing:0px;fill:#000000;fill-opacity:1;stroke:none"
       transform="matrix(0.26458333,0,0,0.26458333,-27.568528,16.393139)"><flowRegion
         id="flowRegion7836"><rect
           id="rect7834"
           width="390.72748"
           height="66.151207"
           x="150.71428"
           y="993.23395" /></flowRegion><flowPara
         id="flowPara7838"
         style="font-size:16px">1 4 9 16 25 ..</flowPara></flowRoot>    <path
       sodipodi:nodetypes="sccssssss"
       inkscape:connector-curvature="0"
       id="rect889"
       d="m 10.157175,251.02773 h 30.492189 l 2.84664,2.96475 v 15.53812 c 0,0.40571 -0.32662,0.73233 -0.73233,0.73233 H 10.204422 c -0.4057099,0 -0.7559525,-0.32662 -0.7559525,-0.73233 v -17.77054 c 0,-0.40571 0.3029955,-0.73233 0.7087055,-0.73233 z"
       style="fill:#fbbc05;fill-opacity:0.50196078;stroke:#000000;stroke-width:0.5;stroke-linecap:round;stroke-linejoin:round;stroke-miterlimit:4.4000001;stroke-dasharray:none;stroke-dashoffset:0;stroke-opacity:1" />
    <flowRoot
       transform="matrix(0.26458333,0,0,0.26458333,-25.03883,-10.766525)"
       style="font-style:normal;font-weight:normal;font-size:40px;line-height:1.25;font-family:sans-serif;letter-spacing:0px;word-spacing:0px;fill:#000000;fill-opacity:1;stroke:none"
       id="flowRoot897"
       xml:space="preserve"><flowRegion
         id="flowRegion893"><rect
           y="993.23395"
           x="150.71428"
           height="66.151207"
           width="390.72748"
           id="rect891" /></flowRegion><flowPara
         style="font-size:16px"
         id="flowPara895">squares.py</flowPara></flowRoot>    <path
       sodipodi:nodetypes="cccc"
       inkscape:connector-curvature="0"
       id="path899"
       d="m 40.457397,251.10456 2.88432,2.88433 h -2.88432 z"
       style="fill:none;stroke:#000000;stroke-width:0.5;stroke-linecap:butt;stroke-linejoin:round;stroke-miterlimit:4;stroke-dasharray:none;stroke-opacity:1" />
    <path
       style="fill:#4285f4;fill-opacity:0.50196078;stroke:#000000;stroke-width:0.5;stroke-linecap:round;stroke-linejoin:round;stroke-miterlimit:4;stroke-dasharray:none;stroke-dashoffset:0;stroke-opacity:1"
       d="m 61.808098,272.88362 h -11.73523 c -1.52649,0 -2.75539,1.22891 -2.75539,2.7554 v 4.49912 c 0,1.52649 1.2289,2.75539 2.75539,2.75539 h 11.73523 c 1.52649,0 2.75539,-1.2289 2.75539,-2.75539 v -0.33132 l 3.54353,-2.02332 -3.54353,-1.74814 v -0.39629 c 0,-1.52649 -1.2289,-2.7554 -2.75539,-2.7554 z"
       id="path23173"
       inkscape:connector-curvature="0"
       sodipodi:nodetypes="csssssscccssc" />
    <g
       id="g23169"
       transform="translate(8.2285676,11.089507)">
      <flowRoot
         transform="matrix(0.26458333,0,0,0.26458333,2.3623512,-3.7797619)"
         style="font-style:normal;font-weight:normal;font-size:40px;line-height:1.25;font-family:sans-serif;letter-spacing:0px;word-spacing:0px;fill:#000000;fill-opacity:1;stroke:none"
         id="flowRoot23159"
         xml:space="preserve"><flowRegion
           id="flowRegion23155"><rect
             y="993.23395"
             x="150.71428"
             height="66.151207"
             width="390.72748"
             id="rect23153" /></flowRegion><flowPara
           style="font-weight:normal;font-size:16px"
           id="flowPara23157">but ..</flowPara></flowRoot>    </g>
    <rect
       style="fill:none;fill-opacity:0.50196078;stroke:#000000;stroke-width:0.5;stroke-linecap:round;stroke-linejoin:round;stroke-miterlimit:4.4000001;stroke-dasharray:none;stroke-dashoffset:0;stroke-opacity:1"
       id="rect7986"
       width="106.75601"
       height="51.782761"
       x="2.783402"
       y="243.9402"
       ry="0.73232961" />
    <path
       style="fill:#808080;fill-opacity:1;stroke:#808080;stroke-width:0.33519521;stroke-linecap:round;stroke-linejoin:round;stroke-miterlimit:4;stroke-dasharray:none;stroke-dashoffset:0;stroke-opacity:1"
       d="m 25.574481,272.10307 c -0.157049,0 -0.283704,0.12614 -0.283704,0.28319 v 4.84053 c -0.754922,0.005 -1.382098,0.0126 -1.390613,0.0274 -0.02549,0.0441 2.497708,4.4142 2.548682,4.4142 0.05097,0 2.574169,-4.37006 2.548681,-4.4142 -0.0085,-0.0147 -0.63569,-0.0225 -1.390613,-0.0274 v -4.84053 c 0,-0.15705 -0.126653,-0.28319 -0.283702,-0.28319 z"
       id="rect902"
       inkscape:connector-curvature="0" />
  </g>
</svg>
