<?xml version="1.0" encoding="UTF-8" standalone="no"?>
<!-- Created with Inkscape (http://www.inkscape.org/) -->

<svg
   xmlns:dc="http://purl.org/dc/elements/1.1/"
   xmlns:cc="http://creativecommons.org/ns#"
   xmlns:rdf="http://www.w3.org/1999/02/22-rdf-syntax-ns#"
   xmlns:svg="http://www.w3.org/2000/svg"
   xmlns="http://www.w3.org/2000/svg"
   xmlns:sodipodi="http://sodipodi.sourceforge.net/DTD/sodipodi-0.dtd"
   xmlns:inkscape="http://www.inkscape.org/namespaces/inkscape"
   width="120mm"
   height="70mm"
   viewBox="0 0 120 70"
   version="1.1"
   id="svg8093"
   inkscape:version="0.92.5 (2060ec1f9f, 2020-04-08)"
   sodipodi:docname="teacher_notime.svg"
   inkscape:export-filename="/home/kristian/projects/online_teaching_survival_guide/images/teacher_notime.png"
   inkscape:export-xdpi="125.94167"
   inkscape:export-ydpi="125.94167">
  <defs
     id="defs8087">
    <inkscape:path-effect
       effect="spiro"
       id="path-effect2398"
       is_visible="true" />
    <inkscape:path-effect
       effect="spiro"
       id="path-effect2394"
       is_visible="true" />
    <inkscape:path-effect
       effect="spiro"
       id="path-effect2390"
       is_visible="true" />
    <inkscape:path-effect
       effect="spiro"
       id="path-effect2386"
       is_visible="true" />
    <inkscape:path-effect
       effect="spiro"
       id="path-effect2382"
       is_visible="true" />
    <inkscape:path-effect
       effect="spiro"
       id="path-effect2378"
       is_visible="true" />
    <inkscape:path-effect
       effect="spiro"
       id="path-effect2374"
       is_visible="true" />
    <inkscape:path-effect
       effect="spiro"
       id="path-effect2370"
       is_visible="true" />
    <inkscape:path-effect
       effect="spiro"
       id="path-effect2366"
       is_visible="true" />
    <inkscape:path-effect
       effect="spiro"
       id="path-effect2362"
       is_visible="true" />
    <inkscape:path-effect
       effect="spiro"
       id="path-effect2358"
       is_visible="true" />
    <inkscape:path-effect
       effect="spiro"
       id="path-effect2354"
       is_visible="true" />
    <inkscape:path-effect
       effect="spiro"
       id="path-effect2350"
       is_visible="true" />
    <inkscape:path-effect
       effect="spiro"
       id="path-effect3263-3-6"
       is_visible="true" />
    <inkscape:path-effect
       is_visible="true"
       id="path-effect1322"
       effect="spiro" />
    <inkscape:path-effect
       effect="spiro"
       id="path-effect2398-3"
       is_visible="true" />
  </defs>
  <sodipodi:namedview
     id="base"
     pagecolor="#ffffff"
     bordercolor="#666666"
     borderopacity="1.0"
     inkscape:pageopacity="0.0"
     inkscape:pageshadow="2"
     inkscape:zoom="1.979899"
     inkscape:cx="222.61737"
     inkscape:cy="112.14555"
     inkscape:document-units="mm"
     inkscape:current-layer="layer1"
     showgrid="false"
     inkscape:window-width="1848"
     inkscape:window-height="1016"
     inkscape:window-x="72"
     inkscape:window-y="27"
     inkscape:window-maximized="1"
     inkscape:object-nodes="false" />
  <metadata
     id="metadata8090">
    <rdf:RDF>
      <cc:Work
         rdf:about="">
        <dc:format>image/svg+xml</dc:format>
        <dc:type
           rdf:resource="http://purl.org/dc/dcmitype/StillImage" />
        <dc:title></dc:title>
      </cc:Work>
    </rdf:RDF>
  </metadata>
  <g
     inkscape:label="Layer 1"
     inkscape:groupmode="layer"
     id="layer1"
     transform="translate(0,-227)">
    <rect
       style="fill:#ffffff;stroke:#000000;stroke-width:0.54258174"
       id="rect6752"
       width="113.66624"
       height="63.29245"
       x="3.9332495"
       y="230.45032"
       inkscape:export-filename="/home/krother/Desktop/mySpeakerBusiness/speaker_types.png"
       inkscape:export-xdpi="149.98193"
       inkscape:export-ydpi="149.98193"
       ry="0" />
    <path
       sodipodi:nodetypes="csssssscccssc"
       inkscape:connector-curvature="0"
       id="path23173"
       d="m 51.613924,271.89069 h 15.231509 c 1.52649,0 2.75539,1.22891 2.75539,2.7554 v 7.75917 c 0,1.52649 -1.2289,2.75539 -2.75539,2.75539 H 51.613924 c -1.526487,0 -2.755392,-1.2289 -2.755392,-2.75539 v -1.79598 l -4.819197,-5.14163 h 4.819197 v -0.82151 c 0,-1.52649 1.228905,-2.7554 2.755392,-2.7554 z"
       style="fill:#4285f4;fill-opacity:0.50196078;stroke:#000000;stroke-width:0.5;stroke-linecap:round;stroke-linejoin:round;stroke-miterlimit:4;stroke-dasharray:none;stroke-dashoffset:0;stroke-opacity:1" />
    <flowRoot
       style="font-style:normal;font-weight:normal;font-size:12.80000019px;line-height:0.01%;font-family:sans-serif;letter-spacing:0px;word-spacing:0px;fill:#000000;fill-opacity:1;stroke:none;stroke-width:1.06666672px;stroke-linecap:butt;stroke-linejoin:miter;stroke-opacity:1"
       id="flowRoot6746"
       xml:space="preserve"
       transform="matrix(0.21709197,0,0,0.21709197,-48.798686,186.13798)"><flowRegion
         style="font-family:sans-serif;stroke-width:1.06666672px"
         id="flowRegion6742"><rect
           style="font-size:17.06666756px;font-family:sans-serif;stroke-width:1.13777781px"
           y="374.19867"
           x="386.82111"
           height="65.727257"
           width="61.417274"
           id="rect6740" /></flowRegion><flowPara
         style="font-size:17.06666756px;line-height:1.25;font-family:sans-serif;stroke-width:1.06666672px"
         id="flowPara6744"> </flowPara></flowRoot>    <rect
       inkscape:export-ydpi="149.98193"
       inkscape:export-xdpi="149.98193"
       inkscape:export-filename="/home/krother/Desktop/mySpeakerBusiness/speaker_types.png"
       y="235.65663"
       x="5.8555555"
       height="39.356899"
       width="39.032547"
       id="rect6748"
       style="fill:none;fill-opacity:1;stroke:none;stroke-width:0.23156478" />
    <g
       id="g9709"
       transform="matrix(1.9674013,0,0,1.9674013,-58.681484,173.46813)">
      <g
         transform="matrix(0.8355076,0,0,0.8355076,53.423603,-185.29327)"
         id="g9903">
        <path
           style="fill:#b3b3b3;stroke:#000000;stroke-width:0.15042064;stroke-linecap:butt;stroke-linejoin:miter;stroke-opacity:1"
           d="m -15.492895,274.88019 c 2.7024,-3.89131 5.5753071,-3.66541 8.5992989,0 l 0.378597,-0.0376 c 0,0 -1.83848,-3.218 -4.7968339,-3.18642 -2.958354,0.0316 -4.559657,3.18642 -4.559657,3.18642 z"
           id="path13446"
           inkscape:connector-curvature="0"
           sodipodi:nodetypes="ccczcc" />
        <path
           style="fill:#b3b3b3;stroke:#000000;stroke-width:0.07959758px;stroke-linecap:butt;stroke-linejoin:miter;stroke-opacity:1"
           d="m -16.558305,278.67154 0.502536,1.78903 0.42213,-0.14071 -0.482434,-1.64832 z"
           id="path13444"
           inkscape:connector-curvature="0" />
        <circle
           r="4.6181006"
           cy="277.16931"
           cx="-11.196115"
           inkscape:export-ydpi="149.99072"
           inkscape:export-xdpi="149.99072"
           inkscape:export-filename="/home/krother/Desktop/lehre/Teaching/pictures/teaching.png"
           style="fill:#4285f4;fill-opacity:1;stroke:#000000;stroke-width:0.30084124;stroke-miterlimit:4;stroke-dasharray:none;stroke-dashoffset:0;stroke-opacity:1"
           id="path3085" />
        <path
           style="opacity:1;fill:#b3b3b3;fill-opacity:1;stroke:#000000;stroke-width:0.15042064;stroke-linecap:round;stroke-linejoin:miter;stroke-miterlimit:4;stroke-dasharray:none;stroke-dashoffset:0;stroke-opacity:1"
           d="m -15.87149,274.84256 a 1.937251,1.937251 0 0 0 -1.937181,1.93719 1.937251,1.937251 0 0 0 1.937181,1.9373 1.937251,1.937251 0 0 0 0.378595,-0.0393 v -3.79753 a 1.937251,1.937251 0 0 0 -0.378595,-0.0376 z"
           id="path13435"
           inkscape:connector-curvature="0" />
        <circle
           style="opacity:1;fill:#b3b3b3;fill-opacity:1;stroke:#000000;stroke-width:0.15042064;stroke-linecap:round;stroke-linejoin:miter;stroke-miterlimit:4;stroke-dasharray:none;stroke-dashoffset:0;stroke-opacity:1"
           id="path13440"
           cx="-15.62649"
           cy="280.67035"
           r="0.51169878" />
        <path
           inkscape:connector-curvature="0"
           id="path13442"
           d="m -6.5149991,274.84256 a 1.937251,1.937251 0 0 1 1.93718,1.93719 1.937251,1.937251 0 0 1 -1.93718,1.9373 1.937251,1.937251 0 0 1 -0.378597,-0.0393 v -3.79753 a 1.937251,1.937251 0 0 1 0.378597,-0.0376 z"
           style="opacity:1;fill:#b3b3b3;fill-opacity:1;stroke:#000000;stroke-width:0.15042064;stroke-linecap:round;stroke-linejoin:miter;stroke-miterlimit:4;stroke-dasharray:none;stroke-dashoffset:0;stroke-opacity:1" />
      </g>
      <path
         inkscape:export-ydpi="300"
         inkscape:export-xdpi="300"
         inkscape:export-filename="C:\Documents and Settings\Kristian\Pulpit\audience.png"
         style="fill:#4285f4;fill-opacity:1;stroke:#000000;stroke-width:0.28250149;stroke-miterlimit:4;stroke-dasharray:none;stroke-dashoffset:0;stroke-opacity:1"
         d="m 43.979576,50.350538 c -3.868775,0 -6.995676,3.799052 -6.995676,8.485178 0,0.751901 0.0804,1.478964 0.231968,2.173169 h 13.527413 c 0.15157,-0.694205 0.244178,-1.421268 0.244178,-2.173169 0,-4.686126 -3.139109,-8.485178 -7.007883,-8.485178 z"
         id="path1109-2"
         inkscape:connector-curvature="0" />
    </g>
    <g
       id="g23185"
       transform="translate(3.4017858,8.9613969)">
      <path
         style="fill:#4285f4;fill-opacity:0.50196078;stroke:#000000;stroke-width:0.5;stroke-linecap:round;stroke-linejoin:round;stroke-miterlimit:4;stroke-dasharray:none;stroke-dashoffset:0;stroke-opacity:1"
         d="m 49.147581,240.99032 h 53.974069 c 1.52649,0 2.75539,1.22891 2.75539,2.7554 v 12.77047 c 0,1.52649 -1.2289,2.75539 -2.75539,2.75539 H 49.147581 c -1.526487,0 -2.755392,-1.2289 -2.755392,-2.75539 v -3.81339 h -4.819197 l 4.819197,-7.27121 v -1.68582 c 0,-1.52649 1.228905,-2.7554 2.755392,-2.7554 z"
         id="path23129"
         inkscape:connector-curvature="0"
         sodipodi:nodetypes="csssssscccssc" />
      <g
         id="g23147"
         transform="translate(8.7679628,-20.129567)">
        <flowRoot
           transform="matrix(0.26458333,0,0,0.26458333,2.3623512,-3.7797619)"
           style="font-style:normal;font-weight:normal;font-size:40px;line-height:1.25;font-family:sans-serif;letter-spacing:0px;word-spacing:0px;fill:#000000;fill-opacity:1;stroke:none"
           id="flowRoot23137"
           xml:space="preserve"><flowRegion
             id="flowRegion23133"><rect
               y="993.23395"
               x="150.71428"
               height="66.151207"
               width="390.72748"
               id="rect23131" /></flowRegion><flowPara
             style="font-size:16px"
             id="flowPara23135">I really don't have time</flowPara></flowRoot>        <flowRoot
           xml:space="preserve"
           id="flowRoot23145"
           style="font-style:normal;font-weight:normal;font-size:40px;line-height:1.25;font-family:sans-serif;letter-spacing:0px;word-spacing:0px;fill:#000000;fill-opacity:1;stroke:none"
           transform="matrix(0.26458333,0,0,0.26458333,2.3623512,2.0552456)"><flowRegion
             id="flowRegion23141"><rect
               id="rect23139"
               width="390.72748"
               height="66.151207"
               x="150.71428"
               y="993.23395" /></flowRegion><flowPara
             id="flowPara23143"
             style="font-size:16px">for all of that</flowPara></flowRoot>      </g>
    </g>
    <g
       transform="translate(8.8288799,10.893582)"
       id="g23169">
      <flowRoot
         xml:space="preserve"
         id="flowRoot23159"
         style="font-style:normal;font-weight:normal;font-size:40px;line-height:1.25;font-family:sans-serif;letter-spacing:0px;word-spacing:0px;fill:#000000;fill-opacity:1;stroke:none"
         transform="matrix(0.26458333,0,0,0.26458333,4.7677769,-3.7797619)"><flowRegion
           id="flowRegion23155"><rect
             id="rect23153"
             width="390.72748"
             height="66.151207"
             x="150.71428"
             y="993.23395" /></flowRegion><flowPara
           id="flowPara23157"
           style="font-weight:normal;font-size:16px">sorry</flowPara></flowRoot>    </g>
    <path
       style="fill:none;stroke:#000000;stroke-width:1.44827032;stroke-linecap:butt;stroke-linejoin:miter;stroke-opacity:1"
       d="m -25.985863,265.43899 c 2.012271,0.23252 4.106936,-0.3497 5.710577,-1.5873 1.603641,-1.23759 2.697773,-3.11628 2.982875,-5.12178 0.243467,-1.71262 -0.09458,-3.49386 -0.896483,-5.0266 -0.801905,-1.53274 -2.057507,-2.81549 -3.542876,-3.70207 -1.48537,-0.88658 -3.194418,-1.38087 -4.921141,-1.48467 -1.726722,-0.1038 -3.469444,0.17818 -5.097089,0.76394 -0.510598,0.18376 -1.014064,0.39901 -1.463726,0.70278 -0.449662,0.30378 -0.845614,0.70139 -1.087614,1.1871 -0.202665,0.40676 -0.291863,0.88026 -0.188986,1.32291 0.09728,0.41858 0.361972,0.78824 0.700992,1.05232 0.339021,0.26408 0.748797,0.42755 1.169381,0.51576 0.841169,0.17644 1.711672,0.061 2.570846,0.0383 0.787297,-0.0208 1.575658,0.0372 2.362351,0 2.345625,-0.11084 4.616878,-1.08533 6.417235,-2.59296 1.800356,-1.50763 3.139684,-3.52866 3.97711,-5.72251 0.34123,-0.89394 0.601847,-1.81634 0.850447,-2.74033 0.265895,-0.98827 0.519655,-2.02802 0.283482,-3.02381 -0.165523,-0.69791 -0.567478,-1.32716 -1.083465,-1.82539 -0.515986,-0.49823 -1.14265,-0.87127 -1.800461,-1.1572 -1.315624,-0.57186 -2.751902,-0.80362 -4.108633,-1.26964 -1.232662,-0.4234 -2.394918,-1.03861 -3.64001,-1.42393 -0.622546,-0.19267 -1.266767,-0.32719 -1.918214,-0.34445 -0.651447,-0.0173 -1.311591,0.0856 -1.906807,0.35097 -0.640837,0.28566 -1.193529,0.75562 -1.606397,1.32291 -0.391532,0.53797 -0.658431,1.15833 -0.850447,1.79539 -0.109757,0.36414 -0.1966,0.74038 -0.186814,1.12058 0.0098,0.3802 0.123945,0.7678 0.375803,1.05278 0.154277,0.17457 0.354946,0.305 0.571123,0.39185 0.216177,0.0868 0.447775,0.13126 0.680097,0.14865 0.464643,0.0348 0.929717,-0.0368 1.394613,-0.068 1.79495,-0.12045 3.607019,0.36098 5.38616,0.0945 0.780416,-0.11689 1.532455,-0.37529 2.267857,-0.66146 1.587435,-0.61773 3.133866,-1.37879 4.474738,-2.42932 1.340872,-1.05052 2.472854,-2.4066 3.084786,-3.99628 0.164973,-0.42857 0.291633,-0.87188 0.377976,-1.32291"
       id="path2396-0"
       inkscape:connector-curvature="0"
       inkscape:path-effect="#path-effect2398-3"
       inkscape:original-d="m -25.985863,265.43899 c 3.215761,-1.42022 8.693452,-2.36145 8.693452,-6.70908 0,-6.90996 -9.003141,-8.54033 -14.457589,-9.4494 -1.941724,-0.32363 -2.1542,0.30133 -2.55134,1.88988 -0.09402,0.37609 -0.329498,0.90138 -0.188986,1.32291 0.49344,1.48033 2.856328,1.6064 4.441219,1.6064 0.754345,0 1.620491,0.12365 2.362351,0 4.14783,-0.6913 8.535727,-4.59824 10.394345,-8.31547 0.441881,-0.88377 0.585309,-1.81235 0.850447,-2.74033 0.223161,-0.78107 0.566137,-2.17585 0.283482,-3.02381 -0.994012,-2.98204 -4.220542,-3.58695 -6.992559,-4.25223 -0.321479,-0.0772 -7.194349,-1.68809 -7.465031,-1.41741 -0.362585,0.36258 -1.241348,0.95786 -1.606397,1.32291 -0.482986,0.48299 -0.688623,1.14809 -0.850447,1.79539 -0.256072,1.02429 -0.956435,1.82974 0.188989,2.17336 0.8729,0.26187 1.713278,0.47247 2.645833,0.47247 1.624555,0 3.797685,0.62399 5.38616,0.0945 0.697368,-0.23246 1.562648,-0.35923 2.267857,-0.66146 2.734465,-1.17191 5.739186,-3.99848 7.559524,-6.4256 0.291453,-0.3886 0.177295,-0.92155 0.377976,-1.32291"
       transform="matrix(0.77456115,0,0,0.34623227,48.905409,160.11375)" />
  </g>
</svg>
