<?xml version="1.0" encoding="UTF-8" standalone="no"?>
<!-- Created with Inkscape (http://www.inkscape.org/) -->

<svg
   xmlns:dc="http://purl.org/dc/elements/1.1/"
   xmlns:cc="http://creativecommons.org/ns#"
   xmlns:rdf="http://www.w3.org/1999/02/22-rdf-syntax-ns#"
   xmlns:svg="http://www.w3.org/2000/svg"
   xmlns="http://www.w3.org/2000/svg"
   xmlns:sodipodi="http://sodipodi.sourceforge.net/DTD/sodipodi-0.dtd"
   xmlns:inkscape="http://www.inkscape.org/namespaces/inkscape"
   width="210mm"
   height="110mm"
   viewBox="0 0 210 110"
   version="1.1"
   id="svg32622"
   inkscape:version="0.92.5 (2060ec1f9f, 2020-04-08)"
   sodipodi:docname="priming.svg"
   inkscape:export-filename="/home/kristian/projects/online_teaching_survival_guide/images/priming.png"
   inkscape:export-xdpi="145.14"
   inkscape:export-ydpi="145.14">
  <defs
     id="defs32616">
    <clipPath
       clipPathUnits="userSpaceOnUse"
       id="clipPath916">
      <rect
         ry="0"
         inkscape:export-ydpi="149.98193"
         inkscape:export-xdpi="149.98193"
         inkscape:export-filename="/home/krother/Desktop/mySpeakerBusiness/speaker_types.png"
         y="210.41757"
         x="3.1772971"
         height="84.081139"
         width="124.62755"
         id="rect918"
         style="fill:#ffffff;stroke:#000000;stroke-width:0.54258174" />
    </clipPath>
    <clipPath
       clipPathUnits="userSpaceOnUse"
       id="clipPath3808-3">
      <rect
         style="fill:#ff0000;fill-opacity:1;stroke:none"
         id="rect3810-6"
         width="256.57864"
         height="393.73474"
         x="1139.4521"
         y="635.65894" />
    </clipPath>
    <clipPath
       clipPathUnits="userSpaceOnUse"
       id="clipPath36667">
      <rect
         style="fill:#ff0000;fill-opacity:1;stroke:none"
         id="rect36665"
         width="256.57864"
         height="393.73474"
         x="1139.4521"
         y="635.65894" />
    </clipPath>
    <clipPath
       clipPathUnits="userSpaceOnUse"
       id="clipPath36671">
      <rect
         style="fill:#ff0000;fill-opacity:1;stroke:none"
         id="rect36669"
         width="256.57864"
         height="393.73474"
         x="1139.4521"
         y="635.65894" />
    </clipPath>
    <clipPath
       clipPathUnits="userSpaceOnUse"
       id="clipPath36675">
      <rect
         style="fill:#ff0000;fill-opacity:1;stroke:none"
         id="rect36673"
         width="256.57864"
         height="393.73474"
         x="1139.4521"
         y="635.65894" />
    </clipPath>
    <clipPath
       clipPathUnits="userSpaceOnUse"
       id="clipPath36679">
      <rect
         style="fill:#ff0000;fill-opacity:1;stroke:none"
         id="rect36677"
         width="256.57864"
         height="393.73474"
         x="1139.4521"
         y="635.65894" />
    </clipPath>
    <clipPath
       clipPathUnits="userSpaceOnUse"
       id="clipPath36683">
      <rect
         style="fill:#ff0000;fill-opacity:1;stroke:none"
         id="rect36681"
         width="256.57864"
         height="393.73474"
         x="1139.4521"
         y="635.65894" />
    </clipPath>
  </defs>
  <sodipodi:namedview
     id="base"
     pagecolor="#cccccc"
     bordercolor="#666666"
     borderopacity="1.0"
     inkscape:pageopacity="1"
     inkscape:pageshadow="2"
     inkscape:zoom="0.7"
     inkscape:cx="27.633704"
     inkscape:cy="-94.263952"
     inkscape:document-units="mm"
     inkscape:current-layer="layer1"
     showgrid="false"
     inkscape:window-width="1848"
     inkscape:window-height="1016"
     inkscape:window-x="72"
     inkscape:window-y="27"
     inkscape:window-maximized="1" />
  <metadata
     id="metadata32619">
    <rdf:RDF>
      <cc:Work
         rdf:about="">
        <dc:format>image/svg+xml</dc:format>
        <dc:type
           rdf:resource="http://purl.org/dc/dcmitype/StillImage" />
        <dc:title></dc:title>
      </cc:Work>
    </rdf:RDF>
  </metadata>
  <g
     inkscape:label="Layer 1"
     inkscape:groupmode="layer"
     id="layer1"
     transform="translate(0,-187)">
    <rect
       y="234.09613"
       x="144.19792"
       height="38.55357"
       width="62.380985"
       id="rect36859"
       style="fill:#ffffff;fill-opacity:1;stroke:#000000;stroke-width:0.5;stroke-linecap:round;stroke-linejoin:round;stroke-miterlimit:4;stroke-dasharray:none;stroke-dashoffset:0;stroke-opacity:1" />
    <rect
       style="fill:#ffffff;fill-opacity:1;stroke:#000000;stroke-width:0.5;stroke-linecap:round;stroke-linejoin:round;stroke-miterlimit:4;stroke-dasharray:none;stroke-dashoffset:0;stroke-opacity:1"
       id="rect36857"
       width="62.380985"
       height="38.55357"
       x="74.461311"
       y="234.09613" />
    <rect
       y="234.09613"
       x="4.9136906"
       height="38.55357"
       width="62.380985"
       id="rect36855"
       style="fill:#ffffff;fill-opacity:1;stroke:#000000;stroke-width:0.5;stroke-linecap:round;stroke-linejoin:round;stroke-miterlimit:4;stroke-dasharray:none;stroke-dashoffset:0;stroke-opacity:1" />
    <rect
       style="fill:#fbbc05;fill-opacity:1;stroke:#000000;stroke-width:0.5;stroke-linecap:round;stroke-linejoin:round;stroke-miterlimit:4;stroke-dasharray:none;stroke-dashoffset:0;stroke-opacity:1"
       id="rect22468"
       width="210.07385"
       height="34.477768"
       x="-0.0054044002"
       y="187.06198" />
    <flowRoot
       xml:space="preserve"
       id="flowRoot21677"
       style="font-style:normal;font-weight:normal;font-size:40px;line-height:1.25;font-family:sans-serif;letter-spacing:0px;word-spacing:0px;fill:#000000;fill-opacity:1;stroke:none"
       transform="matrix(0.31247887,0,0,0.31247887,16.330244,-55.914681)"><flowRegion
         id="flowRegion21679"><rect
           id="rect21681"
           width="628.57141"
           height="95.714287"
           x="82.85714"
           y="808.23395" /></flowRegion><flowPara
         id="flowPara21683"
         style="font-weight:bold;fill:#000000">Priming Activities</flowPara></flowRoot>    <rect
       style="fill:#fbbc05;fill-opacity:0.50196078;stroke:none;stroke-width:0.48765242;stroke-linecap:round;stroke-linejoin:round;stroke-miterlimit:4;stroke-dasharray:none;stroke-dashoffset:0;stroke-opacity:1"
       id="rect33183"
       width="62.664467"
       height="11.055809"
       x="4.6302085"
       y="261.5939" />
    <rect
       style="fill:none;fill-opacity:1;stroke:#000000;stroke-width:0.5;stroke-linecap:round;stroke-linejoin:round;stroke-miterlimit:4;stroke-dasharray:none;stroke-dashoffset:0;stroke-opacity:1"
       id="rect33181"
       width="62.380985"
       height="38.55357"
       x="4.9136906"
       y="234.09613" />
    <g
       id="g36805"
       transform="translate(0,10.423512)">
      <path
         id="path33895"
         d="m 25.935428,240.69609 c -2.713803,2.48591 -2.71522,2.48591 -1.276273,5.55706 0.42258,0.90065 0.953528,1.76905 1.228368,2.71167 0.133983,0.45815 -0.20702,1.0555 -0.333886,1.59024 -0.492776,-0.22291 -1.246634,-0.31539 -1.438946,-0.6922 -1.178814,-2.31968 -2.375168,-4.6505 -3.286724,-7.08233 -0.873375,-2.33202 1.569371,-3.05647 2.630084,-4.39416 0.794647,-1.00166 1.808171,-0.34124 2.633883,0.29192 1.204654,0.9227 2.445355,1.80485 3.577455,2.81007 0.308038,0.27342 0.284565,0.92389 0.412614,1.40077 -0.465736,-0.0271 -1.032498,0.106 -1.378475,-0.11216 -0.954953,-0.60257 -1.817179,-1.35026 -2.7681,-2.08088 z"
         style="clip-rule:evenodd;fill-rule:evenodd;stroke-width:0.23713703"
         inkscape:connector-curvature="0" />
      <path
         id="path33897"
         d="m 13.628724,248.62453 c 0.03201,-2.43659 1.961123,-4.28341 4.422369,-4.23148 2.376351,0.0491 4.22792,1.93172 4.226728,4.29812 -8.97e-4,2.3825 -1.985785,4.35454 -4.367114,4.33865 -2.397218,-0.0147 -4.314234,-1.98697 -4.281983,-4.40529 z m 4.242619,3.04531 c 1.700032,0.0297 3.013062,-1.20845 3.058834,-2.885 0.04553,-1.70858 -1.319196,-3.13757 -2.995993,-3.13662 -1.597829,0.003 -2.999784,1.39341 -3.024446,2.99955 -0.02585,1.61774 1.320616,2.99267 2.961605,3.02207 z"
         style="clip-rule:evenodd;fill-rule:evenodd;stroke-width:0.23713703"
         inkscape:connector-curvature="0" />
      <path
         id="path33899"
         d="m 35.440822,248.70349 c -0.0063,2.4022 -1.972269,4.35242 -4.362368,4.32633 -2.410732,-0.0247 -4.285783,-1.97203 -4.254951,-4.41881 0.02967,-2.38631 1.876225,-4.2106 4.276058,-4.22175 2.441563,-0.0124 4.347428,1.88121 4.341261,4.31423 z m -4.267516,2.96635 c 1.670397,-0.0183 2.971328,-1.34386 2.952829,-3.00713 -0.01846,-1.64076 -1.377292,-3.00833 -2.994802,-3.01568 -1.649523,-0.006 -3.097011,1.47808 -3.045314,3.12547 0.05073,1.62984 1.420689,2.91583 3.087287,2.89734 z"
         style="clip-rule:evenodd;fill-rule:evenodd;stroke-width:0.23713703"
         inkscape:connector-curvature="0" />
      <path
         id="path33901"
         d="m 29.453828,235.4914 c 0.0054,1.1468 -0.935029,2.10294 -2.060013,2.09179 -1.120942,-0.01 -2.043648,-0.98317 -2.0178,-2.1276 0.02348,-1.09391 0.904207,-1.99076 1.983177,-2.01922 1.133516,-0.0294 2.090845,0.90919 2.094636,2.05503 z"
         style="clip-rule:evenodd;fill-rule:evenodd;stroke-width:0.23713703"
         inkscape:connector-curvature="0" />
      <path
         id="path33903"
         d="m 25.447394,246.69802 c -0.07134,-1.44273 -1.847769,-2.36781 -0.561538,-3.83758 2.466228,1.09533 2.567247,1.636 0.561538,3.83758 z"
         style="clip-rule:evenodd;fill-rule:evenodd;stroke-width:0.23713703"
         inkscape:connector-curvature="0" />
      <path
         id="path33905"
         d="m 19.989214,242.49549 c 0,0 -1.091305,-0.83947 -1.678931,-0.29382 0,0 -0.881438,1.38489 0.335786,1.55277 0,0 1.007359,0.378 2.182606,-0.0419 z"
         style="clip-rule:evenodd;fill-rule:evenodd;stroke-width:0.23713703"
         inkscape:connector-curvature="0" />
      <path
         id="path33907"
         d="m 25.632123,234.59929 c 0,0 0.0441,1.59451 -0.911547,1.79845 2.33e-4,0 -0.324646,-1.31255 0.911547,-1.79845 z"
         style="clip-rule:evenodd;fill-rule:evenodd;stroke-width:0.23713703"
         inkscape:connector-curvature="0" />
      <path
         id="path33909"
         d="m 23.460901,236.85375 c 0,0 -0.961353,0.34646 -0.733227,1.0657 0,2.4e-4 0.896374,-0.0833 0.733227,-1.0657 z"
         style="clip-rule:evenodd;fill-rule:evenodd;stroke-width:0.23713703"
         inkscape:connector-curvature="0" />
      <path
         id="path33911"
         d="m 24.506673,235.76814 c 0,0 -1.09107,1.02467 -0.794173,1.76477 0,2.5e-4 1.028941,-0.66066 0.794173,-1.76477 z"
         style="clip-rule:evenodd;fill-rule:evenodd;stroke-width:0.23713703"
         inkscape:connector-curvature="0" />
      <ellipse
         id="ellipse33913"
         ry="0.25776702"
         rx="0.2523129"
         cy="236.54848"
         cx="33.896019"
         transform="rotate(2.8028917)"
         style="clip-rule:evenodd;fill-rule:evenodd;stroke-width:0.23713619" />
      <path
         id="path33915"
         d="m 23.994699,250.47325 c 0,0 -0.711411,0.47428 -0.158173,0.94854 0,0 0.987909,0.79062 1.383216,0.86959 0,0 1.343619,0.6718 0.711411,-0.39531 0,0 -0.474268,-0.63244 -0.790372,-0.82998 2.33e-4,0 -0.908948,-0.11856 -1.146082,-0.59284 z"
         style="clip-rule:evenodd;fill-rule:evenodd;stroke-width:0.23713703"
         inkscape:connector-curvature="0" />
    </g>
    <rect
       style="fill:#999999;fill-opacity:1;stroke:#999999;stroke-width:0.31596345;stroke-linecap:round;stroke-linejoin:round;stroke-miterlimit:4;stroke-dasharray:none;stroke-dashoffset:0;stroke-opacity:1"
       id="rect34517"
       width="62.664467"
       height="4.6413403"
       x="143.91443"
       y="268.00839" />
    <rect
       style="fill:none;fill-opacity:1;stroke:#000000;stroke-width:0.5;stroke-linecap:round;stroke-linejoin:round;stroke-miterlimit:4;stroke-dasharray:none;stroke-dashoffset:0;stroke-opacity:1"
       id="rect34519"
       width="62.380985"
       height="38.55357"
       x="144.19792"
       y="234.09613" />
    <path
       inkscape:connector-curvature="0"
       class="fil0"
       d="m 188.4678,258.95059 c -0.55004,-9.4e-4 -0.60511,-0.0212 -1.53877,-0.11925 -0.16487,-0.0183 -0.31142,0.0183 -0.40302,0.0733 -0.16487,0.0916 -0.42134,0.31143 -0.0733,0.84268 0.34807,0.53126 0.69613,0.4763 1.09915,0.4763 l 0.40302,-0.055 h 0.12824 l 0.20151,0.3847 -1.00755,1.35562 c -0.67781,-0.42135 -1.48386,-0.65949 -2.32654,-0.65949 -2.47308,0 -4.46987,2.0151 -4.46987,4.46987 0,2.47309 1.99679,4.48819 4.46987,4.48819 1.9052,0 3.51728,-1.19074 4.17677,-2.85779 l 1.55713,0.42134 v 0.0366 c 0.0916,0.49462 0.53125,0.84268 1.00755,0.84268 0.0733,0 0.14655,-0.0183 0.21983,-0.0366 0.54958,-0.10992 0.91596,-0.64118 0.80604,-1.20907 l -0.0549,-0.23815 5.18432,-5.95372 -0.43966,-1.30066 h -6.74145 l 0.43966,0.87932 h 5.95372 l -4.61642,5.27591 -1.17487,0.53775 c -0.0183,-0.0916 -1.99061,-5.67711 -2.04557,-5.75039 l 1.88314,-0.0633 -0.43966,-0.87932 c 0,0 -1.57304,0.0593 -1.70056,0.0259 -0.0576,-0.0151 0.65547,-0.31449 0.66393,-0.35273 0.0247,-0.11176 0.54233,-0.36726 0.48017,-0.42274 -0.15811,-0.14114 -1.64188,-0.21197 -1.64188,-0.21197 z m 7.3958,-0.82366 c 0.007,0.23008 0.55475,0.4113 0.55475,0.4113 h 0.78773 l 0.97091,3.33409 c -1.3373,0.7694 -2.25325,2.21661 -2.25325,3.86534 0,2.47308 2.0151,4.48819 4.48819,4.48819 2.47308,0 4.48819,-2.01511 4.48819,-4.48819 0,-2.47309 -2.01511,-4.48819 -4.48819,-4.48819 -0.49462,0 -0.97092,0.0916 -1.4289,0.23814 l -1.02587,-3.51727 c -0.055,-0.18319 -0.21983,-0.31143 -0.42134,-0.31143 h -1.11747 c -0.13024,0.009 -0.56235,0.2262 -0.55475,0.46802 z m -10.91304,11.20128 v 0 c -1.97847,0 -3.60887,-1.61208 -3.60887,-3.60887 0,-1.97847 1.6304,-3.59056 3.60887,-3.59056 0.65949,0 1.26402,0.1832 1.79528,0.49462 l -2.14334,2.83947 c -0.0916,0.10992 -0.10992,0.27479 -0.0733,0.40302 0.055,0.14656 0.16488,0.23815 0.31143,0.27479 l 3.42568,0.97091 c -0.53126,1.30066 -1.8136,2.21662 -3.31577,2.21662 z m 3.55392,-3.07762 v 0 l -2.82115,-0.7694 1.75864,-2.34485 c 0.67781,0.65949 1.11747,1.57544 1.11747,2.583 0,0.18319 -0.0366,0.36638 -0.055,0.53125 z m 1.97847,0.5679 v 0 l -1.11747,-0.31143 c 0.0366,-0.25647 0.055,-0.51293 0.055,-0.78772 0,-1.30066 -0.54958,-2.47309 -1.44722,-3.29745 l 0.75109,-0.98923 0.90859,2.4838 z m 9.92898,2.52804 v 0 c -1.97847,0 -3.60888,-1.61208 -3.60888,-3.60887 0,-1.2457 0.6595,-2.36317 1.63041,-3.00434 l 0.49462,1.70368 c 0.60453,1.59376 1.28234,1.74032 1.48385,1.74032 v 0 c 0.23815,0 0.4763,-0.18319 0.4763,-0.42134 0,-0.23815 -0.14656,-0.43966 -0.40303,-0.43966 0,0 -0.34806,-0.12824 -0.73276,-1.15411 l -0.51294,-1.81359 c 0.36639,-0.12824 0.76941,-0.21984 1.17243,-0.21984 1.99679,0 3.60887,1.63041 3.60887,3.60888 0,1.99679 -1.61208,3.60887 -3.60887,3.60887 z"
       id="path34584"
       sodipodi:nodetypes="cccscccccssscccscccccccccccccssscacccssssccscaccssccccccccccsccccsccccccsccccscccssc"
       style="stroke-width:0.01831915;image-rendering:optimizeQuality;shape-rendering:geometricPrecision;text-rendering:geometricPrecision" />
    <g
       style="image-rendering:optimizeQuality;shape-rendering:geometricPrecision;text-rendering:geometricPrecision"
       id="g35172"
       transform="matrix(0.01065232,0,0,0.01065232,156.57962,243.73788)">
      <path
         transform="matrix(0,0.5387573,-0.5387573,0,2012.8975,166.45684)"
         inkscape:transform-center-y="1.4038614e-06"
         inkscape:transform-center-x="-1.8218722"
         d="m 2113.5409,955.63596 c -7.4364,12.8802 -1479.84166,12.8802 -1487.27805,-10e-6 -7.43639,-12.8802 728.76625,-1288.02053 743.63905,-1288.02053 14.8727,0 751.0753,1275.14033 743.639,1288.02054 z"
         inkscape:randomized="0"
         inkscape:rounded="0.01"
         inkscape:flatsided="true"
         sodipodi:arg2="1.5707963"
         sodipodi:arg1="0.52359878"
         sodipodi:r2="429.34018"
         sodipodi:r1="858.68036"
         sodipodi:cy="526.29578"
         sodipodi:cx="1369.9019"
         sodipodi:sides="3"
         id="path35166"
         style="fill:#000000;fill-opacity:1;stroke:none;stroke-width:31.02659035;stroke-linecap:round;stroke-linejoin:round;stroke-miterlimit:4;stroke-dasharray:none;stroke-dashoffset:0;stroke-opacity:1"
         sodipodi:type="star" />
      <circle
         r="442.70602"
         cy="904.50146"
         cx="1765.6993"
         id="path35168"
         style="fill:none;fill-opacity:1;stroke:#000000;stroke-width:93.07976532;stroke-linecap:round;stroke-linejoin:round;stroke-miterlimit:4;stroke-dasharray:none;stroke-dashoffset:0;stroke-opacity:1" />
    </g>
    <g
       id="g35192"
       transform="translate(1.7481399,10.423512)">
      <path
         inkscape:connector-curvature="0"
         id="path35183"
         d="m 174.71949,250.60342 h 3.82701"
         style="fill:none;stroke:#000000;stroke-width:0.5;stroke-linecap:round;stroke-linejoin:miter;stroke-opacity:1" />
      <path
         style="fill:none;stroke:#000000;stroke-width:0.5;stroke-linecap:round;stroke-linejoin:miter;stroke-opacity:1"
         d="m 173.53832,252.37518 h 3.82701"
         id="path35185"
         inkscape:connector-curvature="0" />
      <path
         inkscape:connector-curvature="0"
         id="path35187"
         d="m 172.35714,254.14694 h 3.82701"
         style="fill:none;stroke:#000000;stroke-width:0.5;stroke-linecap:round;stroke-linejoin:miter;stroke-opacity:1" />
    </g>
    <flowRoot
       xml:space="preserve"
       id="flowRoot35194"
       style="font-style:normal;font-weight:normal;font-size:40px;line-height:1.25;font-family:sans-serif;letter-spacing:0px;word-spacing:0px;fill:#000000;fill-opacity:1;stroke:none"
       transform="matrix(0.26458333,0,0,0.26458333,2.9038529,8.9116068)"><flowRegion
         id="flowRegion35196"><rect
           id="rect35198"
           width="226.07144"
           height="47.85717"
           x="564.64288"
           y="858.23395" /></flowRegion><flowPara
         id="flowPara35200"
         style="font-size:18.66666794px">self-driving bicycle</flowPara></flowRoot>    <flowRoot
       transform="matrix(0.26458333,0,0,0.26458333,15.301719,3.6199401)"
       style="font-style:normal;font-weight:normal;font-size:40px;line-height:1.25;font-family:sans-serif;letter-spacing:0px;word-spacing:0px;fill:#000000;fill-opacity:1;stroke:none"
       id="flowRoot35208"
       xml:space="preserve"><flowRegion
         id="flowRegion35204"><rect
           y="858.23395"
           x="564.64288"
           height="47.85717"
           width="226.07144"
           id="rect35202" /></flowRegion><flowPara
         style="font-size:18.66666794px"
         id="flowPara35206">Google's</flowPara></flowRoot>    <path
       inkscape:connector-curvature="0"
       d="m 60.634952,261.91753 h -2.526814 v -0.42031 c 0,-0.80411 -0.654269,-1.45838 -1.458368,-1.45838 h -3.696271 c -0.804098,0 -1.458368,0.65427 -1.458368,1.45838 v 0.42031 h -2.52712 c -0.127109,0 -0.230269,0.10316 -0.230269,0.23027 0,0.12711 0.10316,0.23027 0.230269,0.23027 h 11.666941 c 0.127108,0 0.230268,-0.10316 0.230268,-0.23027 0,-0.12711 -0.10316,-0.23027 -0.230268,-0.23027 z"
       id="path35261"
       style="stroke-width:0.30702475" />
    <path
       inkscape:connector-curvature="0"
       d="m 52.214798,248.85823 c -0.127109,0 -0.230269,0.10316 -0.230269,0.23027 0,0.1271 0.10316,0.23026 0.230269,0.23026 h 0.508433 v 6.64647 h -0.508433 c -0.127109,0 -0.230269,0.10317 -0.230269,0.23028 0,0.12711 0.10316,0.23027 0.230269,0.23027 h 0.508433 v 1.82556 h -0.508433 c -0.127109,0 -0.230269,0.10316 -0.230269,0.23028 0,0.12711 0.10316,0.23027 0.230269,0.23027 h 0.508433 v 0.88145 c 0.07553,-0.009 0.152284,-0.0151 0.230268,-0.0151 h 1.61802 V 258.274 h -0.508433 c -0.127107,0 -0.230268,-0.10316 -0.230268,-0.23026 0,-0.12711 0.103161,-0.23027 0.230268,-0.23027 h 0.508433 v -2.2023 h -0.508433 c -0.127107,0 -0.230268,-0.10316 -0.230268,-0.23027 0,-0.12711 0.103161,-0.23027 0.230268,-0.23027 h 0.508433 v -2.20228 h -0.508433 c -0.127107,0 -0.230268,-0.10316 -0.230268,-0.23027 0,-0.12711 0.103161,-0.23027 0.230268,-0.23027 h 0.508433 v -2.20228 h -0.508433 c -0.127107,0 -0.230268,-0.10316 -0.230268,-0.23028 0,-0.12711 0.103161,-0.23027 0.230268,-0.23027 h 0.508433 v -2.20229 h -0.508433 c -0.127107,0 -0.230268,-0.10316 -0.230268,-0.23026 0,-0.12711 0.103161,-0.23027 0.230268,-0.23027 h 0.508433 v -0.62081 c 0,-0.12711 0.103161,-0.23027 0.23027,-0.23027 0.127107,0 0.230268,0.10316 0.230268,0.23027 v 1.95238 h 0.508433 c 0.127108,0 0.230269,0.10316 0.230269,0.23027 0,0.1271 -0.103161,0.23026 -0.230269,0.23026 h -0.508433 v 2.20229 h 0.508433 c 0.127108,0 0.230269,0.10316 0.230269,0.23027 0,0.1271 -0.103161,0.23026 -0.230269,0.23026 h -0.508433 v 2.2023 h 0.508433 c 0.127108,0 0.230269,0.10316 0.230269,0.23027 0,0.12711 -0.103161,0.23027 -0.230269,0.23027 h -0.508433 v 2.20228 h 0.508433 c 0.127108,0 0.230269,0.10316 0.230269,0.23027 0,0.12711 -0.103161,0.23027 -0.230269,0.23027 h -0.508433 v 2.6355 h 1.61802 c 0.07798,0 0.15474,0.006 0.230269,0.0151 v -7.70262 h 0.508433 c 0.127108,0 0.230268,-0.10316 0.230268,-0.23028 0,-0.12711 -0.10316,-0.23027 -0.230268,-0.23027 h -0.508433 v -1.57503 h 0.508433 c 0.127108,0 0.230268,-0.10316 0.230268,-0.23027 0,-0.1271 -0.10316,-0.23026 -0.230268,-0.23026 h -0.508433 v -1.57505 h 0.508433 c 0.127108,0 0.230268,-0.10316 0.230268,-0.23026 0,-0.12711 -0.10316,-0.23027 -0.230268,-0.23027 h -0.508433 v -1.17007 c 0,-1.14613 -0.932435,-2.07856 -2.078557,-2.07856 -1.146124,0 -2.078558,0.93243 -2.078558,2.07856 v 0.3715 h -0.508433 c -0.127109,0 -0.230269,0.10316 -0.230269,0.23026 0,0.12711 0.10316,0.23027 0.230269,0.23027 h 0.508433 v 1.83754 h -0.508433 z"
       id="path35263"
       style="stroke-width:0.30702475" />
    <path
       inkscape:connector-curvature="0"
       d="m 62.778292,253.31715 h -0.517644 v -1.28797 h 0.517644 c 0.127108,0 0.230269,-0.10316 0.230269,-0.23026 0,-0.12712 -0.103161,-0.23028 -0.230269,-0.23028 h -0.517644 v -0.40865 c 0,-0.97326 -0.791817,-1.76538 -1.765393,-1.76538 -0.95761,0 -1.737453,0.76663 -1.762935,1.7181 h -0.5201 c -0.127109,0 -0.230269,0.10316 -0.230269,0.23027 0,0.12711 0.10316,0.23027 0.230269,0.23027 h 0.517951 v 2.1197 h -1.389288 v 1.53512 h 1.926581 c 0.550188,0 0.997831,-0.44764 0.997831,-0.99783 v -3.37727 c 0,-0.12711 0.10316,-0.23027 0.230268,-0.23027 0.127109,0 0.230269,0.10316 0.230269,0.23027 v 3.37727 c 0,0.8041 -0.654271,1.45837 -1.458368,1.45837 h -1.926581 v 1.53512 h 1.082263 v 0.49984 c 0,0.12711 0.103161,0.23027 0.230268,0.23027 0.127109,0 0.230269,-0.10316 0.230269,-0.23027 v -0.49984 h 0.383781 c 0.477423,0 0.927829,-0.11546 1.328802,-0.315 l 0.370579,0.41663 c 0.04544,0.0513 0.108684,0.0771 0.172242,0.0771 0.05465,0 0.108997,-0.0194 0.153205,-0.0584 0.09487,-0.0845 0.103462,-0.22997 0.01903,-0.32514 l -0.312551,-0.35124 c 0.400667,-0.28522 0.727034,-0.66624 0.947785,-1.10989 l 0.470976,0.21522 c 0.03101,0.0142 0.06356,0.0209 0.09579,0.0209 0.08719,0 0.170706,-0.05 0.209391,-0.13447 0.05311,-0.11569 0.0022,-0.25238 -0.113604,-0.30519 l -0.486932,-0.22259 c 0.09027,-0.28461 0.139389,-0.58764 0.139389,-0.90173 v -0.45256 h 0.517644 c 0.127108,0 0.230268,-0.10316 0.230268,-0.23027 0,-0.1271 -0.10316,-0.23026 -0.230268,-0.23026 z"
       id="path35265"
       style="stroke-width:0.30702475" />
    <path
       inkscape:connector-curvature="0"
       d="m 50.335807,254.13998 h 0.392684 v 0.50843 c 0,0.1271 0.103161,0.23026 0.230268,0.23026 0.127109,0 0.230269,-0.10316 0.230269,-0.23026 v -0.50843 h 1.073359 v -1.53513 h -1.92658 c -0.804098,0 -1.458368,-0.65427 -1.458368,-1.45836 v -3.37728 c 0,-0.12711 0.10316,-0.23027 0.230268,-0.23027 0.127109,0 0.230269,0.10316 0.230269,0.23027 v 3.37728 c 0,0.55018 0.447642,0.99782 0.997831,0.99782 h 1.92658 v -1.53511 h -1.389288 v -2.11111 h 0.526855 c 0.127108,0 0.230269,-0.10316 0.230269,-0.23027 0,-0.1271 -0.103161,-0.23026 -0.230269,-0.23026 h -0.528696 c -0.02088,-0.95547 -0.802871,-1.72672 -1.763551,-1.72672 -0.973576,0 -1.765392,0.79213 -1.765392,1.76539 v 0.41725 h -0.508433 c -0.127108,0 -0.230268,0.10316 -0.230268,0.23027 0,0.12711 0.10316,0.23027 0.230268,0.23027 h 0.508433 v 1.28798 h -0.508433 c -0.127108,0 -0.230268,0.10316 -0.230268,0.23026 0,0.12711 0.10316,0.23027 0.230268,0.23027 h 0.508433 v 0.44396 c 0,0.31838 0.05096,0.62448 0.143381,0.91247 l -0.482029,0.22045 c -0.115751,0.0528 -0.166715,0.18943 -0.113604,0.30518 0.03869,0.0845 0.121888,0.13447 0.209391,0.13447 0.03193,0 0.06479,-0.007 0.09579,-0.0209 l 0.466984,-0.21337 c 0.222593,0.44273 0.550496,0.82282 0.952698,1.10682 l -0.313473,0.35216 c -0.08443,0.0951 -0.07583,0.2407 0.01903,0.32513 0.04421,0.039 0.09855,0.058 0.153205,0.058 0.06324,0 0.126495,-0.0261 0.172242,-0.0771 l 0.373342,-0.41939 c 0.398211,0.19618 0.844011,0.30948 1.317136,0.30948 z"
       id="path35267"
       style="stroke-width:0.30702475" />
    <g
       transform="translate(30.564498,2.0442288)"
       id="g912"
       clip-path="url(#clipPath916)">
      <g
         id="g36779"
         transform="matrix(0.48020017,0,0,0.48020017,55.649295,131.67396)">
        <g
           id="g3417"
           transform="matrix(0.11207815,0,0,0.04690428,19.097627,231.23227)"
           inkscape:export-filename="/home/krother/Desktop/mySpeakerBusiness/pictures/burning_ships.png"
           inkscape:export-xdpi="299.99429"
           inkscape:export-ydpi="299.99429">
          <path
             transform="matrix(0.52117181,0,0,0.52117181,-350.95581,134.66493)"
             clip-path="url(#clipPath3808-3)"
             sodipodi:nodetypes="zzzzzccczz"
             inkscape:connector-curvature="0"
             id="path3419"
             d="m 1011.1627,753.35704 c 53.4034,0 74.886,95.96449 128.2894,95.96449 53.4034,0 74.886,-95.9645 128.2894,-95.96449 53.4034,10e-6 74.8859,95.96448 128.2893,95.96449 53.4034,10e-6 74.886,-95.96449 128.2894,-95.96449 53.4034,0 128.2894,95.96449 128.2894,95.96449 l -2.0203,160.61427 H 882.87335 c 0,0 -23.943,-112.80365 0,-160.61427 23.943,-47.81062 74.88591,-95.96449 128.28935,-95.96449 z"
             style="fill:#4285f4;fill-opacity:1;stroke:#4285f4;stroke-width:7.67501211;stroke-opacity:1" />
          <path
             style="fill:#4285f4;fill-opacity:1;stroke:#4285f4;stroke-width:7.67501211;stroke-opacity:1"
             d="m 1011.1627,753.35704 c 53.4034,0 74.886,95.96449 128.2894,95.96449 53.4034,0 74.886,-95.9645 128.2894,-95.96449 53.4034,10e-6 74.8859,95.96448 128.2893,95.96449 53.4034,10e-6 74.886,-95.96449 128.2894,-95.96449 53.4034,0 128.2894,95.96449 128.2894,95.96449 l -2.0203,160.61427 H 882.87335 c 0,0 -23.943,-112.80365 0,-160.61427 23.943,-47.81062 74.88591,-95.96449 128.28935,-95.96449 z"
             id="path3421"
             inkscape:connector-curvature="0"
             sodipodi:nodetypes="zzzzzccczz"
             clip-path="url(#clipPath3808-3)"
             transform="matrix(0.52117181,0,0,0.52117181,-482.67745,134.66493)" />
          <path
             transform="matrix(0.52117181,0,0,0.52117181,-614.39899,134.66493)"
             clip-path="url(#clipPath3808-3)"
             sodipodi:nodetypes="zzzzzccczz"
             inkscape:connector-curvature="0"
             id="path3423"
             d="m 1011.1627,753.35704 c 53.4034,0 74.886,95.96449 128.2894,95.96449 53.4034,0 74.886,-95.9645 128.2894,-95.96449 53.4034,10e-6 74.8859,95.96448 128.2893,95.96449 53.4034,10e-6 74.886,-95.96449 128.2894,-95.96449 53.4034,0 128.2894,95.96449 128.2894,95.96449 l -2.0203,160.61427 H 882.87335 c 0,0 -23.943,-112.80365 0,-160.61427 23.943,-47.81062 74.88591,-95.96449 128.28935,-95.96449 z"
             style="fill:#44667d;fill-opacity:1;stroke:#44667d;stroke-width:7.67501211;stroke-opacity:1" />
          <path
             style="fill:#4285f4;fill-opacity:1;stroke:#4285f4;stroke-width:7.67501211;stroke-opacity:1"
             d="m 1011.1627,753.35704 c 53.4034,0 74.886,95.96449 128.2894,95.96449 53.4034,0 74.886,-95.9645 128.2894,-95.96449 53.4034,10e-6 74.8859,95.96448 128.2893,95.96449 53.4034,10e-6 74.886,-95.96449 128.2894,-95.96449 53.4034,0 128.2894,95.96449 128.2894,95.96449 l -2.0203,160.61427 H 882.87335 c 0,0 -23.943,-112.80365 0,-160.61427 23.943,-47.81062 74.88591,-95.96449 128.28935,-95.96449 z"
             id="path3425"
             inkscape:connector-curvature="0"
             sodipodi:nodetypes="zzzzzccczz"
             clip-path="url(#clipPath3808-3)"
             transform="matrix(0.52117181,0,0,0.52117181,44.209053,134.66493)" />
          <path
             transform="matrix(0.52117181,0,0,0.52117181,-87.512587,134.66493)"
             clip-path="url(#clipPath3808-3)"
             sodipodi:nodetypes="zzzzzccczz"
             inkscape:connector-curvature="0"
             id="path3427"
             d="m 1011.1627,753.35704 c 53.4034,0 74.886,95.96449 128.2894,95.96449 53.4034,0 74.886,-95.9645 128.2894,-95.96449 53.4034,10e-6 74.8859,95.96448 128.2893,95.96449 53.4034,10e-6 74.886,-95.96449 128.2894,-95.96449 53.4034,0 128.2894,95.96449 128.2894,95.96449 l -2.0203,160.61427 H 882.87335 c 0,0 -23.943,-112.80365 0,-160.61427 23.943,-47.81062 74.88591,-95.96449 128.28935,-95.96449 z"
             style="fill:#4285f4;fill-opacity:1;stroke:#4285f4;stroke-width:7.67501211;stroke-opacity:1" />
          <path
             style="fill:#4285f4;fill-opacity:1;stroke:#4285f4;stroke-width:7.67501211;stroke-opacity:1"
             d="m 1011.1627,753.35704 c 53.4034,0 74.886,95.96449 128.2894,95.96449 53.4034,0 74.886,-95.9645 128.2894,-95.96449 53.4034,10e-6 74.8859,95.96448 128.2893,95.96449 53.4034,10e-6 74.886,-95.96449 128.2894,-95.96449 53.4034,0 128.2894,95.96449 128.2894,95.96449 l -2.0203,160.61427 H 882.87335 c 0,0 -23.943,-112.80365 0,-160.61427 23.943,-47.81062 74.88591,-95.96449 128.28935,-95.96449 z"
             id="path3429"
             inkscape:connector-curvature="0"
             sodipodi:nodetypes="zzzzzccczz"
             clip-path="url(#clipPath3808-3)"
             transform="matrix(0.52117181,0,0,0.52117181,-219.23423,134.66493)" />
        </g>
        <rect
           style="fill:#4285f4;fill-opacity:1;stroke:none;stroke-width:0.10899588;stroke-linecap:butt;stroke-linejoin:round;stroke-miterlimit:4;stroke-dasharray:none;stroke-dashoffset:0"
           id="rect3393"
           width="88.861687"
           height="27.083284"
           x="16.570406"
           y="262.23672"
           inkscape:export-filename="/home/krother/Desktop/mySpeakerBusiness/pictures/burning_ships.png"
           inkscape:export-xdpi="299.99429"
           inkscape:export-ydpi="299.99429" />
      </g>
    </g>
    <rect
       y="253.49821"
       x="74.177826"
       height="19.151501"
       width="29.213573"
       id="rect34513"
       style="fill:#34a853;fill-opacity:1;stroke:none;stroke-width:0.43822604;stroke-linecap:round;stroke-linejoin:round;stroke-miterlimit:4;stroke-dasharray:none;stroke-dashoffset:0;stroke-opacity:1" />
    <g
       id="g36792"
       transform="translate(0,14.699824)">
      <path
         inkscape:connector-curvature="0"
         style="clip-rule:evenodd;fill-rule:evenodd;stroke-width:0.14793661"
         d="m 89.632547,231.37503 c -1.692991,1.55082 -1.693875,1.55082 -0.796196,3.46674 0.263624,0.56187 0.594853,1.10361 0.766311,1.69166 0.08358,0.28581 -0.129149,0.65847 -0.208293,0.99206 -0.307416,-0.13906 -0.777706,-0.19675 -0.897679,-0.43182 -0.735396,-1.44712 -1.481735,-2.90119 -2.050404,-4.41828 -0.54485,-1.45481 0.979043,-1.90676 1.640763,-2.74127 0.495736,-0.62488 1.128017,-0.21288 1.643133,0.18212 0.751517,0.57562 1.525521,1.12594 2.231776,1.75304 0.192167,0.17057 0.177524,0.57637 0.257407,0.87386 -0.290547,-0.0169 -0.644119,0.0661 -0.859954,-0.07 -0.595743,-0.37591 -1.133637,-0.84235 -1.726864,-1.29814 z"
         id="path35844" />
      <path
         inkscape:connector-curvature="0"
         style="clip-rule:evenodd;fill-rule:evenodd;stroke-width:0.14793661"
         d="m 81.955078,236.32114 c 0.01997,-1.52005 1.223436,-2.67218 2.75887,-2.63978 1.482474,0.0306 2.637565,1.20509 2.636821,2.68135 -5.6e-4,1.48631 -1.238821,2.71656 -2.7244,2.70665 -1.495491,-0.009 -2.69141,-1.23956 -2.671291,-2.74822 z m 2.646734,1.8998 c 1.060556,0.0185 1.879682,-0.75388 1.908237,-1.79979 0.0284,-1.06589 -0.822973,-1.95736 -1.869034,-1.95676 -0.996796,0.002 -1.871398,0.86927 -1.886783,1.87125 -0.01613,1.00922 0.823859,1.86696 1.84758,1.8853 z"
         id="path35846" />
      <path
         inkscape:connector-curvature="0"
         style="clip-rule:evenodd;fill-rule:evenodd;stroke-width:0.14793661"
         d="m 95.562433,236.3704 c -0.0037,1.4986 -1.230389,2.71523 -2.721438,2.69896 -1.503922,-0.0154 -2.673662,-1.23024 -2.654428,-2.75665 0.01851,-1.48869 1.170473,-2.62676 2.667595,-2.63372 1.523154,-0.008 2.71212,1.17358 2.708271,2.69141 z m -2.662265,1.85054 c 1.042066,-0.0114 1.853644,-0.83836 1.842103,-1.87598 -0.01154,-1.02358 -0.859214,-1.87673 -1.868288,-1.88132 -1.029046,-0.004 -1.932053,0.9221 -1.899802,1.94981 0.03165,1.01677 0.886289,1.81903 1.925987,1.80749 z"
         id="path35848" />
      <path
         inkscape:connector-curvature="0"
         style="clip-rule:evenodd;fill-rule:evenodd;stroke-width:0.14793661"
         d="m 91.827481,228.12811 c 0.0034,0.71543 -0.583313,1.31191 -1.285128,1.30495 -0.699293,-0.006 -1.274918,-0.61334 -1.258793,-1.32729 0.01465,-0.68243 0.564085,-1.24192 1.237194,-1.25968 0.707138,-0.0183 1.304362,0.5672 1.306727,1.28202 z"
         id="path35850" />
      <path
         inkscape:connector-curvature="0"
         style="clip-rule:evenodd;fill-rule:evenodd;stroke-width:0.14793661"
         d="m 89.32809,235.1193 c -0.04451,-0.90004 -1.152721,-1.47715 -0.350313,-2.39405 1.538543,0.68331 1.601563,1.02061 0.350313,2.39405 z"
         id="path35852" />
      <path
         inkscape:connector-curvature="0"
         style="clip-rule:evenodd;fill-rule:evenodd;stroke-width:0.14793661"
         d="m 85.923034,232.49757 c 0,0 -0.680804,-0.52369 -1.047391,-0.18329 0,0 -0.549881,0.86395 0.209478,0.96868 0,0 0.628435,0.23582 1.361606,-0.0261 z"
         id="path35854" />
      <path
         inkscape:connector-curvature="0"
         style="clip-rule:evenodd;fill-rule:evenodd;stroke-width:0.14793661"
         d="m 89.443332,227.57157 c 0,0 0.02751,0.99473 -0.568664,1.12196 1.46e-4,0 -0.202528,-0.81883 0.568664,-1.12196 z"
         id="path35856" />
      <path
         inkscape:connector-curvature="0"
         style="clip-rule:evenodd;fill-rule:evenodd;stroke-width:0.14793661"
         d="m 88.088827,228.97801 c 0,0 -0.599735,0.21613 -0.45742,0.66483 0,1.5e-4 0.559198,-0.052 0.45742,-0.66483 z"
         id="path35858" />
      <path
         inkscape:connector-curvature="0"
         style="clip-rule:evenodd;fill-rule:evenodd;stroke-width:0.14793661"
         d="m 88.741226,228.30075 c 0,0 -0.680658,0.63924 -0.49544,1.10095 0,1.5e-4 0.641899,-0.41215 0.49544,-1.10095 z"
         id="path35860" />
      <ellipse
         style="clip-rule:evenodd;fill-rule:evenodd;stroke-width:0.14793609"
         transform="rotate(2.8028917)"
         cx="98.482422"
         cy="225.09854"
         rx="0.15740399"
         ry="0.16080652"
         id="ellipse35862" />
      <path
         inkscape:connector-curvature="0"
         style="clip-rule:evenodd;fill-rule:evenodd;stroke-width:0.14793661"
         d="m 88.421834,237.47446 c 0,0 -0.44381,0.29587 -0.09868,0.59174 0,0 0.616301,0.49322 0.862911,0.54249 0,0 0.838209,0.41909 0.44381,-0.24662 0,0 -0.29587,-0.39454 -0.493069,-0.51777 1.45e-4,0 -0.567042,-0.074 -0.714977,-0.36984 z"
         id="path35864" />
    </g>
    <rect
       y="234.09613"
       x="74.461311"
       height="38.55357"
       width="62.380985"
       id="rect34515"
       style="fill:none;fill-opacity:1;stroke:#000000;stroke-width:0.5;stroke-linecap:round;stroke-linejoin:round;stroke-miterlimit:4;stroke-dasharray:none;stroke-dashoffset:0;stroke-opacity:1" />
    <flowRoot
       xml:space="preserve"
       id="flowRoot36807"
       style="font-style:normal;font-weight:normal;font-size:40px;line-height:1.25;font-family:sans-serif;letter-spacing:0px;word-spacing:0px;fill:#000000;fill-opacity:1;stroke:none"
       transform="matrix(0.26458333,0,0,0.26458333,4.709889,10.423512)"><flowRegion
         id="flowRegion36809"><rect
           id="rect36811"
           width="425.89569"
           height="215.27121"
           x="18.571428"
           y="991.09113" /></flowRegion><flowPara
         id="flowPara36813"
         style="font-size:21.33333397px">students share 3-4</flowPara></flowRoot>    <flowRoot
       transform="matrix(0.26458333,0,0,0.26458333,10.850426,17.605059)"
       style="font-style:normal;font-weight:normal;font-size:40px;line-height:1.25;font-family:sans-serif;letter-spacing:0px;word-spacing:0px;fill:#000000;fill-opacity:1;stroke:none"
       id="flowRoot36821"
       xml:space="preserve"><flowRegion
         id="flowRegion36817"><rect
           y="991.09113"
           x="18.571428"
           height="215.27121"
           width="425.89569"
           id="rect36815" /></flowRegion><flowPara
         style="font-size:21.33333397px"
         id="flowPara36819">bicycle stories</flowPara></flowRoot>    <flowRoot
       transform="matrix(0.26458333,0,0,0.26458333,81.40126,10.423512)"
       style="font-style:normal;font-weight:normal;font-size:40px;line-height:1.25;font-family:sans-serif;letter-spacing:0px;word-spacing:0px;fill:#000000;fill-opacity:1;stroke:none"
       id="flowRoot36829"
       xml:space="preserve"><flowRegion
         id="flowRegion36825"><rect
           y="991.09113"
           x="18.571428"
           height="215.27121"
           width="425.89569"
           id="rect36823" /></flowRegion><flowPara
         style="font-size:21.33333397px"
         id="flowPara36827">students post</flowPara></flowRoot>    <flowRoot
       xml:space="preserve"
       id="flowRoot36837"
       style="font-style:normal;font-weight:normal;font-size:40px;line-height:1.25;font-family:sans-serif;letter-spacing:0px;word-spacing:0px;fill:#000000;fill-opacity:1;stroke:none"
       transform="matrix(0.26458333,0,0,0.26458333,78.525293,17.605059)"><flowRegion
         id="flowRegion36833"><rect
           id="rect36831"
           width="425.89569"
           height="215.27121"
           x="18.571428"
           y="991.09113" /></flowRegion><flowPara
         id="flowPara36835"
         style="font-size:21.33333397px">bicycle pictures</flowPara></flowRoot>    <flowRoot
       xml:space="preserve"
       id="flowRoot36845"
       style="font-style:normal;font-weight:normal;font-size:40px;line-height:1.25;font-family:sans-serif;letter-spacing:0px;word-spacing:0px;fill:#000000;fill-opacity:1;stroke:none"
       transform="matrix(0.26458333,0,0,0.26458333,144.05062,10.423512)"><flowRegion
         id="flowRegion36841"><rect
           id="rect36839"
           width="425.89569"
           height="215.27121"
           x="18.571428"
           y="991.09113" /></flowRegion><flowPara
         id="flowPara36843"
         style="font-size:21.33333397px">watch a bike video</flowPara></flowRoot>    <flowRoot
       transform="matrix(0.26458333,0,0,0.26458333,158.24579,17.605059)"
       style="font-style:normal;font-weight:normal;font-size:40px;line-height:1.25;font-family:sans-serif;letter-spacing:0px;word-spacing:0px;fill:#000000;fill-opacity:1;stroke:none"
       id="flowRoot36867"
       xml:space="preserve"><flowRegion
         id="flowRegion36863"><rect
           y="991.09113"
           x="18.571428"
           height="215.27121"
           width="425.89569"
           id="rect36861" /></flowRegion><flowPara
         style="font-size:21.33333397px"
         id="flowPara36865">together</flowPara></flowRoot>  </g>
</svg>
