<?xml version="1.0" encoding="UTF-8" standalone="no"?>
<!-- Created with Inkscape (http://www.inkscape.org/) -->

<svg
   xmlns:dc="http://purl.org/dc/elements/1.1/"
   xmlns:cc="http://creativecommons.org/ns#"
   xmlns:rdf="http://www.w3.org/1999/02/22-rdf-syntax-ns#"
   xmlns:svg="http://www.w3.org/2000/svg"
   xmlns="http://www.w3.org/2000/svg"
   xmlns:sodipodi="http://sodipodi.sourceforge.net/DTD/sodipodi-0.dtd"
   xmlns:inkscape="http://www.inkscape.org/namespaces/inkscape"
   width="120mm"
   height="80mm"
   viewBox="0 0 120 80"
   version="1.1"
   id="svg108"
   inkscape:version="0.92.5 (2060ec1f9f, 2020-04-08)"
   sodipodi:docname="are_you_mad_at_me.svg"
   inkscape:export-filename="/home/kristian/projects/online_teaching_survival_guide/images/are_you_mad_at_me.png"
   inkscape:export-xdpi="127"
   inkscape:export-ydpi="127">
  <defs
     id="defs102">
    <inkscape:path-effect
       effect="spiro"
       id="path-effect3263"
       is_visible="true" />
  </defs>
  <sodipodi:namedview
     id="base"
     pagecolor="#ffffff"
     bordercolor="#666666"
     borderopacity="1.0"
     inkscape:pageopacity="1"
     inkscape:pageshadow="2"
     inkscape:zoom="2.8751389"
     inkscape:cx="59.475388"
     inkscape:cy="54.169579"
     inkscape:document-units="mm"
     inkscape:current-layer="layer1"
     showgrid="false"
     inkscape:window-width="1848"
     inkscape:window-height="1016"
     inkscape:window-x="72"
     inkscape:window-y="27"
     inkscape:window-maximized="1"
     showguides="false"
     width="120mm" />
  <metadata
     id="metadata105">
    <rdf:RDF>
      <cc:Work
         rdf:about="">
        <dc:format>image/svg+xml</dc:format>
        <dc:type
           rdf:resource="http://purl.org/dc/dcmitype/StillImage" />
        <dc:title />
      </cc:Work>
    </rdf:RDF>
  </metadata>
  <g
     inkscape:label="Layer 1"
     inkscape:groupmode="layer"
     id="layer1"
     transform="translate(0,-217)">
    <rect
       ry="0"
       y="279.9216"
       x="-0.45625854"
       height="18.147467"
       width="121.58077"
       id="rect385"
       style="fill:#cccccc;fill-opacity:1;stroke:none;stroke-width:0.54697436;stroke-linecap:butt;stroke-linejoin:round;stroke-miterlimit:5.19999981;stroke-dasharray:none;stroke-dashoffset:0" />
    <path
       sodipodi:nodetypes="sssssccccczzcccccccccccc"
       style="fill:#4285f4;fill-opacity:1;stroke:#000000;stroke-width:0.66534919"
       d="m 25.962643,253.54641 c -2.645548,0 -4.790967,2.14542 -4.790967,4.79094 0,2.64553 2.145419,4.79098 4.790967,4.79098 2.645534,0 4.787839,-2.14545 4.787839,-4.79098 0,-2.64552 -2.142305,-4.79094 -4.787839,-4.79094 z m 18.755164,15.02852 -6.524848,-0.005 -6.0507,-3.31332 -3.696799,-1.66953 h -5.031145 c 0,0 -1.60385,0.11949 -2.35632,1.34694 -0.752484,1.22737 -0.249254,4.44399 -0.286966,5.91695 -0.03766,1.47301 -0.008,2.91691 -0.008,2.91691 l -3.136593,15.02476 h 7.055429 c 0.985279,-10.60971 0.900517,-10.45118 2.249018,0.11165 h 6.250702 l -3.350778,-15.53258 9.886659,2.16641 3.613139,-2.54633 -5.712861,0.82064 -8.693688,-5.35616 11.799298,1.98795 z"
       id="path3705"
       inkscape:connector-curvature="0"
       inkscape:export-filename="/home/krother/Desktop/lehre/Teaching/pictures/teaching.png"
       inkscape:export-xdpi="149.99072"
       inkscape:export-ydpi="149.99072" />
    <g
       style="fill:#f9f9f9"
       transform="translate(15.595297,167.89188)"
       id="g243">
      <path
         style="fill:#f9f9f9;fill-opacity:1;stroke:#000000;stroke-width:0.5;stroke-miterlimit:4;stroke-dasharray:none;stroke-opacity:1"
         d="m 68.763652,70.793887 c 0,4.583079 -12.022287,7.948657 -27.183146,8.2984 -15.160858,0.349744 -17.26468,-0.431391 -19.610003,-1.181508 -0.958938,-0.306702 -7.836014,4.849094 -8.646322,4.443526 -0.624744,-0.312692 4.784205,-6.168263 4.263053,-6.531617 -2.001324,-1.395354 -3.189873,-3.138248 -3.189873,-5.028801 -10e-7,-4.58308 7.63764,-8.319682 27.183146,-8.2984 19.545506,0.02128 27.183145,3.71532 27.183145,8.2984 z"
         id="path213"
         inkscape:connector-curvature="0"
         sodipodi:nodetypes="szsssszs" />
      <flowRoot
         transform="matrix(0.26458333,0,0,0.26458333,0,-6.50313)"
         style="font-style:normal;font-weight:normal;font-size:40px;line-height:1.25;font-family:sans-serif;letter-spacing:0px;word-spacing:0px;fill:#f9f9f9;fill-opacity:1;stroke:none"
         id="flowRoot233"
         xml:space="preserve"><flowRegion
           style="fill:#f9f9f9"
           id="flowRegion229"><rect
             style="fill:#f9f9f9"
             y="-186.3029"
             x="-256.57874"
             height="749.5332"
             width="1286.9343"
             id="rect227" /></flowRegion><flowPara
           id="flowPara231" /></flowRoot>      <flowRoot
         style="font-style:normal;font-weight:normal;font-size:40px;line-height:1.25;font-family:sans-serif;letter-spacing:0px;word-spacing:0px;fill:#f9f9f9;fill-opacity:1;stroke:none"
         id="flowRoot241"
         xml:space="preserve"><flowRegion
           style="fill:#f9f9f9"
           id="flowRegion237"><rect
             style="fill:#f9f9f9"
             y="-422.46118"
             x="-248.49753"
             height="806.10175"
             width="1222.2845"
             id="rect235" /></flowRegion><flowPara
           id="flowPara239" /></flowRoot>      <g
         id="g269"
         transform="translate(-9.827381,1.8426339)">
        <flowRoot
           transform="matrix(0.26458333,0,0,0.26458333,-15.973273,-169.3093)"
           style="font-style:normal;font-weight:normal;font-size:40px;line-height:1.25;font-family:sans-serif;letter-spacing:0px;word-spacing:0px;fill:#000000;fill-opacity:1;stroke:none"
           id="flowRoot245"
           xml:space="preserve"><flowRegion
             id="flowRegion247"><rect
               y="857.35461"
               x="182.08"
               height="51.517792"
               width="126.0165"
               id="rect249" /></flowRegion><flowPara
             style="font-size:16px"
             id="flowPara251">are you angry</flowPara></flowRoot>        <flowRoot
           xml:space="preserve"
           id="flowRoot259"
           style="font-style:normal;font-weight:normal;font-size:40px;line-height:1.25;font-family:sans-serif;letter-spacing:0px;word-spacing:0px;fill:#000000;fill-opacity:1;stroke:none"
           transform="matrix(0.26458333,0,0,0.26458333,-15.973273,-164.09754)"><flowRegion
             id="flowRegion255"><rect
               id="rect253"
               width="148.23985"
               height="45.204369"
               x="182.08"
               y="857.35461" /></flowRegion><flowPara
             id="flowPara257"
             style="font-size:16px">about my lesson?</flowPara></flowRoot>      </g>
    </g>
    <g
       id="g290"
       transform="matrix(1.3306983,0,0,1.3306983,-12.052301,-88.720173)">
      <path
         sodipodi:nodetypes="caaasccc"
         style="fill:#fbbc05;fill-opacity:1;stroke:#000000;stroke-width:0.5"
         d="m 64.352184,268.021 c 0,0 0.467961,-3.24697 -0.294779,-4.56878 -0.291461,-0.5051 -0.897078,-0.80202 -1.455173,-0.97115 -1.386976,-0.42032 -2.947109,-0.37209 -4.347794,0 -0.657087,0.17455 -1.584756,0.35827 -1.77074,1.01221 -1.063088,3.73795 -0.196957,11.94903 -0.16915,17.9294 l 6.917514,0.0839 c 0.319089,-4.50641 0.950087,-8.98237 1.120122,-13.48558 z"
         id="path271"
         inkscape:connector-curvature="0"
         inkscape:export-filename="/home/krother/Desktop/lehre/Teaching/pictures/teaching.png"
         inkscape:export-xdpi="149.99072"
         inkscape:export-ydpi="149.99072" />
      <path
         sodipodi:nodetypes="ssssccs"
         style="fill:#fbbc05;fill-opacity:1;stroke:#000000;stroke-width:0.5"
         d="m 61.529508,254.84272 c 0.961652,0.5552 1.295522,0.91293 1.607517,1.76623 0.03506,0.0959 1.286552,-0.0286 1.395355,0.44761 0.164953,0.72198 -1.062885,1.0442 -1.056947,1.15347 0.03871,0.71295 -0.166916,1.17627 -0.550469,1.8406 -3.203907,4.42494 -8.502535,-0.27432 -6.601224,-3.81123 1.186241,-2.19066 3.382601,-2.44929 5.205768,-1.39668 z"
         id="path3126"
         inkscape:connector-curvature="0"
         inkscape:export-filename="C:\Documents and Settings\Kristian\Pulpit\title.png"
         inkscape:export-xdpi="300.03"
         inkscape:export-ydpi="300.03" />
    </g>
    <flowRoot
       transform="matrix(0.21042862,0,0,0.21042862,55.817804,194.05259)"
       style="font-style:normal;font-weight:normal;font-size:40px;line-height:1.25;font-family:sans-serif;letter-spacing:0px;word-spacing:0px;fill:#f9f9f9;fill-opacity:1;stroke:none"
       id="flowRoot4302"
       xml:space="preserve"><flowRegion
         style="fill:#f9f9f9"
         id="flowRegion4304"><rect
           style="fill:#f9f9f9"
           y="-186.3029"
           x="-256.57874"
           height="749.5332"
           width="1286.9343"
           id="rect4306" /></flowRegion><flowPara
         id="flowPara4308" /></flowRoot>    <flowRoot
       style="font-style:normal;font-weight:normal;font-size:40px;line-height:1.25;font-family:sans-serif;letter-spacing:0px;word-spacing:0px;fill:#f9f9f9;fill-opacity:1;stroke:none"
       id="flowRoot4310"
       xml:space="preserve"
       transform="matrix(0.79532076,0,0,0.79532076,55.817804,199.22466)"><flowRegion
         style="fill:#f9f9f9"
         id="flowRegion4312"><rect
           style="fill:#f9f9f9"
           y="-422.46118"
           x="-248.49753"
           height="806.10175"
           width="1222.2845"
           id="rect4314" /></flowRegion><flowPara
         id="flowPara4316" /></flowRoot>    <g
       style="fill:#f9f9f9"
       id="g352"
       transform="translate(48.2252,200.36711)">
      <path
         transform="translate(-49.737105,-205.09182)"
         style="fill:#f9f9f9;fill-opacity:1;stroke:#000000;stroke-width:0.5;stroke-miterlimit:4;stroke-dasharray:none;stroke-opacity:1"
         d="m 99.234662,248.2795 c 0,2.95445 -4.502698,5.3495 -10.057058,5.3495 -1.892653,0 -3.663197,-0.27809 -5.175091,-0.76165 -0.618172,-0.19771 -5.051426,3.12593 -5.573784,2.86448 -0.402736,-0.20157 3.0841,-3.97632 2.748144,-4.21055 -1.290138,-0.89951 -2.056327,-2.02305 -2.056327,-3.24178 -10e-7,-2.95445 4.502698,-5.3495 10.057058,-5.3495 5.55436,0 10.057058,2.39505 10.057058,5.3495 z"
         id="path3709"
         inkscape:connector-curvature="0"
         sodipodi:nodetypes="ssssssss" />
      <flowRoot
         transform="matrix(0.26458333,0,0,0.26458333,-11.815535,-191.98787)"
         style="font-style:normal;font-weight:normal;font-size:40px;line-height:1.25;font-family:sans-serif;letter-spacing:0px;word-spacing:0px;fill:#000000;fill-opacity:1;stroke:none"
         id="flowRoot245-6"
         xml:space="preserve"><flowRegion
           id="flowRegion247-7"><rect
             y="857.35461"
             x="182.08"
             height="51.517792"
             width="126.0165"
             id="rect249-5" /></flowRegion><flowPara
           style="font-size:16px"
           id="flowPara251-3">no</flowPara></flowRoot>    </g>
    <g
       style="fill:#f9f9f9"
       id="g404"
       transform="translate(48.2252,200.36711)">
      <path
         sodipodi:nodetypes="ssscsss"
         inkscape:connector-curvature="0"
         id="path354"
         d="m 60.589244,55.147993 c 0,2.95445 -7.34851,5.3805 -15.201999,5.3495 -6.892797,-0.0272 -12.661054,-0.80926 -14.027445,-3.91246 -0.190442,-0.43251 -3.569426,-1.11056 -3.579977,-1.63749 0,-0.40071 3.391292,-0.5919 3.613829,-0.9694 1.418262,-2.40588 7.113371,-4.23741 13.993593,-4.17965 7.959789,0.0668 15.201999,2.39505 15.201999,5.3495 z"
         style="fill:#f9f9f9;fill-opacity:1;stroke:#000000;stroke-width:0.5;stroke-miterlimit:4;stroke-dasharray:none;stroke-opacity:1" />
      <flowRoot
         xml:space="preserve"
         id="flowRoot362"
         style="font-style:normal;font-weight:normal;font-size:40px;line-height:1.25;font-family:sans-serif;letter-spacing:0px;word-spacing:0px;fill:#000000;fill-opacity:1;stroke:none"
         transform="matrix(0.26458333,0,0,0.26458333,-13.953692,-180.02756)"><flowRegion
           id="flowRegion358"><rect
             id="rect356"
             width="126.0165"
             height="51.517792"
             x="182.08"
             y="857.35461" /></flowRegion><flowPara
           id="flowPara360"
           style="font-size:16px">everything</flowPara></flowRoot>    </g>
    <g
       style="fill:#f9f9f9"
       id="g376"
       transform="translate(48.2252,224.95591)">
      <path
         style="fill:#f9f9f9;fill-opacity:1;stroke:#000000;stroke-width:0.5;stroke-miterlimit:4;stroke-dasharray:none;stroke-opacity:1"
         d="m 49.497557,42.94469 c 0,-2.95445 -4.502698,-5.3495 -10.057058,-5.3495 -1.892653,0 -3.663197,0.27809 -5.175091,0.76165 -0.618172,0.19771 -5.051426,-3.12593 -5.573784,-2.86448 -0.402736,0.20157 3.0841,3.97632 2.748144,4.21055 -1.290138,0.89951 -2.056327,2.02305 -2.056327,3.24178 -1e-6,2.95445 4.502698,5.3495 10.057058,5.3495 5.55436,0 10.057058,-2.39505 10.057058,-5.3495 z"
         id="path366"
         inkscape:connector-curvature="0"
         sodipodi:nodetypes="ssssssss" />
      <flowRoot
         transform="matrix(0.26458333,0,0,0.26458333,-15.524587,-191.98787)"
         style="font-style:normal;font-weight:normal;font-size:40px;line-height:1.25;font-family:sans-serif;letter-spacing:0px;word-spacing:0px;fill:#000000;fill-opacity:1;stroke:none"
         id="flowRoot374"
         xml:space="preserve"><flowRegion
           id="flowRegion370"><rect
             y="857.35461"
             x="182.08"
             height="51.517792"
             width="126.0165"
             id="rect368" /></flowRegion><flowPara
           style="font-size:16px"
           id="flowPara372">is fine</flowPara></flowRoot>    </g>
  </g>
</svg>
