<?xml version="1.0" encoding="UTF-8" standalone="no"?>
<!-- Created with Inkscape (http://www.inkscape.org/) -->

<svg
   xmlns:dc="http://purl.org/dc/elements/1.1/"
   xmlns:cc="http://creativecommons.org/ns#"
   xmlns:rdf="http://www.w3.org/1999/02/22-rdf-syntax-ns#"
   xmlns:svg="http://www.w3.org/2000/svg"
   xmlns="http://www.w3.org/2000/svg"
   xmlns:sodipodi="http://sodipodi.sourceforge.net/DTD/sodipodi-0.dtd"
   xmlns:inkscape="http://www.inkscape.org/namespaces/inkscape"
   width="220mm"
   height="130mm"
   viewBox="0 0 220 130"
   version="1.1"
   id="svg8"
   inkscape:version="0.92.5 (2060ec1f9f, 2020-04-08)"
   sodipodi:docname="days_to_mastery.svg"
   inkscape:export-filename="/home/kristian/projects/online_teaching_survival_guide/images/days_to_mastery.png"
   inkscape:export-xdpi="138.55"
   inkscape:export-ydpi="138.55">
  <defs
     id="defs2" />
  <sodipodi:namedview
     id="base"
     pagecolor="#ffffff"
     bordercolor="#666666"
     borderopacity="1.0"
     inkscape:pageopacity="0.0"
     inkscape:pageshadow="2"
     inkscape:zoom="0.68221848"
     inkscape:cx="542.62969"
     inkscape:cy="310.6352"
     inkscape:document-units="mm"
     inkscape:current-layer="layer1"
     showgrid="false"
     inkscape:window-width="1848"
     inkscape:window-height="1016"
     inkscape:window-x="72"
     inkscape:window-y="27"
     inkscape:window-maximized="1" />
  <metadata
     id="metadata5">
    <rdf:RDF>
      <cc:Work
         rdf:about="">
        <dc:format>image/svg+xml</dc:format>
        <dc:type
           rdf:resource="http://purl.org/dc/dcmitype/StillImage" />
        <dc:title></dc:title>
      </cc:Work>
    </rdf:RDF>
  </metadata>
  <g
     inkscape:label="Layer 1"
     inkscape:groupmode="layer"
     id="layer1"
     transform="translate(0,-167)">
    <rect
       style="fill:#b3b3b3;fill-opacity:1;stroke:none;stroke-width:0.37366784;stroke-linecap:butt;stroke-linejoin:round;stroke-miterlimit:5.19999981;stroke-dasharray:none;stroke-dashoffset:0"
       id="rect1390"
       width="210.2668"
       height="11.229687"
       x="4.7666173"
       y="283.30219"
       ry="0" />
    <rect
       y="189.65201"
       x="74.85556"
       height="53.373165"
       width="70.088936"
       id="rect835"
       style="fill:none;fill-opacity:1;stroke:#000000;stroke-width:0.3879334;stroke-linecap:butt;stroke-linejoin:round;stroke-miterlimit:5.19999981;stroke-dasharray:none;stroke-dashoffset:0" />
    <rect
       style="fill:none;fill-opacity:1;stroke:#000000;stroke-width:0.3879334;stroke-linecap:butt;stroke-linejoin:round;stroke-miterlimit:5.19999981;stroke-dasharray:none;stroke-dashoffset:0"
       id="rect833"
       width="70.088936"
       height="53.373165"
       x="4.7666173"
       y="189.65201" />
    <g
       id="g853"
       transform="matrix(0.77586678,0,0,0.77586678,13.833929,6.4174777)">
      <path
         inkscape:connector-curvature="0"
         id="path14"
         d="m 21.054108,260.10892 -1.371061,5.09204 a 5.5394193,5.5394193 0 0 0 -1.747837,0.79115 l -3.423188,-1.97071 1.968007,3.41778 a 5.5394193,5.5394193 0 0 0 -0.785742,1.75244 l -5.094752,1.3716 5.092046,1.37106 a 5.5394193,5.5394193 0 0 0 0.791424,1.74784 l -1.970983,3.42318 3.418048,-1.96773 a 5.5394193,5.5394193 0 0 0 1.752436,0.78547 l 1.371602,5.09475 1.37106,-5.09205 a 5.5394193,5.5394193 0 0 0 1.747838,-0.79115 l 3.423188,1.97071 -1.968008,-3.41805 a 5.5394193,5.5394193 0 0 0 0.785742,-1.75243 l 5.094752,-1.3716 -5.092046,-1.37106 a 5.5394193,5.5394193 0 0 0 -0.791424,-1.74784 l 1.970984,-3.42292 -3.417778,1.96774 A 5.5394193,5.5394193 0 0 0 22.42571,265.2034 Z"
         style="fill:#fbbc05;fill-opacity:1;stroke:#000000;stroke-width:0.26170486;stroke-linecap:butt;stroke-linejoin:round;stroke-miterlimit:5.19999981;stroke-dasharray:none;stroke-dashoffset:0" />
      <path
         style="fill:#fbbc05;fill-opacity:1;stroke:#000000;stroke-width:0.26170486;stroke-linecap:butt;stroke-linejoin:round;stroke-miterlimit:5.19999981;stroke-dasharray:none;stroke-dashoffset:0"
         d="m 45.908824,260.10892 -1.371061,5.09204 a 5.5394193,5.5394193 0 0 0 -1.747837,0.79115 l -3.423188,-1.97071 1.968007,3.41778 a 5.5394193,5.5394193 0 0 0 -0.785742,1.75244 l -5.094752,1.3716 5.092046,1.37106 a 5.5394193,5.5394193 0 0 0 0.791424,1.74784 l -1.970983,3.42318 3.418048,-1.96773 a 5.5394193,5.5394193 0 0 0 1.752436,0.78547 l 1.371602,5.09475 1.37106,-5.09205 a 5.5394193,5.5394193 0 0 0 1.747838,-0.79115 l 3.423188,1.97071 -1.968008,-3.41805 a 5.5394193,5.5394193 0 0 0 0.785742,-1.75243 l 5.094752,-1.3716 -5.092046,-1.37106 a 5.5394193,5.5394193 0 0 0 -0.791424,-1.74784 l 1.970984,-3.42292 -3.417778,1.96774 a 5.5394193,5.5394193 0 0 0 -1.752706,-0.78574 z"
         id="path827"
         inkscape:connector-curvature="0" />
    </g>
    <rect
       style="fill:none;fill-opacity:1;stroke:#000000;stroke-width:0.3879334;stroke-linecap:butt;stroke-linejoin:round;stroke-miterlimit:5.19999981;stroke-dasharray:none;stroke-dashoffset:0"
       id="rect837"
       width="70.088936"
       height="53.373165"
       x="144.94449"
       y="189.65201" />
    <g
       id="g861"
       transform="matrix(0.77586678,0,0,0.77586678,4.5746095,13.259647)">
      <path
         inkscape:connector-curvature="0"
         id="path831"
         d="m 115.05773,244.58919 -1.0406,3.86472 a 4.2042654,4.2042654 0 0 0 -1.32656,0.60046 l -2.59811,-1.49572 1.49367,2.594 a 4.2042654,4.2042654 0 0 0 -0.59636,1.33006 l -3.86677,1.041 3.86472,1.0406 a 4.2042654,4.2042654 0 0 0 0.60067,1.32656 l -1.49593,2.5981 2.59421,-1.49345 a 4.2042654,4.2042654 0 0 0 1.33005,0.59615 l 1.04101,3.86677 1.04059,-3.86472 a 4.2042654,4.2042654 0 0 0 1.32657,-0.60046 l 2.59809,1.49571 -1.49365,-2.59421 a 4.2042654,4.2042654 0 0 0 0.59635,-1.33004 l 3.86678,-1.04101 -3.86473,-1.04059 a 4.2042654,4.2042654 0 0 0 -0.60066,-1.32657 l 1.49591,-2.5979 -2.59399,1.49346 a 4.2042654,4.2042654 0 0 0 -1.33026,-0.59635 z"
         style="fill:#fbbc05;fill-opacity:1;stroke:#000000;stroke-width:0.19862673;stroke-linecap:butt;stroke-linejoin:round;stroke-miterlimit:5.19999981;stroke-dasharray:none;stroke-dashoffset:0" />
      <path
         style="fill:#fbbc05;fill-opacity:1;stroke:#000000;stroke-width:0.19862673;stroke-linecap:butt;stroke-linejoin:round;stroke-miterlimit:5.19999981;stroke-dasharray:none;stroke-dashoffset:0"
         d="m 135.75194,244.58919 -1.0406,3.86472 a 4.2042654,4.2042654 0 0 0 -1.32656,0.60046 l -2.59811,-1.49572 1.49367,2.594 a 4.2042654,4.2042654 0 0 0 -0.59636,1.33006 l -3.86677,1.041 3.86472,1.0406 a 4.2042654,4.2042654 0 0 0 0.60067,1.32656 l -1.49593,2.5981 2.59421,-1.49345 a 4.2042654,4.2042654 0 0 0 1.33005,0.59615 l 1.04101,3.86677 1.04059,-3.86472 a 4.2042654,4.2042654 0 0 0 1.32657,-0.60046 l 2.59809,1.49571 -1.49365,-2.59421 a 4.2042654,4.2042654 0 0 0 0.59635,-1.33004 l 3.86678,-1.04101 -3.86473,-1.04059 a 4.2042654,4.2042654 0 0 0 -0.60066,-1.32657 l 1.49591,-2.5979 -2.59399,1.49346 a 4.2042654,4.2042654 0 0 0 -1.33026,-0.59635 z"
         id="path839"
         inkscape:connector-curvature="0" />
      <path
         inkscape:connector-curvature="0"
         id="path841"
         d="m 156.44613,244.58919 -1.0406,3.86472 a 4.2042654,4.2042654 0 0 0 -1.32656,0.60046 l -2.59811,-1.49572 1.49367,2.594 a 4.2042654,4.2042654 0 0 0 -0.59636,1.33006 l -3.86677,1.041 3.86472,1.0406 a 4.2042654,4.2042654 0 0 0 0.60067,1.32656 l -1.49593,2.5981 2.59421,-1.49345 a 4.2042654,4.2042654 0 0 0 1.33005,0.59615 l 1.04101,3.86677 1.04059,-3.86472 a 4.2042654,4.2042654 0 0 0 1.32657,-0.60046 l 2.59809,1.49571 -1.49365,-2.59421 a 4.2042654,4.2042654 0 0 0 0.59635,-1.33004 l 3.86678,-1.04101 -3.86473,-1.04059 a 4.2042654,4.2042654 0 0 0 -0.60066,-1.32657 l 1.49591,-2.5979 -2.59399,1.49346 a 4.2042654,4.2042654 0 0 0 -1.33026,-0.59635 z"
         style="fill:#fbbc05;fill-opacity:1;stroke:#000000;stroke-width:0.19862673;stroke-linecap:butt;stroke-linejoin:round;stroke-miterlimit:5.19999981;stroke-dasharray:none;stroke-dashoffset:0" />
      <g
         transform="translate(10.347105,18.441597)"
         id="g849">
        <path
           inkscape:connector-curvature="0"
           id="path843"
           d="m 115.05773,244.58919 -1.0406,3.86472 a 4.2042654,4.2042654 0 0 0 -1.32656,0.60046 l -2.59811,-1.49572 1.49367,2.594 a 4.2042654,4.2042654 0 0 0 -0.59636,1.33006 l -3.86677,1.041 3.86472,1.0406 a 4.2042654,4.2042654 0 0 0 0.60067,1.32656 l -1.49593,2.5981 2.59421,-1.49345 a 4.2042654,4.2042654 0 0 0 1.33005,0.59615 l 1.04101,3.86677 1.04059,-3.86472 a 4.2042654,4.2042654 0 0 0 1.32657,-0.60046 l 2.59809,1.49571 -1.49365,-2.59421 a 4.2042654,4.2042654 0 0 0 0.59635,-1.33004 l 3.86678,-1.04101 -3.86473,-1.04059 a 4.2042654,4.2042654 0 0 0 -0.60066,-1.32657 l 1.49591,-2.5979 -2.59399,1.49346 a 4.2042654,4.2042654 0 0 0 -1.33026,-0.59635 z"
           style="fill:#fbbc05;fill-opacity:1;stroke:#000000;stroke-width:0.19862673;stroke-linecap:butt;stroke-linejoin:round;stroke-miterlimit:5.19999981;stroke-dasharray:none;stroke-dashoffset:0" />
        <path
           style="fill:#fbbc05;fill-opacity:1;stroke:#000000;stroke-width:0.19862673;stroke-linecap:butt;stroke-linejoin:round;stroke-miterlimit:5.19999981;stroke-dasharray:none;stroke-dashoffset:0"
           d="m 135.75194,244.58919 -1.0406,3.86472 a 4.2042654,4.2042654 0 0 0 -1.32656,0.60046 l -2.59811,-1.49572 1.49367,2.594 a 4.2042654,4.2042654 0 0 0 -0.59636,1.33006 l -3.86677,1.041 3.86472,1.0406 a 4.2042654,4.2042654 0 0 0 0.60067,1.32656 l -1.49593,2.5981 2.59421,-1.49345 a 4.2042654,4.2042654 0 0 0 1.33005,0.59615 l 1.04101,3.86677 1.04059,-3.86472 a 4.2042654,4.2042654 0 0 0 1.32657,-0.60046 l 2.59809,1.49571 -1.49365,-2.59421 a 4.2042654,4.2042654 0 0 0 0.59635,-1.33004 l 3.86678,-1.04101 -3.86473,-1.04059 a 4.2042654,4.2042654 0 0 0 -0.60066,-1.32657 l 1.49591,-2.5979 -2.59399,1.49346 a 4.2042654,4.2042654 0 0 0 -1.33026,-0.59635 z"
           id="path845"
           inkscape:connector-curvature="0" />
      </g>
    </g>
    <g
       id="g1071"
       transform="matrix(0.77586678,0,0,0.77586678,5.6584677,14.130333)">
      <g
         transform="matrix(1.2552985,0,0,1.2552985,-48.585601,-65.626559)"
         id="g926">
        <path
           inkscape:connector-curvature="0"
           id="path831-3"
           d="m 192.48429,246.09266 -0.28176,1.04642 a 1.1383561,1.1383561 0 0 0 -0.35918,0.16258 l -0.70347,-0.40498 0.40443,0.70236 a 1.1383561,1.1383561 0 0 0 -0.16147,0.36013 l -1.04698,0.28186 1.04642,0.28176 a 1.1383561,1.1383561 0 0 0 0.16264,0.35918 l -0.40504,0.70347 0.70241,-0.40437 a 1.1383561,1.1383561 0 0 0 0.36013,0.16141 l 0.28187,1.04698 0.28175,-1.04642 a 1.1383561,1.1383561 0 0 0 0.35918,-0.16259 l 0.70347,0.40499 -0.40443,-0.70242 a 1.1383561,1.1383561 0 0 0 0.16147,-0.36012 l 1.04698,-0.28187 -1.04642,-0.28175 a 1.1383561,1.1383561 0 0 0 -0.16264,-0.35919 l 0.40504,-0.70341 -0.70236,0.40437 a 1.1383561,1.1383561 0 0 0 -0.36018,-0.16147 z"
           style="fill:#fbbc05;fill-opacity:1;stroke:#000000;stroke-width:0.05378061;stroke-linecap:butt;stroke-linejoin:round;stroke-miterlimit:5.19999981;stroke-dasharray:none;stroke-dashoffset:0" />
        <path
           style="fill:#fbbc05;fill-opacity:1;stroke:#000000;stroke-width:0.05378061;stroke-linecap:butt;stroke-linejoin:round;stroke-miterlimit:5.19999981;stroke-dasharray:none;stroke-dashoffset:0"
           d="m 198.0875,246.09266 -0.28176,1.04642 a 1.1383561,1.1383561 0 0 0 -0.35918,0.16258 l -0.70347,-0.40498 0.40443,0.70236 a 1.1383561,1.1383561 0 0 0 -0.16147,0.36013 l -1.04698,0.28186 1.04642,0.28176 a 1.1383561,1.1383561 0 0 0 0.16264,0.35918 l -0.40504,0.70347 0.70241,-0.40437 a 1.1383561,1.1383561 0 0 0 0.36013,0.16141 l 0.28187,1.04698 0.28175,-1.04642 a 1.1383561,1.1383561 0 0 0 0.35918,-0.16259 l 0.70347,0.40499 -0.40443,-0.70242 a 1.1383561,1.1383561 0 0 0 0.16147,-0.36012 l 1.04698,-0.28187 -1.04642,-0.28175 a 1.1383561,1.1383561 0 0 0 -0.16264,-0.35919 l 0.40504,-0.70341 -0.70236,0.40437 a 1.1383561,1.1383561 0 0 0 -0.36018,-0.16147 z"
           id="path839-6"
           inkscape:connector-curvature="0" />
        <path
           inkscape:connector-curvature="0"
           id="path841-7"
           d="m 203.6907,246.09266 -0.28175,1.04642 a 1.1383561,1.1383561 0 0 0 -0.35918,0.16258 l -0.70348,-0.40498 0.40443,0.70236 a 1.1383561,1.1383561 0 0 0 -0.16147,0.36013 l -1.04697,0.28186 1.04642,0.28176 a 1.1383561,1.1383561 0 0 0 0.16264,0.35918 l -0.40505,0.70347 0.70242,-0.40437 a 1.1383561,1.1383561 0 0 0 0.36013,0.16141 l 0.28186,1.04698 0.28175,-1.04642 a 1.1383561,1.1383561 0 0 0 0.35919,-0.16259 l 0.70346,0.40499 -0.40442,-0.70242 a 1.1383561,1.1383561 0 0 0 0.16147,-0.36012 l 1.04698,-0.28187 -1.04643,-0.28175 a 1.1383561,1.1383561 0 0 0 -0.16263,-0.35919 l 0.40503,-0.70341 -0.70235,0.40437 a 1.1383561,1.1383561 0 0 0 -0.36019,-0.16147 z"
           style="fill:#fbbc05;fill-opacity:1;stroke:#000000;stroke-width:0.05378061;stroke-linecap:butt;stroke-linejoin:round;stroke-miterlimit:5.19999981;stroke-dasharray:none;stroke-dashoffset:0" />
        <path
           inkscape:connector-curvature="0"
           id="path886"
           d="m 209.29391,246.09266 -0.28175,1.04642 a 1.1383561,1.1383561 0 0 0 -0.35919,0.16258 l -0.70347,-0.40498 0.40443,0.70236 a 1.1383561,1.1383561 0 0 0 -0.16147,0.36013 l -1.04697,0.28186 1.04642,0.28176 a 1.1383561,1.1383561 0 0 0 0.16263,0.35918 l -0.40504,0.70347 0.70242,-0.40437 a 1.1383561,1.1383561 0 0 0 0.36012,0.16141 l 0.28187,1.04698 0.28175,-1.04642 a 1.1383561,1.1383561 0 0 0 0.35919,-0.16259 l 0.70346,0.40499 -0.40442,-0.70242 a 1.1383561,1.1383561 0 0 0 0.16147,-0.36012 l 1.04698,-0.28187 -1.04643,-0.28175 a 1.1383561,1.1383561 0 0 0 -0.16263,-0.35919 l 0.40503,-0.70341 -0.70235,0.40437 a 1.1383561,1.1383561 0 0 0 -0.36019,-0.16147 z"
           style="fill:#fbbc05;fill-opacity:1;stroke:#000000;stroke-width:0.05378061;stroke-linecap:butt;stroke-linejoin:round;stroke-miterlimit:5.19999981;stroke-dasharray:none;stroke-dashoffset:0" />
        <path
           style="fill:#fbbc05;fill-opacity:1;stroke:#000000;stroke-width:0.05378061;stroke-linecap:butt;stroke-linejoin:round;stroke-miterlimit:5.19999981;stroke-dasharray:none;stroke-dashoffset:0"
           d="m 214.89711,246.09266 -0.28175,1.04642 a 1.1383561,1.1383561 0 0 0 -0.35918,0.16258 l -0.70347,-0.40498 0.40443,0.70236 a 1.1383561,1.1383561 0 0 0 -0.16148,0.36013 l -1.04697,0.28186 1.04642,0.28176 a 1.1383561,1.1383561 0 0 0 0.16264,0.35918 l -0.40504,0.70347 0.70241,-0.40437 a 1.1383561,1.1383561 0 0 0 0.36013,0.16141 l 0.28186,1.04698 0.28176,-1.04642 a 1.1383561,1.1383561 0 0 0 0.35918,-0.16259 l 0.70347,0.40499 -0.40443,-0.70242 a 1.1383561,1.1383561 0 0 0 0.16147,-0.36012 l 1.04698,-0.28187 -1.04642,-0.28175 a 1.1383561,1.1383561 0 0 0 -0.16264,-0.35919 l 0.40504,-0.70341 -0.70236,0.40437 a 1.1383561,1.1383561 0 0 0 -0.36018,-0.16147 z"
           id="path888"
           inkscape:connector-curvature="0" />
        <path
           inkscape:connector-curvature="0"
           id="path904"
           d="m 220.50033,246.09266 -0.28176,1.04642 a 1.1383561,1.1383561 0 0 0 -0.35918,0.16258 l -0.70347,-0.40498 0.40443,0.70236 a 1.1383561,1.1383561 0 0 0 -0.16147,0.36013 l -1.04698,0.28186 1.04642,0.28176 a 1.1383561,1.1383561 0 0 0 0.16264,0.35918 l -0.40504,0.70347 0.70241,-0.40437 a 1.1383561,1.1383561 0 0 0 0.36013,0.16141 l 0.28187,1.04698 0.28175,-1.04642 a 1.1383561,1.1383561 0 0 0 0.35918,-0.16259 l 0.70347,0.40499 -0.40443,-0.70242 a 1.1383561,1.1383561 0 0 0 0.16147,-0.36012 l 1.04698,-0.28187 -1.04642,-0.28175 a 1.1383561,1.1383561 0 0 0 -0.16264,-0.35919 l 0.40504,-0.70341 -0.70236,0.40437 a 1.1383561,1.1383561 0 0 0 -0.36018,-0.16147 z"
           style="fill:#fbbc05;fill-opacity:1;stroke:#000000;stroke-width:0.05378061;stroke-linecap:butt;stroke-linejoin:round;stroke-miterlimit:5.19999981;stroke-dasharray:none;stroke-dashoffset:0" />
        <path
           style="fill:#fbbc05;fill-opacity:1;stroke:#000000;stroke-width:0.05378061;stroke-linecap:butt;stroke-linejoin:round;stroke-miterlimit:5.19999981;stroke-dasharray:none;stroke-dashoffset:0"
           d="m 226.10353,246.09266 -0.28175,1.04642 a 1.1383561,1.1383561 0 0 0 -0.35918,0.16258 l -0.70348,-0.40498 0.40443,0.70236 a 1.1383561,1.1383561 0 0 0 -0.16147,0.36013 l -1.04697,0.28186 1.04642,0.28176 a 1.1383561,1.1383561 0 0 0 0.16264,0.35918 l -0.40505,0.70347 0.70242,-0.40437 a 1.1383561,1.1383561 0 0 0 0.36013,0.16141 l 0.28186,1.04698 0.28175,-1.04642 a 1.1383561,1.1383561 0 0 0 0.35919,-0.16259 l 0.70346,0.40499 -0.40442,-0.70242 a 1.1383561,1.1383561 0 0 0 0.16147,-0.36012 l 1.04698,-0.28187 -1.04643,-0.28175 a 1.1383561,1.1383561 0 0 0 -0.16263,-0.35919 l 0.40503,-0.70341 -0.70235,0.40437 a 1.1383561,1.1383561 0 0 0 -0.36019,-0.16147 z"
           id="path906"
           inkscape:connector-curvature="0" />
        <path
           style="fill:#fbbc05;fill-opacity:1;stroke:#000000;stroke-width:0.05378061;stroke-linecap:butt;stroke-linejoin:round;stroke-miterlimit:5.19999981;stroke-dasharray:none;stroke-dashoffset:0"
           d="m 231.70674,246.09266 -0.28175,1.04642 a 1.1383561,1.1383561 0 0 0 -0.35919,0.16258 l -0.70347,-0.40498 0.40443,0.70236 a 1.1383561,1.1383561 0 0 0 -0.16147,0.36013 l -1.04697,0.28186 1.04642,0.28176 a 1.1383561,1.1383561 0 0 0 0.16263,0.35918 l -0.40504,0.70347 0.70242,-0.40437 a 1.1383561,1.1383561 0 0 0 0.36012,0.16141 l 0.28187,1.04698 0.28175,-1.04642 a 1.1383561,1.1383561 0 0 0 0.35919,-0.16259 l 0.70346,0.40499 -0.40442,-0.70242 a 1.1383561,1.1383561 0 0 0 0.16147,-0.36012 l 1.04698,-0.28187 -1.04643,-0.28175 a 1.1383561,1.1383561 0 0 0 -0.16263,-0.35919 l 0.40503,-0.70341 -0.70235,0.40437 a 1.1383561,1.1383561 0 0 0 -0.36019,-0.16147 z"
           id="path908"
           inkscape:connector-curvature="0" />
        <path
           inkscape:connector-curvature="0"
           id="path910"
           d="m 237.30994,246.09266 -0.28175,1.04642 a 1.1383561,1.1383561 0 0 0 -0.35918,0.16258 l -0.70347,-0.40498 0.40443,0.70236 a 1.1383561,1.1383561 0 0 0 -0.16148,0.36013 l -1.04697,0.28186 1.04642,0.28176 a 1.1383561,1.1383561 0 0 0 0.16264,0.35918 l -0.40504,0.70347 0.70241,-0.40437 a 1.1383561,1.1383561 0 0 0 0.36013,0.16141 l 0.28186,1.04698 0.28176,-1.04642 a 1.1383561,1.1383561 0 0 0 0.35918,-0.16259 l 0.70347,0.40499 -0.40443,-0.70242 a 1.1383561,1.1383561 0 0 0 0.16147,-0.36012 l 1.04698,-0.28187 -1.04642,-0.28175 a 1.1383561,1.1383561 0 0 0 -0.16264,-0.35919 l 0.40504,-0.70341 -0.70236,0.40437 a 1.1383561,1.1383561 0 0 0 -0.36018,-0.16147 z"
           style="fill:#fbbc05;fill-opacity:1;stroke:#000000;stroke-width:0.05378061;stroke-linecap:butt;stroke-linejoin:round;stroke-miterlimit:5.19999981;stroke-dasharray:none;stroke-dashoffset:0" />
        <path
           style="fill:#fbbc05;fill-opacity:1;stroke:#000000;stroke-width:0.05378061;stroke-linecap:butt;stroke-linejoin:round;stroke-miterlimit:5.19999981;stroke-dasharray:none;stroke-dashoffset:0"
           d="m 242.91314,246.09266 -0.28175,1.04642 a 1.1383561,1.1383561 0 0 0 -0.35918,0.16258 l -0.70347,-0.40498 0.40443,0.70236 a 1.1383561,1.1383561 0 0 0 -0.16148,0.36013 l -1.04697,0.28186 1.04642,0.28176 a 1.1383561,1.1383561 0 0 0 0.16264,0.35918 l -0.40504,0.70347 0.70241,-0.40437 a 1.1383561,1.1383561 0 0 0 0.36013,0.16141 l 0.28186,1.04698 0.28176,-1.04642 a 1.1383561,1.1383561 0 0 0 0.35918,-0.16259 l 0.70347,0.40499 -0.40443,-0.70242 a 1.1383561,1.1383561 0 0 0 0.16147,-0.36012 l 1.04698,-0.28187 -1.04642,-0.28175 a 1.1383561,1.1383561 0 0 0 -0.16264,-0.35919 l 0.40504,-0.70341 -0.70236,0.40437 a 1.1383561,1.1383561 0 0 0 -0.36018,-0.16147 z"
           id="path914"
           inkscape:connector-curvature="0" />
      </g>
      <g
         id="g948"
         transform="matrix(1.2552985,0,0,1.2552985,-48.585601,-58.310395)">
        <path
           style="fill:#fbbc05;fill-opacity:1;stroke:#000000;stroke-width:0.05378061;stroke-linecap:butt;stroke-linejoin:round;stroke-miterlimit:5.19999981;stroke-dasharray:none;stroke-dashoffset:0"
           d="m 192.48429,246.09266 -0.28176,1.04642 a 1.1383561,1.1383561 0 0 0 -0.35918,0.16258 l -0.70347,-0.40498 0.40443,0.70236 a 1.1383561,1.1383561 0 0 0 -0.16147,0.36013 l -1.04698,0.28186 1.04642,0.28176 a 1.1383561,1.1383561 0 0 0 0.16264,0.35918 l -0.40504,0.70347 0.70241,-0.40437 a 1.1383561,1.1383561 0 0 0 0.36013,0.16141 l 0.28187,1.04698 0.28175,-1.04642 a 1.1383561,1.1383561 0 0 0 0.35918,-0.16259 l 0.70347,0.40499 -0.40443,-0.70242 a 1.1383561,1.1383561 0 0 0 0.16147,-0.36012 l 1.04698,-0.28187 -1.04642,-0.28175 a 1.1383561,1.1383561 0 0 0 -0.16264,-0.35919 l 0.40504,-0.70341 -0.70236,0.40437 a 1.1383561,1.1383561 0 0 0 -0.36018,-0.16147 z"
           id="path928"
           inkscape:connector-curvature="0" />
        <path
           inkscape:connector-curvature="0"
           id="path930"
           d="m 198.0875,246.09266 -0.28176,1.04642 a 1.1383561,1.1383561 0 0 0 -0.35918,0.16258 l -0.70347,-0.40498 0.40443,0.70236 a 1.1383561,1.1383561 0 0 0 -0.16147,0.36013 l -1.04698,0.28186 1.04642,0.28176 a 1.1383561,1.1383561 0 0 0 0.16264,0.35918 l -0.40504,0.70347 0.70241,-0.40437 a 1.1383561,1.1383561 0 0 0 0.36013,0.16141 l 0.28187,1.04698 0.28175,-1.04642 a 1.1383561,1.1383561 0 0 0 0.35918,-0.16259 l 0.70347,0.40499 -0.40443,-0.70242 a 1.1383561,1.1383561 0 0 0 0.16147,-0.36012 l 1.04698,-0.28187 -1.04642,-0.28175 a 1.1383561,1.1383561 0 0 0 -0.16264,-0.35919 l 0.40504,-0.70341 -0.70236,0.40437 a 1.1383561,1.1383561 0 0 0 -0.36018,-0.16147 z"
           style="fill:#fbbc05;fill-opacity:1;stroke:#000000;stroke-width:0.05378061;stroke-linecap:butt;stroke-linejoin:round;stroke-miterlimit:5.19999981;stroke-dasharray:none;stroke-dashoffset:0" />
        <path
           style="fill:#fbbc05;fill-opacity:1;stroke:#000000;stroke-width:0.05378061;stroke-linecap:butt;stroke-linejoin:round;stroke-miterlimit:5.19999981;stroke-dasharray:none;stroke-dashoffset:0"
           d="m 203.6907,246.09266 -0.28175,1.04642 a 1.1383561,1.1383561 0 0 0 -0.35918,0.16258 l -0.70348,-0.40498 0.40443,0.70236 a 1.1383561,1.1383561 0 0 0 -0.16147,0.36013 l -1.04697,0.28186 1.04642,0.28176 a 1.1383561,1.1383561 0 0 0 0.16264,0.35918 l -0.40505,0.70347 0.70242,-0.40437 a 1.1383561,1.1383561 0 0 0 0.36013,0.16141 l 0.28186,1.04698 0.28175,-1.04642 a 1.1383561,1.1383561 0 0 0 0.35919,-0.16259 l 0.70346,0.40499 -0.40442,-0.70242 a 1.1383561,1.1383561 0 0 0 0.16147,-0.36012 l 1.04698,-0.28187 -1.04643,-0.28175 a 1.1383561,1.1383561 0 0 0 -0.16263,-0.35919 l 0.40503,-0.70341 -0.70235,0.40437 a 1.1383561,1.1383561 0 0 0 -0.36019,-0.16147 z"
           id="path932"
           inkscape:connector-curvature="0" />
        <path
           style="fill:#fbbc05;fill-opacity:1;stroke:#000000;stroke-width:0.05378061;stroke-linecap:butt;stroke-linejoin:round;stroke-miterlimit:5.19999981;stroke-dasharray:none;stroke-dashoffset:0"
           d="m 209.29391,246.09266 -0.28175,1.04642 a 1.1383561,1.1383561 0 0 0 -0.35919,0.16258 l -0.70347,-0.40498 0.40443,0.70236 a 1.1383561,1.1383561 0 0 0 -0.16147,0.36013 l -1.04697,0.28186 1.04642,0.28176 a 1.1383561,1.1383561 0 0 0 0.16263,0.35918 l -0.40504,0.70347 0.70242,-0.40437 a 1.1383561,1.1383561 0 0 0 0.36012,0.16141 l 0.28187,1.04698 0.28175,-1.04642 a 1.1383561,1.1383561 0 0 0 0.35919,-0.16259 l 0.70346,0.40499 -0.40442,-0.70242 a 1.1383561,1.1383561 0 0 0 0.16147,-0.36012 l 1.04698,-0.28187 -1.04643,-0.28175 a 1.1383561,1.1383561 0 0 0 -0.16263,-0.35919 l 0.40503,-0.70341 -0.70235,0.40437 a 1.1383561,1.1383561 0 0 0 -0.36019,-0.16147 z"
           id="path934"
           inkscape:connector-curvature="0" />
        <path
           inkscape:connector-curvature="0"
           id="path936"
           d="m 214.89711,246.09266 -0.28175,1.04642 a 1.1383561,1.1383561 0 0 0 -0.35918,0.16258 l -0.70347,-0.40498 0.40443,0.70236 a 1.1383561,1.1383561 0 0 0 -0.16148,0.36013 l -1.04697,0.28186 1.04642,0.28176 a 1.1383561,1.1383561 0 0 0 0.16264,0.35918 l -0.40504,0.70347 0.70241,-0.40437 a 1.1383561,1.1383561 0 0 0 0.36013,0.16141 l 0.28186,1.04698 0.28176,-1.04642 a 1.1383561,1.1383561 0 0 0 0.35918,-0.16259 l 0.70347,0.40499 -0.40443,-0.70242 a 1.1383561,1.1383561 0 0 0 0.16147,-0.36012 l 1.04698,-0.28187 -1.04642,-0.28175 a 1.1383561,1.1383561 0 0 0 -0.16264,-0.35919 l 0.40504,-0.70341 -0.70236,0.40437 a 1.1383561,1.1383561 0 0 0 -0.36018,-0.16147 z"
           style="fill:#fbbc05;fill-opacity:1;stroke:#000000;stroke-width:0.05378061;stroke-linecap:butt;stroke-linejoin:round;stroke-miterlimit:5.19999981;stroke-dasharray:none;stroke-dashoffset:0" />
        <path
           style="fill:#fbbc05;fill-opacity:1;stroke:#000000;stroke-width:0.05378061;stroke-linecap:butt;stroke-linejoin:round;stroke-miterlimit:5.19999981;stroke-dasharray:none;stroke-dashoffset:0"
           d="m 220.50033,246.09266 -0.28176,1.04642 a 1.1383561,1.1383561 0 0 0 -0.35918,0.16258 l -0.70347,-0.40498 0.40443,0.70236 a 1.1383561,1.1383561 0 0 0 -0.16147,0.36013 l -1.04698,0.28186 1.04642,0.28176 a 1.1383561,1.1383561 0 0 0 0.16264,0.35918 l -0.40504,0.70347 0.70241,-0.40437 a 1.1383561,1.1383561 0 0 0 0.36013,0.16141 l 0.28187,1.04698 0.28175,-1.04642 a 1.1383561,1.1383561 0 0 0 0.35918,-0.16259 l 0.70347,0.40499 -0.40443,-0.70242 a 1.1383561,1.1383561 0 0 0 0.16147,-0.36012 l 1.04698,-0.28187 -1.04642,-0.28175 a 1.1383561,1.1383561 0 0 0 -0.16264,-0.35919 l 0.40504,-0.70341 -0.70236,0.40437 a 1.1383561,1.1383561 0 0 0 -0.36018,-0.16147 z"
           id="path938"
           inkscape:connector-curvature="0" />
        <path
           inkscape:connector-curvature="0"
           id="path940"
           d="m 226.10353,246.09266 -0.28175,1.04642 a 1.1383561,1.1383561 0 0 0 -0.35918,0.16258 l -0.70348,-0.40498 0.40443,0.70236 a 1.1383561,1.1383561 0 0 0 -0.16147,0.36013 l -1.04697,0.28186 1.04642,0.28176 a 1.1383561,1.1383561 0 0 0 0.16264,0.35918 l -0.40505,0.70347 0.70242,-0.40437 a 1.1383561,1.1383561 0 0 0 0.36013,0.16141 l 0.28186,1.04698 0.28175,-1.04642 a 1.1383561,1.1383561 0 0 0 0.35919,-0.16259 l 0.70346,0.40499 -0.40442,-0.70242 a 1.1383561,1.1383561 0 0 0 0.16147,-0.36012 l 1.04698,-0.28187 -1.04643,-0.28175 a 1.1383561,1.1383561 0 0 0 -0.16263,-0.35919 l 0.40503,-0.70341 -0.70235,0.40437 a 1.1383561,1.1383561 0 0 0 -0.36019,-0.16147 z"
           style="fill:#fbbc05;fill-opacity:1;stroke:#000000;stroke-width:0.05378061;stroke-linecap:butt;stroke-linejoin:round;stroke-miterlimit:5.19999981;stroke-dasharray:none;stroke-dashoffset:0" />
        <path
           inkscape:connector-curvature="0"
           id="path942"
           d="m 231.70674,246.09266 -0.28175,1.04642 a 1.1383561,1.1383561 0 0 0 -0.35919,0.16258 l -0.70347,-0.40498 0.40443,0.70236 a 1.1383561,1.1383561 0 0 0 -0.16147,0.36013 l -1.04697,0.28186 1.04642,0.28176 a 1.1383561,1.1383561 0 0 0 0.16263,0.35918 l -0.40504,0.70347 0.70242,-0.40437 a 1.1383561,1.1383561 0 0 0 0.36012,0.16141 l 0.28187,1.04698 0.28175,-1.04642 a 1.1383561,1.1383561 0 0 0 0.35919,-0.16259 l 0.70346,0.40499 -0.40442,-0.70242 a 1.1383561,1.1383561 0 0 0 0.16147,-0.36012 l 1.04698,-0.28187 -1.04643,-0.28175 a 1.1383561,1.1383561 0 0 0 -0.16263,-0.35919 l 0.40503,-0.70341 -0.70235,0.40437 a 1.1383561,1.1383561 0 0 0 -0.36019,-0.16147 z"
           style="fill:#fbbc05;fill-opacity:1;stroke:#000000;stroke-width:0.05378061;stroke-linecap:butt;stroke-linejoin:round;stroke-miterlimit:5.19999981;stroke-dasharray:none;stroke-dashoffset:0" />
        <path
           style="fill:#fbbc05;fill-opacity:1;stroke:#000000;stroke-width:0.05378061;stroke-linecap:butt;stroke-linejoin:round;stroke-miterlimit:5.19999981;stroke-dasharray:none;stroke-dashoffset:0"
           d="m 237.30994,246.09266 -0.28175,1.04642 a 1.1383561,1.1383561 0 0 0 -0.35918,0.16258 l -0.70347,-0.40498 0.40443,0.70236 a 1.1383561,1.1383561 0 0 0 -0.16148,0.36013 l -1.04697,0.28186 1.04642,0.28176 a 1.1383561,1.1383561 0 0 0 0.16264,0.35918 l -0.40504,0.70347 0.70241,-0.40437 a 1.1383561,1.1383561 0 0 0 0.36013,0.16141 l 0.28186,1.04698 0.28176,-1.04642 a 1.1383561,1.1383561 0 0 0 0.35918,-0.16259 l 0.70347,0.40499 -0.40443,-0.70242 a 1.1383561,1.1383561 0 0 0 0.16147,-0.36012 l 1.04698,-0.28187 -1.04642,-0.28175 a 1.1383561,1.1383561 0 0 0 -0.16264,-0.35919 l 0.40504,-0.70341 -0.70236,0.40437 a 1.1383561,1.1383561 0 0 0 -0.36018,-0.16147 z"
           id="path944"
           inkscape:connector-curvature="0" />
        <path
           inkscape:connector-curvature="0"
           id="path946"
           d="m 242.91314,246.09266 -0.28175,1.04642 a 1.1383561,1.1383561 0 0 0 -0.35918,0.16258 l -0.70347,-0.40498 0.40443,0.70236 a 1.1383561,1.1383561 0 0 0 -0.16148,0.36013 l -1.04697,0.28186 1.04642,0.28176 a 1.1383561,1.1383561 0 0 0 0.16264,0.35918 l -0.40504,0.70347 0.70241,-0.40437 a 1.1383561,1.1383561 0 0 0 0.36013,0.16141 l 0.28186,1.04698 0.28176,-1.04642 a 1.1383561,1.1383561 0 0 0 0.35918,-0.16259 l 0.70347,0.40499 -0.40443,-0.70242 a 1.1383561,1.1383561 0 0 0 0.16147,-0.36012 l 1.04698,-0.28187 -1.04642,-0.28175 a 1.1383561,1.1383561 0 0 0 -0.16264,-0.35919 l 0.40504,-0.70341 -0.70236,0.40437 a 1.1383561,1.1383561 0 0 0 -0.36018,-0.16147 z"
           style="fill:#fbbc05;fill-opacity:1;stroke:#000000;stroke-width:0.05378061;stroke-linecap:butt;stroke-linejoin:round;stroke-miterlimit:5.19999981;stroke-dasharray:none;stroke-dashoffset:0" />
      </g>
      <g
         transform="matrix(1.2552985,0,0,1.2552985,-48.585601,-50.99423)"
         id="g970">
        <path
           inkscape:connector-curvature="0"
           id="path950"
           d="m 192.48429,246.09266 -0.28176,1.04642 a 1.1383561,1.1383561 0 0 0 -0.35918,0.16258 l -0.70347,-0.40498 0.40443,0.70236 a 1.1383561,1.1383561 0 0 0 -0.16147,0.36013 l -1.04698,0.28186 1.04642,0.28176 a 1.1383561,1.1383561 0 0 0 0.16264,0.35918 l -0.40504,0.70347 0.70241,-0.40437 a 1.1383561,1.1383561 0 0 0 0.36013,0.16141 l 0.28187,1.04698 0.28175,-1.04642 a 1.1383561,1.1383561 0 0 0 0.35918,-0.16259 l 0.70347,0.40499 -0.40443,-0.70242 a 1.1383561,1.1383561 0 0 0 0.16147,-0.36012 l 1.04698,-0.28187 -1.04642,-0.28175 a 1.1383561,1.1383561 0 0 0 -0.16264,-0.35919 l 0.40504,-0.70341 -0.70236,0.40437 a 1.1383561,1.1383561 0 0 0 -0.36018,-0.16147 z"
           style="fill:#fbbc05;fill-opacity:1;stroke:#000000;stroke-width:0.05378061;stroke-linecap:butt;stroke-linejoin:round;stroke-miterlimit:5.19999981;stroke-dasharray:none;stroke-dashoffset:0" />
        <path
           style="fill:#fbbc05;fill-opacity:1;stroke:#000000;stroke-width:0.05378061;stroke-linecap:butt;stroke-linejoin:round;stroke-miterlimit:5.19999981;stroke-dasharray:none;stroke-dashoffset:0"
           d="m 198.0875,246.09266 -0.28176,1.04642 a 1.1383561,1.1383561 0 0 0 -0.35918,0.16258 l -0.70347,-0.40498 0.40443,0.70236 a 1.1383561,1.1383561 0 0 0 -0.16147,0.36013 l -1.04698,0.28186 1.04642,0.28176 a 1.1383561,1.1383561 0 0 0 0.16264,0.35918 l -0.40504,0.70347 0.70241,-0.40437 a 1.1383561,1.1383561 0 0 0 0.36013,0.16141 l 0.28187,1.04698 0.28175,-1.04642 a 1.1383561,1.1383561 0 0 0 0.35918,-0.16259 l 0.70347,0.40499 -0.40443,-0.70242 a 1.1383561,1.1383561 0 0 0 0.16147,-0.36012 l 1.04698,-0.28187 -1.04642,-0.28175 a 1.1383561,1.1383561 0 0 0 -0.16264,-0.35919 l 0.40504,-0.70341 -0.70236,0.40437 a 1.1383561,1.1383561 0 0 0 -0.36018,-0.16147 z"
           id="path952"
           inkscape:connector-curvature="0" />
        <path
           inkscape:connector-curvature="0"
           id="path954"
           d="m 203.6907,246.09266 -0.28175,1.04642 a 1.1383561,1.1383561 0 0 0 -0.35918,0.16258 l -0.70348,-0.40498 0.40443,0.70236 a 1.1383561,1.1383561 0 0 0 -0.16147,0.36013 l -1.04697,0.28186 1.04642,0.28176 a 1.1383561,1.1383561 0 0 0 0.16264,0.35918 l -0.40505,0.70347 0.70242,-0.40437 a 1.1383561,1.1383561 0 0 0 0.36013,0.16141 l 0.28186,1.04698 0.28175,-1.04642 a 1.1383561,1.1383561 0 0 0 0.35919,-0.16259 l 0.70346,0.40499 -0.40442,-0.70242 a 1.1383561,1.1383561 0 0 0 0.16147,-0.36012 l 1.04698,-0.28187 -1.04643,-0.28175 a 1.1383561,1.1383561 0 0 0 -0.16263,-0.35919 l 0.40503,-0.70341 -0.70235,0.40437 a 1.1383561,1.1383561 0 0 0 -0.36019,-0.16147 z"
           style="fill:#fbbc05;fill-opacity:1;stroke:#000000;stroke-width:0.05378061;stroke-linecap:butt;stroke-linejoin:round;stroke-miterlimit:5.19999981;stroke-dasharray:none;stroke-dashoffset:0" />
        <path
           inkscape:connector-curvature="0"
           id="path956"
           d="m 209.29391,246.09266 -0.28175,1.04642 a 1.1383561,1.1383561 0 0 0 -0.35919,0.16258 l -0.70347,-0.40498 0.40443,0.70236 a 1.1383561,1.1383561 0 0 0 -0.16147,0.36013 l -1.04697,0.28186 1.04642,0.28176 a 1.1383561,1.1383561 0 0 0 0.16263,0.35918 l -0.40504,0.70347 0.70242,-0.40437 a 1.1383561,1.1383561 0 0 0 0.36012,0.16141 l 0.28187,1.04698 0.28175,-1.04642 a 1.1383561,1.1383561 0 0 0 0.35919,-0.16259 l 0.70346,0.40499 -0.40442,-0.70242 a 1.1383561,1.1383561 0 0 0 0.16147,-0.36012 l 1.04698,-0.28187 -1.04643,-0.28175 a 1.1383561,1.1383561 0 0 0 -0.16263,-0.35919 l 0.40503,-0.70341 -0.70235,0.40437 a 1.1383561,1.1383561 0 0 0 -0.36019,-0.16147 z"
           style="fill:#fbbc05;fill-opacity:1;stroke:#000000;stroke-width:0.05378061;stroke-linecap:butt;stroke-linejoin:round;stroke-miterlimit:5.19999981;stroke-dasharray:none;stroke-dashoffset:0" />
        <path
           style="fill:#fbbc05;fill-opacity:1;stroke:#000000;stroke-width:0.05378061;stroke-linecap:butt;stroke-linejoin:round;stroke-miterlimit:5.19999981;stroke-dasharray:none;stroke-dashoffset:0"
           d="m 214.89711,246.09266 -0.28175,1.04642 a 1.1383561,1.1383561 0 0 0 -0.35918,0.16258 l -0.70347,-0.40498 0.40443,0.70236 a 1.1383561,1.1383561 0 0 0 -0.16148,0.36013 l -1.04697,0.28186 1.04642,0.28176 a 1.1383561,1.1383561 0 0 0 0.16264,0.35918 l -0.40504,0.70347 0.70241,-0.40437 a 1.1383561,1.1383561 0 0 0 0.36013,0.16141 l 0.28186,1.04698 0.28176,-1.04642 a 1.1383561,1.1383561 0 0 0 0.35918,-0.16259 l 0.70347,0.40499 -0.40443,-0.70242 a 1.1383561,1.1383561 0 0 0 0.16147,-0.36012 l 1.04698,-0.28187 -1.04642,-0.28175 a 1.1383561,1.1383561 0 0 0 -0.16264,-0.35919 l 0.40504,-0.70341 -0.70236,0.40437 a 1.1383561,1.1383561 0 0 0 -0.36018,-0.16147 z"
           id="path958"
           inkscape:connector-curvature="0" />
        <path
           inkscape:connector-curvature="0"
           id="path960"
           d="m 220.50033,246.09266 -0.28176,1.04642 a 1.1383561,1.1383561 0 0 0 -0.35918,0.16258 l -0.70347,-0.40498 0.40443,0.70236 a 1.1383561,1.1383561 0 0 0 -0.16147,0.36013 l -1.04698,0.28186 1.04642,0.28176 a 1.1383561,1.1383561 0 0 0 0.16264,0.35918 l -0.40504,0.70347 0.70241,-0.40437 a 1.1383561,1.1383561 0 0 0 0.36013,0.16141 l 0.28187,1.04698 0.28175,-1.04642 a 1.1383561,1.1383561 0 0 0 0.35918,-0.16259 l 0.70347,0.40499 -0.40443,-0.70242 a 1.1383561,1.1383561 0 0 0 0.16147,-0.36012 l 1.04698,-0.28187 -1.04642,-0.28175 a 1.1383561,1.1383561 0 0 0 -0.16264,-0.35919 l 0.40504,-0.70341 -0.70236,0.40437 a 1.1383561,1.1383561 0 0 0 -0.36018,-0.16147 z"
           style="fill:#fbbc05;fill-opacity:1;stroke:#000000;stroke-width:0.05378061;stroke-linecap:butt;stroke-linejoin:round;stroke-miterlimit:5.19999981;stroke-dasharray:none;stroke-dashoffset:0" />
        <path
           style="fill:#fbbc05;fill-opacity:1;stroke:#000000;stroke-width:0.05378061;stroke-linecap:butt;stroke-linejoin:round;stroke-miterlimit:5.19999981;stroke-dasharray:none;stroke-dashoffset:0"
           d="m 226.10353,246.09266 -0.28175,1.04642 a 1.1383561,1.1383561 0 0 0 -0.35918,0.16258 l -0.70348,-0.40498 0.40443,0.70236 a 1.1383561,1.1383561 0 0 0 -0.16147,0.36013 l -1.04697,0.28186 1.04642,0.28176 a 1.1383561,1.1383561 0 0 0 0.16264,0.35918 l -0.40505,0.70347 0.70242,-0.40437 a 1.1383561,1.1383561 0 0 0 0.36013,0.16141 l 0.28186,1.04698 0.28175,-1.04642 a 1.1383561,1.1383561 0 0 0 0.35919,-0.16259 l 0.70346,0.40499 -0.40442,-0.70242 a 1.1383561,1.1383561 0 0 0 0.16147,-0.36012 l 1.04698,-0.28187 -1.04643,-0.28175 a 1.1383561,1.1383561 0 0 0 -0.16263,-0.35919 l 0.40503,-0.70341 -0.70235,0.40437 a 1.1383561,1.1383561 0 0 0 -0.36019,-0.16147 z"
           id="path962"
           inkscape:connector-curvature="0" />
        <path
           style="fill:#fbbc05;fill-opacity:1;stroke:#000000;stroke-width:0.05378061;stroke-linecap:butt;stroke-linejoin:round;stroke-miterlimit:5.19999981;stroke-dasharray:none;stroke-dashoffset:0"
           d="m 231.70674,246.09266 -0.28175,1.04642 a 1.1383561,1.1383561 0 0 0 -0.35919,0.16258 l -0.70347,-0.40498 0.40443,0.70236 a 1.1383561,1.1383561 0 0 0 -0.16147,0.36013 l -1.04697,0.28186 1.04642,0.28176 a 1.1383561,1.1383561 0 0 0 0.16263,0.35918 l -0.40504,0.70347 0.70242,-0.40437 a 1.1383561,1.1383561 0 0 0 0.36012,0.16141 l 0.28187,1.04698 0.28175,-1.04642 a 1.1383561,1.1383561 0 0 0 0.35919,-0.16259 l 0.70346,0.40499 -0.40442,-0.70242 a 1.1383561,1.1383561 0 0 0 0.16147,-0.36012 l 1.04698,-0.28187 -1.04643,-0.28175 a 1.1383561,1.1383561 0 0 0 -0.16263,-0.35919 l 0.40503,-0.70341 -0.70235,0.40437 a 1.1383561,1.1383561 0 0 0 -0.36019,-0.16147 z"
           id="path964"
           inkscape:connector-curvature="0" />
        <path
           inkscape:connector-curvature="0"
           id="path966"
           d="m 237.30994,246.09266 -0.28175,1.04642 a 1.1383561,1.1383561 0 0 0 -0.35918,0.16258 l -0.70347,-0.40498 0.40443,0.70236 a 1.1383561,1.1383561 0 0 0 -0.16148,0.36013 l -1.04697,0.28186 1.04642,0.28176 a 1.1383561,1.1383561 0 0 0 0.16264,0.35918 l -0.40504,0.70347 0.70241,-0.40437 a 1.1383561,1.1383561 0 0 0 0.36013,0.16141 l 0.28186,1.04698 0.28176,-1.04642 a 1.1383561,1.1383561 0 0 0 0.35918,-0.16259 l 0.70347,0.40499 -0.40443,-0.70242 a 1.1383561,1.1383561 0 0 0 0.16147,-0.36012 l 1.04698,-0.28187 -1.04642,-0.28175 a 1.1383561,1.1383561 0 0 0 -0.16264,-0.35919 l 0.40504,-0.70341 -0.70236,0.40437 a 1.1383561,1.1383561 0 0 0 -0.36018,-0.16147 z"
           style="fill:#fbbc05;fill-opacity:1;stroke:#000000;stroke-width:0.05378061;stroke-linecap:butt;stroke-linejoin:round;stroke-miterlimit:5.19999981;stroke-dasharray:none;stroke-dashoffset:0" />
        <path
           style="fill:#fbbc05;fill-opacity:1;stroke:#000000;stroke-width:0.05378061;stroke-linecap:butt;stroke-linejoin:round;stroke-miterlimit:5.19999981;stroke-dasharray:none;stroke-dashoffset:0"
           d="m 242.91314,246.09266 -0.28175,1.04642 a 1.1383561,1.1383561 0 0 0 -0.35918,0.16258 l -0.70347,-0.40498 0.40443,0.70236 a 1.1383561,1.1383561 0 0 0 -0.16148,0.36013 l -1.04697,0.28186 1.04642,0.28176 a 1.1383561,1.1383561 0 0 0 0.16264,0.35918 l -0.40504,0.70347 0.70241,-0.40437 a 1.1383561,1.1383561 0 0 0 0.36013,0.16141 l 0.28186,1.04698 0.28176,-1.04642 a 1.1383561,1.1383561 0 0 0 0.35918,-0.16259 l 0.70347,0.40499 -0.40443,-0.70242 a 1.1383561,1.1383561 0 0 0 0.16147,-0.36012 l 1.04698,-0.28187 -1.04642,-0.28175 a 1.1383561,1.1383561 0 0 0 -0.16264,-0.35919 l 0.40504,-0.70341 -0.70236,0.40437 a 1.1383561,1.1383561 0 0 0 -0.36018,-0.16147 z"
           id="path968"
           inkscape:connector-curvature="0" />
      </g>
      <g
         id="g992"
         transform="matrix(1.2552985,0,0,1.2552985,-48.585601,-43.678061)">
        <path
           style="fill:#fbbc05;fill-opacity:1;stroke:#000000;stroke-width:0.05378061;stroke-linecap:butt;stroke-linejoin:round;stroke-miterlimit:5.19999981;stroke-dasharray:none;stroke-dashoffset:0"
           d="m 192.48429,246.09266 -0.28176,1.04642 a 1.1383561,1.1383561 0 0 0 -0.35918,0.16258 l -0.70347,-0.40498 0.40443,0.70236 a 1.1383561,1.1383561 0 0 0 -0.16147,0.36013 l -1.04698,0.28186 1.04642,0.28176 a 1.1383561,1.1383561 0 0 0 0.16264,0.35918 l -0.40504,0.70347 0.70241,-0.40437 a 1.1383561,1.1383561 0 0 0 0.36013,0.16141 l 0.28187,1.04698 0.28175,-1.04642 a 1.1383561,1.1383561 0 0 0 0.35918,-0.16259 l 0.70347,0.40499 -0.40443,-0.70242 a 1.1383561,1.1383561 0 0 0 0.16147,-0.36012 l 1.04698,-0.28187 -1.04642,-0.28175 a 1.1383561,1.1383561 0 0 0 -0.16264,-0.35919 l 0.40504,-0.70341 -0.70236,0.40437 a 1.1383561,1.1383561 0 0 0 -0.36018,-0.16147 z"
           id="path972"
           inkscape:connector-curvature="0" />
        <path
           inkscape:connector-curvature="0"
           id="path974"
           d="m 198.0875,246.09266 -0.28176,1.04642 a 1.1383561,1.1383561 0 0 0 -0.35918,0.16258 l -0.70347,-0.40498 0.40443,0.70236 a 1.1383561,1.1383561 0 0 0 -0.16147,0.36013 l -1.04698,0.28186 1.04642,0.28176 a 1.1383561,1.1383561 0 0 0 0.16264,0.35918 l -0.40504,0.70347 0.70241,-0.40437 a 1.1383561,1.1383561 0 0 0 0.36013,0.16141 l 0.28187,1.04698 0.28175,-1.04642 a 1.1383561,1.1383561 0 0 0 0.35918,-0.16259 l 0.70347,0.40499 -0.40443,-0.70242 a 1.1383561,1.1383561 0 0 0 0.16147,-0.36012 l 1.04698,-0.28187 -1.04642,-0.28175 a 1.1383561,1.1383561 0 0 0 -0.16264,-0.35919 l 0.40504,-0.70341 -0.70236,0.40437 a 1.1383561,1.1383561 0 0 0 -0.36018,-0.16147 z"
           style="fill:#fbbc05;fill-opacity:1;stroke:#000000;stroke-width:0.05378061;stroke-linecap:butt;stroke-linejoin:round;stroke-miterlimit:5.19999981;stroke-dasharray:none;stroke-dashoffset:0" />
        <path
           style="fill:#fbbc05;fill-opacity:1;stroke:#000000;stroke-width:0.05378061;stroke-linecap:butt;stroke-linejoin:round;stroke-miterlimit:5.19999981;stroke-dasharray:none;stroke-dashoffset:0"
           d="m 203.6907,246.09266 -0.28175,1.04642 a 1.1383561,1.1383561 0 0 0 -0.35918,0.16258 l -0.70348,-0.40498 0.40443,0.70236 a 1.1383561,1.1383561 0 0 0 -0.16147,0.36013 l -1.04697,0.28186 1.04642,0.28176 a 1.1383561,1.1383561 0 0 0 0.16264,0.35918 l -0.40505,0.70347 0.70242,-0.40437 a 1.1383561,1.1383561 0 0 0 0.36013,0.16141 l 0.28186,1.04698 0.28175,-1.04642 a 1.1383561,1.1383561 0 0 0 0.35919,-0.16259 l 0.70346,0.40499 -0.40442,-0.70242 a 1.1383561,1.1383561 0 0 0 0.16147,-0.36012 l 1.04698,-0.28187 -1.04643,-0.28175 a 1.1383561,1.1383561 0 0 0 -0.16263,-0.35919 l 0.40503,-0.70341 -0.70235,0.40437 a 1.1383561,1.1383561 0 0 0 -0.36019,-0.16147 z"
           id="path976"
           inkscape:connector-curvature="0" />
        <path
           style="fill:#fbbc05;fill-opacity:1;stroke:#000000;stroke-width:0.05378061;stroke-linecap:butt;stroke-linejoin:round;stroke-miterlimit:5.19999981;stroke-dasharray:none;stroke-dashoffset:0"
           d="m 209.29391,246.09266 -0.28175,1.04642 a 1.1383561,1.1383561 0 0 0 -0.35919,0.16258 l -0.70347,-0.40498 0.40443,0.70236 a 1.1383561,1.1383561 0 0 0 -0.16147,0.36013 l -1.04697,0.28186 1.04642,0.28176 a 1.1383561,1.1383561 0 0 0 0.16263,0.35918 l -0.40504,0.70347 0.70242,-0.40437 a 1.1383561,1.1383561 0 0 0 0.36012,0.16141 l 0.28187,1.04698 0.28175,-1.04642 a 1.1383561,1.1383561 0 0 0 0.35919,-0.16259 l 0.70346,0.40499 -0.40442,-0.70242 a 1.1383561,1.1383561 0 0 0 0.16147,-0.36012 l 1.04698,-0.28187 -1.04643,-0.28175 a 1.1383561,1.1383561 0 0 0 -0.16263,-0.35919 l 0.40503,-0.70341 -0.70235,0.40437 a 1.1383561,1.1383561 0 0 0 -0.36019,-0.16147 z"
           id="path978"
           inkscape:connector-curvature="0" />
        <path
           inkscape:connector-curvature="0"
           id="path980"
           d="m 214.89711,246.09266 -0.28175,1.04642 a 1.1383561,1.1383561 0 0 0 -0.35918,0.16258 l -0.70347,-0.40498 0.40443,0.70236 a 1.1383561,1.1383561 0 0 0 -0.16148,0.36013 l -1.04697,0.28186 1.04642,0.28176 a 1.1383561,1.1383561 0 0 0 0.16264,0.35918 l -0.40504,0.70347 0.70241,-0.40437 a 1.1383561,1.1383561 0 0 0 0.36013,0.16141 l 0.28186,1.04698 0.28176,-1.04642 a 1.1383561,1.1383561 0 0 0 0.35918,-0.16259 l 0.70347,0.40499 -0.40443,-0.70242 a 1.1383561,1.1383561 0 0 0 0.16147,-0.36012 l 1.04698,-0.28187 -1.04642,-0.28175 a 1.1383561,1.1383561 0 0 0 -0.16264,-0.35919 l 0.40504,-0.70341 -0.70236,0.40437 a 1.1383561,1.1383561 0 0 0 -0.36018,-0.16147 z"
           style="fill:#fbbc05;fill-opacity:1;stroke:#000000;stroke-width:0.05378061;stroke-linecap:butt;stroke-linejoin:round;stroke-miterlimit:5.19999981;stroke-dasharray:none;stroke-dashoffset:0" />
        <path
           style="fill:#fbbc05;fill-opacity:1;stroke:#000000;stroke-width:0.05378061;stroke-linecap:butt;stroke-linejoin:round;stroke-miterlimit:5.19999981;stroke-dasharray:none;stroke-dashoffset:0"
           d="m 220.50033,246.09266 -0.28176,1.04642 a 1.1383561,1.1383561 0 0 0 -0.35918,0.16258 l -0.70347,-0.40498 0.40443,0.70236 a 1.1383561,1.1383561 0 0 0 -0.16147,0.36013 l -1.04698,0.28186 1.04642,0.28176 a 1.1383561,1.1383561 0 0 0 0.16264,0.35918 l -0.40504,0.70347 0.70241,-0.40437 a 1.1383561,1.1383561 0 0 0 0.36013,0.16141 l 0.28187,1.04698 0.28175,-1.04642 a 1.1383561,1.1383561 0 0 0 0.35918,-0.16259 l 0.70347,0.40499 -0.40443,-0.70242 a 1.1383561,1.1383561 0 0 0 0.16147,-0.36012 l 1.04698,-0.28187 -1.04642,-0.28175 a 1.1383561,1.1383561 0 0 0 -0.16264,-0.35919 l 0.40504,-0.70341 -0.70236,0.40437 a 1.1383561,1.1383561 0 0 0 -0.36018,-0.16147 z"
           id="path982"
           inkscape:connector-curvature="0" />
        <path
           inkscape:connector-curvature="0"
           id="path984"
           d="m 226.10353,246.09266 -0.28175,1.04642 a 1.1383561,1.1383561 0 0 0 -0.35918,0.16258 l -0.70348,-0.40498 0.40443,0.70236 a 1.1383561,1.1383561 0 0 0 -0.16147,0.36013 l -1.04697,0.28186 1.04642,0.28176 a 1.1383561,1.1383561 0 0 0 0.16264,0.35918 l -0.40505,0.70347 0.70242,-0.40437 a 1.1383561,1.1383561 0 0 0 0.36013,0.16141 l 0.28186,1.04698 0.28175,-1.04642 a 1.1383561,1.1383561 0 0 0 0.35919,-0.16259 l 0.70346,0.40499 -0.40442,-0.70242 a 1.1383561,1.1383561 0 0 0 0.16147,-0.36012 l 1.04698,-0.28187 -1.04643,-0.28175 a 1.1383561,1.1383561 0 0 0 -0.16263,-0.35919 l 0.40503,-0.70341 -0.70235,0.40437 a 1.1383561,1.1383561 0 0 0 -0.36019,-0.16147 z"
           style="fill:#fbbc05;fill-opacity:1;stroke:#000000;stroke-width:0.05378061;stroke-linecap:butt;stroke-linejoin:round;stroke-miterlimit:5.19999981;stroke-dasharray:none;stroke-dashoffset:0" />
        <path
           inkscape:connector-curvature="0"
           id="path986"
           d="m 231.70674,246.09266 -0.28175,1.04642 a 1.1383561,1.1383561 0 0 0 -0.35919,0.16258 l -0.70347,-0.40498 0.40443,0.70236 a 1.1383561,1.1383561 0 0 0 -0.16147,0.36013 l -1.04697,0.28186 1.04642,0.28176 a 1.1383561,1.1383561 0 0 0 0.16263,0.35918 l -0.40504,0.70347 0.70242,-0.40437 a 1.1383561,1.1383561 0 0 0 0.36012,0.16141 l 0.28187,1.04698 0.28175,-1.04642 a 1.1383561,1.1383561 0 0 0 0.35919,-0.16259 l 0.70346,0.40499 -0.40442,-0.70242 a 1.1383561,1.1383561 0 0 0 0.16147,-0.36012 l 1.04698,-0.28187 -1.04643,-0.28175 a 1.1383561,1.1383561 0 0 0 -0.16263,-0.35919 l 0.40503,-0.70341 -0.70235,0.40437 a 1.1383561,1.1383561 0 0 0 -0.36019,-0.16147 z"
           style="fill:#fbbc05;fill-opacity:1;stroke:#000000;stroke-width:0.05378061;stroke-linecap:butt;stroke-linejoin:round;stroke-miterlimit:5.19999981;stroke-dasharray:none;stroke-dashoffset:0" />
        <path
           style="fill:#fbbc05;fill-opacity:1;stroke:#000000;stroke-width:0.05378061;stroke-linecap:butt;stroke-linejoin:round;stroke-miterlimit:5.19999981;stroke-dasharray:none;stroke-dashoffset:0"
           d="m 237.30994,246.09266 -0.28175,1.04642 a 1.1383561,1.1383561 0 0 0 -0.35918,0.16258 l -0.70347,-0.40498 0.40443,0.70236 a 1.1383561,1.1383561 0 0 0 -0.16148,0.36013 l -1.04697,0.28186 1.04642,0.28176 a 1.1383561,1.1383561 0 0 0 0.16264,0.35918 l -0.40504,0.70347 0.70241,-0.40437 a 1.1383561,1.1383561 0 0 0 0.36013,0.16141 l 0.28186,1.04698 0.28176,-1.04642 a 1.1383561,1.1383561 0 0 0 0.35918,-0.16259 l 0.70347,0.40499 -0.40443,-0.70242 a 1.1383561,1.1383561 0 0 0 0.16147,-0.36012 l 1.04698,-0.28187 -1.04642,-0.28175 a 1.1383561,1.1383561 0 0 0 -0.16264,-0.35919 l 0.40504,-0.70341 -0.70236,0.40437 a 1.1383561,1.1383561 0 0 0 -0.36018,-0.16147 z"
           id="path988"
           inkscape:connector-curvature="0" />
        <path
           inkscape:connector-curvature="0"
           id="path990"
           d="m 242.91314,246.09266 -0.28175,1.04642 a 1.1383561,1.1383561 0 0 0 -0.35918,0.16258 l -0.70347,-0.40498 0.40443,0.70236 a 1.1383561,1.1383561 0 0 0 -0.16148,0.36013 l -1.04697,0.28186 1.04642,0.28176 a 1.1383561,1.1383561 0 0 0 0.16264,0.35918 l -0.40504,0.70347 0.70241,-0.40437 a 1.1383561,1.1383561 0 0 0 0.36013,0.16141 l 0.28186,1.04698 0.28176,-1.04642 a 1.1383561,1.1383561 0 0 0 0.35918,-0.16259 l 0.70347,0.40499 -0.40443,-0.70242 a 1.1383561,1.1383561 0 0 0 0.16147,-0.36012 l 1.04698,-0.28187 -1.04642,-0.28175 a 1.1383561,1.1383561 0 0 0 -0.16264,-0.35919 l 0.40504,-0.70341 -0.70236,0.40437 a 1.1383561,1.1383561 0 0 0 -0.36018,-0.16147 z"
           style="fill:#fbbc05;fill-opacity:1;stroke:#000000;stroke-width:0.05378061;stroke-linecap:butt;stroke-linejoin:round;stroke-miterlimit:5.19999981;stroke-dasharray:none;stroke-dashoffset:0" />
      </g>
      <g
         transform="matrix(1.2552985,0,0,1.2552985,-48.585601,-36.361895)"
         id="g1014">
        <path
           inkscape:connector-curvature="0"
           id="path994"
           d="m 192.48429,246.09266 -0.28176,1.04642 a 1.1383561,1.1383561 0 0 0 -0.35918,0.16258 l -0.70347,-0.40498 0.40443,0.70236 a 1.1383561,1.1383561 0 0 0 -0.16147,0.36013 l -1.04698,0.28186 1.04642,0.28176 a 1.1383561,1.1383561 0 0 0 0.16264,0.35918 l -0.40504,0.70347 0.70241,-0.40437 a 1.1383561,1.1383561 0 0 0 0.36013,0.16141 l 0.28187,1.04698 0.28175,-1.04642 a 1.1383561,1.1383561 0 0 0 0.35918,-0.16259 l 0.70347,0.40499 -0.40443,-0.70242 a 1.1383561,1.1383561 0 0 0 0.16147,-0.36012 l 1.04698,-0.28187 -1.04642,-0.28175 a 1.1383561,1.1383561 0 0 0 -0.16264,-0.35919 l 0.40504,-0.70341 -0.70236,0.40437 a 1.1383561,1.1383561 0 0 0 -0.36018,-0.16147 z"
           style="fill:#fbbc05;fill-opacity:1;stroke:#000000;stroke-width:0.05378061;stroke-linecap:butt;stroke-linejoin:round;stroke-miterlimit:5.19999981;stroke-dasharray:none;stroke-dashoffset:0" />
        <path
           style="fill:#fbbc05;fill-opacity:1;stroke:#000000;stroke-width:0.05378061;stroke-linecap:butt;stroke-linejoin:round;stroke-miterlimit:5.19999981;stroke-dasharray:none;stroke-dashoffset:0"
           d="m 198.0875,246.09266 -0.28176,1.04642 a 1.1383561,1.1383561 0 0 0 -0.35918,0.16258 l -0.70347,-0.40498 0.40443,0.70236 a 1.1383561,1.1383561 0 0 0 -0.16147,0.36013 l -1.04698,0.28186 1.04642,0.28176 a 1.1383561,1.1383561 0 0 0 0.16264,0.35918 l -0.40504,0.70347 0.70241,-0.40437 a 1.1383561,1.1383561 0 0 0 0.36013,0.16141 l 0.28187,1.04698 0.28175,-1.04642 a 1.1383561,1.1383561 0 0 0 0.35918,-0.16259 l 0.70347,0.40499 -0.40443,-0.70242 a 1.1383561,1.1383561 0 0 0 0.16147,-0.36012 l 1.04698,-0.28187 -1.04642,-0.28175 a 1.1383561,1.1383561 0 0 0 -0.16264,-0.35919 l 0.40504,-0.70341 -0.70236,0.40437 a 1.1383561,1.1383561 0 0 0 -0.36018,-0.16147 z"
           id="path996"
           inkscape:connector-curvature="0" />
        <path
           inkscape:connector-curvature="0"
           id="path998"
           d="m 203.6907,246.09266 -0.28175,1.04642 a 1.1383561,1.1383561 0 0 0 -0.35918,0.16258 l -0.70348,-0.40498 0.40443,0.70236 a 1.1383561,1.1383561 0 0 0 -0.16147,0.36013 l -1.04697,0.28186 1.04642,0.28176 a 1.1383561,1.1383561 0 0 0 0.16264,0.35918 l -0.40505,0.70347 0.70242,-0.40437 a 1.1383561,1.1383561 0 0 0 0.36013,0.16141 l 0.28186,1.04698 0.28175,-1.04642 a 1.1383561,1.1383561 0 0 0 0.35919,-0.16259 l 0.70346,0.40499 -0.40442,-0.70242 a 1.1383561,1.1383561 0 0 0 0.16147,-0.36012 l 1.04698,-0.28187 -1.04643,-0.28175 a 1.1383561,1.1383561 0 0 0 -0.16263,-0.35919 l 0.40503,-0.70341 -0.70235,0.40437 a 1.1383561,1.1383561 0 0 0 -0.36019,-0.16147 z"
           style="fill:#fbbc05;fill-opacity:1;stroke:#000000;stroke-width:0.05378061;stroke-linecap:butt;stroke-linejoin:round;stroke-miterlimit:5.19999981;stroke-dasharray:none;stroke-dashoffset:0" />
        <path
           inkscape:connector-curvature="0"
           id="path1000"
           d="m 209.29391,246.09266 -0.28175,1.04642 a 1.1383561,1.1383561 0 0 0 -0.35919,0.16258 l -0.70347,-0.40498 0.40443,0.70236 a 1.1383561,1.1383561 0 0 0 -0.16147,0.36013 l -1.04697,0.28186 1.04642,0.28176 a 1.1383561,1.1383561 0 0 0 0.16263,0.35918 l -0.40504,0.70347 0.70242,-0.40437 a 1.1383561,1.1383561 0 0 0 0.36012,0.16141 l 0.28187,1.04698 0.28175,-1.04642 a 1.1383561,1.1383561 0 0 0 0.35919,-0.16259 l 0.70346,0.40499 -0.40442,-0.70242 a 1.1383561,1.1383561 0 0 0 0.16147,-0.36012 l 1.04698,-0.28187 -1.04643,-0.28175 a 1.1383561,1.1383561 0 0 0 -0.16263,-0.35919 l 0.40503,-0.70341 -0.70235,0.40437 a 1.1383561,1.1383561 0 0 0 -0.36019,-0.16147 z"
           style="fill:#fbbc05;fill-opacity:1;stroke:#000000;stroke-width:0.05378061;stroke-linecap:butt;stroke-linejoin:round;stroke-miterlimit:5.19999981;stroke-dasharray:none;stroke-dashoffset:0" />
        <path
           style="fill:#fbbc05;fill-opacity:1;stroke:#000000;stroke-width:0.05378061;stroke-linecap:butt;stroke-linejoin:round;stroke-miterlimit:5.19999981;stroke-dasharray:none;stroke-dashoffset:0"
           d="m 214.89711,246.09266 -0.28175,1.04642 a 1.1383561,1.1383561 0 0 0 -0.35918,0.16258 l -0.70347,-0.40498 0.40443,0.70236 a 1.1383561,1.1383561 0 0 0 -0.16148,0.36013 l -1.04697,0.28186 1.04642,0.28176 a 1.1383561,1.1383561 0 0 0 0.16264,0.35918 l -0.40504,0.70347 0.70241,-0.40437 a 1.1383561,1.1383561 0 0 0 0.36013,0.16141 l 0.28186,1.04698 0.28176,-1.04642 a 1.1383561,1.1383561 0 0 0 0.35918,-0.16259 l 0.70347,0.40499 -0.40443,-0.70242 a 1.1383561,1.1383561 0 0 0 0.16147,-0.36012 l 1.04698,-0.28187 -1.04642,-0.28175 a 1.1383561,1.1383561 0 0 0 -0.16264,-0.35919 l 0.40504,-0.70341 -0.70236,0.40437 a 1.1383561,1.1383561 0 0 0 -0.36018,-0.16147 z"
           id="path1002"
           inkscape:connector-curvature="0" />
        <path
           inkscape:connector-curvature="0"
           id="path1004"
           d="m 220.50033,246.09266 -0.28176,1.04642 a 1.1383561,1.1383561 0 0 0 -0.35918,0.16258 l -0.70347,-0.40498 0.40443,0.70236 a 1.1383561,1.1383561 0 0 0 -0.16147,0.36013 l -1.04698,0.28186 1.04642,0.28176 a 1.1383561,1.1383561 0 0 0 0.16264,0.35918 l -0.40504,0.70347 0.70241,-0.40437 a 1.1383561,1.1383561 0 0 0 0.36013,0.16141 l 0.28187,1.04698 0.28175,-1.04642 a 1.1383561,1.1383561 0 0 0 0.35918,-0.16259 l 0.70347,0.40499 -0.40443,-0.70242 a 1.1383561,1.1383561 0 0 0 0.16147,-0.36012 l 1.04698,-0.28187 -1.04642,-0.28175 a 1.1383561,1.1383561 0 0 0 -0.16264,-0.35919 l 0.40504,-0.70341 -0.70236,0.40437 a 1.1383561,1.1383561 0 0 0 -0.36018,-0.16147 z"
           style="fill:#fbbc05;fill-opacity:1;stroke:#000000;stroke-width:0.05378061;stroke-linecap:butt;stroke-linejoin:round;stroke-miterlimit:5.19999981;stroke-dasharray:none;stroke-dashoffset:0" />
        <path
           style="fill:#fbbc05;fill-opacity:1;stroke:#000000;stroke-width:0.05378061;stroke-linecap:butt;stroke-linejoin:round;stroke-miterlimit:5.19999981;stroke-dasharray:none;stroke-dashoffset:0"
           d="m 226.10353,246.09266 -0.28175,1.04642 a 1.1383561,1.1383561 0 0 0 -0.35918,0.16258 l -0.70348,-0.40498 0.40443,0.70236 a 1.1383561,1.1383561 0 0 0 -0.16147,0.36013 l -1.04697,0.28186 1.04642,0.28176 a 1.1383561,1.1383561 0 0 0 0.16264,0.35918 l -0.40505,0.70347 0.70242,-0.40437 a 1.1383561,1.1383561 0 0 0 0.36013,0.16141 l 0.28186,1.04698 0.28175,-1.04642 a 1.1383561,1.1383561 0 0 0 0.35919,-0.16259 l 0.70346,0.40499 -0.40442,-0.70242 a 1.1383561,1.1383561 0 0 0 0.16147,-0.36012 l 1.04698,-0.28187 -1.04643,-0.28175 a 1.1383561,1.1383561 0 0 0 -0.16263,-0.35919 l 0.40503,-0.70341 -0.70235,0.40437 a 1.1383561,1.1383561 0 0 0 -0.36019,-0.16147 z"
           id="path1006"
           inkscape:connector-curvature="0" />
        <path
           style="fill:#fbbc05;fill-opacity:1;stroke:#000000;stroke-width:0.05378061;stroke-linecap:butt;stroke-linejoin:round;stroke-miterlimit:5.19999981;stroke-dasharray:none;stroke-dashoffset:0"
           d="m 231.70674,246.09266 -0.28175,1.04642 a 1.1383561,1.1383561 0 0 0 -0.35919,0.16258 l -0.70347,-0.40498 0.40443,0.70236 a 1.1383561,1.1383561 0 0 0 -0.16147,0.36013 l -1.04697,0.28186 1.04642,0.28176 a 1.1383561,1.1383561 0 0 0 0.16263,0.35918 l -0.40504,0.70347 0.70242,-0.40437 a 1.1383561,1.1383561 0 0 0 0.36012,0.16141 l 0.28187,1.04698 0.28175,-1.04642 a 1.1383561,1.1383561 0 0 0 0.35919,-0.16259 l 0.70346,0.40499 -0.40442,-0.70242 a 1.1383561,1.1383561 0 0 0 0.16147,-0.36012 l 1.04698,-0.28187 -1.04643,-0.28175 a 1.1383561,1.1383561 0 0 0 -0.16263,-0.35919 l 0.40503,-0.70341 -0.70235,0.40437 a 1.1383561,1.1383561 0 0 0 -0.36019,-0.16147 z"
           id="path1008"
           inkscape:connector-curvature="0" />
        <path
           inkscape:connector-curvature="0"
           id="path1010"
           d="m 237.30994,246.09266 -0.28175,1.04642 a 1.1383561,1.1383561 0 0 0 -0.35918,0.16258 l -0.70347,-0.40498 0.40443,0.70236 a 1.1383561,1.1383561 0 0 0 -0.16148,0.36013 l -1.04697,0.28186 1.04642,0.28176 a 1.1383561,1.1383561 0 0 0 0.16264,0.35918 l -0.40504,0.70347 0.70241,-0.40437 a 1.1383561,1.1383561 0 0 0 0.36013,0.16141 l 0.28186,1.04698 0.28176,-1.04642 a 1.1383561,1.1383561 0 0 0 0.35918,-0.16259 l 0.70347,0.40499 -0.40443,-0.70242 a 1.1383561,1.1383561 0 0 0 0.16147,-0.36012 l 1.04698,-0.28187 -1.04642,-0.28175 a 1.1383561,1.1383561 0 0 0 -0.16264,-0.35919 l 0.40504,-0.70341 -0.70236,0.40437 a 1.1383561,1.1383561 0 0 0 -0.36018,-0.16147 z"
           style="fill:#fbbc05;fill-opacity:1;stroke:#000000;stroke-width:0.05378061;stroke-linecap:butt;stroke-linejoin:round;stroke-miterlimit:5.19999981;stroke-dasharray:none;stroke-dashoffset:0" />
        <path
           style="fill:#fbbc05;fill-opacity:1;stroke:#000000;stroke-width:0.05378061;stroke-linecap:butt;stroke-linejoin:round;stroke-miterlimit:5.19999981;stroke-dasharray:none;stroke-dashoffset:0"
           d="m 242.91314,246.09266 -0.28175,1.04642 a 1.1383561,1.1383561 0 0 0 -0.35918,0.16258 l -0.70347,-0.40498 0.40443,0.70236 a 1.1383561,1.1383561 0 0 0 -0.16148,0.36013 l -1.04697,0.28186 1.04642,0.28176 a 1.1383561,1.1383561 0 0 0 0.16264,0.35918 l -0.40504,0.70347 0.70241,-0.40437 a 1.1383561,1.1383561 0 0 0 0.36013,0.16141 l 0.28186,1.04698 0.28176,-1.04642 a 1.1383561,1.1383561 0 0 0 0.35918,-0.16259 l 0.70347,0.40499 -0.40443,-0.70242 a 1.1383561,1.1383561 0 0 0 0.16147,-0.36012 l 1.04698,-0.28187 -1.04642,-0.28175 a 1.1383561,1.1383561 0 0 0 -0.16264,-0.35919 l 0.40504,-0.70341 -0.70236,0.40437 a 1.1383561,1.1383561 0 0 0 -0.36018,-0.16147 z"
           id="path1012"
           inkscape:connector-curvature="0" />
      </g>
    </g>
    <flowRoot
       xml:space="preserve"
       id="flowRoot1075"
       style="font-style:normal;font-weight:normal;font-size:40px;line-height:1.25;font-family:sans-serif;letter-spacing:0px;word-spacing:0px;fill:#000000;fill-opacity:1;stroke:none"
       transform="matrix(0.20528142,0,0,0.20528142,31.213858,194.28688)"><flowRegion
         id="flowRegion1077"><rect
           id="rect1079"
           width="937.14288"
           height="98.571426"
           x="48.57143"
           y="-92.575935" /></flowRegion><flowPara
         id="flowPara1081"
         style="font-weight:normal;font-size:41.24419403px">to become great at data science</flowPara></flowRoot>    <flowRoot
       xml:space="preserve"
       id="flowRoot1102"
       style="font-style:normal;font-weight:normal;font-size:40px;line-height:1.25;font-family:sans-serif;letter-spacing:0px;word-spacing:0px;fill:#000000;fill-opacity:1;stroke:none"
       transform="matrix(0.20528142,0,0,0.20528142,11.919942,190.5808)"><flowRegion
         id="flowRegion1104"><rect
           id="rect1106"
           width="332.85715"
           height="82.857155"
           x="1.4285715"
           y="4.5669098" /></flowRegion><flowPara
         id="flowPara1108"
         style="font-style:italic;font-size:26.66666794px">a 2-day masterclass</flowPara></flowRoot>    <flowRoot
       transform="matrix(0.20528142,0,0,0.20528142,89.257876,190.5808)"
       style="font-style:normal;font-weight:normal;font-size:40px;line-height:1.25;font-family:sans-serif;letter-spacing:0px;word-spacing:0px;fill:#000000;fill-opacity:1;stroke:none"
       id="flowRoot1116"
       xml:space="preserve"><flowRegion
         id="flowRegion1112"><rect
           y="4.5669098"
           x="1.4285715"
           height="82.857155"
           width="332.85715"
           id="rect1110" /></flowRegion><flowPara
         style="font-style:italic;font-size:26.66666794px"
         id="flowPara1114">a 5-day course</flowPara></flowRoot>    <flowRoot
       xml:space="preserve"
       id="flowRoot1124"
       style="font-style:normal;font-weight:normal;font-size:40px;line-height:1.25;font-family:sans-serif;letter-spacing:0px;word-spacing:0px;fill:#000000;fill-opacity:1;stroke:none"
       transform="matrix(0.20528142,0,0,0.20528142,149.98619,190.5808)"><flowRegion
         id="flowRegion1120"><rect
           id="rect1118"
           width="332.85715"
           height="82.857155"
           x="1.4285715"
           y="4.5669098" /></flowRegion><flowPara
         id="flowPara1122"
         style="font-style:italic;font-size:26.66666794px">a 12-week boot camp</flowPara></flowRoot>    <flowRoot
       xml:space="preserve"
       id="flowRoot1132"
       style="font-style:normal;font-weight:normal;font-size:40px;line-height:1.25;font-family:sans-serif;letter-spacing:0px;word-spacing:0px;fill:#000000;fill-opacity:1;stroke:none"
       transform="matrix(0.20528142,0,0,0.20528142,94.043771,229.98026)"><flowRegion
         id="flowRegion1128"><rect
           id="rect1126"
           width="332.85715"
           height="82.857155"
           x="1.4285715"
           y="4.5669098" /></flowRegion><flowPara
         id="flowPara1130"
         style="font-style:italic;font-size:26.66666794px">is too short</flowPara></flowRoot>    <flowRoot
       transform="matrix(0.20528142,0,0,0.20528142,23.954833,229.98026)"
       style="font-style:normal;font-weight:normal;font-size:40px;line-height:1.25;font-family:sans-serif;letter-spacing:0px;word-spacing:0px;fill:#000000;fill-opacity:1;stroke:none"
       id="flowRoot1159"
       xml:space="preserve"><flowRegion
         id="flowRegion1155"><rect
           y="4.5669098"
           x="1.4285715"
           height="82.857155"
           width="332.85715"
           id="rect1153" /></flowRegion><flowPara
         style="font-style:italic;font-size:26.66666794px"
         id="flowPara1157">is too short</flowPara></flowRoot>    <flowRoot
       xml:space="preserve"
       id="flowRoot1167"
       style="font-style:normal;font-weight:normal;font-size:40px;line-height:1.25;font-family:sans-serif;letter-spacing:0px;word-spacing:0px;fill:#000000;fill-opacity:1;stroke:none"
       transform="matrix(0.20528142,0,0,0.20528142,164.1327,229.98026)"><flowRegion
         id="flowRegion1163"><rect
           id="rect1161"
           width="332.85715"
           height="82.857155"
           x="1.4285715"
           y="4.5669098" /></flowRegion><flowPara
         id="flowPara1165"
         style="font-style:italic;font-size:26.66666794px">is too short</flowPara></flowRoot>    <g
       id="g1319"
       transform="translate(7.2906299,2.6052392)">
      <g
         transform="translate(4.8226506,-45.555992)"
         id="g1277">
        <rect
           style="fill:#34a853;fill-opacity:1;stroke:none;stroke-width:0.5;stroke-linecap:butt;stroke-linejoin:round;stroke-miterlimit:5.19999981;stroke-dasharray:none;stroke-dashoffset:0"
           id="rect1169"
           width="4.9362426"
           height="4.9362426"
           x="12.889078"
           y="301.66202" />
        <rect
           y="301.66202"
           x="17.825321"
           height="4.9362426"
           width="4.9362426"
           id="rect1171"
           style="fill:#e6e6e6;fill-opacity:1;stroke:none;stroke-width:0.5;stroke-linecap:butt;stroke-linejoin:round;stroke-miterlimit:5.19999981;stroke-dasharray:none;stroke-dashoffset:0" />
        <rect
           y="301.66202"
           x="22.761564"
           height="4.9362426"
           width="4.9362426"
           id="rect1173"
           style="fill:#34a853;fill-opacity:1;stroke:none;stroke-width:0.5;stroke-linecap:butt;stroke-linejoin:round;stroke-miterlimit:5.19999981;stroke-dasharray:none;stroke-dashoffset:0" />
        <rect
           style="fill:#e6e6e6;fill-opacity:1;stroke:none;stroke-width:0.5;stroke-linecap:butt;stroke-linejoin:round;stroke-miterlimit:5.19999981;stroke-dasharray:none;stroke-dashoffset:0"
           id="rect1175"
           width="4.9362426"
           height="4.9362426"
           x="27.697807"
           y="301.66202" />
        <rect
           style="fill:#34a853;fill-opacity:1;stroke:none;stroke-width:0.5;stroke-linecap:butt;stroke-linejoin:round;stroke-miterlimit:5.19999981;stroke-dasharray:none;stroke-dashoffset:0"
           id="rect1177"
           width="4.9362426"
           height="4.9362426"
           x="32.634048"
           y="301.66202" />
        <rect
           y="301.66202"
           x="37.57029"
           height="4.9362426"
           width="4.9362426"
           id="rect1179"
           style="fill:#e6e6e6;fill-opacity:1;stroke:none;stroke-width:0.5;stroke-linecap:butt;stroke-linejoin:round;stroke-miterlimit:5.19999981;stroke-dasharray:none;stroke-dashoffset:0" />
        <rect
           y="306.59827"
           x="12.889078"
           height="4.9362426"
           width="4.9362426"
           id="rect1181"
           style="fill:#b3b3b3;fill-opacity:1;stroke:none;stroke-width:0.5;stroke-linecap:butt;stroke-linejoin:round;stroke-miterlimit:5.19999981;stroke-dasharray:none;stroke-dashoffset:0" />
        <rect
           style="fill:#4285f4;fill-opacity:1;stroke:none;stroke-width:0.5;stroke-linecap:butt;stroke-linejoin:round;stroke-miterlimit:5.19999981;stroke-dasharray:none;stroke-dashoffset:0"
           id="rect1183"
           width="4.9362426"
           height="4.9362426"
           x="17.825321"
           y="306.59827" />
        <rect
           style="fill:#b3b3b3;fill-opacity:1;stroke:none;stroke-width:0.5;stroke-linecap:butt;stroke-linejoin:round;stroke-miterlimit:5.19999981;stroke-dasharray:none;stroke-dashoffset:0"
           id="rect1185"
           width="4.9362426"
           height="4.9362426"
           x="22.761564"
           y="306.59827" />
        <rect
           y="306.59827"
           x="27.697807"
           height="4.9362426"
           width="4.9362426"
           id="rect1187"
           style="fill:#4285f4;fill-opacity:1;stroke:none;stroke-width:0.5;stroke-linecap:butt;stroke-linejoin:round;stroke-miterlimit:5.19999981;stroke-dasharray:none;stroke-dashoffset:0" />
        <rect
           y="306.59827"
           x="32.634048"
           height="4.9362426"
           width="4.9362426"
           id="rect1189"
           style="fill:#b3b3b3;fill-opacity:1;stroke:none;stroke-width:0.5;stroke-linecap:butt;stroke-linejoin:round;stroke-miterlimit:5.19999981;stroke-dasharray:none;stroke-dashoffset:0" />
        <rect
           style="fill:#4285f4;fill-opacity:1;stroke:none;stroke-width:0.5;stroke-linecap:butt;stroke-linejoin:round;stroke-miterlimit:5.19999981;stroke-dasharray:none;stroke-dashoffset:0"
           id="rect1191"
           width="4.9362426"
           height="4.9362426"
           x="37.57029"
           y="306.59827" />
        <rect
           y="311.53452"
           x="12.889078"
           height="4.9362426"
           width="4.9362426"
           id="rect1193"
           style="fill:#34a853;fill-opacity:1;stroke:none;stroke-width:0.5;stroke-linecap:butt;stroke-linejoin:round;stroke-miterlimit:5.19999981;stroke-dasharray:none;stroke-dashoffset:0" />
        <rect
           style="fill:#e6e6e6;fill-opacity:1;stroke:none;stroke-width:0.5;stroke-linecap:butt;stroke-linejoin:round;stroke-miterlimit:5.19999981;stroke-dasharray:none;stroke-dashoffset:0"
           id="rect1195"
           width="4.9362426"
           height="4.9362426"
           x="17.825321"
           y="311.53452" />
        <rect
           style="fill:#34a853;fill-opacity:1;stroke:none;stroke-width:0.5;stroke-linecap:butt;stroke-linejoin:round;stroke-miterlimit:5.19999981;stroke-dasharray:none;stroke-dashoffset:0"
           id="rect1197"
           width="4.9362426"
           height="4.9362426"
           x="22.761564"
           y="311.53452" />
        <rect
           y="311.53452"
           x="27.697807"
           height="4.9362426"
           width="4.9362426"
           id="rect1199"
           style="fill:#e6e6e6;fill-opacity:1;stroke:none;stroke-width:0.5;stroke-linecap:butt;stroke-linejoin:round;stroke-miterlimit:5.19999981;stroke-dasharray:none;stroke-dashoffset:0" />
        <rect
           y="311.53452"
           x="32.634048"
           height="4.9362426"
           width="4.9362426"
           id="rect1201"
           style="fill:#34a853;fill-opacity:1;stroke:none;stroke-width:0.5;stroke-linecap:butt;stroke-linejoin:round;stroke-miterlimit:5.19999981;stroke-dasharray:none;stroke-dashoffset:0" />
        <rect
           style="fill:#e6e6e6;fill-opacity:1;stroke:none;stroke-width:0.5;stroke-linecap:butt;stroke-linejoin:round;stroke-miterlimit:5.19999981;stroke-dasharray:none;stroke-dashoffset:0"
           id="rect1203"
           width="4.9362426"
           height="4.9362426"
           x="37.57029"
           y="311.53452" />
        <rect
           style="fill:#b3b3b3;fill-opacity:1;stroke:none;stroke-width:0.5;stroke-linecap:butt;stroke-linejoin:round;stroke-miterlimit:5.19999981;stroke-dasharray:none;stroke-dashoffset:0"
           id="rect1205"
           width="4.9362426"
           height="4.9362426"
           x="12.889078"
           y="316.47076" />
        <rect
           y="316.47076"
           x="17.825321"
           height="4.9362426"
           width="4.9362426"
           id="rect1207"
           style="fill:#4285f4;fill-opacity:1;stroke:none;stroke-width:0.5;stroke-linecap:butt;stroke-linejoin:round;stroke-miterlimit:5.19999981;stroke-dasharray:none;stroke-dashoffset:0" />
        <rect
           y="316.47076"
           x="22.761564"
           height="4.9362426"
           width="4.9362426"
           id="rect1209"
           style="fill:#b3b3b3;fill-opacity:1;stroke:none;stroke-width:0.5;stroke-linecap:butt;stroke-linejoin:round;stroke-miterlimit:5.19999981;stroke-dasharray:none;stroke-dashoffset:0" />
        <rect
           style="fill:#4285f4;fill-opacity:1;stroke:none;stroke-width:0.5;stroke-linecap:butt;stroke-linejoin:round;stroke-miterlimit:5.19999981;stroke-dasharray:none;stroke-dashoffset:0"
           id="rect1211"
           width="4.9362426"
           height="4.9362426"
           x="27.697807"
           y="316.47076" />
        <rect
           style="fill:#b3b3b3;fill-opacity:1;stroke:none;stroke-width:0.5;stroke-linecap:butt;stroke-linejoin:round;stroke-miterlimit:5.19999981;stroke-dasharray:none;stroke-dashoffset:0"
           id="rect1213"
           width="4.9362426"
           height="4.9362426"
           x="32.634048"
           y="316.47076" />
        <rect
           y="316.47076"
           x="37.57029"
           height="4.9362426"
           width="4.9362426"
           id="rect1215"
           style="fill:#4285f4;fill-opacity:1;stroke:none;stroke-width:0.5;stroke-linecap:butt;stroke-linejoin:round;stroke-miterlimit:5.19999981;stroke-dasharray:none;stroke-dashoffset:0" />
        <rect
           style="fill:#34a853;fill-opacity:1;stroke:none;stroke-width:0.5;stroke-linecap:butt;stroke-linejoin:round;stroke-miterlimit:5.19999981;stroke-dasharray:none;stroke-dashoffset:0"
           id="rect1217"
           width="4.9362426"
           height="4.9362426"
           x="12.889078"
           y="321.40701" />
        <rect
           y="321.40701"
           x="17.825321"
           height="4.9362426"
           width="4.9362426"
           id="rect1219"
           style="fill:#e6e6e6;fill-opacity:1;stroke:none;stroke-width:0.5;stroke-linecap:butt;stroke-linejoin:round;stroke-miterlimit:5.19999981;stroke-dasharray:none;stroke-dashoffset:0" />
        <rect
           y="321.40701"
           x="22.761564"
           height="4.9362426"
           width="4.9362426"
           id="rect1221"
           style="fill:#34a853;fill-opacity:1;stroke:none;stroke-width:0.5;stroke-linecap:butt;stroke-linejoin:round;stroke-miterlimit:5.19999981;stroke-dasharray:none;stroke-dashoffset:0" />
        <rect
           style="fill:#e6e6e6;fill-opacity:1;stroke:none;stroke-width:0.5;stroke-linecap:butt;stroke-linejoin:round;stroke-miterlimit:5.19999981;stroke-dasharray:none;stroke-dashoffset:0"
           id="rect1223"
           width="4.9362426"
           height="4.9362426"
           x="27.697807"
           y="321.40701" />
        <rect
           style="fill:#34a853;fill-opacity:1;stroke:none;stroke-width:0.5;stroke-linecap:butt;stroke-linejoin:round;stroke-miterlimit:5.19999981;stroke-dasharray:none;stroke-dashoffset:0"
           id="rect1225"
           width="4.9362426"
           height="4.9362426"
           x="32.634048"
           y="321.40701" />
        <rect
           y="321.40701"
           x="37.57029"
           height="4.9362426"
           width="4.9362426"
           id="rect1227"
           style="fill:#e6e6e6;fill-opacity:1;stroke:none;stroke-width:0.5;stroke-linecap:butt;stroke-linejoin:round;stroke-miterlimit:5.19999981;stroke-dasharray:none;stroke-dashoffset:0" />
        <rect
           y="326.34326"
           x="12.889078"
           height="4.9362426"
           width="4.9362426"
           id="rect1229"
           style="fill:#b3b3b3;fill-opacity:1;stroke:none;stroke-width:0.5;stroke-linecap:butt;stroke-linejoin:round;stroke-miterlimit:5.19999981;stroke-dasharray:none;stroke-dashoffset:0" />
        <rect
           style="fill:#4285f4;fill-opacity:1;stroke:none;stroke-width:0.5;stroke-linecap:butt;stroke-linejoin:round;stroke-miterlimit:5.19999981;stroke-dasharray:none;stroke-dashoffset:0"
           id="rect1231"
           width="4.9362426"
           height="4.9362426"
           x="17.825321"
           y="326.34326" />
        <rect
           style="fill:#b3b3b3;fill-opacity:1;stroke:none;stroke-width:0.5;stroke-linecap:butt;stroke-linejoin:round;stroke-miterlimit:5.19999981;stroke-dasharray:none;stroke-dashoffset:0"
           id="rect1233"
           width="4.9362426"
           height="4.9362426"
           x="22.761564"
           y="326.34326" />
        <rect
           y="326.34326"
           x="27.697807"
           height="4.9362426"
           width="4.9362426"
           id="rect1235"
           style="fill:#4285f4;fill-opacity:1;stroke:none;stroke-width:0.5;stroke-linecap:butt;stroke-linejoin:round;stroke-miterlimit:5.19999981;stroke-dasharray:none;stroke-dashoffset:0" />
        <rect
           y="326.34326"
           x="32.634048"
           height="4.9362426"
           width="4.9362426"
           id="rect1237"
           style="fill:#b3b3b3;fill-opacity:1;stroke:none;stroke-width:0.5;stroke-linecap:butt;stroke-linejoin:round;stroke-miterlimit:5.19999981;stroke-dasharray:none;stroke-dashoffset:0" />
        <rect
           style="fill:#4285f4;fill-opacity:1;stroke:none;stroke-width:0.5;stroke-linecap:butt;stroke-linejoin:round;stroke-miterlimit:5.19999981;stroke-dasharray:none;stroke-dashoffset:0"
           id="rect1239"
           width="4.9362426"
           height="4.9362426"
           x="37.57029"
           y="326.34326" />
      </g>
      <rect
         y="256.10602"
         x="17.711729"
         height="29.617493"
         width="29.617453"
         id="rect1279"
         style="fill:none;fill-opacity:1;stroke:#000000;stroke-width:0.5;stroke-linecap:butt;stroke-linejoin:round;stroke-miterlimit:5.19999981;stroke-dasharray:none;stroke-dashoffset:0" />
    </g>
    <g
       id="g3798"
       inkscape:export-xdpi="37.369999"
       inkscape:export-ydpi="37.369999"
       transform="matrix(0.04022623,0,0,0.04022623,133.5615,256.68966)">
      <path
         style="fill:#333333;fill-opacity:1;stroke:none;stroke-width:3.20000005;stroke-opacity:1"
         d="m -606.63333,115.06667 c -45.82152,0 -80.05963,32.67045 -82.96667,72.73333 -3.16513,43.61975 10.28462,78.98861 -15.08495,130.93502 -29.41303,34.97406 -72.19424,95.80904 -80.27546,163.19831 -9.23629,77.02143 34.56091,143.42117 101.6114,163.44198 18.59074,5.55106 51.32485,-2.86482 72.96238,-2.86482 27.96761,0 55.12696,7.54984 79.72981,-1.60474 63.08177,-23.47235 96.48575,-86.93779 106.66308,-158.97242 7.86828,-55.69127 -45.52696,-130.84155 -85.65464,-177.89035 -17.46229,-40.91262 -10.75133,-81.15366 -14.01829,-116.24298 0,-40.16821 -37.14515,-72.73333 -82.96666,-72.73333 z"
         id="path3094"
         inkscape:connector-curvature="0"
         sodipodi:nodetypes="sscsssssccs"
         transform="matrix(1.2281624,0,0,1.2281624,1135.6716,-23.74193)" />
      <ellipse
         ry="29.361767"
         rx="19.664303"
         cy="227.38982"
         cx="-660.77448"
         style="fill:#ffffff;stroke:#ffffff;stroke-width:3.20000005;stroke-linecap:round;stroke-miterlimit:4;stroke-dasharray:none;stroke-dashoffset:0;stroke-opacity:1"
         id="path3111"
         transform="matrix(1.2281624,0,0,1.2281624,1135.6716,-23.74193)" />
      <ellipse
         ry="35.826744"
         rx="25.321157"
         cy="228.46732"
         cx="-591.00659"
         style="fill:#ffffff;stroke:#ffffff;stroke-width:3.20000005;stroke-linecap:round;stroke-miterlimit:4;stroke-dasharray:none;stroke-dashoffset:0;stroke-opacity:1"
         id="path3113"
         transform="matrix(1.2281624,0,0,1.2281624,1135.6716,-23.74193)" />
      <ellipse
         ry="15.354319"
         rx="8.0812206"
         cy="237.0873"
         cx="-660.50507"
         style="fill:#000000;fill-opacity:1;stroke:#000000;stroke-width:3.20000005;stroke-linecap:round;stroke-miterlimit:4;stroke-dasharray:none;stroke-dashoffset:0;stroke-opacity:1"
         id="path3115"
         transform="matrix(1.2281624,0,0,1.2281624,1135.6716,-23.74193)" />
      <ellipse
         ry="17.50931"
         rx="12.12183"
         cy="234.9323"
         cx="-594.50848"
         style="fill:#000000;fill-opacity:1;stroke:#000000;stroke-width:3.20000005;stroke-linecap:round;stroke-miterlimit:4;stroke-dasharray:none;stroke-dashoffset:0;stroke-opacity:1"
         id="path3117"
         transform="matrix(1.2281624,0,0,1.2281624,1135.6716,-23.74193)" />
      <path
         style="fill:#cccccc;fill-opacity:1;stroke:#e6e6e6;stroke-width:1.06666672px;stroke-linecap:butt;stroke-linejoin:miter;stroke-opacity:1"
         d="m -731.61982,486.79699 c -1.14606,-40.24262 14.75936,-73.31 33.43391,-106.73424 16.94274,-30.32461 24.51034,-61.59789 26.36713,-83.98256 l 107.21085,-11.3137 30.16989,81.88969 c 15.15817,29.9537 31.33733,60.98355 36.63486,94.28091 2.61217,16.41866 -2.74501,49.79986 -2.74501,49.79986 88.57394,113.9686 -29.08621,-106.70026 12.57223,41.27198 l -57.23704,43.07641 c -38.78193,30.55283 -85.17308,38.27801 -145.46197,4.30999 l -3.23249,-16.16244 c 18.39395,-0.38966 30.51257,-5.96328 16.16245,-33.40238 -38.66674,-34.62021 -55.08029,-42.47968 -53.87481,-63.03352 z"
         id="path3135"
         inkscape:connector-curvature="0"
         sodipodi:nodetypes="cscccaccccccc"
         transform="matrix(1.2281624,0,0,1.2281624,1135.6716,-23.74193)" />
      <path
         sodipodi:nodetypes="sccscccssss"
         inkscape:connector-curvature="0"
         id="path3131"
         d="m -514.79602,495.08882 c 16.8726,-6.83334 24.58031,-1.54533 46.77927,13.51301 16.88458,3.57479 44.30396,-6.60229 54.16744,15.63573 4.43443,10.94929 1.79638,15.91613 5.53341,23.55698 8.81412,18.02165 11.61605,19.33941 19.87021,37.92974 5.23775,12.93281 -5.67696,21.24696 -23.1602,28.32761 -19.75359,9.41135 -24.69296,12.69882 -41.71048,27.80716 -27.19213,34.36318 -55.09423,44.44019 -84.29035,25.42108 -6.91683,-4.5058 -13.52174,-16.12246 -14.02107,-24.13593 -1.84533,-29.61512 16.33854,-57.57975 15.18244,-86.97783 -1.06493,-27.07938 4.77674,-54.2442 21.64933,-61.07755 z"
         style="fill:#ff9955;fill-opacity:1;stroke:#000000;stroke-width:3.20000005;stroke-linecap:round;stroke-miterlimit:4;stroke-dasharray:none;stroke-dashoffset:0;stroke-opacity:1"
         transform="matrix(1.2281624,0,0,1.2281624,1135.6716,-23.74193)" />
      <ellipse
         ry="63.84164"
         rx="84.044693"
         cy="435.34656"
         cx="-621.17651"
         style="fill:#ffffff;stroke:#ffffff;stroke-width:3.20000005;stroke-linecap:round;stroke-miterlimit:4;stroke-dasharray:none;stroke-dashoffset:0;stroke-opacity:1"
         id="path3137"
         transform="matrix(1.2281624,0,0,1.2281624,1135.6716,-23.74193)" />
      <path
         style="fill:#ff9955;fill-opacity:1;stroke:#000000;stroke-width:4.26666689;stroke-linecap:butt;stroke-linejoin:miter;stroke-opacity:1"
         d="m -683.67124,272.37527 c 0.79016,-7.89885 14.03776,-15.28486 20.47242,-19.93367 6.5002,-4.69616 12.3187,-10.95504 19.93368,-13.46869 7.85188,-2.59186 17.50467,-5.00235 24.78241,-1.07751 13.42369,7.23932 36.67274,13.31769 45.25484,20.47243 7.04958,5.87711 15.11871,9.94292 12.92995,18.85618 -2.92351,11.90538 -19.43202,18.32901 -30.16989,24.24366 -11.53762,6.35516 -22.3855,17.32024 -35.55738,17.23994 -11.24344,-0.0686 -20.61465,-9.15896 -30.16988,-15.08494 -10.80783,-6.70283 -28.8673,-17.34088 -27.47615,-31.2474 z"
         id="path3090"
         inkscape:connector-curvature="0"
         sodipodi:nodetypes="ssssssssss"
         transform="matrix(1.2281624,0,0,1.2281624,1135.6716,-23.74193)" />
      <path
         style="fill:none;stroke:#000000;stroke-width:4.26666689;stroke-linecap:butt;stroke-linejoin:miter;stroke-opacity:1"
         d="m -673.43503,273.99152 c 44.38379,42.92451 67.74985,12.28693 95.89715,-1.61625"
         id="path3109"
         inkscape:connector-curvature="0"
         sodipodi:nodetypes="cc"
         transform="matrix(1.2281624,0,0,1.2281624,1135.6716,-23.74193)" />
      <path
         style="fill:#ff9955;fill-opacity:1;stroke:#000000;stroke-width:3.20000005;stroke-linecap:round;stroke-miterlimit:4;stroke-dasharray:none;stroke-dashoffset:0;stroke-opacity:1"
         d="m -766.09915,494.77292 c -18.20382,0 -17.55099,9.94537 -35.66041,29.73418 -11.65163,12.73215 -40.60181,11.77859 -41.39628,36.0929 0,11.81318 4.60144,15.23678 4.00592,23.72166 -1.40459,20.0124 -4.32838,17.38696 -5.0005,37.71624 0,13.95319 12.57695,23.07835 31.43959,23.07835 23.1252,-2.69927 30.23322,-2.07365 51.79746,10.14331 38.10284,21.64287 71.45212,21.38959 91.37378,-7.1983 4.71962,-6.77274 3.41849,-24.81592 -0.44761,-31.85284 -14.46757,-26.33328 -40.68071,-57.16239 -51.29283,-79.31011 -11.7103,-24.43963 -26.6153,-42.12539 -44.81912,-42.12539 z"
         id="path3119"
         inkscape:connector-curvature="0"
         sodipodi:nodetypes="sscscccssss"
         transform="matrix(1.2281624,0,0,1.2281624,1135.6716,-23.74193)" />
      <text
         clip-path="none"
         id="text3147"
         y="173.50133"
         x="-1.6662292"
         style="font-style:normal;font-weight:normal;font-size:12.80000019px;line-height:0%;font-family:sans-serif;letter-spacing:0px;word-spacing:0px;fill:#000000;fill-opacity:1;stroke:none;stroke-width:1.06666672"
         xml:space="preserve"><tspan
           style="font-size:42.66666794px;line-height:1.25;font-family:sans-serif;stroke-width:1.06666672"
           y="173.50133"
           x="-1.6662292"
           id="tspan3149"
           sodipodi:role="line"></tspan><tspan
           style="font-size:42.66666794px;line-height:1.25;font-family:sans-serif;stroke-width:1.06666672"
           y="226.83466"
           x="-1.6662292"
           id="tspan3151"
           sodipodi:role="line"></tspan></text>
    </g>
    <path
       style="fill:none;fill-opacity:1;stroke:#000000;stroke-width:0.5;stroke-linecap:butt;stroke-linejoin:round;stroke-miterlimit:5.19999981;stroke-dasharray:none;stroke-dashoffset:0"
       d="m 129.92233,271.7912 c 0,2.90055 -2.3351,5.23566 -5.23565,5.23566 m 0,0 H 74.075094 c -2.900553,0 -5.235655,-2.33511 -5.235655,-5.23566 v -6.98093 c 0,-2.90055 2.335102,-5.23565 5.235655,-5.23565 h 50.611586 c 2.90055,0 5.23565,2.3351 5.23565,5.23565 m 0,0 9.30787,4.50851 -9.30787,2.47242"
       id="rect1355"
       inkscape:connector-curvature="0"
       sodipodi:nodetypes="cccssssscccc" />
    <flowRoot
       transform="matrix(0.20528142,0,0,0.20528142,73.270353,258.75278)"
       style="font-style:normal;font-weight:normal;font-size:40px;line-height:1.25;font-family:sans-serif;letter-spacing:0px;word-spacing:0px;fill:#000000;fill-opacity:1;stroke:none"
       id="flowRoot1159-5"
       xml:space="preserve"><flowRegion
         id="flowRegion1155-3"><rect
           y="4.5669098"
           x="1.4285715"
           height="82.857155"
           width="332.85715"
           id="rect1153-5" /></flowRegion><flowPara
         style="font-style:italic;font-size:26.66666794px"
         id="flowPara1157-6">do you recognize</flowPara></flowRoot>    <flowRoot
       xml:space="preserve"
       id="flowRoot1388"
       style="font-style:normal;font-weight:normal;font-size:40px;line-height:1.25;font-family:sans-serif;letter-spacing:0px;word-spacing:0px;fill:#000000;fill-opacity:1;stroke:none"
       transform="matrix(0.20528142,0,0,0.20528142,73.270353,265.47155)"><flowRegion
         id="flowRegion1384"><rect
           id="rect1382"
           width="332.85715"
           height="82.857155"
           x="1.4285715"
           y="4.5669098" /></flowRegion><flowPara
         id="flowPara1386"
         style="font-style:italic;font-size:26.66666794px">a pattern?</flowPara></flowRoot>  </g>
</svg>
