<?xml version="1.0" encoding="UTF-8" standalone="no"?>
<!-- Created with Inkscape (http://www.inkscape.org/) -->

<svg
   xmlns:dc="http://purl.org/dc/elements/1.1/"
   xmlns:cc="http://creativecommons.org/ns#"
   xmlns:rdf="http://www.w3.org/1999/02/22-rdf-syntax-ns#"
   xmlns:svg="http://www.w3.org/2000/svg"
   xmlns="http://www.w3.org/2000/svg"
   xmlns:sodipodi="http://sodipodi.sourceforge.net/DTD/sodipodi-0.dtd"
   xmlns:inkscape="http://www.inkscape.org/namespaces/inkscape"
   width="110mm"
   height="110mm"
   viewBox="0 0 110 110"
   version="1.1"
   id="svg8"
   inkscape:version="0.92.5 (2060ec1f9f, 2020-04-08)"
   sodipodi:docname="feedback_multiple_choice.svg"
   inkscape:export-filename="/home/kristian/projects/online_teaching_survival_guide/images/feedback_multiple_choice.png"
   inkscape:export-xdpi="137.39091"
   inkscape:export-ydpi="137.39091">
  <defs
     id="defs2" />
  <sodipodi:namedview
     id="base"
     pagecolor="#ffffff"
     bordercolor="#666666"
     borderopacity="1.0"
     inkscape:pageopacity="0.0"
     inkscape:pageshadow="2"
     inkscape:zoom="1.979899"
     inkscape:cx="108.13939"
     inkscape:cy="320.11977"
     inkscape:document-units="mm"
     inkscape:current-layer="layer1"
     showgrid="false"
     inkscape:window-width="1848"
     inkscape:window-height="1016"
     inkscape:window-x="72"
     inkscape:window-y="27"
     inkscape:window-maximized="1" />
  <metadata
     id="metadata5">
    <rdf:RDF>
      <cc:Work
         rdf:about="">
        <dc:format>image/svg+xml</dc:format>
        <dc:type
           rdf:resource="http://purl.org/dc/dcmitype/StillImage" />
        <dc:title />
      </cc:Work>
    </rdf:RDF>
  </metadata>
  <g
     inkscape:label="Layer 1"
     inkscape:groupmode="layer"
     id="layer1"
     transform="translate(0,-187)">
    <rect
       y="192.58408"
       x="9.4494038"
       height="20.316229"
       width="92.226189"
       id="rect937"
       style="fill:#fbbc05;fill-opacity:1;stroke:#000000;stroke-width:1;stroke-linecap:round;stroke-linejoin:round;stroke-miterlimit:4;stroke-dasharray:0.26499998, 0.26499998;stroke-dashoffset:0" />
    <rect
       style="fill:#fbbc05;fill-opacity:0.50196078;stroke:#000000;stroke-width:0.91099834;stroke-linecap:round;stroke-linejoin:round;stroke-miterlimit:4;stroke-dasharray:0.24141454, 0.24141454;stroke-dashoffset:0"
       id="rect10"
       width="92.226189"
       height="76.540184"
       x="9.4494038"
       y="212.9003" />
    <rect
       style="fill:#fbbc05;fill-opacity:0.50196078;stroke:#000000;stroke-width:0.75;stroke-linecap:round;stroke-linejoin:round;stroke-miterlimit:4;stroke-dasharray:0.20516959, 0.20516959;stroke-dashoffset:0"
       id="rect833"
       width="5.7064524"
       height="5.7064524"
       x="17.461393"
       y="220.7249" />
    <rect
       y="237.98581"
       x="17.461393"
       height="5.7064524"
       width="5.7064524"
       id="rect835"
       style="fill:#fbbc05;fill-opacity:0.50196078;stroke:#000000;stroke-width:0.75;stroke-linecap:round;stroke-linejoin:round;stroke-miterlimit:4;stroke-dasharray:0.20516959, 0.20516959;stroke-dashoffset:0" />
    <rect
       style="fill:#fbbc05;fill-opacity:0.50196078;stroke:#000000;stroke-width:0.75;stroke-linecap:round;stroke-linejoin:round;stroke-miterlimit:4;stroke-dasharray:0.20516959, 0.20516959;stroke-dashoffset:0"
       id="rect837"
       width="5.7064524"
       height="5.7064524"
       x="17.461393"
       y="255.24673" />
    <rect
       y="272.50766"
       x="17.461393"
       height="5.7064524"
       width="5.7064524"
       id="rect839"
       style="fill:#fbbc05;fill-opacity:0.50196078;stroke:#000000;stroke-width:0.75;stroke-linecap:round;stroke-linejoin:round;stroke-miterlimit:4;stroke-dasharray:0.20516959, 0.20516959;stroke-dashoffset:0" />
    <flowRoot
       transform="matrix(0.26458333,0,0,0.26458333,-18.520833,136.10801)"
       style="font-style:normal;font-weight:normal;font-size:40px;line-height:1.25;font-family:sans-serif;letter-spacing:0px;word-spacing:0px;fill:#000000;fill-opacity:1;stroke:none"
       id="flowRoot855"
       xml:space="preserve"><flowRegion
         id="flowRegion851"><rect
           y="299.66254"
           x="190"
           height="63.57143"
           width="241.42857"
           id="rect849" /></flowRegion><flowPara
         style="font-size:16px"
         id="flowPara853">chmod w+a &lt;filename&gt;</flowPara></flowRoot>    <flowRoot
       xml:space="preserve"
       id="flowRoot841"
       style="font-style:normal;font-weight:normal;font-size:40px;line-height:1.25;font-family:sans-serif;letter-spacing:0px;word-spacing:0px;fill:#000000;fill-opacity:1;stroke:none"
       transform="matrix(0.26458333,0,0,0.26458333,-18.520833,167.73085)"><flowRegion
         id="flowRegion843"><rect
           id="rect845"
           width="241.42857"
           height="63.57143"
           x="190"
           y="299.66254" /></flowRegion><flowPara
         id="flowPara847"
         style="font-size:16px" /></flowRoot>    <flowRoot
       transform="matrix(0.26458333,0,0,0.26458333,-18.520833,170.61538)"
       style="font-style:normal;font-weight:normal;font-size:40px;line-height:1.25;font-family:sans-serif;letter-spacing:0px;word-spacing:0px;fill:#000000;fill-opacity:1;stroke:none"
       id="flowRoot865"
       xml:space="preserve"><flowRegion
         id="flowRegion861"><rect
           y="299.66254"
           x="190"
           height="63.57143"
           width="241.42857"
           id="rect859" /></flowRegion><flowPara
         style="font-style:normal;font-variant:normal;font-weight:normal;font-stretch:normal;font-size:16px;font-family:monospace;-inkscape-font-specification:monospace"
         id="flowPara863">chmod u-r &lt;filename&gt;</flowPara></flowRoot>    <flowRoot
       xml:space="preserve"
       id="flowRoot885"
       style="font-style:normal;font-weight:normal;font-size:40px;line-height:1.25;font-family:sans-serif;letter-spacing:0px;word-spacing:0px;fill:#000000;fill-opacity:1;stroke:none"
       transform="matrix(0.26458333,0,0,0.26458333,-18.520833,188.22557)"><flowRegion
         id="flowRegion879"><rect
           id="rect877"
           width="241.42857"
           height="63.57143"
           x="190"
           y="299.66254" /></flowRegion><flowPara
         id="flowPara883"
         style="font-size:16px">chmod 400 &lt;filename&gt;</flowPara></flowRoot>    <g
       id="g926"
       transform="translate(-18.520833,171.6069)">
      <flowRoot
         transform="matrix(0.26458333,0,0,0.26458333,0,-18.298957)"
         style="font-style:normal;font-weight:normal;font-size:40px;line-height:1.25;font-family:sans-serif;letter-spacing:0px;word-spacing:0px;fill:#000000;fill-opacity:1;stroke:none"
         id="flowRoot901"
         xml:space="preserve"><flowRegion
           id="flowRegion897"><rect
             y="299.66254"
             x="190"
             height="63.57143"
             width="241.42857"
             id="rect895" /></flowRegion><flowPara
           style="font-style:normal;font-variant:normal;font-weight:normal;font-stretch:normal;font-size:16px;font-family:monospace;-inkscape-font-specification:monospace"
           id="flowPara899">chmod a+w &lt;filename&gt;</flowPara></flowRoot>    </g>
    <path
       sodipodi:nodetypes="ccccc"
       inkscape:connector-curvature="0"
       id="path930"
       d="m 18.562813,239.54727 2.321905,3.04019 3.524616,-6.84878 -3.524616,5.04471 z"
       style="fill:#34a853;fill-opacity:1;stroke:#000000;stroke-width:0.26458332px;stroke-linecap:butt;stroke-linejoin:miter;stroke-opacity:1" />
    <path
       style="fill:#ea4335;fill-opacity:1;stroke:#000000;stroke-width:0.25;stroke-linecap:round;stroke-linejoin:round;stroke-miterlimit:4;stroke-dasharray:none;stroke-dashoffset:0"
       d="m 23.771671,254.52937 c -0.214675,-0.21468 -0.560239,-0.21468 -0.774912,0 l -2.684787,2.68478 -2.684789,-2.68478 c -0.214672,-0.21468 -0.560237,-0.21468 -0.774909,-1e-5 l -0.110462,0.11047 c -0.214672,0.21467 -0.214672,0.56024 0,0.77491 l 2.684787,2.68479 -2.685215,2.68521 c -0.214672,0.21467 -0.214674,0.56024 0,0.77491 l 0.110884,0.11089 c 0.214673,0.21467 0.560237,0.21467 0.774909,-1e-5 l 2.685216,-2.68521 2.684788,2.68479 c 0.214672,0.21467 0.560239,0.21467 0.774911,0 l 0.110463,-0.11047 c 0.214673,-0.21467 0.21467,-0.56023 -3e-6,-0.7749 l -2.684787,-2.68479 2.684787,-2.68479 c 0.214673,-0.21467 0.214676,-0.56024 3e-6,-0.77491 z"
       id="rect932"
       inkscape:connector-curvature="0" />
    <path
       inkscape:connector-curvature="0"
       id="path852"
       d="m 23.771671,219.94455 c -0.214675,-0.21468 -0.560239,-0.21468 -0.774912,0 l -2.684787,2.68478 -2.684789,-2.68478 c -0.214672,-0.21468 -0.560237,-0.21468 -0.774909,-1e-5 l -0.110462,0.11047 c -0.214672,0.21467 -0.214672,0.56024 0,0.77491 l 2.684787,2.68479 -2.685215,2.68521 c -0.214672,0.21467 -0.214674,0.56024 0,0.77491 l 0.110884,0.11089 c 0.214673,0.21467 0.560237,0.21467 0.774909,-1e-5 l 2.685216,-2.68521 2.684788,2.68479 c 0.214672,0.21467 0.560239,0.21467 0.774911,0 l 0.110463,-0.11047 c 0.214673,-0.21467 0.21467,-0.56023 -3e-6,-0.7749 l -2.684787,-2.68479 2.684787,-2.68479 c 0.214673,-0.21467 0.214676,-0.56024 3e-6,-0.77491 z"
       style="fill:#ea4335;fill-opacity:1;stroke:#000000;stroke-width:0.25;stroke-linecap:round;stroke-linejoin:round;stroke-miterlimit:4;stroke-dasharray:none;stroke-dashoffset:0" />
    <path
       style="fill:#ea4335;fill-opacity:1;stroke:#000000;stroke-width:0.25;stroke-linecap:round;stroke-linejoin:round;stroke-miterlimit:4;stroke-dasharray:none;stroke-dashoffset:0"
       d="m 23.771671,271.82178 c -0.214675,-0.21468 -0.560239,-0.21468 -0.774912,0 l -2.684787,2.68478 -2.684789,-2.68478 c -0.214672,-0.21468 -0.560237,-0.21468 -0.774909,-10e-6 l -0.110462,0.11047 c -0.214672,0.21467 -0.214672,0.56024 0,0.77491 l 2.684787,2.68479 -2.685215,2.68521 c -0.214672,0.21467 -0.214674,0.56024 0,0.77491 l 0.110884,0.11089 c 0.214673,0.21467 0.560237,0.21467 0.774909,-10e-6 l 2.685216,-2.68521 2.684788,2.68479 c 0.214672,0.21467 0.560239,0.21467 0.774911,0 l 0.110463,-0.11047 c 0.214673,-0.21467 0.21467,-0.56023 -3e-6,-0.7749 l -2.684787,-2.68479 2.684787,-2.68479 c 0.214673,-0.21467 0.214676,-0.56024 3e-6,-0.77491 z"
       id="path854"
       inkscape:connector-curvature="0" />
    <g
       id="g879"
       transform="translate(5.953125,-3.1183036)">
      <g
         id="g868">
        <flowRoot
           xml:space="preserve"
           id="flowRoot823"
           style="font-style:normal;font-weight:normal;font-size:40px;line-height:1.25;font-family:sans-serif;letter-spacing:0px;word-spacing:0px;fill:#000000;fill-opacity:1;stroke:none"
           transform="matrix(0.26458333,0,0,0.26458333,-17.169761,177.8378)"><flowRegion
             id="flowRegion825"><rect
               id="rect827"
               width="455"
               height="50"
               x="100"
               y="67.519684" /></flowRegion><flowPara
             id="flowPara829"
             style="font-weight:bold;font-size:21.33333397px">how to give everybody</flowPara></flowRoot>      </g>
      <flowRoot
         xml:space="preserve"
         id="flowRoot862"
         style="font-style:normal;font-weight:normal;font-size:40px;line-height:1.25;font-family:sans-serif;letter-spacing:0px;word-spacing:0px;fill:#000000;fill-opacity:1;stroke:none"
         transform="matrix(0.26458333,0,0,0.26458333,-17.169761,184.73587)"><flowRegion
           id="flowRegion858"><rect
             id="rect856"
             width="455"
             height="50"
             x="100"
             y="67.519684" /></flowRegion><flowPara
           id="flowPara860"
           style="font-weight:bold;font-size:21.33333397px">write permission?</flowPara></flowRoot>    </g>
    <g
       transform="translate(5.953125,-3.1183036)"
       id="g899">
      <g
         id="g889">
        <flowRoot
           transform="matrix(0.26458333,0,0,0.26458333,-17.169761,177.8378)"
           style="font-style:normal;font-weight:normal;font-size:40px;line-height:1.25;font-family:sans-serif;letter-spacing:0px;word-spacing:0px;fill:#000000;fill-opacity:1;stroke:none"
           id="flowRoot887"
           xml:space="preserve"><flowRegion
             id="flowRegion883"><rect
               y="67.519684"
               x="100"
               height="50"
               width="455"
               id="rect881" /></flowRegion><flowPara
             style="font-weight:bold;font-size:21.33333397px"
             id="flowPara885">how to give everybody</flowPara></flowRoot>      </g>
      <flowRoot
         transform="matrix(0.26458333,0,0,0.26458333,-17.169761,184.73587)"
         style="font-style:normal;font-weight:normal;font-size:40px;line-height:1.25;font-family:sans-serif;letter-spacing:0px;word-spacing:0px;fill:#000000;fill-opacity:1;stroke:none"
         id="flowRoot897"
         xml:space="preserve"><flowRegion
           id="flowRegion893"><rect
             y="67.519684"
             x="100"
             height="50"
             width="455"
             id="rect891" /></flowRegion><flowPara
           style="font-weight:bold;font-size:21.33333397px"
           id="flowPara895">write permission?</flowPara></flowRoot>    </g>
  </g>
</svg>
