<?xml version="1.0" encoding="UTF-8" standalone="no"?>
<!-- Created with Inkscape (http://www.inkscape.org/) -->

<svg
   xmlns:dc="http://purl.org/dc/elements/1.1/"
   xmlns:cc="http://creativecommons.org/ns#"
   xmlns:rdf="http://www.w3.org/1999/02/22-rdf-syntax-ns#"
   xmlns:svg="http://www.w3.org/2000/svg"
   xmlns="http://www.w3.org/2000/svg"
   xmlns:sodipodi="http://sodipodi.sourceforge.net/DTD/sodipodi-0.dtd"
   xmlns:inkscape="http://www.inkscape.org/namespaces/inkscape"
   width="140mm"
   height="95mm"
   viewBox="0 0 140 95"
   version="1.1"
   id="svg8"
   inkscape:version="0.92.5 (2060ec1f9f, 2020-04-08)"
   sodipodi:docname="infinity.svg"
   inkscape:export-filename="/home/kristian/projects/online_teaching_survival_guide/images/infinity.png"
   inkscape:export-xdpi="108.55158"
   inkscape:export-ydpi="108.55158">
  <defs
     id="defs2" />
  <sodipodi:namedview
     id="base"
     pagecolor="#ffffff"
     bordercolor="#666666"
     borderopacity="1.0"
     inkscape:pageopacity="0.0"
     inkscape:pageshadow="2"
     inkscape:zoom="0.98994949"
     inkscape:cx="313.01142"
     inkscape:cy="-47.811998"
     inkscape:document-units="mm"
     inkscape:current-layer="layer1"
     showgrid="false"
     inkscape:window-width="1848"
     inkscape:window-height="1016"
     inkscape:window-x="72"
     inkscape:window-y="27"
     inkscape:window-maximized="1" />
  <metadata
     id="metadata5">
    <rdf:RDF>
      <cc:Work
         rdf:about="">
        <dc:format>image/svg+xml</dc:format>
        <dc:type
           rdf:resource="http://purl.org/dc/dcmitype/StillImage" />
        <dc:title></dc:title>
      </cc:Work>
    </rdf:RDF>
  </metadata>
  <g
     inkscape:label="Layer 1"
     inkscape:groupmode="layer"
     id="layer1"
     transform="translate(0,-202)">
    <path
       style="fill:#fbbc05;fill-opacity:1;stroke:#000000;stroke-width:0.5;stroke-linecap:butt;stroke-linejoin:round;stroke-miterlimit:5.19999981;stroke-dasharray:none;stroke-dashoffset:0"
       d="m 64.963633,262.63774 c 6.55418,7.69838 13.03475,15.67033 23.67039,15.67036 14.195177,2.5e-4 25.702797,-11.50713 25.702837,-25.7023 -4e-5,-14.19518 -11.50766,-25.70256 -25.702837,-25.70231 -10.63564,3e-5 -17.3052,7.97198 -23.67039,15.67036 -6.081706,-7.98186 -13.034741,-15.67033 -23.670385,-15.67036 -14.195179,-2.5e-4 -25.702786,11.50713 -25.702826,25.70231 4e-5,14.19517 11.507647,25.70255 25.702826,25.7023 10.635644,-3e-5 16.927221,-7.31052 23.670385,-15.67036 m -6.9882,-10.03194 c 0,0 -9.138788,13.6585 -16.682185,13.65859 -7.543599,2e-4 -13.659025,-6.115 -13.659115,-13.65859 9e-5,-7.5436 6.115516,-13.6588 13.659115,-13.6586 7.543397,9e-5 16.682185,13.6586 16.682185,13.6586 m 30.65859,-13.6586 c 7.5436,-2e-4 13.659027,6.115 13.659117,13.6586 -9e-5,7.54359 -6.115517,13.65879 -13.659117,13.65859 -7.5434,-9e-5 -16.68218,-13.65859 -16.68218,-13.65859 0,0 9.13878,-13.65851 16.68218,-13.6586 z"
       id="path19"
       inkscape:connector-curvature="0"
       sodipodi:nodetypes="ccccccccccccccccccc" />
    <path
       style="fill:none;stroke:#000000;stroke-width:0.5;stroke-linecap:butt;stroke-linejoin:miter;stroke-opacity:1"
       d="m 57.975433,252.60579 6.9882,-10.03194"
       id="path827"
       inkscape:connector-curvature="0" />
    <path
       style="fill:none;stroke:#000000;stroke-width:0.5;stroke-linecap:butt;stroke-linejoin:miter;stroke-opacity:1"
       d="m 64.963633,262.63774 6.98821,-10.03195"
       id="path829"
       inkscape:connector-curvature="0" />
    <flowRoot
       xml:space="preserve"
       id="flowRoot833"
       style="font-style:normal;font-weight:normal;font-size:40px;line-height:1.25;font-family:sans-serif;letter-spacing:0px;word-spacing:0px;fill:#000000;fill-opacity:1;stroke:none"
       transform="matrix(0.26458333,0,0,0.26458333,-30.735996,167.74975)"><flowRegion
         id="flowRegion835"><rect
           id="rect837"
           width="189.90868"
           height="97.984795"
           x="437.39606"
           y="140.64476" /></flowRegion><flowPara
         id="flowPara839"
         style="font-style:italic;font-size:21.33333397px">get a new idea</flowPara></flowRoot>    <flowRoot
       transform="matrix(0.26458333,0,0,0.26458333,-34.2105,242.07753)"
       style="font-style:normal;font-weight:normal;font-size:40px;line-height:1.25;font-family:sans-serif;letter-spacing:0px;word-spacing:0px;fill:#000000;fill-opacity:1;stroke:none"
       id="flowRoot847"
       xml:space="preserve"><flowRegion
         id="flowRegion843"><rect
           y="140.64476"
           x="437.39606"
           height="97.984795"
           width="189.90868"
           id="rect841" /></flowRegion><flowPara
         style="font-style:italic;font-size:21.33333397px"
         id="flowPara845">create material</flowPara></flowRoot>    <flowRoot
       xml:space="preserve"
       id="flowRoot855"
       style="font-style:normal;font-weight:normal;font-size:40px;line-height:1.25;font-family:sans-serif;letter-spacing:0px;word-spacing:0px;fill:#000000;fill-opacity:1;stroke:none"
       transform="matrix(0.26458333,0,0,0.26458333,-99.691532,242.07753)"><flowRegion
         id="flowRegion851"><rect
           id="rect849"
           width="189.90868"
           height="97.984795"
           x="437.39606"
           y="140.64476" /></flowRegion><flowPara
         id="flowPara853"
         style="font-style:italic;font-size:21.33333397px">scrap one half</flowPara></flowRoot>    <flowRoot
       transform="matrix(0.26458333,0,0,0.26458333,-99.958802,167.74975)"
       style="font-style:normal;font-weight:normal;font-size:40px;line-height:1.25;font-family:sans-serif;letter-spacing:0px;word-spacing:0px;fill:#000000;fill-opacity:1;stroke:none"
       id="flowRoot863"
       xml:space="preserve"><flowRegion
         id="flowRegion859"><rect
           y="140.64476"
           x="437.39606"
           height="97.984795"
           width="189.90868"
           id="rect857" /></flowRegion><flowPara
         style="font-style:italic;font-size:21.33333397px"
         id="flowPara861">review your work</flowPara></flowRoot>    <g
       id="g850"
       transform="rotate(8.6725994,52.494648,784.01471)">
      <g
         id="g3194"
         transform="matrix(-0.1773842,0,0,0.1773842,158.48287,167.32483)"
         inkscape:export-filename="/home/krother/Desktop/mySpeakerBusiness/speaker_types.png"
         inkscape:export-xdpi="149.98193"
         inkscape:export-ydpi="149.98193"
         style="fill:#ea4335;fill-opacity:1;stroke:#000000;stroke-width:0.89693666">
        <path
           inkscape:export-ydpi="300.03"
           inkscape:export-xdpi="300.03"
           inkscape:export-filename="C:\Documents and Settings\Kristian\Pulpit\title.png"
           inkscape:connector-curvature="0"
           id="path3196"
           d="m 844.75662,277.50715 c -2.82542,1.63125 -3.80636,2.68231 -4.72303,5.18938 -0.10302,0.28176 -3.78001,-0.084 -4.09968,1.3151 -0.48465,2.12125 3.12285,3.06796 3.10541,3.389 -0.11376,2.09474 0.49041,3.456 1.61732,5.40786 9.41338,13.00089 24.98123,-0.80598 19.395,-11.19771 -3.09265,-5.35663 -9.93839,-7.19628 -15.29502,-4.10363 z"
           style="fill:#ea4335;fill-opacity:1;stroke:#000000;stroke-width:0.89693666"
           sodipodi:nodetypes="ssssccs" />
      </g>
      <g
         id="g3198"
         transform="matrix(-0.17187915,0,0,0.17187915,153.82393,168.91427)"
         inkscape:export-filename="/home/krother/Desktop/mySpeakerBusiness/speaker_types.png"
         inkscape:export-xdpi="149.98193"
         inkscape:export-ydpi="149.98193"
         style="stroke:#000000;stroke-width:0.89693666">
        <path
           sodipodi:nodetypes="cccccccccccccc"
           style="fill:#ea4335;fill-opacity:1;stroke:#000000;stroke-width:0.89693666"
           d="m 878.66979,329.04307 -22.68101,-29.47521 h -11.7629 l -22.87387,24.52872 0.0127,13.47858 16.66247,-18.72557 -11.4493,39.64937 h 16.49576 l 5.65901,-22.16206 5.18502,21.68804 h 14.61427 l -8.38706,-34.48817 16.46981,18.57387 z"
           id="path3200"
           inkscape:connector-curvature="0"
           inkscape:export-filename="C:\Documents and Settings\Kristian\Pulpit\title.png"
           inkscape:export-xdpi="300.03"
           inkscape:export-ydpi="300.03" />
      </g>
    </g>
    <g
       transform="rotate(137.61377,48.796729,268.63391)"
       id="g860">
      <g
         style="fill:#ea4335;fill-opacity:1;stroke:#000000;stroke-width:0.89693666"
         inkscape:export-ydpi="149.98193"
         inkscape:export-xdpi="149.98193"
         inkscape:export-filename="/home/krother/Desktop/mySpeakerBusiness/speaker_types.png"
         transform="matrix(-0.1773842,0,0,0.1773842,158.48287,167.32483)"
         id="g854">
        <path
           sodipodi:nodetypes="ssssccs"
           style="fill:#ea4335;fill-opacity:1;stroke:#000000;stroke-width:0.89693666"
           d="m 844.75662,277.50715 c -2.82542,1.63125 -3.80636,2.68231 -4.72303,5.18938 -0.10302,0.28176 -3.78001,-0.084 -4.09968,1.3151 -0.48465,2.12125 3.12285,3.06796 3.10541,3.389 -0.11376,2.09474 0.49041,3.456 1.61732,5.40786 9.41338,13.00089 24.98123,-0.80598 19.395,-11.19771 -3.09265,-5.35663 -9.93839,-7.19628 -15.29502,-4.10363 z"
           id="path852"
           inkscape:connector-curvature="0"
           inkscape:export-filename="C:\Documents and Settings\Kristian\Pulpit\title.png"
           inkscape:export-xdpi="300.03"
           inkscape:export-ydpi="300.03" />
      </g>
      <g
         style="stroke:#000000;stroke-width:0.89693666"
         inkscape:export-ydpi="149.98193"
         inkscape:export-xdpi="149.98193"
         inkscape:export-filename="/home/krother/Desktop/mySpeakerBusiness/speaker_types.png"
         transform="matrix(-0.17187915,0,0,0.17187915,153.82393,168.91427)"
         id="g858">
        <path
           inkscape:export-ydpi="300.03"
           inkscape:export-xdpi="300.03"
           inkscape:export-filename="C:\Documents and Settings\Kristian\Pulpit\title.png"
           inkscape:connector-curvature="0"
           id="path856"
           d="m 878.66979,329.04307 -22.68101,-29.47521 h -11.7629 l -22.87387,24.52872 0.0127,13.47858 16.66247,-18.72557 -11.4493,39.64937 h 16.49576 l 5.65901,-22.16206 5.18502,21.68804 h 14.61427 l -8.38706,-34.48817 16.46981,18.57387 z"
           style="fill:#ea4335;fill-opacity:1;stroke:#000000;stroke-width:0.89693666"
           sodipodi:nodetypes="cccccccccccccc" />
      </g>
    </g>
    <g
       id="g870"
       transform="rotate(179.81824,23.805386,232.77726)">
      <g
         id="g864"
         transform="matrix(-0.1773842,0,0,0.1773842,158.48287,167.32483)"
         inkscape:export-filename="/home/krother/Desktop/mySpeakerBusiness/speaker_types.png"
         inkscape:export-xdpi="149.98193"
         inkscape:export-ydpi="149.98193"
         style="fill:#ea4335;fill-opacity:1;stroke:#000000;stroke-width:0.89693666">
        <path
           inkscape:export-ydpi="300.03"
           inkscape:export-xdpi="300.03"
           inkscape:export-filename="C:\Documents and Settings\Kristian\Pulpit\title.png"
           inkscape:connector-curvature="0"
           id="path862"
           d="m 844.75662,277.50715 c -2.82542,1.63125 -3.80636,2.68231 -4.72303,5.18938 -0.10302,0.28176 -3.78001,-0.084 -4.09968,1.3151 -0.48465,2.12125 3.12285,3.06796 3.10541,3.389 -0.11376,2.09474 0.49041,3.456 1.61732,5.40786 9.41338,13.00089 24.98123,-0.80598 19.395,-11.19771 -3.09265,-5.35663 -9.93839,-7.19628 -15.29502,-4.10363 z"
           style="fill:#ea4335;fill-opacity:1;stroke:#000000;stroke-width:0.89693666"
           sodipodi:nodetypes="ssssccs" />
      </g>
      <g
         id="g868"
         transform="matrix(-0.17187915,0,0,0.17187915,153.82393,168.91427)"
         inkscape:export-filename="/home/krother/Desktop/mySpeakerBusiness/speaker_types.png"
         inkscape:export-xdpi="149.98193"
         inkscape:export-ydpi="149.98193"
         style="stroke:#000000;stroke-width:0.89693666">
        <path
           sodipodi:nodetypes="cccccccccccccc"
           style="fill:#ea4335;fill-opacity:1;stroke:#000000;stroke-width:0.89693666"
           d="m 878.66979,329.04307 -22.68101,-29.47521 h -11.7629 l -22.87387,24.52872 0.0127,13.47858 16.66247,-18.72557 -11.4493,39.64937 h 16.49576 l 5.65901,-22.16206 5.18502,21.68804 h 14.61427 l -8.38706,-34.48817 16.46981,18.57387 z"
           id="path866"
           inkscape:connector-curvature="0"
           inkscape:export-filename="C:\Documents and Settings\Kristian\Pulpit\title.png"
           inkscape:export-xdpi="300.03"
           inkscape:export-ydpi="300.03" />
      </g>
    </g>
    <g
       transform="rotate(-18.057373,141.45019,128.12314)"
       id="g880">
      <g
         style="fill:#ea4335;fill-opacity:1;stroke:#000000;stroke-width:0.89693666"
         inkscape:export-ydpi="149.98193"
         inkscape:export-xdpi="149.98193"
         inkscape:export-filename="/home/krother/Desktop/mySpeakerBusiness/speaker_types.png"
         transform="matrix(-0.1773842,0,0,0.1773842,158.48287,167.32483)"
         id="g874">
        <path
           sodipodi:nodetypes="ssssccs"
           style="fill:#ea4335;fill-opacity:1;stroke:#000000;stroke-width:0.89693666"
           d="m 844.75662,277.50715 c -2.82542,1.63125 -3.80636,2.68231 -4.72303,5.18938 -0.10302,0.28176 -3.78001,-0.084 -4.09968,1.3151 -0.48465,2.12125 3.12285,3.06796 3.10541,3.389 -0.11376,2.09474 0.49041,3.456 1.61732,5.40786 9.41338,13.00089 24.98123,-0.80598 19.395,-11.19771 -3.09265,-5.35663 -9.93839,-7.19628 -15.29502,-4.10363 z"
           id="path872"
           inkscape:connector-curvature="0"
           inkscape:export-filename="C:\Documents and Settings\Kristian\Pulpit\title.png"
           inkscape:export-xdpi="300.03"
           inkscape:export-ydpi="300.03" />
      </g>
      <g
         style="stroke:#000000;stroke-width:0.89693666"
         inkscape:export-ydpi="149.98193"
         inkscape:export-xdpi="149.98193"
         inkscape:export-filename="/home/krother/Desktop/mySpeakerBusiness/speaker_types.png"
         transform="matrix(-0.17187915,0,0,0.17187915,153.82393,168.91427)"
         id="g878">
        <path
           inkscape:export-ydpi="300.03"
           inkscape:export-xdpi="300.03"
           inkscape:export-filename="C:\Documents and Settings\Kristian\Pulpit\title.png"
           inkscape:connector-curvature="0"
           id="path876"
           d="m 878.66979,329.04307 -22.68101,-29.47521 h -11.7629 l -22.87387,24.52872 0.0127,13.47858 16.66247,-18.72557 -11.4493,39.64937 h 16.49576 l 5.65901,-22.16206 5.18502,21.68804 h 14.61427 l -8.38706,-34.48817 16.46981,18.57387 z"
           style="fill:#ea4335;fill-opacity:1;stroke:#000000;stroke-width:0.89693666"
           sodipodi:nodetypes="cccccccccccccc" />
      </g>
    </g>
  </g>
</svg>
