<?xml version="1.0" encoding="UTF-8" standalone="no"?>
<!-- Created with Inkscape (http://www.inkscape.org/) -->

<svg
   xmlns:dc="http://purl.org/dc/elements/1.1/"
   xmlns:cc="http://creativecommons.org/ns#"
   xmlns:rdf="http://www.w3.org/1999/02/22-rdf-syntax-ns#"
   xmlns:svg="http://www.w3.org/2000/svg"
   xmlns="http://www.w3.org/2000/svg"
   xmlns:sodipodi="http://sodipodi.sourceforge.net/DTD/sodipodi-0.dtd"
   xmlns:inkscape="http://www.inkscape.org/namespaces/inkscape"
   width="210mm"
   height="30mm"
   viewBox="0 0 210 30"
   version="1.1"
   id="svg19841"
   inkscape:version="0.92.5 (2060ec1f9f, 2020-04-08)"
   sodipodi:docname="recycle_code.svg"
   inkscape:export-filename="/home/kristian/projects/online_teaching_survival_guide/images/recycle_code.png"
   inkscape:export-xdpi="145.14"
   inkscape:export-ydpi="145.14">
  <defs
     id="defs19835" />
  <sodipodi:namedview
     id="base"
     pagecolor="#34a853"
     bordercolor="#666666"
     borderopacity="1.0"
     inkscape:pageopacity="1"
     inkscape:pageshadow="2"
     inkscape:zoom="0.7"
     inkscape:cx="784.74655"
     inkscape:cy="135.43501"
     inkscape:document-units="mm"
     inkscape:current-layer="g21105"
     showgrid="false"
     inkscape:window-width="1848"
     inkscape:window-height="1016"
     inkscape:window-x="72"
     inkscape:window-y="27"
     inkscape:window-maximized="1" />
  <metadata
     id="metadata19838">
    <rdf:RDF>
      <cc:Work
         rdf:about="">
        <dc:format>image/svg+xml</dc:format>
        <dc:type
           rdf:resource="http://purl.org/dc/dcmitype/StillImage" />
        <dc:title></dc:title>
      </cc:Work>
    </rdf:RDF>
  </metadata>
  <g
     inkscape:label="Layer 1"
     inkscape:groupmode="layer"
     id="layer1"
     transform="translate(0,-267)">
    <g
       id="g21105"
       transform="translate(-2.2082454)">
      <flowRoot
         transform="matrix(0.51205396,0,0,0.51205396,15.814961,-234.32281)"
         style="font-style:normal;font-weight:normal;font-size:40px;line-height:1.25;font-family:sans-serif;letter-spacing:0px;word-spacing:0px;fill:#ffffff;fill-opacity:1;stroke:none;"
         id="flowRoot20388"
         xml:space="preserve"><flowRegion
           id="flowRegion20390"
           style="fill:#ffffff;"><rect
             y="983.11865"
             x="61.619305"
             height="154.55334"
             width="749.5332"
             id="rect20392"
             style="fill:#ffffff;" /></flowRegion><flowPara
           style="font-size:34.44732285px;fill:#ffffff;"
           id="flowPara20394">Recycle Code</flowPara></flowRoot>      <g
         transform="translate(-24.190476,30.710565)"
         id="g21069">
        <path
           inkscape:connector-curvature="0"
           d="m 213.64141,255.70632 -2.5072,8e-5 -2.83012,4e-5 -1.81826,-3e-5 a 2.9491226,2.9491226 0 0 1 -2.12329,-0.9017 2.8170187,2.8170187 0 0 0 0.18593,0.38468 l 2.32484,4.02682 a 2.9565494,2.9565494 0 0 0 2.55946,1.47759 l 4.20908,10e-4 a 0.43988302,0.43988302 0 0 0 0.43997,-0.43995 l -5.3e-4,-4.10879 a 0.4398645,0.4398645 0 0 0 -0.43988,-0.43984 z"
           id="path20470"
           style="stroke-width:0.26458332;fill:#ffffff" />
        <path
           inkscape:connector-curvature="0"
           d="m 216.95766,241.42451 a 2.9490061,2.9490061 0 0 1 1.84252,-1.38792 2.8113408,2.8113408 0 0 0 -0.42605,-0.0314 h -4.64979 a 2.9563457,2.9563457 0 0 0 -2.55933,1.47773 l -2.10547,3.64464 a 0.43985921,0.43985921 0 0 0 0.16099,0.60101 l 3.55857,2.05392 a 0.43992006,0.43992006 0 0 0 0.60085,-0.16105 l 1.25356,-2.17132 1.41499,-2.45099 z"
           id="path20472"
           style="stroke-width:0.26458332;fill:#ffffff" />
        <path
           inkscape:connector-curvature="0"
           d="m 204.78955,253.72884 a 1.9605122,1.9605122 0 0 0 1.69737,0.98031 l 2.39194,6.8e-4 1.25851,-2.17788 0.75803,-1.31472 0.23872,0.13702 0.93847,0.54245 -2.1076,-4.05518 -3.0177,0.11985 -1.54834,0.0827 0.26194,0.15155 0.86373,0.49847 0.0516,0.0295 -1.15204,1.99462 -0.57603,0.99734 -0.29837,0.51782 -0.003,0.006 a 1.1042888,1.1042888 0 0 0 0.0164,1.09687 z"
           id="path20474"
           style="stroke-width:0.26458332;fill:#ffffff" />
        <path
           inkscape:connector-curvature="0"
           d="m 222.24386,255.70752 -2.51537,-9.5e-4 -1.51757,8.7e-4 -7.2e-4,-0.27522 5.9e-4,-1.08402 -2.45809,3.85288 1.61263,2.55347 0.84577,1.2995 2.9e-4,-0.30257 -1.6e-4,-0.99726 -2.6e-4,-0.0594 2.30343,3.7e-4 1.1517,1.8e-4 0.59763,-4.7e-4 0.007,-5e-5 a 1.1042359,1.1042359 0 0 0 0.94168,-0.56266 l 0.22671,-0.39277 a 1.9606048,1.9606048 0 0 0 2.9e-4,-1.96007 z"
           id="path20476"
           style="stroke-width:0.26458332;fill:#ffffff" />
        <path
           inkscape:connector-curvature="0"
           d="m 220.72561,251.08474 1.25362,2.17129 1.41511,2.45095 0.90913,1.57467 a 2.9490802,2.9490802 0 0 1 0.28072,2.28966 2.8190005,2.8190005 0 0 0 0.2402,-0.35333 l 2.32488,-4.02682 a 2.9563351,2.9563351 0 0 0 -1e-4,-2.95536 l -2.10361,-3.64568 a 0.43980365,0.43980365 0 0 0 -0.60097,-0.16105 l -3.55803,2.0548 a 0.4398936,0.4398936 0 0 0 -0.16095,0.60087 z"
           id="path20478"
           style="stroke-width:0.26458332;fill:#ffffff" />
        <path
           inkscape:connector-curvature="0"
           d="m 217.82071,241.92416 -1.19648,2.07109 1.25686,2.17882 0.75954,1.3139 -0.23802,0.1382 -0.93904,0.54149 3.4778,0.15415 a 1.7155081,1.7155081 0 0 0 1.59452,-0.91571 l 0.8984,-1.70939 0.70258,-1.38225 -0.2622,0.15107 -0.86356,0.49877 -0.0513,0.0299 -1.15138,-1.99501 -0.57569,-0.99749 -0.29929,-0.51732 -0.003,-0.006 a 1.074711,1.074711 0 0 0 -0.9289,-0.53417 h -0.48273 a 1.9606286,1.9606286 0 0 0 -1.6977,0.97985 z"
           id="path20480"
           style="stroke-width:0.26458332;fill:#ffffff" />
      </g>
      <g
         id="g21083"
         transform="translate(-193.52381,30.521577)">
        <path
           style="stroke-width:0.26458332;fill:#ffffff"
           id="path21071"
           d="m 213.64141,255.70632 -2.5072,8e-5 -2.83012,4e-5 -1.81826,-3e-5 a 2.9491226,2.9491226 0 0 1 -2.12329,-0.9017 2.8170187,2.8170187 0 0 0 0.18593,0.38468 l 2.32484,4.02682 a 2.9565494,2.9565494 0 0 0 2.55946,1.47759 l 4.20908,10e-4 a 0.43988302,0.43988302 0 0 0 0.43997,-0.43995 l -5.3e-4,-4.10879 a 0.4398645,0.4398645 0 0 0 -0.43988,-0.43984 z"
           inkscape:connector-curvature="0" />
        <path
           style="stroke-width:0.26458332;fill:#ffffff"
           id="path21073"
           d="m 216.95766,241.42451 a 2.9490061,2.9490061 0 0 1 1.84252,-1.38792 2.8113408,2.8113408 0 0 0 -0.42605,-0.0314 h -4.64979 a 2.9563457,2.9563457 0 0 0 -2.55933,1.47773 l -2.10547,3.64464 a 0.43985921,0.43985921 0 0 0 0.16099,0.60101 l 3.55857,2.05392 a 0.43992006,0.43992006 0 0 0 0.60085,-0.16105 l 1.25356,-2.17132 1.41499,-2.45099 z"
           inkscape:connector-curvature="0" />
        <path
           style="stroke-width:0.26458332;fill:#ffffff"
           id="path21075"
           d="m 204.78955,253.72884 a 1.9605122,1.9605122 0 0 0 1.69737,0.98031 l 2.39194,6.8e-4 1.25851,-2.17788 0.75803,-1.31472 0.23872,0.13702 0.93847,0.54245 -2.1076,-4.05518 -3.0177,0.11985 -1.54834,0.0827 0.26194,0.15155 0.86373,0.49847 0.0516,0.0295 -1.15204,1.99462 -0.57603,0.99734 -0.29837,0.51782 -0.003,0.006 a 1.1042888,1.1042888 0 0 0 0.0164,1.09687 z"
           inkscape:connector-curvature="0" />
        <path
           style="stroke-width:0.26458332;fill:#ffffff"
           id="path21077"
           d="m 222.24386,255.70752 -2.51537,-9.5e-4 -1.51757,8.7e-4 -7.2e-4,-0.27522 5.9e-4,-1.08402 -2.45809,3.85288 1.61263,2.55347 0.84577,1.2995 2.9e-4,-0.30257 -1.6e-4,-0.99726 -2.6e-4,-0.0594 2.30343,3.7e-4 1.1517,1.8e-4 0.59763,-4.7e-4 0.007,-5e-5 a 1.1042359,1.1042359 0 0 0 0.94168,-0.56266 l 0.22671,-0.39277 a 1.9606048,1.9606048 0 0 0 2.9e-4,-1.96007 z"
           inkscape:connector-curvature="0" />
        <path
           style="stroke-width:0.26458332;fill:#ffffff"
           id="path21079"
           d="m 220.72561,251.08474 1.25362,2.17129 1.41511,2.45095 0.90913,1.57467 a 2.9490802,2.9490802 0 0 1 0.28072,2.28966 2.8190005,2.8190005 0 0 0 0.2402,-0.35333 l 2.32488,-4.02682 a 2.9563351,2.9563351 0 0 0 -1e-4,-2.95536 l -2.10361,-3.64568 a 0.43980365,0.43980365 0 0 0 -0.60097,-0.16105 l -3.55803,2.0548 a 0.4398936,0.4398936 0 0 0 -0.16095,0.60087 z"
           inkscape:connector-curvature="0" />
        <path
           style="stroke-width:0.26458332;fill:#ffffff"
           id="path21081"
           d="m 217.82071,241.92416 -1.19648,2.07109 1.25686,2.17882 0.75954,1.3139 -0.23802,0.1382 -0.93904,0.54149 3.4778,0.15415 a 1.7155081,1.7155081 0 0 0 1.59452,-0.91571 l 0.8984,-1.70939 0.70258,-1.38225 -0.2622,0.15107 -0.86356,0.49877 -0.0513,0.0299 -1.15138,-1.99501 -0.57569,-0.99749 -0.29929,-0.51732 -0.003,-0.006 a 1.074711,1.074711 0 0 0 -0.9289,-0.53417 h -0.48273 a 1.9606286,1.9606286 0 0 0 -1.6977,0.97985 z"
           inkscape:connector-curvature="0" />
      </g>
    </g>
  </g>
</svg>
