<?xml version="1.0" encoding="UTF-8" standalone="no"?>
<!-- Created with Inkscape (http://www.inkscape.org/) -->

<svg
   xmlns:dc="http://purl.org/dc/elements/1.1/"
   xmlns:cc="http://creativecommons.org/ns#"
   xmlns:rdf="http://www.w3.org/1999/02/22-rdf-syntax-ns#"
   xmlns:svg="http://www.w3.org/2000/svg"
   xmlns="http://www.w3.org/2000/svg"
   xmlns:sodipodi="http://sodipodi.sourceforge.net/DTD/sodipodi-0.dtd"
   xmlns:inkscape="http://www.inkscape.org/namespaces/inkscape"
   width="50mm"
   height="50mm"
   viewBox="0 0 50 50"
   version="1.1"
   id="svg3270"
   inkscape:version="0.92.5 (2060ec1f9f, 2020-04-08)"
   sodipodi:docname="yoda_sells_lesson.svg"
   inkscape:export-filename="/home/kristian/projects/online_teaching_survival_guide/images/yoda_sells_lesson.png"
   inkscape:export-xdpi="203.2"
   inkscape:export-ydpi="203.2">
  <defs
     id="defs3264" />
  <sodipodi:namedview
     id="base"
     pagecolor="#ffffff"
     bordercolor="#666666"
     borderopacity="1.0"
     inkscape:pageopacity="0.0"
     inkscape:pageshadow="2"
     inkscape:zoom="1.979899"
     inkscape:cx="41.658867"
     inkscape:cy="25.386927"
     inkscape:document-units="mm"
     inkscape:current-layer="layer1"
     showgrid="false"
     inkscape:window-width="1848"
     inkscape:window-height="1016"
     inkscape:window-x="72"
     inkscape:window-y="27"
     inkscape:window-maximized="1"
     inkscape:object-nodes="false" />
  <metadata
     id="metadata3267">
    <rdf:RDF>
      <cc:Work
         rdf:about="">
        <dc:format>image/svg+xml</dc:format>
        <dc:type
           rdf:resource="http://purl.org/dc/dcmitype/StillImage" />
        <dc:title></dc:title>
      </cc:Work>
    </rdf:RDF>
  </metadata>
  <g
     inkscape:label="Layer 1"
     inkscape:groupmode="layer"
     id="layer1"
     transform="translate(0,-247)">
    <g
       id="g8270"
       transform="matrix(0.36269064,0,0,0.36269064,39.335635,269.75573)"
       style="fill:#34a853;fill-opacity:0.50196078" />
    <path
       style="fill:#34a853;fill-opacity:0.50196078;stroke:#000000;stroke-width:0.5;stroke-linecap:round;stroke-linejoin:round;stroke-miterlimit:4;stroke-dasharray:none;stroke-dashoffset:0;stroke-opacity:1"
       d="M 8.8176528,250.22592 H 41.696287 c 1.526488,0 2.755394,1.22891 2.755394,2.7554 v 14.77384 c 0,1.52649 -1.228906,2.75539 -2.755394,2.75539 H 21.247308 v 6.81537 l -6.59404,-6.81537 H 8.8176528 c -1.5264882,0 -2.7553932,-1.2289 -2.7553932,-2.75539 v -14.77379 c 0,-1.52649 1.228905,-2.7554 2.7553932,-2.7554 z"
       id="rect3831"
       inkscape:connector-curvature="0"
       sodipodi:nodetypes="csssscccsccsc" />
    <g
       id="g3857"
       transform="translate(-33.793916,-13.09338)">
      <flowRoot
         transform="matrix(0.26458333,0,0,0.26458333,2.3623512,-3.7797619)"
         style="font-style:normal;font-weight:normal;font-size:40px;line-height:1.25;font-family:sans-serif;letter-spacing:0px;word-spacing:0px;fill:#000000;fill-opacity:1;stroke:none"
         id="flowRoot3833"
         xml:space="preserve"><flowRegion
           id="flowRegion3835"><rect
             y="993.23395"
             x="150.71428"
             height="66.151207"
             width="390.72748"
             id="rect3837" /></flowRegion><flowPara
           style="font-size:16px"
           id="flowPara3839">every lesson </flowPara></flowRoot>      <flowRoot
         xml:space="preserve"
         id="flowRoot3847"
         style="font-style:normal;font-weight:normal;font-size:40px;line-height:1.25;font-family:sans-serif;letter-spacing:0px;word-spacing:0px;fill:#000000;fill-opacity:1;stroke:none"
         transform="matrix(0.26458333,0,0,0.26458333,2.3623512,2.0108907)"><flowRegion
           id="flowRegion3843"><rect
             id="rect3841"
             width="390.72748"
             height="66.151207"
             x="150.71428"
             y="993.23395" /></flowRegion><flowPara
           id="flowPara3845"
           style="font-size:16px">to the students</flowPara></flowRoot>      <flowRoot
         transform="matrix(0.26458333,0,0,0.26458333,2.3623512,7.8015404)"
         style="font-style:normal;font-weight:normal;font-size:40px;line-height:1.25;font-family:sans-serif;letter-spacing:0px;word-spacing:0px;fill:#000000;fill-opacity:1;stroke:none"
         id="flowRoot8262"
         xml:space="preserve"><flowRegion
           id="flowRegion8258"><rect
             y="993.23395"
             x="150.71428"
             height="66.151207"
             width="390.72748"
             id="rect8256" /></flowRegion><flowPara
           style="font-size:16px"
           id="flowPara8260">sell you must</flowPara></flowRoot>    </g>
    <g
       id="g8321"
       transform="translate(1.6036172,1.3363476)">
      <path
         sodipodi:nodetypes="ccccccccccccccccccccccc"
         inkscape:connector-curvature="0"
         id="path8280"
         d="m -87.920111,31.564289 20.363426,-0.293194 c 2.964913,0.373225 5.319317,1.444174 7.068395,3.206925 l 6.774959,-6.286248 c 1.445683,-2.632725 3.814183,-3.024325 6.467665,-2.723823 l 4.042933,-1.990644 3.973179,2.08429 4.787353,0.293102 2.312264,2.670497 4.819918,5.634099 c 4.273232,-2.147005 8.844519,-2.982565 13.731828,-2.427627 l 15.2528241,-0.633677 -7.164747,7.685818 c -4.5515461,4.754601 -9.5930651,7.892288 -15.3716381,8.597699 -1.367811,3.104726 -2.17086,6.774213 -4.819918,8.597692 -2.169474,2.532111 -5.430082,4.28484 -10.030644,5.08046 l -7.425281,2.214554 -6.904213,-2.73563 -8.858226,-2.344829 -4.689659,-5.992329 -1.042143,-4.950192 -5.340994,-0.130267 c -6.787086,-4.541831 -12.895202,-9.626839 -17.947281,-15.556676 z"
         style="fill:#34a853;fill-opacity:0.50196078;stroke:#008000;stroke-width:0.72950143px;stroke-linecap:butt;stroke-linejoin:miter;stroke-opacity:1"
         transform="matrix(0.36269065,0,0,0.36269065,39.335636,269.75573)" />
      <g
         transform="translate(-33.84068,-2.42141)"
         id="g8306">
        <g
           id="g8298">
          <path
             style="fill:#ffffff;stroke:#ffffff;stroke-width:0.1;stroke-linecap:butt;stroke-linejoin:miter;stroke-opacity:1"
             d="m 55.462899,288.66209 c -1.273021,-0.52658 -2.524104,-1.13817 -4.142676,-0.32574 0.34083,0.5551 0.754639,1.06155 1.753957,1.17766 1.158004,0.11068 1.686479,-0.4654 2.388719,-0.85192 z"
             id="path8286"
             inkscape:connector-curvature="0"
             sodipodi:nodetypes="cccc" />
          <circle
             r="0.68508178"
             cy="288.7554"
             cx="53.271019"
             id="path8288"
             style="fill:#000000;fill-opacity:1;stroke:#000000;stroke-width:0.1;stroke-linecap:round;stroke-linejoin:round;stroke-miterlimit:4;stroke-dasharray:none;stroke-dashoffset:0;stroke-opacity:1" />
        </g>
        <g
           id="g8294">
          <path
             sodipodi:nodetypes="cccc"
             inkscape:connector-curvature="0"
             id="path8282"
             d="m 59.392301,288.65618 c 1.273021,-0.52658 2.524104,-1.13817 4.142676,-0.32574 -0.34083,0.5551 -0.754639,1.06155 -1.753957,1.17766 -1.158004,0.11068 -1.686479,-0.4654 -2.388719,-0.85192 z"
             style="fill:#ffffff;stroke:#ffffff;stroke-width:0.1;stroke-linecap:butt;stroke-linejoin:miter;stroke-opacity:1" />
          <circle
             style="fill:#000000;fill-opacity:1;stroke:#000000;stroke-width:0.1;stroke-linecap:round;stroke-linejoin:round;stroke-miterlimit:4;stroke-dasharray:none;stroke-dashoffset:0;stroke-opacity:1"
             id="circle8290"
             cx="61.657364"
             cy="288.7554"
             r="0.68508178" />
        </g>
      </g>
      <g
         id="g3976"
         transform="matrix(0.36269064,0,0,0.36269064,5.5194356,267.29598)">
        <path
           id="path3970"
           d="m 97.661,36.794 c -0.113,-0.535 -0.622,-1.039 -1.493,-0.877 -15.195,2.831 -22.611,-2.05 -29.885,3.427 -1.501,-2.563 -3.307,-5.122 -4.713,-6.235 -0.26,-0.206 -0.601,-0.292 -0.907,-0.313 -1.958,-2.359 -4.458,-2.556 -6.224,-1.958 -2.578,-2.839 -6.484,-2.637 -8.879,0 -1.662,-0.562 -4.201,-0.477 -6.224,1.958 -0.434,0.03 -0.716,0.165 -0.906,0.313 -1.407,1.114 -3.212,3.673 -4.714,6.235 -7.287,-5.489 -14.61,-0.582 -29.885,-3.427 -0.868,-0.164 -1.379,0.341 -1.493,0.877 -0.604,2.85 18.258,17.538 21.202,18.241 1.879,0.449 3.146,0.337 3.943,0.175 -0.512,5.316 3.001,8.801 7.044,11.761 2.06,1.509 6.064,1.056 8.948,2.557 2.482,1.297 3.232,1.688 6.524,1.688 3.292,0 4.041,-0.392 6.524,-1.688 2.922,-1.524 6.751,-0.948 8.947,-2.557 4.043,-2.96 7.557,-6.444 7.044,-11.761 0.891,0.181 2.177,0.248 3.943,-0.175 3.524,-0.841 21.745,-15.712 21.204,-18.241 z M 55.456,50.933 c 0.337,-1.292 0.816,-2.635 1.353,-3.17 0.406,-0.405 7.517,-5.981 11.641,-0.837 1.192,1.489 1.696,3.171 1.816,4.032 -4.731,-1.163 -6.957,-3.779 -14.81,-0.025 z m -1.623,3.922 c 0.01,-0.396 -0.116,-0.736 -0.292,-1.017 0.105,-0.02 0.21,-0.04 0.309,-0.063 0.196,0.047 0.556,0.655 -0.017,1.08 z m -1.631,1.128 c -0.379,0.402 -1.64,0.471 -2.202,0.471 -0.563,0 -1.824,-0.068 -2.203,-0.471 -1.158,-1.227 -0.414,-1.836 -0.039,-1.989 0.78,0.054 3.704,0.054 4.484,0 0.359,0.148 1.134,0.746 -0.04,1.989 z M 46.167,54.855 C 45.689,54.5 45.82,53.854 46.151,53.776 c 0.098,0.022 0.203,0.043 0.309,0.063 -0.177,0.28 -0.303,0.619 -0.293,1.016 z M 29.734,50.958 c 0.121,-0.861 0.625,-2.543 1.817,-4.032 4.013,-5.008 11.002,0.199 11.64,0.836 0.534,0.534 1.015,1.877 1.352,3.17 -7.81,-3.734 -9.426,-1.291 -14.809,0.026 z m 31.848,0.425 c 0.575,0 1.043,0.468 1.043,1.043 0,0.574 -0.468,1.041 -1.043,1.041 -0.574,0 -1.042,-0.467 -1.042,-1.041 0,-0.575 0.468,-1.043 1.042,-1.043 z m 1.445,-0.401 c 0.939,0.105 2,0.392 3.028,0.719 -0.833,1.06 -1.84,1.776 -3.006,2.139 0.685,-0.709 0.854,-1.979 -0.022,-2.858 z M 60.37,54.06 c -1.286,-0.144 -2.642,-0.604 -3.951,-1.368 0.944,-0.448 2.152,-0.972 3.431,-1.334 -0.63,1.015 -0.233,2.143 0.52,2.702 z M 38.418,53.467 c -0.575,0 -1.043,-0.467 -1.043,-1.041 0,-0.575 0.468,-1.043 1.043,-1.043 0.575,0 1.042,0.468 1.042,1.043 0,0.574 -0.467,1.041 -1.042,1.041 z m -1.467,0.373 c -1.167,-0.362 -2.174,-1.079 -3.006,-2.139 1.029,-0.328 2.09,-0.615 3.029,-0.72 -0.898,0.9 -0.684,2.175 -0.023,2.859 z m 3.199,-2.483 c 1.278,0.362 2.486,0.886 3.431,1.334 -1.31,0.766 -2.665,1.226 -3.952,1.368 1.007,-0.746 0.984,-1.955 0.521,-2.702 z m 13.042,0.514 c -1.379,0.265 -5.207,0.225 -6.385,0 -0.203,-1.036 -0.669,-3.021 -1.443,-4.447 3.131,-0.789 6.385,-0.726 9.271,10e-4 -0.774,1.425 -1.239,3.41 -1.443,4.446 z m -11.359,2.717 c -3.283,2.361 -7.425,0.122 -8.669,-2.263 2.38,3.027 5.723,3.256 8.669,2.263 z m 25.003,-2.262 c -1.311,2.509 -5.481,4.559 -8.67,2.261 4.06,1.372 6.958,-0.085 8.67,-2.261 z M 39.505,34.824 c 0.278,0.078 0.776,0.058 1.087,-0.389 1.207,-1.733 3.182,-2.338 4.824,-1.5 0.219,0.11 0.889,0.22 1.269,-0.313 1.748,-2.449 4.882,-2.451 6.629,0 0.112,0.168 0.652,0.627 1.269,0.313 1.646,-0.836 3.619,-0.232 4.825,1.5 0.327,0.47 0.839,0.458 1.086,0.389 1.558,1.356 3.966,5.09 5.475,8.116 -1.609,-0.412 -3.611,-0.29 -6.263,0.774 0.006,-2.644 0.265,-6.446 0.517,-7.709 0.132,-0.667 -0.847,-0.864 -0.98,-0.196 -0.281,1.407 -0.561,5.616 -0.534,8.345 -1.023,0.49 -1.95,1.054 -2.675,1.637 0.719,-4.836 0.404,-8.878 -0.964,-12.011 -0.275,-0.63 -1.191,-0.23 -0.916,0.4 1.367,3.131 1.615,7.267 0.761,12.281 -3.174,-0.805 -6.655,-0.805 -9.829,0 -0.854,-5.015 -0.606,-9.15 0.761,-12.281 0.274,-0.625 -0.644,-1.026 -0.916,-0.4 -1.369,3.133 -1.683,7.174 -0.963,12.01 -0.726,-0.587 -1.651,-1.154 -2.675,-1.646 0.025,-2.729 -0.254,-6.929 -0.535,-8.334 -0.133,-0.673 -1.115,-0.477 -0.98,0.196 0.252,1.261 0.51,5.054 0.517,7.697 -2.508,-1.007 -4.564,-1.197 -6.263,-0.762 1.508,-3.027 3.916,-6.76 5.473,-8.117 z M 24.006,53.09 C 21.618,52.52 12.539,45.162 7.564,40.46 c 17.686,0.236 18.23,7.326 16.991,10.224 -0.267,0.617 0.673,0.951 0.917,0.4 C 26.384,49 28.11,39.438 6.526,39.457 6.062,38.998 5.635,38.565 5.299,38.196 c 14.432,2.223 21.165,-2.036 27.432,2.914 -0.657,1.238 -1.535,3.306 -1.537,3.313 -2.479,2.105 -4.24,6.682 -3.134,8.086 -0.05,0.156 -0.112,0.317 -0.156,0.471 -0.004,0 -1.238,0.747 -3.898,0.11 z M 64.29,65.357 c -1.854,1.356 -5.314,0.629 -8.691,2.397 -2.37,1.238 -2.798,1.461 -5.599,1.461 -2.801,0 -3.228,-0.223 -5.598,-1.461 -3.272,-1.709 -6.941,-1.115 -8.692,-2.397 -4.742,-3.473 -7.513,-6.941 -5.689,-12.421 0.562,-0.118 1.238,-0.334 2.051,-0.61 1.33,3.317 6.84,6.135 10.8,2.724 -2.514,3.263 -3.074,6.033 -5.157,7.124 -0.68,0.358 -0.036,1.173 0.464,0.887 2.722,-1.559 3.343,-5.218 6.667,-8.783 -0.078,0.951 0.977,1.725 1.82,1.903 0.8,1.127 1.384,1.273 3.334,1.273 2.011,0 2.585,-0.22 3.333,-1.273 0.96,-0.202 1.899,-0.979 1.821,-1.903 3.147,3.377 4.042,7.407 6.666,8.783 0.495,0.254 1.127,-0.537 0.465,-0.887 -2.105,-1.103 -2.594,-3.799 -5.157,-7.124 3.896,3.357 9.437,0.676 10.8,-2.724 0.813,0.275 1.488,0.492 2.051,0.609 1.824,5.48 -0.947,8.95 -5.689,12.422 z M 75.994,53.09 c -2.652,0.633 -3.887,-0.1 -3.897,-0.106 -0.043,-0.154 -0.106,-0.317 -0.157,-0.475 0.992,-1.258 -0.376,-5.741 -3.128,-8.082 -0.003,-0.008 -0.886,-2.08 -1.543,-3.318 6.264,-4.946 13.019,-0.697 27.433,-2.914 -0.336,0.369 -0.763,0.802 -1.227,1.261 -22.579,-0.016 -19.516,10.317 -18.947,11.628 0.231,0.531 1.176,0.194 0.916,-0.402 -0.313,-0.676 -3.627,-9.934 16.99,-10.221 -4.975,4.703 -14.052,12.059 -16.44,12.629 z"
           inkscape:connector-curvature="0"
           style="fill:#000000" />
        <path
           id="path3972"
           d="m 50,60.555 c -0.313,0 -7.664,0.015 -8.646,1.325 -0.417,0.554 0.449,1.069 0.796,0.604 0.402,-0.43 3.918,-0.93 7.85,-0.93 3.932,0 7.448,0.5 7.846,0.925 0.409,0.541 1.206,-0.058 0.801,-0.6 C 57.664,60.569 50.313,60.555 50,60.555 Z"
           inkscape:connector-curvature="0"
           style="fill:#000000" />
        <path
           id="path3974"
           d="m 50,63.666 c -5.809,0 -6.675,0.885 -7.205,2.042 -0.266,0.583 0.641,0.997 0.909,0.416 0.282,-0.615 0.667,-1.458 6.295,-1.458 5.628,0 6.014,0.843 6.295,1.458 0.266,0.58 1.205,0.231 0.91,-0.416 C 56.675,64.551 55.809,63.666 50,63.666 Z"
           inkscape:connector-curvature="0"
           style="fill:#000000" />
      </g>
    </g>
  </g>
</svg>
