<?xml version="1.0" encoding="UTF-8" standalone="no"?>
<!-- Created with Inkscape (http://www.inkscape.org/) -->

<svg
   xmlns:dc="http://purl.org/dc/elements/1.1/"
   xmlns:cc="http://creativecommons.org/ns#"
   xmlns:rdf="http://www.w3.org/1999/02/22-rdf-syntax-ns#"
   xmlns:svg="http://www.w3.org/2000/svg"
   xmlns="http://www.w3.org/2000/svg"
   xmlns:sodipodi="http://sodipodi.sourceforge.net/DTD/sodipodi-0.dtd"
   xmlns:inkscape="http://www.inkscape.org/namespaces/inkscape"
   width="170mm"
   height="67mm"
   viewBox="0 0 170 67"
   version="1.1"
   id="svg3382"
   inkscape:version="0.92.5 (2060ec1f9f, 2020-04-08)"
   sodipodi:docname="explosive_situation.svg"
   inkscape:export-filename="/home/kristian/projects/online_teaching_survival_guide/images/explosive_situation.png"
   inkscape:export-xdpi="89.647057"
   inkscape:export-ydpi="89.647057">
  <defs
     id="defs3376" />
  <sodipodi:namedview
     id="base"
     pagecolor="#fbbc05"
     bordercolor="#666666"
     borderopacity="1.0"
     inkscape:pageopacity="1"
     inkscape:pageshadow="2"
     inkscape:zoom="1.4"
     inkscape:cx="301.32362"
     inkscape:cy="18.970177"
     inkscape:document-units="mm"
     inkscape:current-layer="layer1"
     showgrid="false"
     inkscape:window-width="1848"
     inkscape:window-height="1016"
     inkscape:window-x="72"
     inkscape:window-y="27"
     inkscape:window-maximized="1" />
  <metadata
     id="metadata3379">
    <rdf:RDF>
      <cc:Work
         rdf:about="">
        <dc:format>image/svg+xml</dc:format>
        <dc:type
           rdf:resource="http://purl.org/dc/dcmitype/StillImage" />
        <dc:title></dc:title>
      </cc:Work>
    </rdf:RDF>
  </metadata>
  <g
     inkscape:label="Layer 1"
     inkscape:groupmode="layer"
     id="layer1"
     transform="translate(0,-230)">
    <g
       id="g3983"
       transform="matrix(1.4663923,0,0,1.4663923,3.1565849,-146.11059)">
      <rect
         ry="2.7021697"
         y="272.62054"
         x="15.951317"
         height="20.061468"
         width="5.4043393"
         id="rect3964"
         style="fill:#ea4335;fill-opacity:1;stroke:none;stroke-width:1.5;stroke-linecap:round;stroke-linejoin:round;stroke-miterlimit:4;stroke-dasharray:none;stroke-dashoffset:0;stroke-opacity:1" />
      <rect
         style="fill:#ea4335;fill-opacity:1;stroke:none;stroke-width:1.5;stroke-linecap:round;stroke-linejoin:round;stroke-miterlimit:4;stroke-dasharray:none;stroke-dashoffset:0;stroke-opacity:1"
         id="rect3962"
         width="5.4043393"
         height="20.061468"
         x="26.759995"
         y="272.62054"
         ry="2.7021697" />
      <rect
         ry="2.7021697"
         y="272.62054"
         x="21.355656"
         height="20.061468"
         width="5.4043393"
         id="rect3960"
         style="fill:#ea4335;fill-opacity:1;stroke:none;stroke-width:1.5;stroke-linecap:round;stroke-linejoin:round;stroke-miterlimit:4;stroke-dasharray:none;stroke-dashoffset:0;stroke-opacity:1" />
      <circle
         r="6.4964657"
         cy="285.7316"
         cx="12.260602"
         id="path3966"
         style="fill:#4285f4;fill-opacity:1;stroke:none;stroke-width:1.5;stroke-linecap:round;stroke-linejoin:round;stroke-miterlimit:4;stroke-dasharray:none;stroke-dashoffset:0;stroke-opacity:1" />
      <ellipse
         ry="4.9931397"
         rx="4.7173553"
         cy="285.78741"
         cx="11.94615"
         id="path3968"
         style="fill:#ffffff;fill-opacity:1;stroke:none;stroke-width:1.45266151;stroke-linecap:round;stroke-linejoin:round;stroke-miterlimit:4;stroke-dasharray:none;stroke-dashoffset:0;stroke-opacity:1" />
      <ellipse
         ry="2.1047475"
         rx="1.8768449"
         cy="273.01257"
         cx="7.1554179"
         id="path3970"
         style="fill:#fbbc05;fill-opacity:1;stroke:none;stroke-width:1.20382166;stroke-linecap:round;stroke-linejoin:round;stroke-miterlimit:4;stroke-dasharray:none;stroke-dashoffset:0;stroke-opacity:1" />
      <g
         id="g3353"
         transform="matrix(0.44442684,0,0,0.44442684,4.5386525,265.01878)">
        <path
           id="path3345"
           d="M 17,35 C 10.383,35 5,40.383 5,47 5,53.617 10.383,59 17,59 23.617,59 29,53.617 29,47 29,40.383 23.617,35 17,35 Z m 0,22 C 11.486,57 7,52.514 7,47 7,41.486 11.486,37 17,37 c 5.514,0 10,4.486 10,10 0,5.514 -4.486,10 -10,10 z"
           inkscape:connector-curvature="0" />
        <polygon
           id="polygon3347"
           points="21.707,50.293 18,46.586 18,39 16,39 16,47.414 20.293,51.707 " />
        <path
           id="path3349"
           d="M 1.757,20.829 3.171,22.243 5,20.414 V 23 H 7 V 20.414 L 8.829,22.243 10.243,20.829 8.414,19 H 11 V 17 H 8.414 L 10.243,15.171 8.829,13.757 7,15.586 V 13 H 5 v 2.586 L 3.171,13.757 1.757,15.171 3.586,17 H 1 v 2 H 3.586 Z M 4,18.828 V 17.172 L 5.172,16 H 6.828 L 8,17.172 v 1.656 L 6.828,20 H 5.172 Z"
           inkscape:connector-curvature="0" />
        <path
           id="path3351"
           d="M 58,16 H 57 V 12.426 L 44.938,5.39 C 44.633,2.923 42.548,1 40,1 H 10 C 7.243,1 5,3.243 5,6 v 5 H 7 V 6 C 7,4.346 8.346,3 10,3 h 30 c 1.469,0 2.689,1.062 2.945,2.458 L 31,12.426 V 16 h -1 c -2.757,0 -5,2.243 -5,5 V 33.165 C 22.643,31.797 19.916,31 17,31 8.178,31 1,38.178 1,47 c 0,8.822 7.178,16 16,16 3.19,0 6.157,-0.949 8.655,-2.564 C 26.518,61.989 28.146,63 30,63 h 4 c 1.641,0 3.088,-0.806 4,-2.031 0.912,1.225 2.359,2.031 4,2.031 h 4 c 1.641,0 3.088,-0.806 4,-2.031 0.912,1.225 2.359,2.031 4,2.031 h 4 c 2.757,0 5,-2.243 5,-5 V 21 c 0,-2.757 -2.243,-5 -5,-5 z m 3,5 v 2 H 51 v -2 c 0,-1.654 1.346,-3 3,-3 h 4 c 1.654,0 3,1.346 3,3 z M 32.189,52 H 37 v 2 h -5.635 c 0.316,-0.645 0.596,-1.31 0.824,-2 z M 39,52 h 10 v 2 H 39 Z m 0,-27 h 10 v 2 H 39 Z m -2,2 H 27 v -2 h 10 z m 9,-9 c 1.654,0 3,1.346 3,3 v 2 H 39 v -2 c 0,-1.654 1.346,-3 3,-3 z m 3,11 V 50 H 39 V 29 Z m 2,23 h 10 v 2 H 51 Z m 0,-2 V 29 h 10 v 21 z m 0,-23 v -2 h 10 v 2 z m 4,-11 h -1 c -1.641,0 -3.088,0.806 -4,2.031 C 49.088,16.806 47.641,16 46,16 H 45 V 7.741 l 10,5.833 z M 33,13.574 43,7.741 V 16 h -1 c -1.641,0 -3.088,0.806 -4,2.031 C 37.088,16.806 35.641,16 34,16 H 33 Z M 30,18 h 4 c 1.654,0 3,1.346 3,3 v 2 H 27 v -2 c 0,-1.654 1.346,-3 3,-3 z M 27,29 H 37 V 50 H 32.708 C 32.894,49.027 33,48.026 33,47 33,41.961 30.653,37.465 27,34.53 Z M 3,47 C 3,39.28 9.28,33 17,33 24.72,33 31,39.28 31,47 31,54.72 24.72,61 17,61 9.28,61 3,54.72 3,47 Z M 34,61 H 30 C 28.803,61 27.759,60.299 27.282,59.242 28.401,58.3 29.392,57.211 30.219,56 H 37 v 2 c 0,1.654 -1.346,3 -3,3 z m 12,0 h -4 c -1.654,0 -3,-1.346 -3,-3 v -2 h 10 v 2 c 0,1.654 -1.346,3 -3,3 z m 12,0 h -4 c -1.654,0 -3,-1.346 -3,-3 v -2 h 10 v 2 c 0,1.654 -1.346,3 -3,3 z"
           inkscape:connector-curvature="0" />
      </g>
    </g>
    <g
       id="g4028"
       transform="translate(18.142857,-9.4494048)">
      <flowRoot
         transform="matrix(0.26458333,0,0,0.26458333,0,2.5343113)"
         style="font-style:normal;font-weight:normal;font-size:40px;line-height:1.25;font-family:sans-serif;letter-spacing:0px;word-spacing:0px;fill:#000000;fill-opacity:1;stroke:none"
         id="flowRoot3985"
         xml:space="preserve"><flowRegion
           id="flowRegion3987"><rect
             y="998.27094"
             x="157.5838"
             height="129.71794"
             width="640.42651"
             id="rect3989" /></flowRegion><flowPara
           id="flowPara3991">explosive situation</flowPara></flowRoot>      <flowRoot
         xml:space="preserve"
         id="flowRoot4003"
         style="font-style:normal;font-weight:normal;font-size:40px;line-height:1.25;font-family:sans-serif;letter-spacing:0px;word-spacing:0px;fill:#000000;fill-opacity:1;stroke:none"
         transform="matrix(0.26458333,0,0,0.26458333,0,16.592963)"><flowRegion
           id="flowRegion3997"><rect
             id="rect3995"
             width="640.42651"
             height="129.71794"
             x="157.5838"
             y="998.27094" /></flowRegion><flowPara
           id="flowPara4001">do not ignore</flowPara></flowRoot>      <flowRoot
         xml:space="preserve"
         id="flowRoot4013"
         style="font-style:normal;font-weight:normal;font-size:40px;line-height:1.25;font-family:sans-serif;letter-spacing:0px;word-spacing:0px;fill:#000000;fill-opacity:1;stroke:none"
         transform="matrix(0.26458333,0,0,0.26458333,0.05684407,-11.52434)"><flowRegion
           id="flowRegion4007"><rect
             id="rect4005"
             width="640.42651"
             height="129.71794"
             x="157.5838"
             y="998.27094" /></flowRegion><flowPara
           id="flowPara4011"><flowSpan
             style="font-weight:bold"
             id="flowSpan4009">CAUTION:</flowSpan></flowPara></flowRoot>    </g>
  </g>
</svg>
