<?xml version="1.0" encoding="UTF-8" standalone="no"?>
<!-- Created with Inkscape (http://www.inkscape.org/) -->

<svg
   xmlns:dc="http://purl.org/dc/elements/1.1/"
   xmlns:cc="http://creativecommons.org/ns#"
   xmlns:rdf="http://www.w3.org/1999/02/22-rdf-syntax-ns#"
   xmlns:svg="http://www.w3.org/2000/svg"
   xmlns="http://www.w3.org/2000/svg"
   xmlns:sodipodi="http://sodipodi.sourceforge.net/DTD/sodipodi-0.dtd"
   xmlns:inkscape="http://www.inkscape.org/namespaces/inkscape"
   width="140mm"
   height="75mm"
   viewBox="0 0 140 75"
   version="1.1"
   id="svg41"
   inkscape:version="0.92.5 (2060ec1f9f, 2020-04-08)"
   sodipodi:docname="unicorn_park.svg"
   inkscape:export-filename="/home/kristian/projects/online_teaching_survival_guide/images/unicorn_park.png"
   inkscape:export-xdpi="108.85715"
   inkscape:export-ydpi="108.85715">
  <defs
     id="defs35">
    <clipPath
       clipPathUnits="userSpaceOnUse"
       id="clipPath841">
      <rect
         style="fill:#ff0000;fill-opacity:1;stroke:#000000;stroke-width:0.5;stroke-linecap:butt;stroke-linejoin:round;stroke-miterlimit:4;stroke-dasharray:none;stroke-dashoffset:0;stroke-opacity:1"
         id="rect843"
         width="84.189903"
         height="44.901279"
         x="40.195095"
         y="31.734989" />
    </clipPath>
  </defs>
  <sodipodi:namedview
     id="base"
     pagecolor="#ffffff"
     bordercolor="#666666"
     borderopacity="1.0"
     inkscape:pageopacity="0.0"
     inkscape:pageshadow="2"
     inkscape:zoom="0.98994949"
     inkscape:cx="386.11838"
     inkscape:cy="339.20763"
     inkscape:document-units="mm"
     inkscape:current-layer="layer1"
     showgrid="false"
     inkscape:window-width="1848"
     inkscape:window-height="1016"
     inkscape:window-x="72"
     inkscape:window-y="27"
     inkscape:window-maximized="1" />
  <metadata
     id="metadata38">
    <rdf:RDF>
      <cc:Work
         rdf:about="">
        <dc:format>image/svg+xml</dc:format>
        <dc:type
           rdf:resource="http://purl.org/dc/dcmitype/StillImage" />
        <dc:title></dc:title>
      </cc:Work>
    </rdf:RDF>
  </metadata>
  <g
     inkscape:label="Layer 1"
     inkscape:groupmode="layer"
     id="layer1"
     transform="translate(0,-222)">
    <rect
       style="fill:#34a853;fill-opacity:1;stroke:none;stroke-width:0.56543136;stroke-linecap:butt;stroke-linejoin:round;stroke-miterlimit:4;stroke-dasharray:none;stroke-dashoffset:0;stroke-opacity:1"
       id="rect932"
       width="133.55711"
       height="7.9616771"
       x="3.7952516"
       y="286.26279" />
    <g
       id="g829"
       clip-path="url(#clipPath841)"
       transform="matrix(1.0531983,0,0,1.0531983,-0.48681583,181.32576)">
      <ellipse
         ry="28.911766"
         rx="29.713573"
         cy="76.072914"
         cx="90.479439"
         id="path815"
         style="fill:#ea4335;fill-opacity:1;stroke:#000000;stroke-width:0.50682598;stroke-linecap:butt;stroke-linejoin:round;stroke-miterlimit:4;stroke-dasharray:none;stroke-dashoffset:0;stroke-opacity:1" />
      <ellipse
         ry="25.703142"
         rx="25.101786"
         style="fill:#fbbc05;fill-opacity:1;stroke:#000000;stroke-width:0.50589436;stroke-linecap:butt;stroke-linejoin:round;stroke-miterlimit:4;stroke-dasharray:none;stroke-dashoffset:0;stroke-opacity:1"
         id="circle817"
         cx="90.479439"
         cy="77.409256" />
      <ellipse
         ry="22.215008"
         rx="20.878658"
         cy="79.280144"
         cx="90.479439"
         id="circle819"
         style="fill:#34a853;fill-opacity:1;stroke:#000000;stroke-width:0.4937076;stroke-linecap:butt;stroke-linejoin:round;stroke-miterlimit:4;stroke-dasharray:none;stroke-dashoffset:0;stroke-opacity:1" />
      <ellipse
         ry="18.391462"
         rx="16.052853"
         style="fill:#4285f4;fill-opacity:1;stroke:#000000;stroke-width:0.45290142;stroke-linecap:butt;stroke-linejoin:round;stroke-miterlimit:4;stroke-dasharray:none;stroke-dashoffset:0;stroke-opacity:1"
         id="circle821"
         cx="90.479439"
         cy="81.551933" />
      <ellipse
         cy="84.577858"
         cx="90.479439"
         id="ellipse839"
         style="fill:#ffffff;fill-opacity:1;stroke:#000000;stroke-width:0.5;stroke-linecap:butt;stroke-linejoin:round;stroke-miterlimit:4;stroke-dasharray:none;stroke-dashoffset:0;stroke-opacity:1"
         rx="12.083454"
         ry="15.41214" />
      <rect
         style="fill:#ff0000;fill-opacity:1;stroke:#ff0000;stroke-width:0.5;stroke-linecap:butt;stroke-linejoin:round;stroke-miterlimit:4;stroke-dasharray:none;stroke-dashoffset:0;stroke-opacity:1"
         id="rect951"
         width="109.61309"
         height="45.357143"
         x="122.93675"
         y="129.36755" />
    </g>
    <path
       sodipodi:nodetypes="ssssscccccccccccccc"
       inkscape:export-ydpi="150.87215"
       inkscape:export-xdpi="150.87215"
       inkscape:export-filename="/home/krother/Desktop/TLI_pictures/green.png"
       inkscape:connector-curvature="0"
       id="path995"
       d="m 114.69318,267.82799 c 1.53985,0 2.78854,1.24873 2.78854,2.78854 0,1.5398 -1.24873,2.78853 -2.78857,2.78853 -1.53977,0 -2.7867,-1.24873 -2.7867,-2.78853 0,-1.53981 1.24693,-2.78854 2.78673,-2.78854 z m -9.7998,11.71145 8.35472,-5.86752 h 2.92832 l 8.31655,5.86752 v 3.44394 l -6.77346,-3.38585 2.85027,8.74503 h -4.10651 l -1.77012,-5.51714 -1.77005,5.51714 h -4.10654 l 2.85027,-8.74503 -6.77345,3.38585 z"
       style="fill:#34a853;fill-opacity:1;stroke:#000000;stroke-width:0.33354485" />
    <path
       style="fill:#fbbc05;fill-opacity:1;stroke:#000000;stroke-width:0.33354485"
       d="m 92.72236,267.82799 c 1.539845,0 2.788535,1.24873 2.788535,2.78854 0,1.5398 -1.24873,2.78853 -2.788575,2.78853 -1.539764,0 -2.786695,-1.24873 -2.786695,-2.78853 0,-1.53981 1.246931,-2.78854 2.786735,-2.78854 z m -9.799803,11.71145 8.354718,-5.86752 h 2.928318 l 8.316547,5.86752 v 3.44394 l -6.773455,-3.38585 2.850274,8.74503 h -4.106513 l -1.770126,-5.51714 -1.770044,5.51714 h -4.106549 l 2.850268,-8.74503 -6.773438,3.38585 z"
       id="path997"
       inkscape:connector-curvature="0"
       inkscape:export-filename="/home/krother/Desktop/TLI_pictures/green.png"
       inkscape:export-xdpi="150.87215"
       inkscape:export-ydpi="150.87215"
       sodipodi:nodetypes="ssssscccccccccccccc" />
    <path
       sodipodi:nodetypes="ssssscccccccccccccc"
       inkscape:export-ydpi="150.87215"
       inkscape:export-xdpi="150.87215"
       inkscape:export-filename="/home/krother/Desktop/TLI_pictures/green.png"
       inkscape:connector-curvature="0"
       id="path999"
       d="m 70.751584,267.82799 c 1.539843,0 2.788536,1.24873 2.788536,2.78854 0,1.5398 -1.248732,2.78853 -2.788575,2.78853 -1.539768,0 -2.786698,-1.24873 -2.786698,-2.78853 0,-1.53981 1.24693,-2.78854 2.786737,-2.78854 z m -9.799803,11.71145 8.354713,-5.86752 h 2.928323 l 8.316545,5.86752 v 3.44394 l -6.773453,-3.38585 2.850273,8.74503 h -4.106514 l -1.770123,-5.51714 -1.770046,5.51714 h -4.106548 l 2.850268,-8.74503 -6.773438,3.38585 z"
       style="fill:#4285f4;fill-opacity:1;stroke:#000000;stroke-width:0.33354485"
       inkscape:transform-center-x="-84.923785"
       inkscape:transform-center-y="1.4385875e-06" />
    <g
       transform="matrix(0.12931242,0,0,0.12931242,-0.48654779,231.27254)"
       id="g1002">
      <path
         style="fill:#784421;fill-opacity:1;stroke:none;stroke-width:1.88976383;stroke-linecap:butt;stroke-linejoin:round;stroke-miterlimit:4;stroke-dasharray:none;stroke-dashoffset:0;stroke-opacity:1"
         d="m 126.01562,662.90039 a 10.859139,39.395951 0 0 0 -10.51953,29.82031 11.364216,6.9447985 0 0 0 -3.11718,-0.27343 11.364216,6.9447985 0 0 0 -7.65625,1.82226 5.4503848,7.1835515 0 0 0 0.0801,-1.17773 5.4503848,7.1835515 0 0 0 -3.42773,-6.66407 5.4503848,7.1835515 0 0 0 -5.304688,-5.57031 5.4503848,7.1835515 0 0 0 -5.451171,7.1836 5.4503848,7.1835515 0 0 0 3.429687,6.66601 5.4503848,7.1835515 0 0 0 5.304688,5.56836 5.4503848,7.1835515 0 0 0 1.695314,-0.36523 11.364216,6.9447985 0 0 0 11.33008,6.42578 11.364216,6.9447985 0 0 0 2.83984,-0.22461 10.859139,39.395951 0 0 0 2.62109,22.03515 10.227795,8.5862974 0 0 0 -3.1875,6.22266 10.227795,8.5862974 0 0 0 10.22852,8.58594 10.227795,8.5862974 0 0 0 10.22656,-8.58594 10.227795,8.5862974 0 0 0 -1.39648,-4.3125 10.859139,39.395951 0 0 0 1.70898,-8.11914 8.4707695,22.599316 44.143941 0 0 0.5625,0.68555 8.4707695,22.599316 44.143941 0 0 21.93164,-10.58008 8.4707695,22.599316 44.143941 0 0 9.40039,-21.99219 8.4707695,22.599316 44.143941 0 0 -21.93164,10.58008 8.4707695,22.599316 44.143941 0 0 -5.89453,7.23437 5.4503848,7.1835515 0 0 0 -2.66406,-1.85546 10.859139,39.395951 0 0 0 0.0508,-3.71289 10.859139,39.395951 0 0 0 -10.85938,-39.39649 z"
         transform="matrix(2.1549261,0,0,2.1549261,-5.36879,-1165.5885)"
         id="path1055"
         inkscape:connector-curvature="0" />
      <path
         style="fill:#34a853;fill-opacity:1;stroke:none;stroke-width:1.88976383;stroke-linecap:butt;stroke-linejoin:round;stroke-miterlimit:4;stroke-dasharray:none;stroke-dashoffset:0;stroke-opacity:1"
         d="m 160.98242,578.94922 a 48.125,17.053572 0 0 0 -19.97461,1.55859 11.696428,7.3214287 0 0 0 -4.84765,-0.66601 11.696428,7.3214287 0 0 0 -8.34766,2.20117 11.964286,5.8035715 0 0 0 -4.41992,-0.41602 11.964286,5.8035715 0 0 0 -11.90625,5.24805 67.142858,37.142855 0 0 0 -11.558596,0.92578 31.819805,18.309015 0 0 0 -22.65039,-5.46094 31.819805,18.309015 0 0 0 -31.820313,18.31055 31.819805,18.309015 0 0 0 0.691407,3.69727 16.162441,10.859139 0 0 0 -9.277344,9.8125 16.162441,10.859139 0 0 0 11.017578,10.28515 67.142858,37.142855 0 0 0 12.18164,20.83985 22.602163,13.384521 0 0 0 -12.71875,-2.33594 22.602163,13.384521 0 0 0 -22.603515,13.38476 22.602163,13.384521 0 0 0 3.177734,6.8125 22.602163,13.384521 0 0 0 -6.460937,9.34961 22.602163,13.384521 0 0 0 22.603515,13.38477 22.602163,13.384521 0 0 0 22.601563,-13.38477 22.602163,13.384521 0 0 0 -3.175781,-6.8125 22.602163,13.384521 0 0 0 6.458984,-9.34961 22.602163,13.384521 0 0 0 -2.71875,-6.35742 A 67.142858,37.142855 0 0 0 115,661.0918 a 67.142858,37.142855 0 0 0 56.11133,-16.79883 13.035715,20.803571 0 0 0 3.35351,0.72656 13.035715,20.803571 0 0 0 13.03516,-20.80273 13.035715,20.803571 0 0 0 -0.28516,-4.21875 15.803572,9.3750004 0 0 0 0.73243,0.0215 15.803572,9.3750004 0 0 0 15.80273,-9.375 15.803572,9.3750004 0 0 0 -2.69336,-5.21875 48.125,17.053572 0 0 0 8.05078,-9.42383 48.125,17.053572 0 0 0 -48.125,-17.05273 z m 30.44531,66.42773 a 30.892857,17.500001 0 0 0 -30.89257,17.5 30.892857,17.500001 0 0 0 30.89257,17.5 30.892857,17.500001 0 0 0 30.89454,-17.5 30.892857,17.500001 0 0 0 -30.89454,-17.5 z"
         transform="matrix(2.1549261,0,0,2.1549261,-5.36879,-1165.5885)"
         id="path1030"
         inkscape:connector-curvature="0" />
      <path
         inkscape:connector-curvature="0"
         d="m 474.46182,242.48064 c -5.06152,-4.43067 -11.29297,-6.37598 -16.66504,-7.16797 -0.46093,-3.21094 -1.56152,-6.72266 -3.76269,-10.21582 -6.22949,-9.88672 -18.74512,-15.5918 -37.20117,-16.95801 -3.77588,-0.27979 -7.34473,-0.28833 -10.73243,-0.0842 2.95899,-3.41772 5.28052,-7.02124 6.91504,-10.81714 1.77637,-4.125 2.53418,-7.96191 2.72852,-11.30664 15.42578,-3.16601 25.84961,-9.94629 31.04883,-20.22461 5.67187,-11.20996 3.34668,-23.12207 0.53125,-30.9375 0.61816,-0.41406 1.2334,-0.82519 1.84375,-1.23242 9.36523,-6.24805 19.04883,-12.70898 17.04785,-23.41797 -1.70801,-9.13965 -11.15235,-14.206053 -24.8086,-19.000975 C 428.3378,86.528488 408.15421,81.255051 377.88663,74.519699 287.66299,54.444504 229.42081,78.25798 207.86417,89.929855 199.45401,80.051926 180.46378,68.675949 138.80655,77.44548 c -24.4209,5.138672 -41.451173,14.920899 -50.617189,29.07617 -5.83789,9.01367 -7.020507,17.61817 -7.010742,23.15039 -14.887695,14.97754 -20.370117,28.97754 -16.298828,41.66309 5.556641,17.31348 27.391602,24.92187 40.442379,27.98047 -0.23657,5.2146 0.0449,10.16601 0.83301,14.83911 -5.63598,-0.24536 -16.520018,-0.53491 -27.91699,0.17749 -25.833008,1.61719 -39.709961,7.49316 -43.670899,18.49121 -3.792969,10.53516 3.018555,20.24023 11.548828,28.02638 -9.285156,8.49317 -20.391601,21.98828 -16.707031,35.61719 4.8125,17.79687 29.335937,21.70898 47.364258,23.10352 0.07715,0.007 0.15332,0.0117 0.230469,0.0156 l 39.327145,2.13086 c 0.47754,0.0264 0.95117,0.0381 1.42481,0.0381 12.33984,0 23.16723,-8.58789 26.0874,-20.44141 16.12158,4.30469 34.16064,13.77515 43.90771,34.2959 6.01075,12.66211 16.78321,22.49902 30.33594,27.69922 l 10.50781,4.02636 v 57.91602 c 0.18739,24.23289 7.69115,21.73164 7.69115,21.73164 h 53.36161 c 0,0 10.09977,1.1795 9.8076,-21.73164 v -26.39551 c 6.25781,-4.03125 17.69531,-11.57031 28.75781,-19.74512 23.24512,-17.17578 28.44629,-25.03027 30.37793,-29.94921 0.74902,-1.90235 1.52734,-4.13868 2.42871,-6.72754 2.97363,-8.53662 7.25342,-20.792 14.35132,-31.85132 7.79541,1.88135 17.85888,2.94311 30.07544,3.15698 0.69922,0.0127 1.38476,0.0195 2.06836,0.0186 32.19726,-9.8e-4 46.03027,-13.7627 51.69726,-23.05762 4.44434,-0.16016 9.9043,-1.29004 14.68164,-4.98535 4.29785,-3.32618 9.42188,-9.88282 9.42188,-22.2334 0,-10.95021 -4.81446,-17.46486 -8.85352,-21.00099 z m -340.66211,1.80273 c -1.23633,6.16211 -4.20117,11.75392 -4.21875,11.78615 -1.48852,2.74927 -1.54956,5.89355 -0.43701,8.58472 -4.80444,0.12182 -9.65381,0.55249 -14.52002,1.29809 -4.54199,0.71289 -8.50586,3.60156 -10.63379,7.78809 l -1.63965,3.27929 c -2.25586,4.51172 -2.00781,9.75977 0.66407,14.04004 2.64746,4.24121 7.19531,6.76172 12.19824,6.76172 0.0439,0 0.0889,0 0.13379,-9.7e-4 2.22998,-0.0229 5.13281,0.0254 8.49634,0.25268 -1.20826,2.31494 -3.68555,3.84253 -6.43677,3.6731 l -39.203127,-2.12403 c -26.605468,-2.07617 -29.469726,-8.3125 -29.487304,-8.375 -1.009766,-3.71875 8.61914,-14.92285 19.069336,-22.19336 2.671875,-1.84863 4.279297,-4.88086 4.30957,-8.12988 0.0293,-3.24902 -1.520508,-6.31056 -4.157227,-8.209 -9.938476,-7.15332 -13.058593,-11.45508 -14.011718,-13.21972 2.080078,-1.32422 8.863281,-4.38477 27.958007,-5.33594 13.896485,-0.69434 26.771483,0.15039 26.898433,0.15918 0.85352,0.0566 1.71485,0.006 2.5586,-0.15723 3.11035,-0.59668 5.96777,-0.99707 8.50586,-1.19043 9.82519,-0.75976 12.67676,1.53809 13.3164,2.26074 1.25586,1.41992 1.49512,4.79981 0.63672,9.05176 z m -7.50415,-31.37378 c -1.31372,-5.84253 -1.40185,-12.60107 -0.22729,-20.20141 0.41113,-2.66211 -0.27539,-5.37793 -1.89258,-7.53223 -1.61719,-2.1543 -4.04199,-3.56543 -6.71289,-3.91309 -11.95703,-1.55761 -30.887696,-7.73535 -33.54297,-16.04882 -1.71289,-5.36329 3.530274,-14.2129 14.385743,-24.28125 2.669917,-2.47754 3.866207,-5.85059 2.991207,-9.37598 -0.30175,-1.94824 -2.906247,-25.16895 41.62891,-34.540041 35.94824,-7.568359 49.54492,2.545899 51.8125,9.108401 0.59668,3.35449 2.80664,5.84765 5.97266,7.15039 3.20996,1.31738 6.80664,0.53711 9.61328,-1.50586 0.56933,-0.41406 58.14453,-41.109376 163.21875,-17.726564 25.27539,5.624024 43.54785,10.253904 55.86035,14.156254 6.83691,2.16601 11.14258,3.90332 13.82812,5.17675 -1.65332,1.18067 -3.5498,2.44629 -5.16308,3.52247 -2.84863,1.90136 -6.0791,4.05566 -9.27344,6.45214 -4.09375,3.07032 -5.23437,8.69239 -2.61035,13.08594 1.94531,3.33399 6.22851,13.47852 2.7373,20.29199 -3.72851,7.27442 -15.78418,9.88184 -25.24023,10.78809 -3.22852,0.30859 -6.10645,2.16406 -7.71973,4.97656 -1.61426,2.8125 -1.76465,6.2334 -0.40234,9.17676 0.0117,0.0264 0.97266,3.27734 -0.91309,7.6582 -2.26953,5.27051 -10.10449,15.46582 -37.07812,24.53418 -2.1084,0.70801 -3.88672,2.05078 -5.11524,3.9043 -0.44629,0.65576 -8.35058,12.00293 -25.08203,20.15625 0.66553,-2.8562 0.46826,-5.8877 -0.65918,-8.66797 -1.74121,-4.29199 -5.47168,-7.49902 -9.98535,-8.58008 l -1.76367,-0.4209 c -5.49512,-1.31152 -11.26856,0.73243 -14.70117,5.18067 l -15.93433,20.55908 c -6.91479,-0.38379 -14.11059,-1.45117 -21.46802,-3.20947 -2.49316,-0.59473 -5.15429,-0.19043 -7.37402,1.09472 -0.0339,0.0198 -2.56299,1.47071 -6.91016,3.2295 l -20.69824,-20.69825 c -3.20019,-3.19921 -7.7832,-4.71484 -12.25586,-4.06054 -4.46972,0.65527 -8.41797,3.42187 -10.54492,7.37207 l -1.85645,3.41992 c -3.39062,6.26465 -1.62597,14.18066 4.09083,18.40332 0.63183,0.46826 1.36157,1.01953 2.1538,1.63037 -10.49658,-0.94995 -20.55224,-4.07349 -30.05615,-9.39111 -1.54101,-0.86328 -3.3291,-1.29492 -5.0791,-1.27149 -0.12354,-0.002 -9.49561,0.1084 -20.03418,-3.01513 -0.0591,-8.54786 -3.15234,-14.12842 -6.1543,-17.521 -4.90527,-5.54175 -12.24218,-8.56909 -21.84497,-9.06714 z m 216.37818,81.8777 c -10.37696,10.96436 -17.82422,22.77149 -22.22168,35.25391 l -23.85254,15.39648 -0.41797,-2.28418 c -3.30957,-18.10547 -2.78418,-36.34375 1.5625,-54.21777 l 1.04101,-4.29785 13.021,-20.58545 c 7.46826,-1.49341 14.16089,-3.67481 20.10205,-6.23877 -1.09131,2.59302 -1.91211,5.44434 -2.36914,8.58789 -1.70337,11.70801 3.0835,21.66431 13.13477,28.38574 z M 155.82388,267.30902 c -0.0249,-0.20117 -0.0388,-0.39844 -0.073,-0.60278 -0.44776,-2.68238 -1.59327,-4.97168 -3.1128,-6.95093 8.28223,2.03345 15.48389,2.58032 19.27783,2.71558 13.87305,7.29004 29.01563,10.99707 44.63965,10.99707 4.36841,0 8.77588,-0.29712 13.2024,-0.87989 3.35668,4.25391 5.68725,8.23633 6.80639,11.68262 3.9707,12.22266 -1.4834,31.13867 -4.74609,38.90137 -0.81446,-0.64746 -2.1084,-1.94922 -3.76074,-4.51758 -4.6814,-7.28247 -28.70093,-41.44385 -72.23365,-51.34546 z m 186.30884,68.54663 c -0.83203,2.38867 -1.55078,4.45117 -2.14746,5.96973 -2.20801,5.06933 -21.84082,21.45215 -53.87109,41.82422 -4.16993,2.64843 -6.65918,7.18359 -6.65918,12.13183 v 29.46973 h -30.86036 v -61.78027 c 0,-5.90723 -3.70507,-11.30176 -9.23144,-13.42774 l -14.11621,-5.4082 c -8.73047,-3.35059 -15.63086,-9.60156 -19.42871,-17.60449 -2.57227,-5.41309 -5.54981,-10.23731 -8.83399,-14.53614 8.35938,8.125 13.167,15.292 14.25098,16.97754 8.31836,12.92969 19.09961,17.26075 30.35938,12.19825 l 0.16015,-0.0723 c 2.22461,-0.84375 7.72461,-3.35547 13.20996,-25.22949 2.41992,-9.64942 4.50781,-23.37989 1.38281,-35.64258 2.2461,0.67285 4.65235,0.79199 7.01758,0.2998 l 16.62696,-3.43066 c -0.16797,0.4707 -0.31055,0.94922 -0.42579,1.43164 l -1.25781,5.19141 c -5.01269,20.60937 -5.61816,41.64746 -1.80078,62.53222 l 1.92969,10.55371 c 0.8623,4.73243 4.01172,8.69922 8.42578,10.61133 4.41406,1.91406 9.4668,1.49903 13.51465,-1.1123 l 32.56543,-21.02051 c 2.7207,-1.74902 4.79687,-4.42969 5.84765,-7.54688 0.0117,-0.0322 0.0225,-0.0654 0.0332,-0.0976 2.10547,-6.4668 5.30664,-12.77051 9.57617,-18.875 -2.6875,6.3125 -4.70215,12.09765 -6.26758,16.59277 z m 119.54297,-65.97558 c -1.37207,1.08789 -4.60547,0.93554 -6.09961,0.60742 -2.62012,-0.73535 -5.31348,-0.33789 -7.66113,1.04687 -2.36231,1.39356 -3.92871,3.72852 -4.54492,6.40137 -0.0381,0.16406 -4.7129,16.36621 -37.57032,15.80762 -5.57519,-0.0977 -10.23681,-0.37842 -14.13354,-0.7605 2.07593,-1.46143 4.21362,-2.75415 6.42358,-3.82935 4.625,-2.24804 7.71485,-6.82714 8.06348,-11.95117 0.34961,-5.125 -2.09277,-10.08008 -6.3457,-12.91504 -2.36524,-1.58789 -5.12891,-2.42676 -7.99219,-2.42676 -2.22363,0 -4.44824,0.52442 -6.43262,1.51661 -5.52295,2.76147 -15.85156,8.44482 -26.98535,17.17724 -5.29541,-2.11938 -9.89209,-5.60083 -9.06738,-11.27392 1.80566,-12.41407 17.02734,-14.23049 17.60547,-14.29396 4.02929,-0.38477 7.35839,-2.94239 8.54199,-6.80567 0.21777,-0.58105 2.37304,-6.05469 7.94629,-11.07129 7.75781,-6.9834 18.50488,-10.01855 31.93261,-9.02539 15.80664,1.16992 20.41797,5.66016 21.667,7.53613 1.62695,2.44336 0.92675,5.28028 0.75293,5.87403 -1.42383,3.28125 -0.89161,6.86719 1.25488,9.74219 2.16894,2.90332 5.83691,4.18457 9.42578,3.70703 2.28809,-0.30371 9.58301,-0.25977 12.83008,2.58497 0.55469,0.48535 2.02832,1.77539 2.02832,5.95313 0,3.19043 -0.61328,5.58203 -1.63965,6.39844 z"
         id="path1000"
         sodipodi:nodetypes="cccccccccccccccccccccccccccscccccccccccccccccscccccccccscccccccccccccccccscccccccccccccccccccccccccccccccccccccccccccccccccccccccscccccccccsccsccccccccccccccccccccccccccccccccsscccccccccccsc" />
    </g>
  </g>
</svg>
