<?xml version="1.0" encoding="UTF-8" standalone="no"?>
<!-- Created with Inkscape (http://www.inkscape.org/) -->

<svg
   xmlns:dc="http://purl.org/dc/elements/1.1/"
   xmlns:cc="http://creativecommons.org/ns#"
   xmlns:rdf="http://www.w3.org/1999/02/22-rdf-syntax-ns#"
   xmlns:svg="http://www.w3.org/2000/svg"
   xmlns="http://www.w3.org/2000/svg"
   xmlns:sodipodi="http://sodipodi.sourceforge.net/DTD/sodipodi-0.dtd"
   xmlns:inkscape="http://www.inkscape.org/namespaces/inkscape"
   width="120mm"
   height="70mm"
   viewBox="0 0 120 70"
   version="1.1"
   id="svg8093"
   inkscape:version="0.92.5 (2060ec1f9f, 2020-04-08)"
   sodipodi:docname="story_vs_data.svg"
   inkscape:export-filename="/home/kristian/projects/online_teaching_survival_guide/images/story_vs_data.png"
   inkscape:export-xdpi="127"
   inkscape:export-ydpi="127">
  <defs
     id="defs8087">
    <inkscape:path-effect
       effect="spiro"
       id="path-effect3263-3-6"
       is_visible="true" />
    <inkscape:path-effect
       is_visible="true"
       id="path-effect1322"
       effect="spiro" />
  </defs>
  <sodipodi:namedview
     id="base"
     pagecolor="#ffffff"
     bordercolor="#666666"
     borderopacity="1.0"
     inkscape:pageopacity="0.0"
     inkscape:pageshadow="2"
     inkscape:zoom="1.4"
     inkscape:cx="219.48516"
     inkscape:cy="97.201566"
     inkscape:document-units="mm"
     inkscape:current-layer="g354"
     showgrid="false"
     inkscape:window-width="1848"
     inkscape:window-height="1016"
     inkscape:window-x="72"
     inkscape:window-y="27"
     inkscape:window-maximized="1" />
  <metadata
     id="metadata8090">
    <rdf:RDF>
      <cc:Work
         rdf:about="">
        <dc:format>image/svg+xml</dc:format>
        <dc:type
           rdf:resource="http://purl.org/dc/dcmitype/StillImage" />
        <dc:title></dc:title>
      </cc:Work>
    </rdf:RDF>
  </metadata>
  <g
     inkscape:label="Layer 1"
     inkscape:groupmode="layer"
     id="layer1"
     transform="translate(0,-227)">
    <flowRoot
       style="font-style:normal;font-weight:normal;font-size:12.80000019px;line-height:0.01%;font-family:sans-serif;letter-spacing:0px;word-spacing:0px;fill:#000000;fill-opacity:1;stroke:none;stroke-width:1.06666672px;stroke-linecap:butt;stroke-linejoin:miter;stroke-opacity:1"
       id="flowRoot6746"
       xml:space="preserve"
       transform="matrix(0.21709197,0,0,0.21709197,-48.859603,185.38203)"><flowRegion
         style="font-family:sans-serif;stroke-width:1.06666672px"
         id="flowRegion6742"><rect
           style="font-size:17.06666756px;font-family:sans-serif;stroke-width:1.13777781px"
           y="374.19867"
           x="386.82111"
           height="65.727257"
           width="61.417274"
           id="rect6740" /></flowRegion><flowPara
         style="font-size:17.06666756px;line-height:1.25;font-family:sans-serif;stroke-width:1.06666672px"
         id="flowPara6744"> </flowPara></flowRoot>    <rect
       inkscape:export-ydpi="149.98193"
       inkscape:export-xdpi="149.98193"
       inkscape:export-filename="/home/krother/Desktop/mySpeakerBusiness/speaker_types.png"
       y="233.95573"
       x="5.8555555"
       height="39.356899"
       width="39.032547"
       id="rect6748"
       style="fill:none;fill-opacity:1;stroke:none;stroke-width:0.23156478" />
    <rect
       style="fill:#ffffff;stroke:#000000;stroke-width:0.54258174"
       id="rect6752"
       width="48.276352"
       height="39.290962"
       x="5.9500837"
       y="234.16533"
       inkscape:export-filename="/home/krother/Desktop/mySpeakerBusiness/speaker_types.png"
       inkscape:export-xdpi="149.98193"
       inkscape:export-ydpi="149.98193" />
    <g
       id="g354"
       transform="matrix(0.29168013,0,0,0.29168013,-138.48554,191.82348)">
      <flowRoot
         transform="matrix(0.90710098,0,0,0.90710098,447.48991,215.99031)"
         style="font-style:normal;font-weight:normal;font-size:18.66666603px;line-height:1.25;font-family:sans-serif;letter-spacing:0px;word-spacing:0px;fill:#000000;fill-opacity:1;stroke:none"
         id="flowRoot1027"
         xml:space="preserve"><flowRegion
           style="font-size:18.66666603px"
           id="flowRegion1029"><rect
             style="font-size:18.66666603px"
             y="72.969002"
             x="55.118702"
             height="71.775764"
             width="180.54776"
             id="rect1031" /></flowRegion><flowPara
           style="font-weight:bold;font-size:13.33333302px"
           id="flowPara1033">Storytelling</flowPara><flowPara
           id="flowPara1035"
           style="font-size:13.33333302px">You tell a story about real</flowPara><flowPara
           style="font-size:13.33333302px"
           id="flowPara9739">or fictional events.</flowPara></flowRoot>      <flowRoot
         xml:space="preserve"
         id="flowRoot9751"
         style="font-style:normal;font-weight:normal;font-size:18.66666603px;line-height:1.25;font-family:sans-serif;letter-spacing:0px;word-spacing:0px;fill:#000000;fill-opacity:1;stroke:none"
         transform="matrix(0.90710098,0,0,0.90710098,645.43231,215.99031)"><flowRegion
           id="flowRegion9743"
           style="font-size:18.66666603px"><rect
             id="rect9741"
             width="218.93355"
             height="72.785919"
             x="55.118702"
             y="72.969002"
             style="font-size:18.66666603px" /></flowRegion><flowPara
           id="flowPara9745"
           style="font-weight:bold;font-size:13.33333302px">Data Storytelling</flowPara><flowPara
           id="flowPara9749"
           style="font-size:13.33333302px">Numbers and diagrams that </flowPara><flowPara
           style="font-size:13.33333302px"
           id="flowPara9755">convey a clear message.</flowPara></flowRoot>      <flowRoot
         xml:space="preserve"
         id="flowRoot12657"
         style="font-style:normal;font-weight:normal;font-size:40px;line-height:1.25;font-family:sans-serif;letter-spacing:0px;word-spacing:0px;fill:#000000;fill-opacity:1;stroke:none"
         transform="matrix(0.90710099,0,0,0.90710099,474.78565,-657.65015)"><flowRegion
           id="flowRegion12659"><rect
             id="rect12661"
             width="406.92334"
             height="67.514633"
             x="17.857143"
             y="813.23395" /></flowRegion><flowPara
           id="flowPara12663"></flowPara></flowRoot>    </g>
    <g
       id="g1165"
       transform="matrix(0.26458333,0,0,0.26458333,51.401107,4.274544)">
      <flowRoot
         transform="matrix(0.82050507,0,0,0.82050507,-159.10797,684.50071)"
         xml:space="preserve"
         id="flowRoot1103"
         style="font-style:normal;font-weight:normal;font-size:12.80000019px;line-height:0.01%;font-family:sans-serif;letter-spacing:0px;word-spacing:0px;fill:#000000;fill-opacity:1;stroke:none;stroke-width:1.06666672px;stroke-linecap:butt;stroke-linejoin:miter;stroke-opacity:1"><flowRegion
           id="flowRegion1099"
           style="font-family:sans-serif;stroke-width:1.06666672px"><rect
             id="rect1097"
             width="61.417274"
             height="65.727257"
             x="386.82111"
             y="374.19867"
             style="font-size:17.06666756px;font-family:sans-serif;stroke-width:1.13777781px" /></flowRegion><flowPara
           id="flowPara1101"
           style="font-size:17.06666756px;line-height:1.25;font-family:sans-serif;stroke-width:1.06666672px"> </flowPara></flowRoot>      <rect
         style="fill:none;fill-opacity:1;stroke:none;stroke-width:0.87520546"
         id="rect1105"
         width="147.52458"
         height="148.75049"
         x="47.689472"
         y="868.08636"
         inkscape:export-filename="/home/krother/Desktop/mySpeakerBusiness/speaker_types.png"
         inkscape:export-xdpi="149.98193"
         inkscape:export-ydpi="149.98193" />
      <rect
         inkscape:export-ydpi="149.98193"
         inkscape:export-xdpi="149.98193"
         inkscape:export-filename="/home/krother/Desktop/mySpeakerBusiness/speaker_types.png"
         y="868.87854"
         x="48.04678"
         height="148.50128"
         width="182.46181"
         id="rect1107"
         style="fill:#ffffff;stroke:#000000;stroke-width:2.05070257" />
    </g>
    <rect
       style="fill:#b3b3b3;fill-opacity:1;stroke:#000000;stroke-width:0.25;stroke-linecap:round;stroke-linejoin:round;stroke-miterlimit:4.4000001;stroke-dasharray:none;stroke-dashoffset:0;stroke-opacity:1"
       id="rect12638"
       width="22.560453"
       height="3.4017944"
       x="72.333626"
       y="269.77505"
       ry="0" />
    <g
       id="g9737"
       transform="matrix(0.50140403,0,0,0.50140403,14.666564,228.04901)">
      <path
         inkscape:export-ydpi="199.73402"
         inkscape:export-xdpi="199.73402"
         inkscape:export-filename="C:\Documents and Settings\Kristian\Pulpit\talk.png"
         inkscape:connector-curvature="0"
         id="path5880"
         d="m 41.191633,22.596705 c -10.025299,0 -18.144631,4.836594 -18.144631,10.816881 0,5.855642 7.784451,10.596222 17.520677,10.792472 l -1.797004,12.64409 9.209597,-13.37491 c 6.659182,-1.60449 11.355994,-5.51446 11.355994,-10.061652 0,-5.980287 -8.119334,-10.816881 -18.144633,-10.816881 z"
         style="fill:#f2f2f2;fill-opacity:1;stroke:#000000;stroke-width:0.78907156;stroke-linecap:round;stroke-miterlimit:4;stroke-dasharray:none;stroke-dashoffset:0;stroke-opacity:1" />
      <g
         id="g5930"
         transform="matrix(0.19264159,0,0,0.19264159,-35.378977,-81.05391)"
         inkscape:export-xdpi="199.73402"
         inkscape:export-ydpi="199.73402">
        <g
           transform="matrix(-1,0,0,1,793.90476,0)"
           id="g5888">
          <path
             sodipodi:nodetypes="cc"
             inkscape:connector-curvature="0"
             id="path5882"
             d="m 417.90476,589.18633 c 9.9989,-3.37008 11.14202,-10.5355 14.47619,-16.7619"
             style="fill:none;stroke:#000000;stroke-width:2;stroke-linecap:butt;stroke-linejoin:miter;stroke-opacity:1" />
          <path
             sodipodi:nodetypes="cc"
             inkscape:connector-curvature="0"
             id="path5884"
             d="m 418.66667,592.99585 c 6.02369,1.8171 9.61095,-3.67507 13.71428,-7.61905"
             style="fill:none;stroke:#000000;stroke-width:2;stroke-linecap:butt;stroke-linejoin:miter;stroke-opacity:1" />
          <path
             sodipodi:nodetypes="cc"
             inkscape:connector-curvature="0"
             id="path5886"
             d="m 418.28572,596.80538 c 9.65845,-0.62269 9.10377,10.66993 13.33333,16.38095"
             style="fill:none;stroke:#000000;stroke-width:2;stroke-linecap:butt;stroke-linejoin:miter;stroke-opacity:1" />
        </g>
        <g
           id="g5896">
          <path
             style="fill:none;stroke:#000000;stroke-width:2;stroke-linecap:butt;stroke-linejoin:miter;stroke-opacity:1"
             d="m 417.90476,589.18633 c 9.9989,-3.37008 11.14202,-10.5355 14.47619,-16.7619"
             id="path5890"
             inkscape:connector-curvature="0"
             sodipodi:nodetypes="cc" />
          <path
             style="fill:none;stroke:#000000;stroke-width:2;stroke-linecap:butt;stroke-linejoin:miter;stroke-opacity:1"
             d="m 418.66667,592.99585 c 6.02369,1.8171 9.61095,-3.67507 13.71428,-7.61905"
             id="path5892"
             inkscape:connector-curvature="0"
             sodipodi:nodetypes="cc" />
          <path
             style="fill:none;stroke:#000000;stroke-width:2;stroke-linecap:butt;stroke-linejoin:miter;stroke-opacity:1"
             d="m 418.28572,596.80538 c 9.65845,-0.62269 9.10377,10.66993 13.33333,16.38095"
             id="path5894"
             inkscape:connector-curvature="0"
             sodipodi:nodetypes="cc" />
        </g>
        <ellipse
           ry="33.402378"
           rx="26.398653"
           cy="597.99762"
           cx="396.94049"
           id="ellipse5898"
           style="fill:#ea4335;fill-opacity:1;stroke:#000000;stroke-width:1.06666672;stroke-miterlimit:4;stroke-dasharray:none;stroke-dashoffset:0;stroke-opacity:1" />
        <path
           inkscape:connector-curvature="0"
           id="path5900"
           d="m 396.95714,564.58095 c -11.24328,0 -20.86108,8.90275 -24.66667,21.43333 6.54012,3.62637 15.19222,5.83334 24.66667,5.83334 9.47272,0 18.09365,-2.20815 24.63333,-5.83334 -3.80749,-12.52571 -13.39281,-21.43333 -24.63333,-21.43333 z"
           style="fill:#000000;fill-opacity:1;stroke:#000000;stroke-width:1.06666672;stroke-miterlimit:4;stroke-dasharray:none;stroke-dashoffset:0;stroke-opacity:1" />
        <path
           inkscape:connector-curvature="0"
           id="path5902"
           d="m 396.94047,564.59524 v 66.80475 0"
           style="fill:none;stroke:#000000;stroke-width:1.06666672px;stroke-linecap:butt;stroke-linejoin:miter;stroke-opacity:1" />
        <circle
           r="2.7498763"
           cy="599.27875"
           cx="389.37094"
           id="circle5904"
           style="fill:#000000;fill-opacity:1;stroke:#000000;stroke-width:0.90024751;stroke-miterlimit:4;stroke-dasharray:none;stroke-dashoffset:0;stroke-opacity:1" />
        <circle
           r="2.7498763"
           cy="609.38983"
           cx="382.36722"
           id="circle5906"
           style="fill:#000000;fill-opacity:1;stroke:#000000;stroke-width:0.90024751;stroke-miterlimit:4;stroke-dasharray:none;stroke-dashoffset:0;stroke-opacity:1" />
        <circle
           r="2.7498763"
           cy="621.62885"
           cx="390.98718"
           style="fill:#000000;fill-opacity:1;stroke:#000000;stroke-width:0.90024751;stroke-miterlimit:4;stroke-dasharray:none;stroke-dashoffset:0;stroke-opacity:1"
           id="circle5908" />
        <circle
           r="2.7498763"
           cy="599.27875"
           cx="-405.26401"
           style="fill:#000000;fill-opacity:1;stroke:#000000;stroke-width:0.90024751;stroke-miterlimit:4;stroke-dasharray:none;stroke-dashoffset:0;stroke-opacity:1"
           id="circle5910"
           transform="scale(-1,1)" />
        <circle
           r="2.7498763"
           cy="609.38983"
           cx="-412.26773"
           style="fill:#000000;fill-opacity:1;stroke:#000000;stroke-width:0.90024751;stroke-miterlimit:4;stroke-dasharray:none;stroke-dashoffset:0;stroke-opacity:1"
           id="circle5912"
           transform="scale(-1,1)" />
        <circle
           r="2.7498763"
           cy="621.62885"
           cx="-403.64777"
           transform="scale(-1,1)"
           id="circle5914"
           style="fill:#000000;fill-opacity:1;stroke:#000000;stroke-width:0.90024751;stroke-miterlimit:4;stroke-dasharray:none;stroke-dashoffset:0;stroke-opacity:1" />
        <circle
           r="2.7498763"
           cy="608.99304"
           cx="-396.88306"
           transform="scale(-1,1)"
           id="circle5916"
           style="fill:#000000;fill-opacity:1;stroke:#000000;stroke-width:0.90024751;stroke-miterlimit:4;stroke-dasharray:none;stroke-dashoffset:0;stroke-opacity:1" />
        <g
           transform="translate(-1.1428572,16.380953)"
           id="g5922">
          <path
             style="fill:none;stroke:#000000;stroke-width:2;stroke-linecap:butt;stroke-linejoin:miter;stroke-opacity:1"
             d="m 378.09524,538.1387 c 8.43258,1.41688 11.78838,8.43121 12.38095,15.2381"
             id="path5918"
             inkscape:connector-curvature="0"
             sodipodi:nodetypes="cc" />
          <circle
             r="1.8332508"
             cy="538.25018"
             cx="376.8757"
             id="circle5920"
             style="fill:#000000;fill-opacity:1;stroke:#000000;stroke-width:0.60016501;stroke-miterlimit:4;stroke-dasharray:none;stroke-dashoffset:0;stroke-opacity:1" />
        </g>
        <g
           transform="matrix(-1,0,0,1,793.75189,16.380953)"
           id="g5928">
          <path
             sodipodi:nodetypes="cc"
             inkscape:connector-curvature="0"
             id="path5924"
             d="m 378.09524,538.1387 c 8.43258,1.41688 11.78838,8.43121 12.38095,15.2381"
             style="fill:none;stroke:#000000;stroke-width:2;stroke-linecap:butt;stroke-linejoin:miter;stroke-opacity:1" />
          <circle
             r="1.8332508"
             cy="538.25018"
             cx="376.8757"
             style="fill:#000000;fill-opacity:1;stroke:#000000;stroke-width:0.60016501;stroke-miterlimit:4;stroke-dasharray:none;stroke-dashoffset:0;stroke-opacity:1"
             id="circle5926" />
        </g>
      </g>
    </g>
    <g
       id="g9709"
       transform="translate(-18.126167,213.07867)">
      <g
         transform="matrix(0.8355076,0,0,0.8355076,53.423603,-186.15781)"
         id="g9903">
        <path
           style="fill:#b3b3b3;stroke:#000000;stroke-width:0.15042064;stroke-linecap:butt;stroke-linejoin:miter;stroke-opacity:1"
           d="m -15.492895,274.88019 c 2.7024,-3.89131 5.5753071,-3.66541 8.5992989,0 l 0.378597,-0.0376 c 0,0 -1.83848,-3.218 -4.7968339,-3.18642 -2.958354,0.0316 -4.559657,3.18642 -4.559657,3.18642 z"
           id="path13446"
           inkscape:connector-curvature="0"
           sodipodi:nodetypes="ccczcc" />
        <path
           style="fill:#b3b3b3;stroke:#000000;stroke-width:0.07959758px;stroke-linecap:butt;stroke-linejoin:miter;stroke-opacity:1"
           d="m -16.558305,278.67154 0.502536,1.78903 0.42213,-0.14071 -0.482434,-1.64832 z"
           id="path13444"
           inkscape:connector-curvature="0" />
        <circle
           r="4.6181006"
           cy="277.16931"
           cx="-11.196115"
           inkscape:export-ydpi="149.99072"
           inkscape:export-xdpi="149.99072"
           inkscape:export-filename="/home/krother/Desktop/lehre/Teaching/pictures/teaching.png"
           style="fill:#4285f4;fill-opacity:1;stroke:#000000;stroke-width:0.30084124;stroke-miterlimit:4;stroke-dasharray:none;stroke-dashoffset:0;stroke-opacity:1"
           id="path3085" />
        <path
           style="opacity:1;fill:#b3b3b3;fill-opacity:1;stroke:#000000;stroke-width:0.15042064;stroke-linecap:round;stroke-linejoin:miter;stroke-miterlimit:4;stroke-dasharray:none;stroke-dashoffset:0;stroke-opacity:1"
           d="m -15.87149,274.84256 a 1.937251,1.937251 0 0 0 -1.937181,1.93719 1.937251,1.937251 0 0 0 1.937181,1.9373 1.937251,1.937251 0 0 0 0.378595,-0.0393 v -3.79753 a 1.937251,1.937251 0 0 0 -0.378595,-0.0376 z"
           id="path13435"
           inkscape:connector-curvature="0" />
        <circle
           style="opacity:1;fill:#b3b3b3;fill-opacity:1;stroke:#000000;stroke-width:0.15042064;stroke-linecap:round;stroke-linejoin:miter;stroke-miterlimit:4;stroke-dasharray:none;stroke-dashoffset:0;stroke-opacity:1"
           id="path13440"
           cx="-15.62649"
           cy="280.67035"
           r="0.51169878" />
        <path
           inkscape:connector-curvature="0"
           id="path13442"
           d="m -6.5149991,274.84256 a 1.937251,1.937251 0 0 1 1.93718,1.93719 1.937251,1.937251 0 0 1 -1.93718,1.9373 1.937251,1.937251 0 0 1 -0.378597,-0.0393 v -3.79753 a 1.937251,1.937251 0 0 1 0.378597,-0.0376 z"
           style="opacity:1;fill:#b3b3b3;fill-opacity:1;stroke:#000000;stroke-width:0.15042064;stroke-linecap:round;stroke-linejoin:miter;stroke-miterlimit:4;stroke-dasharray:none;stroke-dashoffset:0;stroke-opacity:1" />
      </g>
      <path
         inkscape:export-ydpi="300"
         inkscape:export-xdpi="300"
         inkscape:export-filename="C:\Documents and Settings\Kristian\Pulpit\audience.png"
         style="fill:#4285f4;fill-opacity:1;stroke:#000000;stroke-width:0.28250149;stroke-miterlimit:4;stroke-dasharray:none;stroke-dashoffset:0;stroke-opacity:1"
         d="m 43.979576,49.486 c -3.868775,0 -6.995676,3.799052 -6.995676,8.485178 0,0.751901 0.0804,1.478964 0.231968,2.173169 h 13.527413 c 0.15157,-0.694205 0.244178,-1.421268 0.244178,-2.173169 0,-4.686126 -3.139109,-8.485178 -7.007883,-8.485178 z"
         id="path1109-2"
         inkscape:connector-curvature="0" />
    </g>
    <g
       id="g4172"
       transform="matrix(0.95620892,0,0,0.95620892,32.812785,21.251311)">
      <g
         transform="matrix(0.26458333,0,0,0.26458333,332.99235,256.98626)"
         id="g3086">
        <rect
           style="opacity:1;fill:#ea4335;fill-opacity:1;stroke:#000000;stroke-width:1.5;stroke-linecap:round;stroke-linejoin:miter;stroke-miterlimit:4;stroke-dasharray:none;stroke-dashoffset:0;stroke-opacity:1"
           id="rect3077"
           width="14.203125"
           height="58.785156"
           x="-1088.3802"
           y="-48.341404" />
        <rect
           y="-69.777603"
           x="-1062.8672"
           height="80.221352"
           width="14.203125"
           id="rect3079"
           style="opacity:1;fill:#34a853;fill-opacity:1;stroke:#000000;stroke-width:1.5;stroke-linecap:round;stroke-linejoin:miter;stroke-miterlimit:4;stroke-dasharray:none;stroke-dashoffset:0;stroke-opacity:1" />
        <rect
           style="opacity:1;fill:#4285f4;fill-opacity:1;stroke:#000000;stroke-width:1.5;stroke-linecap:round;stroke-linejoin:miter;stroke-miterlimit:4;stroke-dasharray:none;stroke-dashoffset:0;stroke-opacity:1"
           id="rect3081"
           width="14.203125"
           height="30.247387"
           x="-1037.3542"
           y="-19.803646" />
      </g>
    </g>
    <g
       transform="matrix(0.50140403,0,0,0.50140403,75.651584,228.04901)"
       id="g11988">
      <path
         style="fill:#f2f2f2;fill-opacity:1;stroke:#000000;stroke-width:0.78907156;stroke-linecap:round;stroke-miterlimit:4;stroke-dasharray:none;stroke-dashoffset:0;stroke-opacity:1"
         d="m 41.191633,22.596705 c -10.025299,0 -18.144631,4.836594 -18.144631,10.816881 0,5.855642 7.784451,10.596222 17.520677,10.792472 l -1.797004,12.64409 9.209597,-13.37491 c 6.659182,-1.60449 11.355994,-5.51446 11.355994,-10.061652 0,-5.980287 -8.119334,-10.816881 -18.144633,-10.816881 z"
         id="path11936"
         inkscape:connector-curvature="0"
         inkscape:export-filename="C:\Documents and Settings\Kristian\Pulpit\talk.png"
         inkscape:export-xdpi="199.73402"
         inkscape:export-ydpi="199.73402" />
      <rect
         style="fill:#fbbc05;fill-opacity:1;stroke:none;stroke-width:1.15200472;stroke-linecap:round;stroke-linejoin:round;stroke-miterlimit:4.4000001;stroke-dasharray:none;stroke-dashoffset:0;stroke-opacity:1"
         id="rect12636"
         width="4.3863826"
         height="4.6511011"
         x="39.484989"
         y="27.580818"
         ry="1.9492292" />
      <g
         transform="matrix(0.30043717,0,0,0.30043717,34.598882,26.38528)"
         id="g12062"
         style="fill:#34a853;fill-opacity:1;stroke:#000000">
        <rect
           x="8.6999998"
           y="44"
           width="30.700001"
           height="4"
           id="rect12058"
           style="fill:#34a853;fill-opacity:1;stroke:#000000" />
        <path
           inkscape:connector-curvature="0"
           d="M 47.6,1.9 C 47.3,1.6 46.9,1.4 46.5,1.4 H 38 c 0,-0.5 0,-1 0,-1.5 H 10 c 0,0.5 0,1 0,1.5 H 1.5 C 1.1,1.4 0.7,1.6 0.4,1.9 0.1,2.2 0,2.6 0,3.1 c 0.4,8.5 6.4,15.6 14.6,18.8 1.8,3.5 4,6 6.4,7.1 v 8 l -7.6,3 v 2 H 34.6 V 40 L 27,37 v -8.1 c 2.4,-1.1 4.6,-3.6 6.4,-7.1 C 41.6,18.7 47.6,11.6 48,3.1 48,2.6 47.9,2.2 47.6,1.9 Z M 3.2,4.5 h 7 c 0.4,4.9 1.3,9.4 2.7,13.2 C 7.7,14.9 4,10.1 3.2,4.5 Z m 26.2,6.7 -2.1,2 c -0.1,0.1 -0.2,0.3 -0.2,0.5 l 0.5,2.9 c 0.1,0.5 -0.4,0.8 -0.8,0.6 l -2.6,-1.4 c -0.2,-0.1 -0.4,-0.1 -0.5,0 l -2.6,1.4 c -0.4,0.2 -0.9,-0.1 -0.8,-0.6 l 0.5,-2.9 c 0,-0.2 0,-0.4 -0.2,-0.5 l -2.1,-2 c -0.3,-0.3 -0.1,-0.9 0.3,-1 l 2.9,-0.4 c 0.2,0 0.3,-0.1 0.4,-0.3 l 1.3,-2.6 c 0.2,-0.4 0.8,-0.4 1,0 l 1.3,2.6 c 0.1,0.2 0.2,0.3 0.4,0.3 l 2.9,0.4 c 0.6,0.1 0.7,0.7 0.4,1 z m 5.7,6.5 c 1.3,-3.8 2.3,-8.3 2.7,-13.3 h 7 C 44,10.1 40.3,14.9 35.1,17.7 Z"
           id="path12060"
           style="fill:#34a853;fill-opacity:1;stroke:#000000" />
      </g>
    </g>
  </g>
</svg>
