<?xml version="1.0" encoding="UTF-8" standalone="no"?>
<!-- Created with Inkscape (http://www.inkscape.org/) -->

<svg
   xmlns:dc="http://purl.org/dc/elements/1.1/"
   xmlns:cc="http://creativecommons.org/ns#"
   xmlns:rdf="http://www.w3.org/1999/02/22-rdf-syntax-ns#"
   xmlns:svg="http://www.w3.org/2000/svg"
   xmlns="http://www.w3.org/2000/svg"
   xmlns:sodipodi="http://sodipodi.sourceforge.net/DTD/sodipodi-0.dtd"
   xmlns:inkscape="http://www.inkscape.org/namespaces/inkscape"
   width="220mm"
   height="50mm"
   viewBox="0 0 220 50"
   version="1.1"
   id="svg4711"
   inkscape:version="0.92.5 (2060ec1f9f, 2020-04-08)"
   sodipodi:docname="story_onceupon.svg"
   inkscape:export-filename="/home/kristian/projects/online_teaching_survival_guide/images/story_onceupon.png"
   inkscape:export-xdpi="138.55"
   inkscape:export-ydpi="138.55">
  <defs
     id="defs4705" />
  <sodipodi:namedview
     id="base"
     pagecolor="#ffffff"
     bordercolor="#666666"
     borderopacity="1.0"
     inkscape:pageopacity="0.0"
     inkscape:pageshadow="2"
     inkscape:zoom="0.49497475"
     inkscape:cx="714.86113"
     inkscape:cy="446.75462"
     inkscape:document-units="mm"
     inkscape:current-layer="layer1"
     showgrid="false"
     inkscape:object-nodes="false"
     inkscape:window-width="1848"
     inkscape:window-height="1016"
     inkscape:window-x="72"
     inkscape:window-y="27"
     inkscape:window-maximized="1" />
  <metadata
     id="metadata4708">
    <rdf:RDF>
      <cc:Work
         rdf:about="">
        <dc:format>image/svg+xml</dc:format>
        <dc:type
           rdf:resource="http://purl.org/dc/dcmitype/StillImage" />
        <dc:title></dc:title>
      </cc:Work>
    </rdf:RDF>
  </metadata>
  <g
     inkscape:label="Layer 1"
     inkscape:groupmode="layer"
     id="layer1"
     transform="translate(0,-247)">
    <g
       id="g5297"
       transform="matrix(1.1873807,0,0,1.1873807,-92.185353,62.387216)">
      <rect
         style="fill:#fbbc05;fill-opacity:1;stroke:none;stroke-width:1.43612397;stroke-linecap:round;stroke-linejoin:round;stroke-miterlimit:4;stroke-dasharray:none;stroke-dashoffset:0;stroke-opacity:1"
         id="rect5284"
         width="6.3252854"
         height="20.519869"
         x="84.12616"
         y="167.11496"
         ry="0" />
      <rect
         ry="0.73232889"
         y="-194.05632"
         x="85.659889"
         height="4.0591559"
         width="3.2072344"
         id="rect5288"
         style="fill:#4285f4;fill-opacity:1;stroke:none;stroke-width:1.5;stroke-linecap:round;stroke-linejoin:round;stroke-miterlimit:4;stroke-dasharray:none;stroke-dashoffset:0;stroke-opacity:1"
         transform="scale(1,-1)" />
      <rect
         style="fill:#fbbc05;fill-opacity:1;stroke:none;stroke-width:0.61359882;stroke-linecap:round;stroke-linejoin:round;stroke-miterlimit:4;stroke-dasharray:none;stroke-dashoffset:0;stroke-opacity:1"
         id="rect5286"
         width="7.8620853"
         height="3.0137148"
         x="83.324348"
         y="187.56305"
         ry="0" />
      <rect
         style="fill:#4285f4;fill-opacity:1;stroke:none;stroke-width:1.5;stroke-linecap:round;stroke-linejoin:round;stroke-miterlimit:4;stroke-dasharray:none;stroke-dashoffset:0;stroke-opacity:1"
         id="rect5290"
         width="3.2072344"
         height="4.0591559"
         x="85.659889"
         y="160.75935"
         ry="0.73232889" />
      <rect
         ry="0"
         y="164.17697"
         x="83.324348"
         height="3.0137148"
         width="7.8620853"
         id="rect5282"
         style="fill:#fbbc05;fill-opacity:1;stroke:none;stroke-width:0.61359882;stroke-linecap:round;stroke-linejoin:round;stroke-miterlimit:4;stroke-dasharray:none;stroke-dashoffset:0;stroke-opacity:1" />
    </g>
    <rect
       style="fill:#fbbc05;fill-opacity:0.50196078;stroke:none;stroke-width:2.65709615;stroke-linecap:round;stroke-linejoin:round;stroke-miterlimit:4;stroke-dasharray:none;stroke-dashoffset:0;stroke-opacity:1"
       id="rect5278"
       width="186.69284"
       height="20.738342"
       x="15.326512"
       y="262.58514" />
    <g
       id="g5342"
       transform="translate(104.23512)">
      <rect
         ry="0"
         y="260.81628"
         x="97.17791"
         height="24.364897"
         width="7.5105219"
         id="rect5270"
         style="fill:#fbbc05;fill-opacity:1;stroke:none;stroke-width:1.70522594;stroke-linecap:round;stroke-linejoin:round;stroke-miterlimit:4;stroke-dasharray:none;stroke-dashoffset:0;stroke-opacity:1" />
      <rect
         transform="scale(1,-1)"
         style="fill:#4285f4;fill-opacity:1;stroke:none;stroke-width:1.78107107;stroke-linecap:round;stroke-linejoin:round;stroke-miterlimit:4;stroke-dasharray:none;stroke-dashoffset:0;stroke-opacity:1"
         id="rect5280"
         width="3.8082082"
         height="4.8197637"
         x="98.999039"
         y="-292.80594"
         ry="0.86955321" />
      <rect
         ry="0"
         y="285.09595"
         x="96.225853"
         height="3.5784268"
         width="9.335289"
         id="rect5274"
         style="fill:#fbbc05;fill-opacity:1;stroke:none;stroke-width:0.72857541;stroke-linecap:round;stroke-linejoin:round;stroke-miterlimit:4;stroke-dasharray:none;stroke-dashoffset:0;stroke-opacity:1" />
      <rect
         ry="0.86955321"
         y="253.26978"
         x="98.999039"
         height="4.8197637"
         width="3.8082082"
         id="rect5276"
         style="fill:#4285f4;fill-opacity:1;stroke:none;stroke-width:1.78107107;stroke-linecap:round;stroke-linejoin:round;stroke-miterlimit:4;stroke-dasharray:none;stroke-dashoffset:0;stroke-opacity:1" />
      <rect
         style="fill:#fbbc05;fill-opacity:1;stroke:none;stroke-width:0.72857541;stroke-linecap:round;stroke-linejoin:round;stroke-miterlimit:4;stroke-dasharray:none;stroke-dashoffset:0;stroke-opacity:1"
         id="rect5272"
         width="9.335289"
         height="3.5784268"
         x="96.225853"
         y="257.32776"
         ry="0" />
    </g>
    <path
       inkscape:connector-curvature="0"
       d="m 6.9575363,289.05497 h 2.144146 v 1.95072 c 0,1.31108 1.0761857,2.37782 2.3989307,2.37782 1.322994,0 2.399161,-1.06674 2.399161,-2.37782 v -1.95072 h 2.143914 c 0.280829,0 0.508532,-0.2277 0.508532,-0.50853 v -3.30551 c 0,-0.28083 -0.227703,-0.50853 -0.508532,-0.50853 h -0.442741 v -0.80851 H 201.01089 v 0.80851 h -0.443 c -0.28084,0 -0.50853,0.2277 -0.50853,0.50853 v 3.30551 c 0,0.28083 0.22769,0.50853 0.50853,0.50853 h 2.14415 v 1.95072 c 0,1.31108 1.07618,2.37782 2.39917,2.37782 1.32276,0 2.39892,-1.06675 2.39892,-2.37782 v -1.95072 h 2.14417 c 0.28083,0 0.50853,-0.2277 0.50853,-0.50853 v -3.30551 c 0,-0.28083 -0.2277,-0.50853 -0.50853,-0.50853 h -0.443 v -23.52339 h 0.443 c 0.28083,0 0.50853,-0.22771 0.50853,-0.50853 v -3.30549 c 0,-0.28086 -0.2277,-0.50856 -0.50853,-0.50856 h -2.14417 v -1.80818 c 0,-1.31107 -1.07616,-2.37782 -2.39892,-2.37782 -1.32299,0 -2.39917,1.06675 -2.39917,2.37782 v 1.80818 h -2.14415 c -0.28084,0 -0.50853,0.2277 -0.50853,0.50856 v 3.30549 c 0,0.28082 0.22769,0.50853 0.50853,0.50853 h 0.443 v 0.76282 H 15.600947 v -0.76282 h 0.442741 c 0.280829,0 0.508532,-0.22771 0.508532,-0.50853 v -3.30549 c 0,-0.28086 -0.227703,-0.50856 -0.508532,-0.50856 h -2.143914 v -1.80818 c 0,-1.31107 -1.076167,-2.37782 -2.399161,-2.37782 -1.322745,0 -2.3989307,1.06675 -2.3989307,2.37782 v 1.80818 h -2.144146 c -0.2808476,0 -0.5085314,0.2277 -0.5085314,0.50856 v 3.30549 c 0,0.28082 0.2276838,0.50853 0.5085314,0.50853 H 7.4005279 V 284.7324 H 6.9575363 c -0.2808476,0 -0.5085314,0.2277 -0.5085314,0.50853 v 3.30551 c 0,0.28083 0.2276838,0.50853 0.5085314,0.50853 z m 5.9251737,1.95072 c 0,0.7504 -0.62003,1.36073 -1.382097,1.36073 -0.762068,0 -1.381848,-0.61033 -1.381848,-1.36073 v -1.95072 h 2.763945 z m 2.652446,-2.9678 H 7.4660689 v -2.28842 h 8.0690871 z m 190.957904,2.9678 c 0,0.7504 -0.61977,1.36073 -1.38185,1.36073 -0.76206,0 -1.38208,-0.61033 -1.38208,-1.36073 v -1.95072 h 2.76393 z m 2.65271,-2.9678 h -8.06934 v -2.28842 h 8.06934 z m -5.41664,-32.95964 c 0,-0.7504 0.62002,-1.36074 1.38208,-1.36074 0.76208,0 1.38185,0.61034 1.38185,1.36074 v 1.80818 h -2.76393 z m -2.6527,2.82527 h 8.06934 v 2.28842 h -8.06934 z m 7.11781,3.30549 v 23.52339 h -6.1663 v -23.52339 z m -7.18335,1.77988 v 19.91793 H 15.600947 V 262.98889 Z M 10.118765,255.07825 c 0,-0.7504 0.61978,-1.36074 1.381848,-1.36074 0.762067,0 1.382097,0.61034 1.382097,1.36074 v 1.80818 h -2.763945 z m -2.6526961,2.82527 h 8.0690871 v 2.28842 H 7.4660689 Z m 0.951523,3.30549 H 14.583864 V 284.7324 H 8.4175919 Z"
       id="path4143"
       style="stroke-width:0.50853837"
       sodipodi:nodetypes="scssscssssccccsssscssscssssccsssscssscssssccccsssscssscssssccsssssssccscccccsssccscccccsssccscccccccccccccccsssccscccccccccc" />
    <flowRoot
       xml:space="preserve"
       id="flowRoot5262"
       style="font-style:normal;font-weight:normal;font-size:40px;line-height:1.25;font-family:sans-serif;letter-spacing:0px;word-spacing:0px;fill:#000000;fill-opacity:1;stroke:none"
       transform="matrix(0.31416114,0,0,0.31416114,3.7652466,63.171234)"><flowRegion
         id="flowRegion5264"><rect
           id="rect5266"
           width="556.375"
           height="59.084003"
           x="88.75"
           y="646.80542" /></flowRegion><flowPara
         id="flowPara5268"
         style="font-style:normal;font-variant:normal;font-weight:normal;font-stretch:normal;font-family:'URW Bookman';-inkscape-font-specification:'URW Bookman'">Once upon a time series ..</flowPara></flowRoot>  </g>
</svg>
