<?xml version="1.0" encoding="UTF-8" standalone="no"?>
<!-- Created with Inkscape (http://www.inkscape.org/) -->

<svg
   xmlns:dc="http://purl.org/dc/elements/1.1/"
   xmlns:cc="http://creativecommons.org/ns#"
   xmlns:rdf="http://www.w3.org/1999/02/22-rdf-syntax-ns#"
   xmlns:svg="http://www.w3.org/2000/svg"
   xmlns="http://www.w3.org/2000/svg"
   xmlns:sodipodi="http://sodipodi.sourceforge.net/DTD/sodipodi-0.dtd"
   xmlns:inkscape="http://www.inkscape.org/namespaces/inkscape"
   width="110mm"
   height="50mm"
   viewBox="0 0 110 50"
   version="1.1"
   id="svg4711"
   inkscape:version="0.92.5 (2060ec1f9f, 2020-04-08)"
   sodipodi:docname="story_the_end.svg"
   inkscape:export-filename="/home/kristian/projects/online_teaching_survival_guide/images/story_the_end.png"
   inkscape:export-xdpi="138.55"
   inkscape:export-ydpi="138.55">
  <defs
     id="defs4705" />
  <sodipodi:namedview
     id="base"
     pagecolor="#ffffff"
     bordercolor="#666666"
     borderopacity="1.0"
     inkscape:pageopacity="0.0"
     inkscape:pageshadow="2"
     inkscape:zoom="0.98994949"
     inkscape:cx="-50.810029"
     inkscape:cy="-33.775814"
     inkscape:document-units="mm"
     inkscape:current-layer="layer1"
     showgrid="false"
     inkscape:object-nodes="false"
     inkscape:window-width="1848"
     inkscape:window-height="1016"
     inkscape:window-x="72"
     inkscape:window-y="27"
     inkscape:window-maximized="1" />
  <metadata
     id="metadata4708">
    <rdf:RDF>
      <cc:Work
         rdf:about="">
        <dc:format>image/svg+xml</dc:format>
        <dc:type
           rdf:resource="http://purl.org/dc/dcmitype/StillImage" />
        <dc:title></dc:title>
      </cc:Work>
    </rdf:RDF>
  </metadata>
  <g
     inkscape:label="Layer 1"
     inkscape:groupmode="layer"
     id="layer1"
     transform="translate(0,-247)">
    <g
       id="g5297"
       transform="matrix(1.1873807,0,0,1.1873807,-94.323509,62.387216)">
      <rect
         style="fill:#fbbc05;fill-opacity:1;stroke:none;stroke-width:1.43612397;stroke-linecap:round;stroke-linejoin:round;stroke-miterlimit:4;stroke-dasharray:none;stroke-dashoffset:0;stroke-opacity:1"
         id="rect5284"
         width="6.3252854"
         height="20.519869"
         x="84.12616"
         y="167.11496"
         ry="0" />
      <rect
         ry="0.73232889"
         y="-194.05632"
         x="85.659889"
         height="4.0591559"
         width="3.2072344"
         id="rect5288"
         style="fill:#4285f4;fill-opacity:1;stroke:none;stroke-width:1.5;stroke-linecap:round;stroke-linejoin:round;stroke-miterlimit:4;stroke-dasharray:none;stroke-dashoffset:0;stroke-opacity:1"
         transform="scale(1,-1)" />
      <rect
         style="fill:#fbbc05;fill-opacity:1;stroke:none;stroke-width:0.61359882;stroke-linecap:round;stroke-linejoin:round;stroke-miterlimit:4;stroke-dasharray:none;stroke-dashoffset:0;stroke-opacity:1"
         id="rect5286"
         width="7.8620853"
         height="3.0137148"
         x="83.324348"
         y="187.56305"
         ry="0" />
      <rect
         style="fill:#4285f4;fill-opacity:1;stroke:none;stroke-width:1.5;stroke-linecap:round;stroke-linejoin:round;stroke-miterlimit:4;stroke-dasharray:none;stroke-dashoffset:0;stroke-opacity:1"
         id="rect5290"
         width="3.2072344"
         height="4.0591559"
         x="85.659889"
         y="160.75935"
         ry="0.73232889" />
      <rect
         ry="0"
         y="164.17697"
         x="83.324348"
         height="3.0137148"
         width="7.8620853"
         id="rect5282"
         style="fill:#fbbc05;fill-opacity:1;stroke:none;stroke-width:0.61359882;stroke-linecap:round;stroke-linejoin:round;stroke-miterlimit:4;stroke-dasharray:none;stroke-dashoffset:0;stroke-opacity:1" />
    </g>
    <rect
       style="fill:#fbbc05;fill-opacity:0.50196078;stroke:none;stroke-width:1.78107107;stroke-linecap:round;stroke-linejoin:round;stroke-miterlimit:4;stroke-dasharray:none;stroke-dashoffset:0;stroke-opacity:1"
       id="rect5278"
       width="83.883316"
       height="20.738342"
       x="13.188356"
       y="262.58514" />
    <rect
       style="fill:#fbbc05;fill-opacity:1;stroke:none;stroke-width:1.70522594;stroke-linecap:round;stroke-linejoin:round;stroke-miterlimit:4;stroke-dasharray:none;stroke-dashoffset:0;stroke-opacity:1"
       id="rect5270"
       width="7.5105219"
       height="24.364897"
       x="97.17791"
       y="260.81628"
       ry="0" />
    <rect
       ry="0.86955321"
       y="-292.80594"
       x="98.999039"
       height="4.8197637"
       width="3.8082082"
       id="rect5280"
       style="fill:#4285f4;fill-opacity:1;stroke:none;stroke-width:1.78107107;stroke-linecap:round;stroke-linejoin:round;stroke-miterlimit:4;stroke-dasharray:none;stroke-dashoffset:0;stroke-opacity:1"
       transform="scale(1,-1)" />
    <rect
       style="fill:#fbbc05;fill-opacity:1;stroke:none;stroke-width:0.72857541;stroke-linecap:round;stroke-linejoin:round;stroke-miterlimit:4;stroke-dasharray:none;stroke-dashoffset:0;stroke-opacity:1"
       id="rect5274"
       width="9.335289"
       height="3.5784268"
       x="96.225853"
       y="285.09595"
       ry="0" />
    <rect
       style="fill:#4285f4;fill-opacity:1;stroke:none;stroke-width:1.78107107;stroke-linecap:round;stroke-linejoin:round;stroke-miterlimit:4;stroke-dasharray:none;stroke-dashoffset:0;stroke-opacity:1"
       id="rect5276"
       width="3.8082082"
       height="4.8197637"
       x="98.999039"
       y="253.26978"
       ry="0.86955321" />
    <rect
       ry="0"
       y="257.32776"
       x="96.225853"
       height="3.5784268"
       width="9.335289"
       id="rect5272"
       style="fill:#fbbc05;fill-opacity:1;stroke:none;stroke-width:0.72857541;stroke-linecap:round;stroke-linejoin:round;stroke-miterlimit:4;stroke-dasharray:none;stroke-dashoffset:0;stroke-opacity:1" />
    <path
       inkscape:connector-curvature="0"
       d="m 4.8193801,289.05497 h 2.144146 v 1.95072 c 0,1.31108 1.0761861,2.37782 2.3989307,2.37782 1.3229942,0 2.3991612,-1.06674 2.3991612,-2.37782 v -1.95072 h 2.143914 c 0.280829,0 0.508532,-0.2277 0.508532,-0.50853 v -3.30551 c 0,-0.28083 -0.227703,-0.50853 -0.508532,-0.50853 h -0.442741 v -0.80851 h 83.312975 v 0.80851 h -0.442991 c -0.280847,0 -0.508531,0.2277 -0.508531,0.50853 v 3.30551 c 0,0.28083 0.227684,0.50853 0.508531,0.50853 h 2.144148 v 1.95072 c 0,1.31108 1.07618,2.37782 2.399167,2.37782 1.32276,0 2.45989,-1.06817 2.39892,-2.37782 v -1.95072 h 2.14417 c 0.28083,0 0.50853,-0.2277 0.50853,-0.50853 v -3.30551 c 0,-0.28083 -0.2277,-0.50853 -0.50853,-0.50853 h -0.443 v -23.52339 h 0.443 c 0.28083,0 0.50853,-0.22771 0.50853,-0.50853 v -3.30549 c 0,-0.28086 -0.2277,-0.50856 -0.50853,-0.50856 h -2.14417 v -1.80818 c 0,-1.31107 -1.07616,-2.37782 -2.39892,-2.37782 -1.322987,0 -2.399167,1.06675 -2.399167,2.37782 v 1.80818 h -2.144148 c -0.280847,0 -0.508531,0.2277 -0.508531,0.50856 v 3.30549 c 0,0.28082 0.227684,0.50853 0.508531,0.50853 h 0.442991 v 0.76282 H 13.462791 v -0.76282 h 0.442741 c 0.280829,0 0.508532,-0.22771 0.508532,-0.50853 v -3.30549 c 0,-0.28086 -0.227703,-0.50856 -0.508532,-0.50856 h -2.143914 v -1.80818 c 0,-1.31107 -1.076167,-2.37782 -2.3991612,-2.37782 -1.3227446,0 -2.3989307,1.06675 -2.3989307,2.37782 v 1.80818 h -2.144146 c -0.2808476,0 -0.5085314,0.2277 -0.5085314,0.50856 v 3.30549 c 0,0.28082 0.2276838,0.50853 0.5085314,0.50853 H 5.2623717 V 284.7324 H 4.8193801 c -0.2808476,0 -0.5085314,0.2277 -0.5085314,0.50853 v 3.30551 c 0,0.28083 0.2276838,0.50853 0.5085314,0.50853 z m 5.9251739,1.95072 c 0,0.7504 -0.62003,1.36073 -1.3820972,1.36073 -0.762068,0 -1.3818477,-0.61033 -1.3818477,-1.36073 v -1.95072 H 10.744554 Z M 13.397,288.03789 H 5.3279127 v -2.28842 H 13.397 Z m 88.86094,2.9678 c 0,0.7504 -0.61977,1.36073 -1.38185,1.36073 -0.76206,0 -1.382077,-0.61033 -1.382077,-1.36073 v -1.95072 h 2.763927 z m 2.65271,-2.9678 h -8.069342 v -2.28842 h 8.069342 z m -5.416637,-32.95964 c 0,-0.7504 0.620017,-1.36074 1.382077,-1.36074 0.76208,0 1.38185,0.61034 1.38185,1.36074 v 1.80818 h -2.763927 z m -2.652705,2.82527 h 8.069342 v 2.28842 h -8.069342 z m 7.117812,3.30549 v 23.52339 h -6.166295 v -23.52339 z m -7.183354,1.77988 v 19.91793 H 13.462791 V 262.98889 Z M 7.9806091,255.07825 c 0,-0.7504 0.6197797,-1.36074 1.3818477,-1.36074 0.7620672,0 1.3820972,0.61034 1.3820972,1.36074 v 1.80818 H 7.9806091 Z m -2.6526964,2.82527 H 13.397 v 2.28842 H 5.3279127 Z m 0.951523,3.30549 H 12.445708 V 284.7324 H 6.2794357 Z"
       id="path4143"
       style="stroke-width:0.50853837"
       sodipodi:nodetypes="scssscssssccccsssscssscssssccsssscssscssssccccsssscssscssssccsssssssccscccccsssccscccccsssccscccccccccccccccsssccscccccccccc" />
    <flowRoot
       xml:space="preserve"
       id="flowRoot5262"
       style="font-style:normal;font-weight:normal;font-size:40px;line-height:1.25;font-family:sans-serif;letter-spacing:0px;word-spacing:0px;fill:#000000;fill-opacity:1;stroke:none"
       transform="matrix(0.31416114,0,0,0.31416114,1.6270904,63.171234)"><flowRegion
         id="flowRegion5264"><rect
           id="rect5266"
           width="190.71428"
           height="56.428581"
           x="88.75"
           y="646.80542" /></flowRegion><flowPara
         id="flowPara5268"
         style="font-style:normal;font-variant:normal;font-weight:normal;font-stretch:normal;font-family:'URW Bookman';-inkscape-font-specification:'URW Bookman'">The End</flowPara></flowRoot>  </g>
</svg>
