<?xml version="1.0" encoding="UTF-8" standalone="no"?>
<!-- Created with Inkscape (http://www.inkscape.org/) -->

<svg
   xmlns:dc="http://purl.org/dc/elements/1.1/"
   xmlns:cc="http://creativecommons.org/ns#"
   xmlns:rdf="http://www.w3.org/1999/02/22-rdf-syntax-ns#"
   xmlns:svg="http://www.w3.org/2000/svg"
   xmlns="http://www.w3.org/2000/svg"
   xmlns:sodipodi="http://sodipodi.sourceforge.net/DTD/sodipodi-0.dtd"
   xmlns:inkscape="http://www.inkscape.org/namespaces/inkscape"
   width="744.09448819"
   height="1052.3622047"
   id="svg4291"
   version="1.1"
   inkscape:version="0.92.5 (2060ec1f9f, 2020-04-08)"
   sodipodi:docname="panda (copy).svg"
   inkscape:export-filename="/home/kristian/Desktop/academis/images/pictures/panda_data_portrait.png"
   inkscape:export-xdpi="150"
   inkscape:export-ydpi="150">
  <defs
     id="defs4293">
    <inkscape:path-effect
       effect="spiro"
       id="path-effect150"
       is_visible="true" />
    <clipPath
       clipPathUnits="userSpaceOnUse"
       id="clipPath3059">
      <rect
         style="fill:#ffffff;fill-opacity:1;stroke:#ffffff;stroke-width:3.54764676;stroke-linecap:round;stroke-miterlimit:4;stroke-opacity:1;stroke-dasharray:none;stroke-dashoffset:0"
         id="rect3061"
         width="569.37091"
         height="356.18182"
         x="-859.77979"
         y="89.832329" />
    </clipPath>
    <clipPath
       clipPathUnits="userSpaceOnUse"
       id="clipPath3330">
      <rect
         style="fill:#ffffff;fill-opacity:1;stroke:#ffffff;stroke-width:3.32572055;stroke-linecap:round;stroke-miterlimit:4;stroke-opacity:1;stroke-dasharray:none;stroke-dashoffset:0"
         id="rect3332"
         width="909.67426"
         height="661.10284"
         x="-910.55145"
         y="293.23932" />
    </clipPath>
  </defs>
  <sodipodi:namedview
     id="base"
     pagecolor="#ffffff"
     bordercolor="#666666"
     borderopacity="1.0"
     inkscape:pageopacity="0.0"
     inkscape:pageshadow="2"
     inkscape:zoom="0.49497475"
     inkscape:cx="-265.24861"
     inkscape:cy="297.43761"
     inkscape:document-units="px"
     inkscape:current-layer="layer1"
     showgrid="false"
     inkscape:window-width="1848"
     inkscape:window-height="1016"
     inkscape:window-x="72"
     inkscape:window-y="27"
     inkscape:window-maximized="1"
     showguides="false" />
  <metadata
     id="metadata4296">
    <rdf:RDF>
      <cc:Work
         rdf:about="">
        <dc:format>image/svg+xml</dc:format>
        <dc:type
           rdf:resource="http://purl.org/dc/dcmitype/StillImage" />
        <dc:title />
      </cc:Work>
    </rdf:RDF>
  </metadata>
  <g
     inkscape:label="Layer 1"
     inkscape:groupmode="layer"
     id="layer1">
    <g
       id="g1077"
       transform="matrix(2.1044113,0,0,1.825115,-5.7923239,-1008.2859)">
      <path
         sodipodi:nodetypes="ssccccss"
         inkscape:connector-curvature="0"
         id="path4231"
         d="m 177.40318,819.26871 c -58.0066,0 -105.01786,47.94035 -105.01786,107.09662 0,49.89312 33.44364,91.86287 78.7208,103.76957 v -36.89798 c 25.62953,38.54408 36.40185,11.65148 50.63462,0 v 37.38828 c 46.26772,-11.1983 80.7087,-53.65003 80.7087,-104.25987 0,-59.15627 -47.03966,-107.09662 -105.04626,-107.09662 z"
         style="fill:#ffffff;fill-opacity:1;stroke:#000000;stroke-width:3.8166523;stroke-linecap:round;stroke-miterlimit:4;stroke-dasharray:none;stroke-dashoffset:0;stroke-opacity:1" />
      <ellipse
         id="path4236"
         style="fill:#666666;fill-opacity:1;stroke:#000000;stroke-width:4;stroke-linecap:round;stroke-miterlimit:4;stroke-dasharray:none;stroke-dashoffset:0;stroke-opacity:1"
         cx="135.70877"
         cy="1004.8732"
         rx="30.714285"
         ry="39.642857" />
      <ellipse
         style="fill:#666666;fill-opacity:1;stroke:#000000;stroke-width:4;stroke-linecap:round;stroke-miterlimit:4;stroke-dasharray:none;stroke-dashoffset:0;stroke-opacity:1"
         id="path4238"
         cx="213.5659"
         cy="1003.4446"
         rx="30.714285"
         ry="39.642857" />
      <ellipse
         ry="23.233509"
         rx="37.628181"
         cy="847.04865"
         cx="174.6582"
         id="path1018"
         style="fill:#ffffff;fill-opacity:1;stroke:#000000;stroke-width:4;stroke-linecap:round;stroke-linejoin:round;stroke-miterlimit:4;stroke-dasharray:none;stroke-dashoffset:0;stroke-opacity:1" />
      <g
         transform="translate(2.0142795)"
         id="g1039">
        <g
           id="g1025">
          <path
             sodipodi:nodetypes="cccccsc"
             inkscape:connector-curvature="0"
             id="path1014"
             d="m 109.33632,943.64823 8.77974,-29.51414 m 0,0 C 88.516459,900.54705 91.597335,848.03415 135.42172,820.40962 l -31.88108,-14.64721 c 0,0 -51.769639,18.67287 -52.02286,66.79262 -0.259566,49.32553 40.608851,77.59052 58.88997,75.55749"
             style="fill:#666666;stroke:#000000;stroke-width:4;stroke-linecap:butt;stroke-linejoin:miter;stroke-opacity:1" />
          <path
             sodipodi:nodetypes="ccccc"
             inkscape:connector-curvature="0"
             id="path1016"
             d="m 130.31055,910.96094 c -2.25855,-0.75325 -4.62307,-1.14031 -7.00391,-1.14649 -12.32779,3.4e-4 -22.32105,9.99448 -22.32031,22.32227 3.4e-4,12.32703 9.99328,22.31997 22.32031,22.32031 2.38137,-0.009 4.7459,-0.39968 7.00391,-1.15625"
             style="fill:#ffffff;fill-opacity:1;stroke:#000000;stroke-width:4;stroke-linecap:round;stroke-linejoin:round;stroke-miterlimit:4;stroke-dasharray:none;stroke-dashoffset:0;stroke-opacity:1" />
        </g>
        <g
           transform="matrix(-1,0,0,1,345.28785,0)"
           id="g1045">
          <path
             style="fill:#666666;stroke:#000000;stroke-width:4;stroke-linecap:butt;stroke-linejoin:miter;stroke-opacity:1"
             d="m 109.33632,943.64823 8.77974,-29.51414 m 0,0 C 88.516459,900.54705 91.597335,848.03415 135.42172,820.40962 l -31.88108,-14.64721 c 0,0 -51.769639,18.67287 -52.02286,66.79262 -0.259566,49.32553 40.608851,77.59052 58.88997,75.55749"
             id="path1041"
             inkscape:connector-curvature="0"
             sodipodi:nodetypes="cccccsc" />
          <path
             style="fill:#ffffff;fill-opacity:1;stroke:#000000;stroke-width:4;stroke-linecap:round;stroke-linejoin:round;stroke-miterlimit:4;stroke-dasharray:none;stroke-dashoffset:0;stroke-opacity:1"
             d="m 130.31055,910.96094 c -2.25855,-0.75325 -4.62307,-1.14031 -7.00391,-1.14649 -12.32779,3.4e-4 -22.32105,9.99448 -22.32031,22.32227 3.4e-4,12.32703 9.99328,22.31997 22.32031,22.32031 2.38137,-0.009 4.7459,-0.39968 7.00391,-1.15625"
             id="path1043"
             inkscape:connector-curvature="0"
             sodipodi:nodetypes="ccccc" />
        </g>
      </g>
      <g
         transform="matrix(1,0,0,1.1432432,-40,584.26553)"
         id="g1009">
        <g
           id="g979"
           transform="translate(8.3145828,6.0609153)">
          <ellipse
             style="fill:#666666;fill-opacity:1;stroke:#000000;stroke-width:3.74102569;stroke-linecap:round;stroke-miterlimit:4;stroke-dasharray:none;stroke-dashoffset:0;stroke-opacity:1"
             id="path4196"
             cx="131.08647"
             cy="87.948593"
             rx="28.602999"
             ry="24.05727" />
          <ellipse
             ry="24.05727"
             rx="28.602999"
             cy="87.948593"
             cx="281.59918"
             id="ellipse975"
             style="fill:#666666;fill-opacity:1;stroke:#000000;stroke-width:3.74102569;stroke-linecap:round;stroke-miterlimit:4;stroke-dasharray:none;stroke-dashoffset:0;stroke-opacity:1" />
        </g>
        <path
           inkscape:connector-curvature="0"
           id="path114"
           transform="translate(40,-594.28571)"
           d="m 130.14844,679.08398 a 104.08976,80.09864 0 0 0 -59.580081,72.31641 104.08976,80.09864 0 0 0 104.089841,80.09766 104.08976,80.09864 0 0 0 104.08985,-80.09766 104.08976,80.09864 0 0 0 -58.7793,-72 52.169159,39.429314 0 0 1 -44.78906,19.30273 52.169159,39.429314 0 0 1 -45.03125,-19.61914 z"
           style="fill:#ffffff;fill-opacity:1;stroke:#000000;stroke-width:3.74102569;stroke-linecap:round;stroke-linejoin:round;stroke-miterlimit:4;stroke-dasharray:none;stroke-dashoffset:0;stroke-opacity:1" />
        <g
           id="g989"
           transform="translate(-7.2556353)">
          <g
             id="g137">
            <ellipse
               ry="20.489918"
               rx="28.815575"
               cy="230.10281"
               cx="-31.828415"
               style="fill:#666666;fill-opacity:1;stroke:#666666;stroke-width:6.67152452;stroke-linecap:round;stroke-miterlimit:4;stroke-dasharray:none;stroke-dashoffset:0;stroke-opacity:1"
               id="path4190"
               transform="matrix(0.51626891,-0.85642653,0.87052109,0.49213111,0,0)" />
            <g
               transform="matrix(1.2042732,1.2042732,-1.2042732,1.2042732,241.31277,-281.24873)"
               id="g4363"
               style="fill:#ffffff;stroke:#000000;stroke-width:1.17432952">
              <circle
                 r="8.0812206"
                 cy="198.78328"
                 cx="152.53304"
                 transform="translate(-1.0101525,-3.0304576)"
                 id="path4365"
                 style="fill:#ffffff;fill-opacity:1;stroke:#000000;stroke-width:1.17432952;stroke-linecap:round;stroke-miterlimit:4;stroke-dasharray:none;stroke-dashoffset:0;stroke-opacity:1" />
            </g>
          </g>
          <g
             transform="matrix(-1,0,0,1,443.82609,0)"
             id="g145">
            <ellipse
               transform="matrix(0.51626891,-0.85642653,0.87052109,0.49213111,0,0)"
               id="ellipse139"
               style="fill:#666666;fill-opacity:1;stroke:#666666;stroke-width:6.67152452;stroke-linecap:round;stroke-miterlimit:4;stroke-dasharray:none;stroke-dashoffset:0;stroke-opacity:1"
               cx="-31.828415"
               cy="230.10281"
               rx="28.815575"
               ry="20.489918" />
            <g
               style="fill:#ffffff;stroke:#000000;stroke-width:1.17432952"
               id="g143"
               transform="matrix(1.2042732,1.2042732,-1.2042732,1.2042732,241.31277,-281.24873)">
              <circle
                 style="fill:#ffffff;fill-opacity:1;stroke:#000000;stroke-width:1.17432952;stroke-linecap:round;stroke-miterlimit:4;stroke-dasharray:none;stroke-dashoffset:0;stroke-opacity:1"
                 id="circle141"
                 transform="translate(-1.0101525,-3.0304576)"
                 cx="152.53304"
                 cy="198.78328"
                 r="8.0812206" />
            </g>
          </g>
        </g>
        <g
           id="g973"
           transform="translate(-4.3126403)">
          <path
             sodipodi:nodetypes="cscsc"
             inkscape:connector-curvature="0"
             id="path4198"
             d="m 234.12234,174.51814 c 1e-5,2.78946 -6.60533,10.14006 -14.97372,10.14006 -8.36839,0 -15.33087,-7.3506 -15.33086,-10.14006 0,-2.78946 6.96249,2.7171 15.33086,2.7171 8.36838,0 14.97372,-5.50656 14.97372,-2.7171 z"
             style="fill:#000000;fill-opacity:1;stroke:#000000;stroke-width:6;stroke-linecap:round;stroke-miterlimit:4;stroke-dasharray:none;stroke-dashoffset:0;stroke-opacity:1" />
          <g
             transform="translate(-1.52731)"
             id="g967">
            <path
               style="fill:none;stroke:#000000;stroke-width:4;stroke-linecap:round;stroke-linejoin:miter;stroke-opacity:1"
               d="m 220.49736,185.71443 c -5.1659,13.28257 -11.01433,19.66869 -23.99113,13.47922"
               id="path957"
               inkscape:connector-curvature="0"
               sodipodi:nodetypes="cc" />
            <path
               sodipodi:nodetypes="cc"
               inkscape:connector-curvature="0"
               id="path963"
               d="m 220.49736,185.71443 c 5.1659,13.28257 11.01433,19.66869 23.99113,13.47922"
               style="fill:none;stroke:#000000;stroke-width:4;stroke-linecap:round;stroke-linejoin:miter;stroke-opacity:1" />
          </g>
        </g>
      </g>
    </g>
  </g>
</svg>
