<?xml version="1.0" encoding="UTF-8" standalone="no"?>
<!-- Created with Inkscape (http://www.inkscape.org/) -->

<svg
   xmlns:dc="http://purl.org/dc/elements/1.1/"
   xmlns:cc="http://creativecommons.org/ns#"
   xmlns:rdf="http://www.w3.org/1999/02/22-rdf-syntax-ns#"
   xmlns:svg="http://www.w3.org/2000/svg"
   xmlns="http://www.w3.org/2000/svg"
   xmlns:sodipodi="http://sodipodi.sourceforge.net/DTD/sodipodi-0.dtd"
   xmlns:inkscape="http://www.inkscape.org/namespaces/inkscape"
   width="744.09448819"
   height="1052.3622047"
   id="svg2"
   version="1.1"
   inkscape:version="0.48.3.1 r9886"
   sodipodi:docname="4corners.svg">
  <defs
     id="defs4">
    <marker
       inkscape:stockid="Arrow1Mend"
       orient="auto"
       refY="0.0"
       refX="0.0"
       id="Arrow1Mend"
       style="overflow:visible;">
      <path
         id="path3862"
         d="M 0.0,0.0 L 5.0,-5.0 L -12.5,0.0 L 5.0,5.0 L 0.0,0.0 z "
         style="fill-rule:evenodd;stroke:#000000;stroke-width:1.0pt;"
         transform="scale(0.4) rotate(180) translate(10,0)" />
    </marker>
    <marker
       inkscape:stockid="Arrow1Lend"
       orient="auto"
       refY="0.0"
       refX="0.0"
       id="Arrow1Lend"
       style="overflow:visible;">
      <path
         id="path3856"
         d="M 0.0,0.0 L 5.0,-5.0 L -12.5,0.0 L 5.0,5.0 L 0.0,0.0 z "
         style="fill-rule:evenodd;stroke:#000000;stroke-width:1.0pt;"
         transform="scale(0.8) rotate(180) translate(12.5,0)" />
    </marker>
  </defs>
  <sodipodi:namedview
     id="base"
     pagecolor="#ffffff"
     bordercolor="#666666"
     borderopacity="1.0"
     inkscape:pageopacity="0.0"
     inkscape:pageshadow="2"
     inkscape:zoom="0.7"
     inkscape:cx="292.61825"
     inkscape:cy="681.51972"
     inkscape:document-units="px"
     inkscape:current-layer="layer1"
     showgrid="false"
     inkscape:object-nodes="false"
     inkscape:window-width="1301"
     inkscape:window-height="744"
     inkscape:window-x="65"
     inkscape:window-y="24"
     inkscape:window-maximized="1" />
  <metadata
     id="metadata7">
    <rdf:RDF>
      <cc:Work
         rdf:about="">
        <dc:format>image/svg+xml</dc:format>
        <dc:type
           rdf:resource="http://purl.org/dc/dcmitype/StillImage" />
        <dc:title></dc:title>
      </cc:Work>
    </rdf:RDF>
  </metadata>
  <g
     inkscape:label="Layer 1"
     inkscape:groupmode="layer"
     id="layer1">
    <rect
       style="fill:#ffffff;fill-opacity:1;stroke:none"
       id="rect4867"
       width="807.14282"
       height="597.14288"
       x="-58.57143"
       y="35.219326"
       inkscape:export-filename="/home/krother/Desktop/academis/teaching/4cornerspng.png"
       inkscape:export-xdpi="90.010002"
       inkscape:export-ydpi="90.010002" />
    <rect
       style="fill:#52752b;fill-opacity:1;stroke:none"
       id="rect2985"
       width="148.57143"
       height="28.571428"
       x="-49.78368"
       y="188.98982"
       transform="matrix(0.8660254,-0.5,0.5,0.8660254,0,0)"
       inkscape:export-filename="/home/krother/Desktop/academis/teaching/4cornerspng.png"
       inkscape:export-xdpi="90.010002"
       inkscape:export-ydpi="90.010002" />
    <rect
       transform="matrix(-0.8660254,-0.5,-0.5,0.8660254,0,0)"
       y="-158.86734"
       x="-652.28998"
       height="28.571428"
       width="148.57143"
       id="rect2987"
       style="fill:#52752b;fill-opacity:1;stroke:none"
       inkscape:export-filename="/home/krother/Desktop/academis/teaching/4cornerspng.png"
       inkscape:export-xdpi="90.010002"
       inkscape:export-ydpi="90.010002" />
    <rect
       style="fill:#52752b;fill-opacity:1;stroke:none"
       id="rect2989"
       width="148.57143"
       height="28.571428"
       x="-309.9278"
       y="-751.85608"
       transform="matrix(-0.8660254,0.5,-0.5,-0.8660254,0,0)"
       inkscape:export-filename="/home/krother/Desktop/academis/teaching/4cornerspng.png"
       inkscape:export-xdpi="90.010002"
       inkscape:export-ydpi="90.010002" />
    <g
       id="g3023"
       transform="matrix(0.93733042,-0.3484418,0.3484418,0.93733042,-75.291949,11.345633)"
       inkscape:export-filename="/home/krother/Desktop/academis/teaching/4cornerspng.png"
       inkscape:export-xdpi="90.010002"
       inkscape:export-ydpi="90.010002">
      <path
         sodipodi:nodetypes="cccccc"
         inkscape:connector-curvature="0"
         id="rect3014"
         d="m 85.712622,252.75783 2.561062,-1.72423 1.337885,2.78477 -5.965557,21.93157 -3.898947,-1.06054 z"
         style="fill:#000000;fill-opacity:1;stroke:none" />
      <path
         d="m 150,308.79074 c 0,20.11894 -16.30963,36.42857 -36.42857,36.42857 -20.118947,0 -36.428573,-16.30963 -36.428573,-36.42857 0,-20.11894 16.309626,-36.42857 36.428573,-36.42857 20.11894,0 36.42857,16.30963 36.42857,36.42857 z"
         sodipodi:ry="36.42857"
         sodipodi:rx="36.42857"
         sodipodi:cy="308.79074"
         sodipodi:cx="113.57143"
         id="path2991"
         style="fill:#52752b;fill-opacity:1;stroke:none"
         sodipodi:type="arc" />
      <path
         transform="translate(-1.4285736,0)"
         d="m 120,271.88092 c 0,4.46808 -2.23858,8.09017 -5,8.09017 -2.76142,0 -5,-3.62209 -5,-8.09017 0,-4.46808 2.23858,-8.09017 5,-8.09017 2.76142,0 5,3.62209 5,8.09017 z"
         sodipodi:ry="8.0901699"
         sodipodi:rx="5"
         sodipodi:cy="271.88092"
         sodipodi:cx="115"
         id="path2995"
         style="fill:#52752b;fill-opacity:1;stroke:none"
         sodipodi:type="arc" />
      <g
         transform="translate(0.80356946,0)"
         id="g3003">
        <path
           sodipodi:type="arc"
           style="fill:#000000;fill-opacity:1;stroke:none"
           id="path2999"
           sodipodi:cx="100"
           sodipodi:cy="308.79074"
           sodipodi:rx="3.5714285"
           sodipodi:ry="3.5714285"
           d="m 103.57143,308.79074 c 0,1.97245 -1.59898,3.57143 -3.57143,3.57143 -1.972446,0 -3.571429,-1.59898 -3.571429,-3.57143 0,-1.97244 1.598983,-3.57143 3.571429,-3.57143 1.97245,0 3.57143,1.59899 3.57143,3.57143 z"
           transform="translate(0.35714286,-22.678571)" />
        <path
           transform="translate(25.178571,-22.678571)"
           d="m 103.57143,308.79074 c 0,1.97245 -1.59898,3.57143 -3.57143,3.57143 -1.972446,0 -3.571429,-1.59898 -3.571429,-3.57143 0,-1.97244 1.598983,-3.57143 3.571429,-3.57143 1.97245,0 3.57143,1.59899 3.57143,3.57143 z"
           sodipodi:ry="3.5714285"
           sodipodi:rx="3.5714285"
           sodipodi:cy="308.79074"
           sodipodi:cx="100"
           id="path3001"
           style="fill:#000000;fill-opacity:1;stroke:none"
           sodipodi:type="arc" />
      </g>
      <path
         transform="matrix(0.14705879,0,0,0.52941174,64.726894,128.52758)"
         sodipodi:type="arc"
         style="fill:#52752b;fill-opacity:1;stroke:none"
         id="path3019"
         sodipodi:cx="113.57143"
         sodipodi:cy="308.79074"
         sodipodi:rx="36.42857"
         sodipodi:ry="36.42857"
         d="m 150,308.79074 c 0,20.11894 -16.30963,36.42857 -36.42857,36.42857 -20.118947,0 -36.428573,-16.30963 -36.428573,-36.42857 0,-20.11894 16.309626,-36.42857 36.428573,-36.42857 20.11894,0 36.42857,16.30963 36.42857,36.42857 z" />
      <path
         d="m 150,308.79074 c 0,20.11894 -16.30963,36.42857 -36.42857,36.42857 -20.118947,0 -36.428573,-16.30963 -36.428573,-36.42857 0,-20.11894 16.309626,-36.42857 36.428573,-36.42857 20.11894,0 36.42857,16.30963 36.42857,36.42857 z"
         sodipodi:ry="36.42857"
         sodipodi:rx="36.42857"
         sodipodi:cy="308.79074"
         sodipodi:cx="113.57143"
         id="path3021"
         style="fill:#52752b;fill-opacity:1;stroke:none"
         sodipodi:type="arc"
         transform="matrix(0.14705879,0,0,0.52941174,130.34423,128.52758)" />
    </g>
    <g
       transform="matrix(0.50997542,0.86018897,-0.86018897,0.50997542,685.32715,-25.326931)"
       id="g3033"
       inkscape:export-filename="/home/krother/Desktop/academis/teaching/4cornerspng.png"
       inkscape:export-xdpi="90.010002"
       inkscape:export-ydpi="90.010002">
      <path
         style="fill:#000000;fill-opacity:1;stroke:none"
         d="m 85.712622,252.75783 2.561062,-1.72423 1.337885,2.78477 -5.965557,21.93157 -3.898947,-1.06054 z"
         id="path3035"
         inkscape:connector-curvature="0"
         sodipodi:nodetypes="cccccc" />
      <path
         sodipodi:type="arc"
         style="fill:#52752b;fill-opacity:1;stroke:none"
         id="path3037"
         sodipodi:cx="113.57143"
         sodipodi:cy="308.79074"
         sodipodi:rx="36.42857"
         sodipodi:ry="36.42857"
         d="m 150,308.79074 c 0,20.11894 -16.30963,36.42857 -36.42857,36.42857 -20.118947,0 -36.428573,-16.30963 -36.428573,-36.42857 0,-20.11894 16.309626,-36.42857 36.428573,-36.42857 20.11894,0 36.42857,16.30963 36.42857,36.42857 z" />
      <path
         sodipodi:type="arc"
         style="fill:#52752b;fill-opacity:1;stroke:none"
         id="path3039"
         sodipodi:cx="115"
         sodipodi:cy="271.88092"
         sodipodi:rx="5"
         sodipodi:ry="8.0901699"
         d="m 120,271.88092 c 0,4.46808 -2.23858,8.09017 -5,8.09017 -2.76142,0 -5,-3.62209 -5,-8.09017 0,-4.46808 2.23858,-8.09017 5,-8.09017 2.76142,0 5,3.62209 5,8.09017 z"
         transform="translate(-1.4285736,0)" />
      <g
         id="g3041"
         transform="translate(0.80356946,0)">
        <path
           transform="translate(0.35714286,-22.678571)"
           d="m 103.57143,308.79074 c 0,1.97245 -1.59898,3.57143 -3.57143,3.57143 -1.972446,0 -3.571429,-1.59898 -3.571429,-3.57143 0,-1.97244 1.598983,-3.57143 3.571429,-3.57143 1.97245,0 3.57143,1.59899 3.57143,3.57143 z"
           sodipodi:ry="3.5714285"
           sodipodi:rx="3.5714285"
           sodipodi:cy="308.79074"
           sodipodi:cx="100"
           id="path3043"
           style="fill:#000000;fill-opacity:1;stroke:none"
           sodipodi:type="arc" />
        <path
           sodipodi:type="arc"
           style="fill:#000000;fill-opacity:1;stroke:none"
           id="path3045"
           sodipodi:cx="100"
           sodipodi:cy="308.79074"
           sodipodi:rx="3.5714285"
           sodipodi:ry="3.5714285"
           d="m 103.57143,308.79074 c 0,1.97245 -1.59898,3.57143 -3.57143,3.57143 -1.972446,0 -3.571429,-1.59898 -3.571429,-3.57143 0,-1.97244 1.598983,-3.57143 3.571429,-3.57143 1.97245,0 3.57143,1.59899 3.57143,3.57143 z"
           transform="translate(25.178571,-22.678571)" />
      </g>
      <path
         d="m 150,308.79074 c 0,20.11894 -16.30963,36.42857 -36.42857,36.42857 -20.118947,0 -36.428573,-16.30963 -36.428573,-36.42857 0,-20.11894 16.309626,-36.42857 36.428573,-36.42857 20.11894,0 36.42857,16.30963 36.42857,36.42857 z"
         sodipodi:ry="36.42857"
         sodipodi:rx="36.42857"
         sodipodi:cy="308.79074"
         sodipodi:cx="113.57143"
         id="path3047"
         style="fill:#52752b;fill-opacity:1;stroke:none"
         sodipodi:type="arc"
         transform="matrix(0.14705879,0,0,0.52941174,64.726894,128.52758)" />
      <path
         transform="matrix(0.14705879,0,0,0.52941174,130.34423,128.52758)"
         sodipodi:type="arc"
         style="fill:#52752b;fill-opacity:1;stroke:none"
         id="path3049"
         sodipodi:cx="113.57143"
         sodipodi:cy="308.79074"
         sodipodi:rx="36.42857"
         sodipodi:ry="36.42857"
         d="m 150,308.79074 c 0,20.11894 -16.30963,36.42857 -36.42857,36.42857 -20.118947,0 -36.428573,-16.30963 -36.428573,-36.42857 0,-20.11894 16.309626,-36.42857 36.428573,-36.42857 20.11894,0 36.42857,16.30963 36.42857,36.42857 z" />
    </g>
    <g
       id="g3051"
       transform="matrix(0.99685446,0.07925394,-0.07925394,0.99685446,462.98321,-6.9592645)"
       inkscape:export-filename="/home/krother/Desktop/academis/teaching/4cornerspng.png"
       inkscape:export-xdpi="90.010002"
       inkscape:export-ydpi="90.010002">
      <path
         sodipodi:nodetypes="cccccc"
         inkscape:connector-curvature="0"
         id="path3053"
         d="m 85.712622,252.75783 2.561062,-1.72423 1.337885,2.78477 -5.965557,21.93157 -3.898947,-1.06054 z"
         style="fill:#000000;fill-opacity:1;stroke:none" />
      <path
         d="m 150,308.79074 c 0,20.11894 -16.30963,36.42857 -36.42857,36.42857 -20.118947,0 -36.428573,-16.30963 -36.428573,-36.42857 0,-20.11894 16.309626,-36.42857 36.428573,-36.42857 20.11894,0 36.42857,16.30963 36.42857,36.42857 z"
         sodipodi:ry="36.42857"
         sodipodi:rx="36.42857"
         sodipodi:cy="308.79074"
         sodipodi:cx="113.57143"
         id="path3055"
         style="fill:#52752b;fill-opacity:1;stroke:none"
         sodipodi:type="arc" />
      <path
         transform="translate(-1.4285736,0)"
         d="m 120,271.88092 c 0,4.46808 -2.23858,8.09017 -5,8.09017 -2.76142,0 -5,-3.62209 -5,-8.09017 0,-4.46808 2.23858,-8.09017 5,-8.09017 2.76142,0 5,3.62209 5,8.09017 z"
         sodipodi:ry="8.0901699"
         sodipodi:rx="5"
         sodipodi:cy="271.88092"
         sodipodi:cx="115"
         id="path3057"
         style="fill:#52752b;fill-opacity:1;stroke:none"
         sodipodi:type="arc" />
      <g
         transform="translate(0.80356946,0)"
         id="g3059">
        <path
           sodipodi:type="arc"
           style="fill:#000000;fill-opacity:1;stroke:none"
           id="path3061"
           sodipodi:cx="100"
           sodipodi:cy="308.79074"
           sodipodi:rx="3.5714285"
           sodipodi:ry="3.5714285"
           d="m 103.57143,308.79074 c 0,1.97245 -1.59898,3.57143 -3.57143,3.57143 -1.972446,0 -3.571429,-1.59898 -3.571429,-3.57143 0,-1.97244 1.598983,-3.57143 3.571429,-3.57143 1.97245,0 3.57143,1.59899 3.57143,3.57143 z"
           transform="translate(0.35714286,-22.678571)" />
        <path
           transform="translate(25.178571,-22.678571)"
           d="m 103.57143,308.79074 c 0,1.97245 -1.59898,3.57143 -3.57143,3.57143 -1.972446,0 -3.571429,-1.59898 -3.571429,-3.57143 0,-1.97244 1.598983,-3.57143 3.571429,-3.57143 1.97245,0 3.57143,1.59899 3.57143,3.57143 z"
           sodipodi:ry="3.5714285"
           sodipodi:rx="3.5714285"
           sodipodi:cy="308.79074"
           sodipodi:cx="100"
           id="path3063"
           style="fill:#000000;fill-opacity:1;stroke:none"
           sodipodi:type="arc" />
      </g>
      <path
         transform="matrix(0.14705879,0,0,0.52941174,64.726894,128.52758)"
         sodipodi:type="arc"
         style="fill:#52752b;fill-opacity:1;stroke:none"
         id="path3065"
         sodipodi:cx="113.57143"
         sodipodi:cy="308.79074"
         sodipodi:rx="36.42857"
         sodipodi:ry="36.42857"
         d="m 150,308.79074 c 0,20.11894 -16.30963,36.42857 -36.42857,36.42857 -20.118947,0 -36.428573,-16.30963 -36.428573,-36.42857 0,-20.11894 16.309626,-36.42857 36.428573,-36.42857 20.11894,0 36.42857,16.30963 36.42857,36.42857 z" />
      <path
         d="m 150,308.79074 c 0,20.11894 -16.30963,36.42857 -36.42857,36.42857 -20.118947,0 -36.428573,-16.30963 -36.428573,-36.42857 0,-20.11894 16.309626,-36.42857 36.428573,-36.42857 20.11894,0 36.42857,16.30963 36.42857,36.42857 z"
         sodipodi:ry="36.42857"
         sodipodi:rx="36.42857"
         sodipodi:cy="308.79074"
         sodipodi:cx="113.57143"
         id="path3067"
         style="fill:#52752b;fill-opacity:1;stroke:none"
         sodipodi:type="arc"
         transform="matrix(0.14705879,0,0,0.52941174,130.34423,128.52758)" />
    </g>
    <path
       style="fill:none;stroke:#000000;stroke-width:4;stroke-linecap:butt;stroke-linejoin:miter;stroke-miterlimit:4;stroke-opacity:1;stroke-dasharray:24, 4;stroke-dashoffset:0;marker-end:url(#Arrow1Mend)"
       d="m 535.71428,508.07647 c 0,0 -94.20079,-98.81247 -157.14286,-112.85714 -53.41717,-11.91932 -113.14594,4.22688 -161.42856,30 -25.84475,13.79585 -61.42858,62.85714 -61.42858,62.85714"
       id="path3073"
       inkscape:connector-curvature="0"
       sodipodi:nodetypes="caac"
       inkscape:export-filename="/home/krother/Desktop/academis/teaching/4cornerspng.png"
       inkscape:export-xdpi="90.010002"
       inkscape:export-ydpi="90.010002" />
    <rect
       transform="matrix(0.8660254,0.5,0.5,-0.8660254,0,0)"
       y="-403.99887"
       x="292.57852"
       height="28.571428"
       width="148.57143"
       id="rect3075"
       style="fill:#52752b;fill-opacity:1;stroke:none"
       inkscape:export-filename="/home/krother/Desktop/academis/teaching/4cornerspng.png"
       inkscape:export-xdpi="90.010002"
       inkscape:export-ydpi="90.010002" />
    <path
       style="fill:none;stroke:#000000;stroke-width:4;stroke-linecap:butt;stroke-linejoin:miter;stroke-miterlimit:4;stroke-opacity:1;stroke-dasharray:24, 4;stroke-dashoffset:0;marker-end:url(#Arrow1Mend)"
       d="m 501.42857,273.79075 c 0,0 -51.368,63.04839 -48.57143,100 1.96371,25.94689 27.5064,44.39722 44.28571,64.28571 16.7202,19.81844 55.71429,54.28572 55.71429,54.28572"
       id="path3077"
       inkscape:connector-curvature="0"
       sodipodi:nodetypes="caac"
       inkscape:export-filename="/home/krother/Desktop/academis/teaching/4cornerspng.png"
       inkscape:export-xdpi="90.010002"
       inkscape:export-ydpi="90.010002" />
    <path
       style="fill:none;stroke:#000000;stroke-width:4;stroke-linecap:butt;stroke-linejoin:miter;stroke-miterlimit:4;stroke-opacity:1;stroke-dasharray:24, 4;stroke-dashoffset:0;marker-end:url(#Arrow1Mend)"
       d="m 171.42857,322.36218 c 0,0 40.98958,35.74879 62.85715,28.57143 78.79401,-25.86172 46.47218,-181.66237 121.42856,-217.14287 36.72612,-17.38426 120.00001,21.42859 120.00001,21.42859"
       id="path3079"
       inkscape:connector-curvature="0"
       sodipodi:nodetypes="caac"
       inkscape:export-filename="/home/krother/Desktop/academis/teaching/4cornerspng.png"
       inkscape:export-xdpi="90.010002"
       inkscape:export-ydpi="90.010002" />
    <g
       id="g4849"
       transform="matrix(-0.08154564,-0.99666961,0.99666961,-0.08154564,55.373087,518.38651)"
       inkscape:export-xdpi="90.010002"
       inkscape:export-ydpi="90.010002"
       inkscape:export-filename="/home/krother/Desktop/academis/teaching/4cornerspng.png">
      <path
         sodipodi:nodetypes="cccccc"
         inkscape:connector-curvature="0"
         id="path4851"
         d="m 85.712622,252.75783 2.561062,-1.72423 1.337885,2.78477 -5.965557,21.93157 -3.898947,-1.06054 z"
         style="fill:#000000;fill-opacity:1;stroke:none" />
      <path
         d="m 150,308.79074 c 0,20.11894 -16.30963,36.42857 -36.42857,36.42857 -20.118947,0 -36.428573,-16.30963 -36.428573,-36.42857 0,-20.11894 16.309626,-36.42857 36.428573,-36.42857 20.11894,0 36.42857,16.30963 36.42857,36.42857 z"
         sodipodi:ry="36.42857"
         sodipodi:rx="36.42857"
         sodipodi:cy="308.79074"
         sodipodi:cx="113.57143"
         id="path4853"
         style="fill:#52752b;fill-opacity:1;stroke:none"
         sodipodi:type="arc" />
      <path
         transform="translate(-1.4285736,0)"
         d="m 120,271.88092 c 0,4.46808 -2.23858,8.09017 -5,8.09017 -2.76142,0 -5,-3.62209 -5,-8.09017 0,-4.46808 2.23858,-8.09017 5,-8.09017 2.76142,0 5,3.62209 5,8.09017 z"
         sodipodi:ry="8.0901699"
         sodipodi:rx="5"
         sodipodi:cy="271.88092"
         sodipodi:cx="115"
         id="path4855"
         style="fill:#52752b;fill-opacity:1;stroke:none"
         sodipodi:type="arc" />
      <g
         transform="translate(0.80356946,0)"
         id="g4857">
        <path
           sodipodi:type="arc"
           style="fill:#000000;fill-opacity:1;stroke:none"
           id="path4859"
           sodipodi:cx="100"
           sodipodi:cy="308.79074"
           sodipodi:rx="3.5714285"
           sodipodi:ry="3.5714285"
           d="m 103.57143,308.79074 c 0,1.97245 -1.59898,3.57143 -3.57143,3.57143 -1.972446,0 -3.571429,-1.59898 -3.571429,-3.57143 0,-1.97244 1.598983,-3.57143 3.571429,-3.57143 1.97245,0 3.57143,1.59899 3.57143,3.57143 z"
           transform="translate(0.35714286,-22.678571)" />
        <path
           transform="translate(25.178571,-22.678571)"
           d="m 103.57143,308.79074 c 0,1.97245 -1.59898,3.57143 -3.57143,3.57143 -1.972446,0 -3.571429,-1.59898 -3.571429,-3.57143 0,-1.97244 1.598983,-3.57143 3.571429,-3.57143 1.97245,0 3.57143,1.59899 3.57143,3.57143 z"
           sodipodi:ry="3.5714285"
           sodipodi:rx="3.5714285"
           sodipodi:cy="308.79074"
           sodipodi:cx="100"
           id="path4861"
           style="fill:#000000;fill-opacity:1;stroke:none"
           sodipodi:type="arc" />
      </g>
      <path
         transform="matrix(0.14705879,0,0,0.52941174,64.726894,128.52758)"
         sodipodi:type="arc"
         style="fill:#52752b;fill-opacity:1;stroke:none"
         id="path4863"
         sodipodi:cx="113.57143"
         sodipodi:cy="308.79074"
         sodipodi:rx="36.42857"
         sodipodi:ry="36.42857"
         d="m 150,308.79074 c 0,20.11894 -16.30963,36.42857 -36.42857,36.42857 -20.118947,0 -36.428573,-16.30963 -36.428573,-36.42857 0,-20.11894 16.309626,-36.42857 36.428573,-36.42857 20.11894,0 36.42857,16.30963 36.42857,36.42857 z" />
      <path
         d="m 150,308.79074 c 0,20.11894 -16.30963,36.42857 -36.42857,36.42857 -20.118947,0 -36.428573,-16.30963 -36.428573,-36.42857 0,-20.11894 16.309626,-36.42857 36.428573,-36.42857 20.11894,0 36.42857,16.30963 36.42857,36.42857 z"
         sodipodi:ry="36.42857"
         sodipodi:rx="36.42857"
         sodipodi:cy="308.79074"
         sodipodi:cx="113.57143"
         id="path4865"
         style="fill:#52752b;fill-opacity:1;stroke:none"
         sodipodi:type="arc"
         transform="matrix(0.14705879,0,0,0.52941174,130.34423,128.52758)" />
    </g>
  </g>
</svg>
