<?xml version="1.0" encoding="UTF-8" standalone="no"?>
<!-- Created with Inkscape (http://www.inkscape.org/) -->

<svg
   xmlns:dc="http://purl.org/dc/elements/1.1/"
   xmlns:cc="http://creativecommons.org/ns#"
   xmlns:rdf="http://www.w3.org/1999/02/22-rdf-syntax-ns#"
   xmlns:svg="http://www.w3.org/2000/svg"
   xmlns="http://www.w3.org/2000/svg"
   xmlns:sodipodi="http://sodipodi.sourceforge.net/DTD/sodipodi-0.dtd"
   xmlns:inkscape="http://www.inkscape.org/namespaces/inkscape"
   width="170mm"
   height="57mm"
   viewBox="0 0 170 57"
   version="1.1"
   id="svg8"
   inkscape:version="0.92.5 (2060ec1f9f, 2020-04-08)"
   sodipodi:docname="biochemistry.svg"
   inkscape:export-filename="/home/kristian/Desktop/5minutes/biochemistry.png"
   inkscape:export-xdpi="149"
   inkscape:export-ydpi="149">
  <defs
     id="defs2" />
  <sodipodi:namedview
     id="base"
     pagecolor="#ffffff"
     bordercolor="#666666"
     borderopacity="1.0"
     inkscape:pageopacity="1"
     inkscape:pageshadow="2"
     inkscape:zoom="1.4"
     inkscape:cx="234.63187"
     inkscape:cy="129.46734"
     inkscape:document-units="mm"
     inkscape:current-layer="layer1"
     showgrid="false"
     inkscape:snap-smooth-nodes="true"
     inkscape:window-width="1848"
     inkscape:window-height="1016"
     inkscape:window-x="72"
     inkscape:window-y="27"
     inkscape:window-maximized="1" />
  <metadata
     id="metadata5">
    <rdf:RDF>
      <cc:Work
         rdf:about="">
        <dc:format>image/svg+xml</dc:format>
        <dc:type
           rdf:resource="http://purl.org/dc/dcmitype/StillImage" />
        <dc:title></dc:title>
      </cc:Work>
    </rdf:RDF>
  </metadata>
  <g
     inkscape:label="Layer 1"
     inkscape:groupmode="layer"
     id="layer1"
     transform="translate(0,-240)">
    <flowRoot
       xml:space="preserve"
       id="flowRoot815"
       style="font-style:normal;font-weight:normal;font-size:40px;line-height:1.25;font-family:sans-serif;letter-spacing:0px;word-spacing:0px;fill:#000000;fill-opacity:1;stroke:none"
       transform="matrix(0.26458333,0,0,0.26458333,9.6383927,26.080357)"><flowRegion
         id="flowRegion817"><rect
           id="rect819"
           width="765.71429"
           height="222.85715"
           x="17.142857"
           y="882.51971" /></flowRegion><flowPara
         id="flowPara821"
         style="font-size:80px">Biochemistry</flowPara></flowRoot>    <rect
       style="fill:#ffffff;stroke:#ffffff;stroke-width:0.79374999;stroke-linecap:round;stroke-linejoin:round;stroke-miterlimit:4;stroke-dasharray:none"
       id="rect848"
       width="5.6794782"
       height="3.9422336"
       x="28.507141"
       y="261.70142" />
    <g
       id="g838"
       transform="matrix(0.32253557,0,0,0.32253557,7.1293807,186.25591)">
      <path
         id="path823"
         d="m 89.051194,223.20015 a 6.3311014,6.3311014 0 0 1 -6.331101,6.3311 6.3311014,6.3311014 0 0 1 -6.331102,-6.3311 6.3311014,6.3311014 0 0 1 6.331102,-6.3311 6.3311014,6.3311014 0 0 1 6.331101,6.3311 z"
         style="fill:#ff0000;stroke:#ff0000;stroke-width:0.79374999;stroke-linecap:round;stroke-linejoin:round;stroke-miterlimit:4;stroke-dasharray:none"
         inkscape:connector-curvature="0" />
      <path
         id="circle825"
         d="m 75.595239,223.20015 a 6.3311014,6.3311014 0 0 1 -6.331102,6.3311 6.3311014,6.3311014 0 0 1 -6.331101,-6.3311 6.3311014,6.3311014 0 0 1 6.331101,-6.3311 6.3311014,6.3311014 0 0 1 6.331102,6.3311 z"
         style="fill:#ff0000;stroke:#ff0000;stroke-width:0.79374999;stroke-linecap:round;stroke-linejoin:round;stroke-miterlimit:4;stroke-dasharray:none"
         inkscape:connector-curvature="0" />
      <path
         sodipodi:nodetypes="cccc"
         inkscape:connector-curvature="0"
         id="path833"
         d="m 62.933034,223.20015 c -1.081421,3.25478 3.451513,9.36276 13.238782,18.14097 6.078648,-6.16344 14.508452,-12.48021 12.879376,-18.14097 H 62.933034"
         style="fill:#ff0000;stroke:#ff0000;stroke-width:0.26458332px;stroke-linecap:butt;stroke-linejoin:miter;stroke-opacity:1" />
    </g>
    <rect
       y="261.70142"
       x="105.81485"
       height="3.9422336"
       width="5.6794782"
       id="rect850"
       style="fill:#ffffff;stroke:#ffffff;stroke-width:0.79374999;stroke-linecap:round;stroke-linejoin:round;stroke-miterlimit:4;stroke-dasharray:none" />
    <g
       transform="matrix(0.32253557,0,0,0.32253557,84.570725,186.25591)"
       id="g846">
      <path
         inkscape:connector-curvature="0"
         style="fill:#ff0000;stroke:#ff0000;stroke-width:0.79374999;stroke-linecap:round;stroke-linejoin:round;stroke-miterlimit:4;stroke-dasharray:none"
         d="m 89.051194,223.20015 a 6.3311014,6.3311014 0 0 1 -6.331101,6.3311 6.3311014,6.3311014 0 0 1 -6.331102,-6.3311 6.3311014,6.3311014 0 0 1 6.331102,-6.3311 6.3311014,6.3311014 0 0 1 6.331101,6.3311 z"
         id="path840" />
      <path
         inkscape:connector-curvature="0"
         style="fill:#ff0000;stroke:#ff0000;stroke-width:0.79374999;stroke-linecap:round;stroke-linejoin:round;stroke-miterlimit:4;stroke-dasharray:none"
         d="m 75.595239,223.20015 a 6.3311014,6.3311014 0 0 1 -6.331102,6.3311 6.3311014,6.3311014 0 0 1 -6.331101,-6.3311 6.3311014,6.3311014 0 0 1 6.331101,-6.3311 6.3311014,6.3311014 0 0 1 6.331102,6.3311 z"
         id="path842" />
      <path
         style="fill:#ff0000;stroke:#ff0000;stroke-width:0.26458332px;stroke-linecap:butt;stroke-linejoin:miter;stroke-opacity:1"
         d="m 62.933034,223.20015 c -1.081421,3.25478 3.451513,9.36276 13.238782,18.14097 6.078648,-6.16344 14.508452,-12.48021 12.879376,-18.14097 H 62.933034"
         id="path844"
         inkscape:connector-curvature="0"
         sodipodi:nodetypes="cccc" />
    </g>
  </g>
</svg>
