<?xml version="1.0" encoding="UTF-8" standalone="no"?>
<!-- Created with Inkscape (http://www.inkscape.org/) -->

<svg
   xmlns:dc="http://purl.org/dc/elements/1.1/"
   xmlns:cc="http://creativecommons.org/ns#"
   xmlns:rdf="http://www.w3.org/1999/02/22-rdf-syntax-ns#"
   xmlns:svg="http://www.w3.org/2000/svg"
   xmlns="http://www.w3.org/2000/svg"
   xmlns:sodipodi="http://sodipodi.sourceforge.net/DTD/sodipodi-0.dtd"
   xmlns:inkscape="http://www.inkscape.org/namespaces/inkscape"
   width="1550.0945"
   height="800.36218"
   id="svg4291"
   version="1.1"
   inkscape:version="0.92.5 (2060ec1f9f, 2020-04-08)"
   sodipodi:docname="confucius.svg"
   inkscape:export-filename="/home/kristian/Desktop/teaching_course/01_fundamentals/confucius.png"
   inkscape:export-xdpi="89.959274"
   inkscape:export-ydpi="89.959274">
  <defs
     id="defs4293">
    <clipPath
       clipPathUnits="userSpaceOnUse"
       id="clipPath3059">
      <rect
         style="fill:#ffffff;fill-opacity:1;stroke:#ffffff;stroke-width:3.54764676;stroke-linecap:round;stroke-miterlimit:4;stroke-dasharray:none;stroke-dashoffset:0;stroke-opacity:1"
         id="rect3061"
         width="569.37091"
         height="356.18182"
         x="-859.77979"
         y="89.832329" />
    </clipPath>
    <clipPath
       clipPathUnits="userSpaceOnUse"
       id="clipPath3330">
      <rect
         style="fill:#ffffff;fill-opacity:1;stroke:#ffffff;stroke-width:3.32572055;stroke-linecap:round;stroke-miterlimit:4;stroke-dasharray:none;stroke-dashoffset:0;stroke-opacity:1"
         id="rect3332"
         width="909.67426"
         height="661.10284"
         x="-910.55145"
         y="293.23932" />
    </clipPath>
  </defs>
  <sodipodi:namedview
     id="base"
     pagecolor="#ffffff"
     bordercolor="#666666"
     borderopacity="1.0"
     inkscape:pageopacity="1"
     inkscape:pageshadow="2"
     inkscape:zoom="0.7"
     inkscape:cx="684.72779"
     inkscape:cy="404.37472"
     inkscape:document-units="px"
     inkscape:current-layer="layer1"
     showgrid="false"
     inkscape:window-width="1848"
     inkscape:window-height="1016"
     inkscape:window-x="72"
     inkscape:window-y="27"
     inkscape:window-maximized="1" />
  <metadata
     id="metadata4296">
    <rdf:RDF>
      <cc:Work
         rdf:about="">
        <dc:format>image/svg+xml</dc:format>
        <dc:type
           rdf:resource="http://purl.org/dc/dcmitype/StillImage" />
        <dc:title></dc:title>
      </cc:Work>
    </rdf:RDF>
  </metadata>
  <g
     inkscape:label="Layer 1"
     inkscape:groupmode="layer"
     id="layer1"
     transform="translate(0,-252.00001)">
    <rect
       inkscape:export-ydpi="149.98193"
       inkscape:export-xdpi="149.98193"
       inkscape:export-filename="/home/krother/Desktop/mySpeakerBusiness/setting_your_fee.png"
       y="821.36884"
       x="1.6639016"
       height="237.73294"
       width="1550.2869"
       id="rect3259"
       style="fill:#cccccc;stroke:none;stroke-width:2.27366376" />
    <path
       style="fill:#ffffff;fill-opacity:1;stroke:#000000;stroke-width:3;stroke-linecap:round;stroke-miterlimit:4;stroke-dashoffset:0;stroke-opacity:1"
       d="m 215.44018,548.76057 h 110.83909 l 1.01015,49.49747 73.74114,-49.49747 357.64225,0 c 26.2021,0 47.2961,-21.09408 47.2961,-47.29615 V 401.45538 c 0,-26.20207 -21.094,-47.29616 -47.2961,-47.29616 H 215.44018 c -26.20206,0 -47.29615,21.09409 -47.29615,47.29616 v 68.57593 31.43311 c 0,26.20207 21.09409,47.29615 47.29615,47.29615 z"
       id="rect4567"
       inkscape:connector-curvature="0"
       sodipodi:nodetypes="scccsssssccss" />
    <flowRoot
       transform="translate(-237.75908,142.69019)"
       style="font-style:normal;font-weight:normal;line-height:0.01%;font-family:sans-serif;letter-spacing:0px;word-spacing:0px;fill:#000000;fill-opacity:1;stroke:none"
       id="flowRoot4555"
       xml:space="preserve"><flowRegion
         style="font-family:sans-serif"
         id="flowRegion4557"><rect
           style="font-family:sans-serif"
           y="243.79076"
           x="467.14285"
           height="157.18486"
           width="527.0863"
           id="rect4559" /></flowRegion><flowPara
         style="font-style:italic;font-variant:normal;font-weight:normal;font-stretch:normal;font-size:26.66666794px;line-height:1.25;font-family:Mallige;-inkscape-font-specification:'Mallige Italic'"
         id="flowPara4565">Confucius says: </flowPara><flowPara
         id="flowPara861"
         style="font-style:italic;font-variant:normal;font-weight:normal;font-stretch:normal;font-size:26.66666794px;line-height:1.25;font-family:Mallige;-inkscape-font-specification:'Mallige Italic'">Who is reviewing what they have learned and acquires new knowledge is fit to be a teacher. </flowPara></flowRoot>    <g
       transform="matrix(0.52399523,0,0,0.52399523,1083.9913,552.11954)"
       inkscape:export-ydpi="37.369999"
       inkscape:export-xdpi="37.369999"
       id="g3798">
      <path
         transform="matrix(1.2281624,0,0,1.2281624,1135.6716,-23.74193)"
         sodipodi:nodetypes="sscsssssccs"
         inkscape:connector-curvature="0"
         id="path3094"
         d="m -606.63333,115.06667 c -45.82152,0 -80.05963,32.67045 -82.96667,72.73333 -3.16513,43.61975 10.28462,78.98861 -15.08495,130.93502 -29.41303,34.97406 -72.19424,95.80904 -80.27546,163.19831 -9.23629,77.02143 34.56091,143.42117 101.6114,163.44198 18.59074,5.55106 51.32485,-2.86482 72.96238,-2.86482 27.96761,0 55.12696,7.54984 79.72981,-1.60474 63.08177,-23.47235 96.48575,-86.93779 106.66308,-158.97242 7.86828,-55.69127 -45.52696,-130.84155 -85.65464,-177.89035 -17.46229,-40.91262 -10.75133,-81.15366 -14.01829,-116.24298 0,-40.16821 -37.14515,-72.73333 -82.96666,-72.73333 z"
         style="fill:#333333;fill-opacity:1;stroke:none;stroke-width:3.20000005;stroke-opacity:1" />
      <ellipse
         transform="matrix(1.2281624,0,0,1.2281624,1135.6716,-23.74193)"
         id="path3111"
         style="fill:#ffffff;stroke:#ffffff;stroke-width:3.20000005;stroke-linecap:round;stroke-miterlimit:4;stroke-dasharray:none;stroke-dashoffset:0;stroke-opacity:1"
         cx="-660.77448"
         cy="227.38982"
         rx="19.664303"
         ry="29.361767" />
      <ellipse
         transform="matrix(1.2281624,0,0,1.2281624,1135.6716,-23.74193)"
         id="path3113"
         style="fill:#ffffff;stroke:#ffffff;stroke-width:3.20000005;stroke-linecap:round;stroke-miterlimit:4;stroke-dasharray:none;stroke-dashoffset:0;stroke-opacity:1"
         cx="-591.00659"
         cy="228.46732"
         rx="25.321157"
         ry="35.826744" />
      <ellipse
         transform="matrix(1.2281624,0,0,1.2281624,1135.6716,-23.74193)"
         id="path3115"
         style="fill:#000000;fill-opacity:1;stroke:#000000;stroke-width:3.20000005;stroke-linecap:round;stroke-miterlimit:4;stroke-dasharray:none;stroke-dashoffset:0;stroke-opacity:1"
         cx="-660.50507"
         cy="237.0873"
         rx="8.0812206"
         ry="15.354319" />
      <ellipse
         transform="matrix(1.2281624,0,0,1.2281624,1135.6716,-23.74193)"
         id="path3117"
         style="fill:#000000;fill-opacity:1;stroke:#000000;stroke-width:3.20000005;stroke-linecap:round;stroke-miterlimit:4;stroke-dasharray:none;stroke-dashoffset:0;stroke-opacity:1"
         cx="-594.50848"
         cy="234.9323"
         rx="12.12183"
         ry="17.50931" />
      <path
         transform="matrix(1.2281624,0,0,1.2281624,1135.6716,-23.74193)"
         sodipodi:nodetypes="cscccaccccccc"
         inkscape:connector-curvature="0"
         id="path3135"
         d="m -731.61982,486.79699 c -1.14606,-40.24262 14.75936,-73.31 33.43391,-106.73424 16.94274,-30.32461 24.51034,-61.59789 26.36713,-83.98256 l 107.21085,-11.3137 30.16989,81.88969 c 15.15817,29.9537 31.33733,60.98355 36.63486,94.28091 2.61217,16.41866 -2.74501,49.79986 -2.74501,49.79986 88.57394,113.9686 -29.08621,-106.70026 12.57223,41.27198 l -57.23704,43.07641 c -38.78193,30.55283 -85.17308,38.27801 -145.46197,4.30999 l -3.23249,-16.16244 c 18.39395,-0.38966 30.51257,-5.96328 16.16245,-33.40238 -38.66674,-34.62021 -55.08029,-42.47968 -53.87481,-63.03352 z"
         style="fill:#cccccc;fill-opacity:1;stroke:#e6e6e6;stroke-width:1.06666672px;stroke-linecap:butt;stroke-linejoin:miter;stroke-opacity:1" />
      <path
         transform="matrix(1.2281624,0,0,1.2281624,1135.6716,-23.74193)"
         style="fill:#ff9955;fill-opacity:1;stroke:#000000;stroke-width:3.20000005;stroke-linecap:round;stroke-miterlimit:4;stroke-dasharray:none;stroke-dashoffset:0;stroke-opacity:1"
         d="m -514.79602,495.08882 c 16.8726,-6.83334 24.58031,-1.54533 46.77927,13.51301 16.88458,3.57479 44.30396,-6.60229 54.16744,15.63573 4.43443,10.94929 1.79638,15.91613 5.53341,23.55698 8.81412,18.02165 11.61605,19.33941 19.87021,37.92974 5.23775,12.93281 -5.67696,21.24696 -23.1602,28.32761 -19.75359,9.41135 -24.69296,12.69882 -41.71048,27.80716 -27.19213,34.36318 -55.09423,44.44019 -84.29035,25.42108 -6.91683,-4.5058 -13.52174,-16.12246 -14.02107,-24.13593 -1.84533,-29.61512 16.33854,-57.57975 15.18244,-86.97783 -1.06493,-27.07938 4.77674,-54.2442 21.64933,-61.07755 z"
         id="path3131"
         inkscape:connector-curvature="0"
         sodipodi:nodetypes="sccscccssss" />
      <ellipse
         transform="matrix(1.2281624,0,0,1.2281624,1135.6716,-23.74193)"
         id="path3137"
         style="fill:#ffffff;stroke:#ffffff;stroke-width:3.20000005;stroke-linecap:round;stroke-miterlimit:4;stroke-dasharray:none;stroke-dashoffset:0;stroke-opacity:1"
         cx="-621.17651"
         cy="435.34656"
         rx="84.044693"
         ry="63.84164" />
      <path
         transform="matrix(1.2281624,0,0,1.2281624,1135.6716,-23.74193)"
         sodipodi:nodetypes="ssssssssss"
         inkscape:connector-curvature="0"
         id="path3090"
         d="m -683.67124,272.37527 c 0.79016,-7.89885 14.03776,-15.28486 20.47242,-19.93367 6.5002,-4.69616 12.3187,-10.95504 19.93368,-13.46869 7.85188,-2.59186 17.50467,-5.00235 24.78241,-1.07751 13.42369,7.23932 36.67274,13.31769 45.25484,20.47243 7.04958,5.87711 15.11871,9.94292 12.92995,18.85618 -2.92351,11.90538 -19.43202,18.32901 -30.16989,24.24366 -11.53762,6.35516 -22.3855,17.32024 -35.55738,17.23994 -11.24344,-0.0686 -20.61465,-9.15896 -30.16988,-15.08494 -10.80783,-6.70283 -28.8673,-17.34088 -27.47615,-31.2474 z"
         style="fill:#ff9955;fill-opacity:1;stroke:#000000;stroke-width:4.26666689;stroke-linecap:butt;stroke-linejoin:miter;stroke-opacity:1" />
      <path
         transform="matrix(1.2281624,0,0,1.2281624,1135.6716,-23.74193)"
         sodipodi:nodetypes="cc"
         inkscape:connector-curvature="0"
         id="path3109"
         d="m -673.43503,273.99152 c 44.38379,42.92451 67.74985,12.28693 95.89715,-1.61625"
         style="fill:none;stroke:#000000;stroke-width:4.26666689;stroke-linecap:butt;stroke-linejoin:miter;stroke-opacity:1" />
      <path
         transform="matrix(1.2281624,0,0,1.2281624,1135.6716,-23.74193)"
         sodipodi:nodetypes="sscscccssss"
         inkscape:connector-curvature="0"
         id="path3119"
         d="m -766.09915,494.77292 c -18.20382,0 -17.55099,9.94537 -35.66041,29.73418 -11.65163,12.73215 -40.60181,11.77859 -41.39628,36.0929 0,11.81318 4.60144,15.23678 4.00592,23.72166 -1.40459,20.0124 -4.32838,17.38696 -5.0005,37.71624 0,13.95319 12.57695,23.07835 31.43959,23.07835 23.1252,-2.69927 30.23322,-2.07365 51.79746,10.14331 38.10284,21.64287 71.45212,21.38959 91.37378,-7.1983 4.71962,-6.77274 3.41849,-24.81592 -0.44761,-31.85284 -14.46757,-26.33328 -40.68071,-57.16239 -51.29283,-79.31011 -11.7103,-24.43963 -26.6153,-42.12539 -44.81912,-42.12539 z"
         style="fill:#ff9955;fill-opacity:1;stroke:#000000;stroke-width:3.20000005;stroke-linecap:round;stroke-miterlimit:4;stroke-dasharray:none;stroke-dashoffset:0;stroke-opacity:1" />
      <text
         xml:space="preserve"
         style="font-style:normal;font-weight:normal;font-size:12.80000019px;line-height:0%;font-family:sans-serif;letter-spacing:0px;word-spacing:0px;fill:#000000;fill-opacity:1;stroke:none;stroke-width:1.06666672"
         x="-1.6662292"
         y="173.50133"
         id="text3147"
         clip-path="none"><tspan
           sodipodi:role="line"
           id="tspan3149"
           x="-1.6662292"
           y="173.50133"
           style="font-size:42.66666794px;line-height:1.25;font-family:sans-serif;stroke-width:1.06666672"> </tspan><tspan
           sodipodi:role="line"
           id="tspan3151"
           x="-1.6662292"
           y="226.83466"
           style="font-size:42.66666794px;line-height:1.25;font-family:sans-serif;stroke-width:1.06666672"> </tspan></text>
    </g>
    <g
       id="g954"
       transform="translate(0,129.29953)">
      <g
         transform="translate(87.229938,-167.73996)"
         id="g143"
         style="fill:#ffe680">
        <rect
           style="opacity:1;fill:#ffe680;fill-opacity:1;stroke:#000000;stroke-width:3;stroke-linecap:round;stroke-linejoin:miter;stroke-miterlimit:4;stroke-dasharray:none;stroke-dashoffset:0;stroke-opacity:1"
           id="rect116"
           width="11.428572"
           height="41.42857"
           x="40.968098"
           y="840.68384" />
        <rect
           y="799.25525"
           x="40.968098"
           height="41.42857"
           width="11.428572"
           id="rect118"
           style="opacity:1;fill:#ffe680;fill-opacity:1;stroke:#000000;stroke-width:3;stroke-linecap:round;stroke-linejoin:miter;stroke-miterlimit:4;stroke-dasharray:none;stroke-dashoffset:0;stroke-opacity:1" />
        <rect
           style="opacity:1;fill:#ffe680;fill-opacity:1;stroke:#000000;stroke-width:3;stroke-linecap:round;stroke-linejoin:miter;stroke-miterlimit:4;stroke-dasharray:none;stroke-dashoffset:0;stroke-opacity:1"
           id="rect120"
           width="11.428572"
           height="41.42857"
           x="40.968098"
           y="757.82666" />
        <rect
           y="716.39807"
           x="40.968098"
           height="41.42857"
           width="11.428572"
           id="rect122"
           style="opacity:1;fill:#ffe680;fill-opacity:1;stroke:#000000;stroke-width:3;stroke-linecap:round;stroke-linejoin:miter;stroke-miterlimit:4;stroke-dasharray:none;stroke-dashoffset:0;stroke-opacity:1" />
        <rect
           style="opacity:1;fill:#ffe680;fill-opacity:1;stroke:#000000;stroke-width:3;stroke-linecap:round;stroke-linejoin:miter;stroke-miterlimit:4;stroke-dasharray:none;stroke-dashoffset:0;stroke-opacity:1"
           id="rect124"
           width="11.428572"
           height="41.42857"
           x="40.968098"
           y="674.96948" />
        <rect
           y="633.54089"
           x="40.968098"
           height="41.42857"
           width="11.428572"
           id="rect126"
           style="opacity:1;fill:#ffe680;fill-opacity:1;stroke:#000000;stroke-width:3;stroke-linecap:round;stroke-linejoin:miter;stroke-miterlimit:4;stroke-dasharray:none;stroke-dashoffset:0;stroke-opacity:1" />
        <rect
           style="opacity:1;fill:#ffe680;fill-opacity:1;stroke:#000000;stroke-width:3;stroke-linecap:round;stroke-linejoin:miter;stroke-miterlimit:4;stroke-dasharray:none;stroke-dashoffset:0;stroke-opacity:1"
           id="rect128"
           width="11.428572"
           height="41.42857"
           x="40.968098"
           y="964.9696" />
        <rect
           y="923.54102"
           x="40.968098"
           height="41.42857"
           width="11.428572"
           id="rect130"
           style="opacity:1;fill:#ffe680;fill-opacity:1;stroke:#000000;stroke-width:3;stroke-linecap:round;stroke-linejoin:miter;stroke-miterlimit:4;stroke-dasharray:none;stroke-dashoffset:0;stroke-opacity:1" />
        <rect
           style="opacity:1;fill:#ffe680;fill-opacity:1;stroke:#000000;stroke-width:3;stroke-linecap:round;stroke-linejoin:miter;stroke-miterlimit:4;stroke-dasharray:none;stroke-dashoffset:0;stroke-opacity:1"
           id="rect132"
           width="11.428572"
           height="41.42857"
           x="40.968098"
           y="882.11243" />
      </g>
      <g
         transform="translate(68.690368,-135.36044)"
         id="g3082">
        <path
           sodipodi:nodetypes="ssccccss"
           inkscape:connector-curvature="0"
           id="path5475"
           d="m 226.18039,775.87074 c -63.83093,0 -115.5625,42.77726 -115.5625,95.5625 0,44.51972 36.80165,81.96938 86.625,92.59375 v -32.92411 c 28.20294,34.39295 40.05689,10.39662 55.71875,0 v 33.36161 c 50.91337,-9.99226 88.8125,-47.872 88.8125,-93.03125 0,-52.78524 -51.76282,-95.5625 -115.59375,-95.5625 z"
           style="fill:#ffffff;fill-opacity:1;stroke:#000000;stroke-width:6.99060154;stroke-linecap:round;stroke-miterlimit:4;stroke-dasharray:none;stroke-dashoffset:0;stroke-opacity:1"
           inkscape:export-filename="/home/krother/Desktop/courses/time_management/images/panda_bsc.png"
           inkscape:export-xdpi="150.00104"
           inkscape:export-ydpi="150.00104" />
        <ellipse
           ry="39.642857"
           rx="30.714285"
           cy="932.87579"
           cx="184.39914"
           id="path5477"
           style="fill:#000000;fill-opacity:1;stroke:#000000;stroke-width:6;stroke-linecap:round;stroke-miterlimit:4;stroke-dasharray:none;stroke-dashoffset:0;stroke-opacity:1"
           inkscape:export-filename="/home/krother/Desktop/courses/time_management/images/panda_bsc.png"
           inkscape:export-xdpi="150.00104"
           inkscape:export-ydpi="150.00104" />
        <ellipse
           ry="39.642857"
           rx="30.714285"
           cy="931.4472"
           cx="262.25629"
           style="fill:#000000;fill-opacity:1;stroke:#000000;stroke-width:6;stroke-linecap:round;stroke-miterlimit:4;stroke-dasharray:none;stroke-dashoffset:0;stroke-opacity:1"
           id="path5479"
           inkscape:export-filename="/home/krother/Desktop/courses/time_management/images/panda_bsc.png"
           inkscape:export-xdpi="150.00104"
           inkscape:export-ydpi="150.00104" />
        <path
           sodipodi:nodetypes="sscssszcss"
           inkscape:connector-curvature="0"
           id="path5481"
           d="m 224.74289,700.54089 c -70.02182,0 -126.781249,48.4224 -126.781249,108.1875 0,44.01611 -71.224415,72.30957 -27.025405,89.21605 0,0 23.530384,-3.72266 44.606874,-9.90326 13.97264,-4.09742 24.60203,-8.70892 34.75304,-16.07494 21.42616,-15.54779 14.16704,-41.37383 22.66549,-52.1441 18.59803,-23.56968 89.2197,-31.60668 107.875,0 18.6553,31.60668 0,85.96875 0,85.96875 41.88039,-17.66713 70.71875,-54.49011 70.71875,-97.0625 0,-59.7651 -56.79068,-108.1875 -126.8125,-108.1875 z"
           style="fill:#000000;fill-opacity:1;stroke:#000000;stroke-width:6;stroke-linecap:round;stroke-miterlimit:4;stroke-dasharray:none;stroke-dashoffset:0;stroke-opacity:1"
           inkscape:export-filename="/home/krother/Desktop/courses/time_management/images/panda_bsc.png"
           inkscape:export-xdpi="150.00104"
           inkscape:export-ydpi="150.00104" />
        <ellipse
           ry="19.697975"
           rx="24.243662"
           cy="664.77405"
           cx="294.86621"
           id="path5483"
           style="fill:#000000;fill-opacity:1;stroke:#000000;stroke-width:6;stroke-linecap:round;stroke-miterlimit:4;stroke-dasharray:none;stroke-dashoffset:0;stroke-opacity:1"
           inkscape:export-filename="/home/krother/Desktop/courses/time_management/images/panda_bsc.png"
           inkscape:export-xdpi="150.00104"
           inkscape:export-ydpi="150.00104" />
        <ellipse
           ry="19.697975"
           rx="24.243662"
           cy="664.77405"
           cx="156.47531"
           style="fill:#000000;fill-opacity:1;stroke:#000000;stroke-width:6;stroke-linecap:round;stroke-miterlimit:4;stroke-dasharray:none;stroke-dashoffset:0;stroke-opacity:1"
           id="path5485"
           inkscape:export-filename="/home/krother/Desktop/courses/time_management/images/panda_bsc.png"
           inkscape:export-xdpi="150.00104"
           inkscape:export-ydpi="150.00104" />
        <path
           inkscape:connector-curvature="0"
           id="path5487"
           d="m 226.93039,662.25964 c -57.32068,0 -103.78125,28.69887 -103.78125,64.125 0,27.55905 28.11842,51.04688 67.59375,60.125 -0.26691,0.98325 -0.40625,1.97574 -0.40625,3 0,11.14704 16.38367,20.1875 36.59375,20.1875 20.21008,0 36.59375,-9.04046 36.59375,-20.1875 0,-1.02198 -0.1405,-2.01884 -0.40625,-3 39.47533,-9.07812 67.59375,-32.56595 67.59375,-60.125 0,-35.42613 -46.46057,-64.125 -103.78125,-64.125 z"
           style="fill:#ffffff;fill-opacity:1;stroke:#000000;stroke-width:6"
           inkscape:export-filename="/home/krother/Desktop/courses/time_management/images/panda_bsc.png"
           inkscape:export-xdpi="150.00104"
           inkscape:export-ydpi="150.00104" />
        <ellipse
           ry="5.0507627"
           rx="15.152288"
           cy="757.203"
           cx="228.19614"
           id="path5493"
           style="fill:#000000;fill-opacity:1;stroke:#000000;stroke-width:6;stroke-linecap:round;stroke-miterlimit:4;stroke-dasharray:none;stroke-dashoffset:0;stroke-opacity:1"
           inkscape:export-filename="/home/krother/Desktop/courses/time_management/images/panda_bsc.png"
           inkscape:export-xdpi="150.00104"
           inkscape:export-ydpi="150.00104" />
        <path
           sodipodi:nodetypes="cccc"
           inkscape:connector-curvature="0"
           id="path5495"
           d="m 207.4848,785.23881 c 15.56421,4.82999 28.2114,2.36738 41.42267,1.31501 -7.30297,-2.13533 -15.07788,-2.85487 -21.23266,-8.43473 -4.65646,4.96517 -13.33509,4.90263 -20.19001,7.11972 z"
           style="fill:#000000;stroke:#000000;stroke-width:0.65089458px;stroke-linecap:butt;stroke-linejoin:miter;stroke-opacity:1"
           inkscape:export-filename="/home/krother/Desktop/courses/time_management/images/panda_bsc.png"
           inkscape:export-xdpi="150.00104"
           inkscape:export-ydpi="150.00104" />
        <ellipse
           ry="20"
           rx="18.214285"
           cy="881.01831"
           cx="64.476334"
           id="path5503"
           style="fill:#ffffff;fill-opacity:1;stroke:#000000;stroke-width:6;stroke-linecap:round;stroke-miterlimit:4;stroke-dasharray:none;stroke-dashoffset:0;stroke-opacity:1"
           inkscape:export-filename="/home/krother/Desktop/courses/time_management/images/panda_bsc.png"
           inkscape:export-xdpi="150.00104"
           inkscape:export-ydpi="150.00104" />
        <ellipse
           ry="20"
           rx="18.214285"
           cy="889.09949"
           cx="274.04199"
           style="fill:#ffffff;fill-opacity:1;stroke:#000000;stroke-width:6;stroke-linecap:round;stroke-miterlimit:4;stroke-dasharray:none;stroke-dashoffset:0;stroke-opacity:1"
           id="path5505"
           inkscape:export-filename="/home/krother/Desktop/courses/time_management/images/panda_bsc.png"
           inkscape:export-xdpi="150.00104"
           inkscape:export-ydpi="150.00104" />
        <g
           id="g5532"
           transform="translate(-74.899762,121.53009)"
           inkscape:export-filename="/home/krother/Desktop/courses/time_management/images/panda_bsc.png"
           inkscape:export-xdpi="150.00104"
           inkscape:export-ydpi="150.00104">
          <ellipse
             ry="19.697975"
             rx="24.243662"
             cy="196.2579"
             cx="151.52289"
             style="fill:#000000;fill-opacity:1;stroke:#000000;stroke-width:6;stroke-linecap:round;stroke-miterlimit:4;stroke-dasharray:none;stroke-dashoffset:0;stroke-opacity:1"
             id="path5489"
             transform="matrix(1.271693,0,0,1.271693,70.582587,356.18763)" />
          <ellipse
             ry="19.697975"
             rx="24.243662"
             cy="196.2579"
             cx="151.52289"
             transform="matrix(1.271693,0,0,1.271693,150.22802,356.18763)"
             id="path5491"
             style="fill:#000000;fill-opacity:1;stroke:#000000;stroke-width:6;stroke-linecap:round;stroke-miterlimit:4;stroke-dasharray:none;stroke-dashoffset:0;stroke-opacity:1" />
          <g
             transform="matrix(1.243496,1.4731049,-1.243496,1.4731049,322.17487,97.039841)"
             id="g5507">
            <g
               id="g991"
               transform="translate(-0.60926164,0.60926164)">
              <circle
                 style="fill:#ffffff;fill-opacity:1;stroke:#ffffff;stroke-width:6;stroke-linecap:round;stroke-miterlimit:4;stroke-dasharray:none;stroke-dashoffset:0;stroke-opacity:1"
                 id="path5509"
                 transform="translate(-1.0101525,-3.0304576)"
                 cx="152.53304"
                 cy="198.78328"
                 r="8.0812206" />
              <circle
                 transform="matrix(0.99999817,-0.00191136,-0.00191136,0.99999817,0,0)"
                 style="fill:#000000;fill-opacity:1;stroke:#000000;stroke-width:4.79358196;stroke-linecap:round;stroke-miterlimit:4;stroke-dasharray:none;stroke-dashoffset:0;stroke-opacity:1"
                 id="path5511"
                 cx="153.89064"
                 cy="198.27086"
                 r="3.4299264" />
            </g>
          </g>
          <g
             id="g999"
             transform="matrix(1.243496,1.4731049,-1.243496,1.4731049,396.92616,97.039841)">
            <g
               transform="translate(-0.60926164,0.60926164)"
               id="g997">
              <circle
                 r="8.0812206"
                 cy="198.78328"
                 cx="152.53304"
                 transform="translate(-1.0101525,-3.0304576)"
                 id="circle993"
                 style="fill:#ffffff;fill-opacity:1;stroke:#ffffff;stroke-width:6;stroke-linecap:round;stroke-miterlimit:4;stroke-dasharray:none;stroke-dashoffset:0;stroke-opacity:1" />
              <circle
                 r="3.4299264"
                 cy="198.27086"
                 cx="153.89064"
                 id="circle995"
                 style="fill:#000000;fill-opacity:1;stroke:#000000;stroke-width:4.79358196;stroke-linecap:round;stroke-miterlimit:4;stroke-dasharray:none;stroke-dashoffset:0;stroke-opacity:1"
                 transform="matrix(0.99999817,-0.00191136,-0.00191136,0.99999817,0,0)" />
            </g>
          </g>
        </g>
      </g>
      <path
         sodipodi:nodetypes="cccc"
         inkscape:connector-curvature="0"
         id="path114"
         d="M 144.32926,578.8965 H 443.33441 L 293.83183,504.14521 Z"
         style="fill:#ffe680;stroke:#000000;stroke-width:3;stroke-linecap:butt;stroke-linejoin:miter;stroke-opacity:1" />
    </g>
    <path
       sodipodi:nodetypes="scccsssssccss"
       inkscape:connector-curvature="0"
       id="path977"
       d="m 975.07489,548.76057 h 112.06801 l 113.5714,60 v -60 h 198.3952 c 26.2021,0 47.2961,-21.09408 47.2961,-47.29615 V 401.45538 c 0,-26.20207 -21.094,-47.29616 -47.2961,-47.29616 H 975.07489 c -26.20206,0 -47.29615,21.09409 -47.29615,47.29616 v 68.57593 31.43311 c 0,26.20207 21.09409,47.29615 47.29615,47.29615 z"
       style="fill:#ffffff;fill-opacity:1;stroke:#000000;stroke-width:3;stroke-linecap:round;stroke-miterlimit:4;stroke-dashoffset:0;stroke-opacity:1" />
    <flowRoot
       xml:space="preserve"
       id="flowRoot987"
       style="font-style:normal;font-weight:normal;line-height:0.01%;font-family:sans-serif;letter-spacing:0px;word-spacing:0px;fill:#000000;fill-opacity:1;stroke:none"
       transform="translate(521.87563,188.14705)"><flowRegion
         id="flowRegion981"
         style="font-family:sans-serif"><rect
           id="rect979"
           width="527.0863"
           height="157.18486"
           x="467.14285"
           y="243.79076"
           style="font-family:sans-serif" /></flowRegion><flowPara
         style="font-style:italic;font-variant:normal;font-weight:normal;font-stretch:normal;font-size:26.66666794px;line-height:1.25;font-family:Mallige;-inkscape-font-specification:'Mallige Italic'"
         id="flowPara985">Knowing bash helps, too.</flowPara></flowRoot>  </g>
</svg>
