<?xml version="1.0" encoding="UTF-8" standalone="no"?>
<!-- Created with Inkscape (http://www.inkscape.org/) -->

<svg
   xmlns:dc="http://purl.org/dc/elements/1.1/"
   xmlns:cc="http://creativecommons.org/ns#"
   xmlns:rdf="http://www.w3.org/1999/02/22-rdf-syntax-ns#"
   xmlns:svg="http://www.w3.org/2000/svg"
   xmlns="http://www.w3.org/2000/svg"
   xmlns:sodipodi="http://sodipodi.sourceforge.net/DTD/sodipodi-0.dtd"
   xmlns:inkscape="http://www.inkscape.org/namespaces/inkscape"
   width="1052.3622"
   height="290.09448"
   id="svg3329"
   version="1.1"
   inkscape:version="0.92.3 (2405546, 2018-03-11)"
   sodipodi:docname="groups.svg"
   inkscape:export-filename="/home/kristian/Desktop/groups.png"
   inkscape:export-xdpi="150"
   inkscape:export-ydpi="150">
  <defs
     id="defs3331" />
  <sodipodi:namedview
     id="base"
     pagecolor="#ffffff"
     bordercolor="#666666"
     borderopacity="1.0"
     inkscape:pageopacity="1"
     inkscape:pageshadow="2"
     inkscape:zoom="0.9899495"
     inkscape:cx="389.88692"
     inkscape:cy="385.34392"
     inkscape:document-units="px"
     inkscape:current-layer="layer1"
     showgrid="false"
     inkscape:object-nodes="false"
     inkscape:window-width="1853"
     inkscape:window-height="1025"
     inkscape:window-x="67"
     inkscape:window-y="27"
     inkscape:window-maximized="1"
     inkscape:measure-start="0,0"
     inkscape:measure-end="0,0" />
  <metadata
     id="metadata3334">
    <rdf:RDF>
      <cc:Work
         rdf:about="">
        <dc:format>image/svg+xml</dc:format>
        <dc:type
           rdf:resource="http://purl.org/dc/dcmitype/StillImage" />
        <dc:title></dc:title>
      </cc:Work>
    </rdf:RDF>
  </metadata>
  <g
     inkscape:label="Layer 1"
     inkscape:groupmode="layer"
     id="layer1"
     transform="translate(0,-762.2677)">
    <flowRoot
       transform="translate(69.454511,652.8508)"
       style="font-style:normal;font-weight:normal;line-height:0.01%;font-family:sans-serif;letter-spacing:0px;word-spacing:0px;fill:#000000;fill-opacity:1;stroke:none"
       id="flowRoot4347"
       xml:space="preserve"><flowRegion
         style="font-family:sans-serif"
         id="flowRegion4349"><rect
           style="font-family:sans-serif"
           y="169.50504"
           x="117.14286"
           height="59.378529"
           width="159.83902"
           id="rect4351" /></flowRegion><flowPara
         style="font-weight:bold;font-size:20px;line-height:1.25;font-family:sans-serif;text-align:center;text-anchor:middle"
         id="flowPara4353">groups with</flowPara><flowPara
         style="font-weight:bold;font-size:20px;line-height:1.25;font-family:sans-serif;text-align:center;text-anchor:middle"
         id="flowPara851">same task</flowPara></flowRoot>    <flowRoot
       xml:space="preserve"
       id="flowRoot861"
       style="font-style:normal;font-weight:normal;line-height:0.01%;font-family:sans-serif;letter-spacing:0px;word-spacing:0px;fill:#000000;fill-opacity:1;stroke:none"
       transform="translate(559.57109,652.8508)"><flowRegion
         id="flowRegion855"
         style="font-family:sans-serif"><rect
           id="rect853"
           width="251.76291"
           height="63.41914"
           x="117.14286"
           y="169.50504"
           style="font-family:sans-serif" /></flowRegion><flowPara
         id="flowPara857"
         style="font-weight:bold;font-size:20px;line-height:1.25;font-family:sans-serif;text-align:center;text-anchor:middle">groups with</flowPara><flowPara
         id="flowPara859"
         style="font-weight:bold;font-size:20px;line-height:1.25;font-family:sans-serif;text-align:center;text-anchor:middle">different tasks</flowPara></flowRoot>    <path
       style="fill:none;stroke:#000000;stroke-width:3;stroke-linecap:butt;stroke-linejoin:miter;stroke-opacity:1"
       d="M 534.37065,776.59054 V 1041.2505"
       id="path863"
       inkscape:connector-curvature="0"
       sodipodi:nodetypes="cc" />
    <g
       id="g903"
       transform="translate(-14.142136,464.67017)">
      <rect
         y="499.80875"
         x="898.02563"
         height="27.274118"
         width="136.37059"
         id="rect892"
         style="opacity:1;fill:#cccccc;fill-opacity:1;stroke:#000000;stroke-width:1;stroke-linecap:round;stroke-linejoin:miter;stroke-miterlimit:4;stroke-dasharray:none;stroke-dashoffset:0;stroke-opacity:1" />
      <flowRoot
         transform="translate(810.83105,331.45459)"
         style="font-style:normal;font-weight:normal;line-height:0.01%;font-family:sans-serif;letter-spacing:0px;word-spacing:0px;fill:#000000;fill-opacity:1;stroke:none"
         id="flowRoot879"
         xml:space="preserve"><flowRegion
           id="flowRegion875"
           style="font-family:sans-serif"><rect
             y="169.50504"
             x="117.14286"
             height="78.571426"
             width="204.28572"
             id="rect873"
             style="font-family:sans-serif" /></flowRegion><flowPara
           style="font-size:20px;line-height:1.25;font-family:sans-serif"
           id="flowPara877">group 3</flowPara></flowRoot>      <g
         transform="matrix(0.791481,0,0,0.791481,204.89085,91.662539)"
         id="g890"
         style="fill:#5599ff">
        <path
           sodipodi:nodetypes="ssssscccccccccccccc"
           inkscape:export-ydpi="150.87215"
           inkscape:export-xdpi="150.87215"
           inkscape:export-filename="/home/krother/Desktop/TLI_pictures/green.png"
           inkscape:connector-curvature="0"
           id="path4130"
           d="m 1013.8145,462.18003 c 3.9359,0 7.1276,3.19178 7.1276,7.12759 0,3.93582 -3.1918,7.1276 -7.1277,7.1276 -3.9357,0 -7.1229,-3.19178 -7.1229,-7.1276 0,-3.93581 3.1872,-7.12759 7.123,-7.12759 z m -25.04866,29.93492 21.35496,-14.9976 h 7.4849 l 21.2574,14.9976 v 8.80283 l -17.3132,-8.65436 7.2854,22.35262 h -10.4964 l -4.5245,-14.10203 -4.5243,14.10203 h -10.49649 l 7.28539,-22.35262 -17.31316,8.65436 z"
           style="fill:#5599ff;fill-opacity:1;stroke:#000000;stroke-width:0.85255301" />
        <path
           style="fill:#5599ff;fill-opacity:1;stroke:#000000;stroke-width:0.85255301"
           d="m 957.65627,462.18003 c 3.9359,0 7.1276,3.19178 7.1276,7.12759 0,3.93582 -3.1918,7.1276 -7.1277,7.1276 -3.9357,0 -7.1229,-3.19178 -7.1229,-7.1276 0,-3.93581 3.1872,-7.12759 7.123,-7.12759 z m -25.04866,29.93492 21.35496,-14.9976 h 7.4849 l 21.2574,14.9976 v 8.80283 l -17.3132,-8.65436 7.2854,22.35262 h -10.4964 l -4.5245,-14.10203 -4.5243,14.10203 h -10.49649 l 7.28539,-22.35262 -17.31316,8.65436 z"
           id="path883"
           inkscape:connector-curvature="0"
           inkscape:export-filename="/home/krother/Desktop/TLI_pictures/green.png"
           inkscape:export-xdpi="150.87215"
           inkscape:export-ydpi="150.87215"
           sodipodi:nodetypes="ssssscccccccccccccc" />
        <path
           sodipodi:nodetypes="ssssscccccccccccccc"
           inkscape:export-ydpi="150.87215"
           inkscape:export-xdpi="150.87215"
           inkscape:export-filename="/home/krother/Desktop/TLI_pictures/green.png"
           inkscape:connector-curvature="0"
           id="path885"
           d="m 901.49815,462.18003 c 3.9359,0 7.1276,3.19178 7.1276,7.12759 0,3.93582 -3.1918,7.1276 -7.1277,7.1276 -3.9357,0 -7.1229,-3.19178 -7.1229,-7.1276 0,-3.93581 3.1872,-7.12759 7.123,-7.12759 z m -25.04866,29.93492 21.35496,-14.9976 h 7.4849 l 21.2574,14.9976 v 8.80283 l -17.3132,-8.65436 7.2854,22.35262 h -10.4964 l -4.5245,-14.10203 -4.5243,14.10203 h -10.49649 l 7.28539,-22.35262 -17.31316,8.65436 z"
           style="fill:#5599ff;fill-opacity:1;stroke:#000000;stroke-width:0.85255301"
           inkscape:transform-center-x="-45.456864" />
      </g>
    </g>
    <g
       id="g923"
       transform="translate(-163.64472,464.67017)">
      <rect
         style="opacity:1;fill:#cccccc;fill-opacity:1;stroke:#000000;stroke-width:1;stroke-linecap:round;stroke-linejoin:miter;stroke-miterlimit:4;stroke-dasharray:none;stroke-dashoffset:0;stroke-opacity:1"
         id="rect905"
         width="136.37059"
         height="27.274118"
         x="898.02563"
         y="499.80875" />
      <flowRoot
         xml:space="preserve"
         id="flowRoot913"
         style="font-style:normal;font-weight:normal;line-height:0.01%;font-family:sans-serif;letter-spacing:0px;word-spacing:0px;fill:#000000;fill-opacity:1;stroke:none"
         transform="translate(810.83105,331.45459)"><flowRegion
           style="font-family:sans-serif"
           id="flowRegion909"><rect
             style="font-family:sans-serif"
             id="rect907"
             width="204.28572"
             height="78.571426"
             x="117.14286"
             y="169.50504" /></flowRegion><flowPara
           id="flowPara911"
           style="font-size:20px;line-height:1.25;font-family:sans-serif">group 2</flowPara></flowRoot>      <g
         id="g921"
         transform="matrix(0.791481,0,0,0.791481,204.89085,91.662539)"
         style="fill:#bc5fd3">
        <path
           style="fill:#bc5fd3;fill-opacity:1;stroke:#000000;stroke-width:0.85255301"
           d="m 1013.8145,462.18003 c 3.9359,0 7.1276,3.19178 7.1276,7.12759 0,3.93582 -3.1918,7.1276 -7.1277,7.1276 -3.9357,0 -7.1229,-3.19178 -7.1229,-7.1276 0,-3.93581 3.1872,-7.12759 7.123,-7.12759 z m -25.04866,29.93492 21.35496,-14.9976 h 7.4849 l 21.2574,14.9976 v 8.80283 l -17.3132,-8.65436 7.2854,22.35262 h -10.4964 l -4.5245,-14.10203 -4.5243,14.10203 h -10.49649 l 7.28539,-22.35262 -17.31316,8.65436 z"
           id="path915"
           inkscape:connector-curvature="0"
           inkscape:export-filename="/home/krother/Desktop/TLI_pictures/green.png"
           inkscape:export-xdpi="150.87215"
           inkscape:export-ydpi="150.87215"
           sodipodi:nodetypes="ssssscccccccccccccc" />
        <path
           sodipodi:nodetypes="ssssscccccccccccccc"
           inkscape:export-ydpi="150.87215"
           inkscape:export-xdpi="150.87215"
           inkscape:export-filename="/home/krother/Desktop/TLI_pictures/green.png"
           inkscape:connector-curvature="0"
           id="path917"
           d="m 957.65627,462.18003 c 3.9359,0 7.1276,3.19178 7.1276,7.12759 0,3.93582 -3.1918,7.1276 -7.1277,7.1276 -3.9357,0 -7.1229,-3.19178 -7.1229,-7.1276 0,-3.93581 3.1872,-7.12759 7.123,-7.12759 z m -25.04866,29.93492 21.35496,-14.9976 h 7.4849 l 21.2574,14.9976 v 8.80283 l -17.3132,-8.65436 7.2854,22.35262 h -10.4964 l -4.5245,-14.10203 -4.5243,14.10203 h -10.49649 l 7.28539,-22.35262 -17.31316,8.65436 z"
           style="fill:#bc5fd3;fill-opacity:1;stroke:#000000;stroke-width:0.85255301" />
        <path
           inkscape:transform-center-x="-45.456864"
           style="fill:#bc5fd3;fill-opacity:1;stroke:#000000;stroke-width:0.85255301"
           d="m 901.49815,462.18003 c 3.9359,0 7.1276,3.19178 7.1276,7.12759 0,3.93582 -3.1918,7.1276 -7.1277,7.1276 -3.9357,0 -7.1229,-3.19178 -7.1229,-7.1276 0,-3.93581 3.1872,-7.12759 7.123,-7.12759 z m -25.04866,29.93492 21.35496,-14.9976 h 7.4849 l 21.2574,14.9976 v 8.80283 l -17.3132,-8.65436 7.2854,22.35262 h -10.4964 l -4.5245,-14.10203 -4.5243,14.10203 h -10.49649 l 7.28539,-22.35262 -17.31316,8.65436 z"
           id="path919"
           inkscape:connector-curvature="0"
           inkscape:export-filename="/home/krother/Desktop/TLI_pictures/green.png"
           inkscape:export-xdpi="150.87215"
           inkscape:export-ydpi="150.87215"
           sodipodi:nodetypes="ssssscccccccccccccc" />
      </g>
    </g>
    <g
       transform="translate(-313.14729,464.67017)"
       id="g943">
      <rect
         y="499.80875"
         x="898.02563"
         height="27.274118"
         width="136.37059"
         id="rect925"
         style="opacity:1;fill:#cccccc;fill-opacity:1;stroke:#000000;stroke-width:1;stroke-linecap:round;stroke-linejoin:miter;stroke-miterlimit:4;stroke-dasharray:none;stroke-dashoffset:0;stroke-opacity:1" />
      <flowRoot
         transform="translate(810.83105,331.45459)"
         style="font-style:normal;font-weight:normal;line-height:0.01%;font-family:sans-serif;letter-spacing:0px;word-spacing:0px;fill:#000000;fill-opacity:1;stroke:none"
         id="flowRoot933"
         xml:space="preserve"><flowRegion
           id="flowRegion929"
           style="font-family:sans-serif"><rect
             y="169.50504"
             x="117.14286"
             height="78.571426"
             width="204.28572"
             id="rect927"
             style="font-family:sans-serif" /></flowRegion><flowPara
           style="font-size:20px;line-height:1.25;font-family:sans-serif"
           id="flowPara931">group 1</flowPara></flowRoot>      <g
         transform="matrix(0.791481,0,0,0.791481,204.89085,91.662539)"
         id="g941">
        <path
           sodipodi:nodetypes="ssssscccccccccccccc"
           inkscape:export-ydpi="150.87215"
           inkscape:export-xdpi="150.87215"
           inkscape:export-filename="/home/krother/Desktop/TLI_pictures/green.png"
           inkscape:connector-curvature="0"
           id="path935"
           d="m 1013.8145,462.18003 c 3.9359,0 7.1276,3.19178 7.1276,7.12759 0,3.93582 -3.1918,7.1276 -7.1277,7.1276 -3.9357,0 -7.1229,-3.19178 -7.1229,-7.1276 0,-3.93581 3.1872,-7.12759 7.123,-7.12759 z m -25.04866,29.93492 21.35496,-14.9976 h 7.4849 l 21.2574,14.9976 v 8.80283 l -17.3132,-8.65436 7.2854,22.35262 h -10.4964 l -4.5245,-14.10203 -4.5243,14.10203 h -10.49649 l 7.28539,-22.35262 -17.31316,8.65436 z"
           style="fill:#ff6600;fill-opacity:1;stroke:#000000;stroke-width:0.85255301" />
        <path
           style="fill:#ff6600;fill-opacity:1;stroke:#000000;stroke-width:0.85255301"
           d="m 957.65627,462.18003 c 3.9359,0 7.1276,3.19178 7.1276,7.12759 0,3.93582 -3.1918,7.1276 -7.1277,7.1276 -3.9357,0 -7.1229,-3.19178 -7.1229,-7.1276 0,-3.93581 3.1872,-7.12759 7.123,-7.12759 z m -25.04866,29.93492 21.35496,-14.9976 h 7.4849 l 21.2574,14.9976 v 8.80283 l -17.3132,-8.65436 7.2854,22.35262 h -10.4964 l -4.5245,-14.10203 -4.5243,14.10203 h -10.49649 l 7.28539,-22.35262 -17.31316,8.65436 z"
           id="path937"
           inkscape:connector-curvature="0"
           inkscape:export-filename="/home/krother/Desktop/TLI_pictures/green.png"
           inkscape:export-xdpi="150.87215"
           inkscape:export-ydpi="150.87215"
           sodipodi:nodetypes="ssssscccccccccccccc" />
        <path
           sodipodi:nodetypes="ssssscccccccccccccc"
           inkscape:export-ydpi="150.87215"
           inkscape:export-xdpi="150.87215"
           inkscape:export-filename="/home/krother/Desktop/TLI_pictures/green.png"
           inkscape:connector-curvature="0"
           id="path939"
           d="m 901.49815,462.18003 c 3.9359,0 7.1276,3.19178 7.1276,7.12759 0,3.93582 -3.1918,7.1276 -7.1277,7.1276 -3.9357,0 -7.1229,-3.19178 -7.1229,-7.1276 0,-3.93581 3.1872,-7.12759 7.123,-7.12759 z m -25.04866,29.93492 21.35496,-14.9976 h 7.4849 l 21.2574,14.9976 v 8.80283 l -17.3132,-8.65436 7.2854,22.35262 h -10.4964 l -4.5245,-14.10203 -4.5243,14.10203 h -10.49649 l 7.28539,-22.35262 -17.31316,8.65436 z"
           style="fill:#ff6600;fill-opacity:1;stroke:#000000;stroke-width:0.85255301"
           inkscape:transform-center-x="-45.456864" />
      </g>
    </g>
    <g
       id="g963"
       transform="translate(-550.53314,464.67017)">
      <rect
         style="opacity:1;fill:#cccccc;fill-opacity:1;stroke:#000000;stroke-width:1;stroke-linecap:round;stroke-linejoin:miter;stroke-miterlimit:4;stroke-dasharray:none;stroke-dashoffset:0;stroke-opacity:1"
         id="rect945"
         width="136.37059"
         height="27.274118"
         x="898.02563"
         y="499.80875" />
      <flowRoot
         xml:space="preserve"
         id="flowRoot953"
         style="font-style:normal;font-weight:normal;line-height:0.01%;font-family:sans-serif;letter-spacing:0px;word-spacing:0px;fill:#000000;fill-opacity:1;stroke:none"
         transform="translate(810.83105,331.45459)"><flowRegion
           style="font-family:sans-serif"
           id="flowRegion949"><rect
             style="font-family:sans-serif"
             id="rect947"
             width="204.28572"
             height="78.571426"
             x="117.14286"
             y="169.50504" /></flowRegion><flowPara
           id="flowPara951"
           style="font-size:20px;line-height:1.25;font-family:sans-serif">group 3</flowPara></flowRoot>      <g
         id="g961"
         transform="matrix(0.791481,0,0,0.791481,204.89085,91.662539)">
        <path
           style="fill:#ff6600;fill-opacity:1;stroke:#000000;stroke-width:0.85255301"
           d="m 1013.8145,462.18003 c 3.9359,0 7.1276,3.19178 7.1276,7.12759 0,3.93582 -3.1918,7.1276 -7.1277,7.1276 -3.9357,0 -7.1229,-3.19178 -7.1229,-7.1276 0,-3.93581 3.1872,-7.12759 7.123,-7.12759 z m -25.04866,29.93492 21.35496,-14.9976 h 7.4849 l 21.2574,14.9976 v 8.80283 l -17.3132,-8.65436 7.2854,22.35262 h -10.4964 l -4.5245,-14.10203 -4.5243,14.10203 h -10.49649 l 7.28539,-22.35262 -17.31316,8.65436 z"
           id="path955"
           inkscape:connector-curvature="0"
           inkscape:export-filename="/home/krother/Desktop/TLI_pictures/green.png"
           inkscape:export-xdpi="150.87215"
           inkscape:export-ydpi="150.87215"
           sodipodi:nodetypes="ssssscccccccccccccc" />
        <path
           sodipodi:nodetypes="ssssscccccccccccccc"
           inkscape:export-ydpi="150.87215"
           inkscape:export-xdpi="150.87215"
           inkscape:export-filename="/home/krother/Desktop/TLI_pictures/green.png"
           inkscape:connector-curvature="0"
           id="path957"
           d="m 957.65627,462.18003 c 3.9359,0 7.1276,3.19178 7.1276,7.12759 0,3.93582 -3.1918,7.1276 -7.1277,7.1276 -3.9357,0 -7.1229,-3.19178 -7.1229,-7.1276 0,-3.93581 3.1872,-7.12759 7.123,-7.12759 z m -25.04866,29.93492 21.35496,-14.9976 h 7.4849 l 21.2574,14.9976 v 8.80283 l -17.3132,-8.65436 7.2854,22.35262 h -10.4964 l -4.5245,-14.10203 -4.5243,14.10203 h -10.49649 l 7.28539,-22.35262 -17.31316,8.65436 z"
           style="fill:#ff6600;fill-opacity:1;stroke:#000000;stroke-width:0.85255301" />
        <path
           inkscape:transform-center-x="-45.456864"
           style="fill:#ff6600;fill-opacity:1;stroke:#000000;stroke-width:0.85255301"
           d="m 901.49815,462.18003 c 3.9359,0 7.1276,3.19178 7.1276,7.12759 0,3.93582 -3.1918,7.1276 -7.1277,7.1276 -3.9357,0 -7.1229,-3.19178 -7.1229,-7.1276 0,-3.93581 3.1872,-7.12759 7.123,-7.12759 z m -25.04866,29.93492 21.35496,-14.9976 h 7.4849 l 21.2574,14.9976 v 8.80283 l -17.3132,-8.65436 7.2854,22.35262 h -10.4964 l -4.5245,-14.10203 -4.5243,14.10203 h -10.49649 l 7.28539,-22.35262 -17.31316,8.65436 z"
           id="path959"
           inkscape:connector-curvature="0"
           inkscape:export-filename="/home/krother/Desktop/TLI_pictures/green.png"
           inkscape:export-xdpi="150.87215"
           inkscape:export-ydpi="150.87215"
           sodipodi:nodetypes="ssssscccccccccccccc" />
      </g>
    </g>
    <g
       transform="translate(-700.03572,464.67017)"
       id="g983">
      <rect
         y="499.80875"
         x="898.02563"
         height="27.274118"
         width="136.37059"
         id="rect965"
         style="opacity:1;fill:#cccccc;fill-opacity:1;stroke:#000000;stroke-width:1;stroke-linecap:round;stroke-linejoin:miter;stroke-miterlimit:4;stroke-dasharray:none;stroke-dashoffset:0;stroke-opacity:1" />
      <flowRoot
         transform="translate(810.83105,331.45459)"
         style="font-style:normal;font-weight:normal;line-height:0.01%;font-family:sans-serif;letter-spacing:0px;word-spacing:0px;fill:#000000;fill-opacity:1;stroke:none"
         id="flowRoot973"
         xml:space="preserve"><flowRegion
           id="flowRegion969"
           style="font-family:sans-serif"><rect
             y="169.50504"
             x="117.14286"
             height="78.571426"
             width="204.28572"
             id="rect967"
             style="font-family:sans-serif" /></flowRegion><flowPara
           style="font-size:20px;line-height:1.25;font-family:sans-serif"
           id="flowPara971">group 2</flowPara></flowRoot>      <g
         transform="matrix(0.791481,0,0,0.791481,204.89085,91.662539)"
         id="g981">
        <path
           sodipodi:nodetypes="ssssscccccccccccccc"
           inkscape:export-ydpi="150.87215"
           inkscape:export-xdpi="150.87215"
           inkscape:export-filename="/home/krother/Desktop/TLI_pictures/green.png"
           inkscape:connector-curvature="0"
           id="path975"
           d="m 1013.8145,462.18003 c 3.9359,0 7.1276,3.19178 7.1276,7.12759 0,3.93582 -3.1918,7.1276 -7.1277,7.1276 -3.9357,0 -7.1229,-3.19178 -7.1229,-7.1276 0,-3.93581 3.1872,-7.12759 7.123,-7.12759 z m -25.04866,29.93492 21.35496,-14.9976 h 7.4849 l 21.2574,14.9976 v 8.80283 l -17.3132,-8.65436 7.2854,22.35262 h -10.4964 l -4.5245,-14.10203 -4.5243,14.10203 h -10.49649 l 7.28539,-22.35262 -17.31316,8.65436 z"
           style="fill:#ff6600;fill-opacity:1;stroke:#000000;stroke-width:0.85255301" />
        <path
           style="fill:#ff6600;fill-opacity:1;stroke:#000000;stroke-width:0.85255301"
           d="m 957.65627,462.18003 c 3.9359,0 7.1276,3.19178 7.1276,7.12759 0,3.93582 -3.1918,7.1276 -7.1277,7.1276 -3.9357,0 -7.1229,-3.19178 -7.1229,-7.1276 0,-3.93581 3.1872,-7.12759 7.123,-7.12759 z m -25.04866,29.93492 21.35496,-14.9976 h 7.4849 l 21.2574,14.9976 v 8.80283 l -17.3132,-8.65436 7.2854,22.35262 h -10.4964 l -4.5245,-14.10203 -4.5243,14.10203 h -10.49649 l 7.28539,-22.35262 -17.31316,8.65436 z"
           id="path977"
           inkscape:connector-curvature="0"
           inkscape:export-filename="/home/krother/Desktop/TLI_pictures/green.png"
           inkscape:export-xdpi="150.87215"
           inkscape:export-ydpi="150.87215"
           sodipodi:nodetypes="ssssscccccccccccccc" />
        <path
           sodipodi:nodetypes="ssssscccccccccccccc"
           inkscape:export-ydpi="150.87215"
           inkscape:export-xdpi="150.87215"
           inkscape:export-filename="/home/krother/Desktop/TLI_pictures/green.png"
           inkscape:connector-curvature="0"
           id="path979"
           d="m 901.49815,462.18003 c 3.9359,0 7.1276,3.19178 7.1276,7.12759 0,3.93582 -3.1918,7.1276 -7.1277,7.1276 -3.9357,0 -7.1229,-3.19178 -7.1229,-7.1276 0,-3.93581 3.1872,-7.12759 7.123,-7.12759 z m -25.04866,29.93492 21.35496,-14.9976 h 7.4849 l 21.2574,14.9976 v 8.80283 l -17.3132,-8.65436 7.2854,22.35262 h -10.4964 l -4.5245,-14.10203 -4.5243,14.10203 h -10.49649 l 7.28539,-22.35262 -17.31316,8.65436 z"
           style="fill:#ff6600;fill-opacity:1;stroke:#000000;stroke-width:0.85255301"
           inkscape:transform-center-x="-45.456864" />
      </g>
    </g>
    <g
       id="g1003"
       transform="translate(-849.53829,464.67017)">
      <rect
         style="opacity:1;fill:#cccccc;fill-opacity:1;stroke:#000000;stroke-width:1;stroke-linecap:round;stroke-linejoin:miter;stroke-miterlimit:4;stroke-dasharray:none;stroke-dashoffset:0;stroke-opacity:1"
         id="rect985"
         width="136.37059"
         height="27.274118"
         x="898.02563"
         y="499.80875" />
      <flowRoot
         xml:space="preserve"
         id="flowRoot993"
         style="font-style:normal;font-weight:normal;line-height:0.01%;font-family:sans-serif;letter-spacing:0px;word-spacing:0px;fill:#000000;fill-opacity:1;stroke:none"
         transform="translate(810.83105,331.45459)"><flowRegion
           style="font-family:sans-serif"
           id="flowRegion989"><rect
             style="font-family:sans-serif"
             id="rect987"
             width="204.28572"
             height="78.571426"
             x="117.14286"
             y="169.50504" /></flowRegion><flowPara
           id="flowPara991"
           style="font-size:20px;line-height:1.25;font-family:sans-serif">group 1</flowPara></flowRoot>      <g
         id="g1001"
         transform="matrix(0.791481,0,0,0.791481,204.89085,91.662539)">
        <path
           style="fill:#ff6600;fill-opacity:1;stroke:#000000;stroke-width:0.85255301"
           d="m 1013.8145,462.18003 c 3.9359,0 7.1276,3.19178 7.1276,7.12759 0,3.93582 -3.1918,7.1276 -7.1277,7.1276 -3.9357,0 -7.1229,-3.19178 -7.1229,-7.1276 0,-3.93581 3.1872,-7.12759 7.123,-7.12759 z m -25.04866,29.93492 21.35496,-14.9976 h 7.4849 l 21.2574,14.9976 v 8.80283 l -17.3132,-8.65436 7.2854,22.35262 h -10.4964 l -4.5245,-14.10203 -4.5243,14.10203 h -10.49649 l 7.28539,-22.35262 -17.31316,8.65436 z"
           id="path995"
           inkscape:connector-curvature="0"
           inkscape:export-filename="/home/krother/Desktop/TLI_pictures/green.png"
           inkscape:export-xdpi="150.87215"
           inkscape:export-ydpi="150.87215"
           sodipodi:nodetypes="ssssscccccccccccccc" />
        <path
           sodipodi:nodetypes="ssssscccccccccccccc"
           inkscape:export-ydpi="150.87215"
           inkscape:export-xdpi="150.87215"
           inkscape:export-filename="/home/krother/Desktop/TLI_pictures/green.png"
           inkscape:connector-curvature="0"
           id="path997"
           d="m 957.65627,462.18003 c 3.9359,0 7.1276,3.19178 7.1276,7.12759 0,3.93582 -3.1918,7.1276 -7.1277,7.1276 -3.9357,0 -7.1229,-3.19178 -7.1229,-7.1276 0,-3.93581 3.1872,-7.12759 7.123,-7.12759 z m -25.04866,29.93492 21.35496,-14.9976 h 7.4849 l 21.2574,14.9976 v 8.80283 l -17.3132,-8.65436 7.2854,22.35262 h -10.4964 l -4.5245,-14.10203 -4.5243,14.10203 h -10.49649 l 7.28539,-22.35262 -17.31316,8.65436 z"
           style="fill:#ff6600;fill-opacity:1;stroke:#000000;stroke-width:0.85255301" />
        <path
           inkscape:transform-center-x="-45.456864"
           style="fill:#ff6600;fill-opacity:1;stroke:#000000;stroke-width:0.85255301"
           d="m 901.49815,462.18003 c 3.9359,0 7.1276,3.19178 7.1276,7.12759 0,3.93582 -3.1918,7.1276 -7.1277,7.1276 -3.9357,0 -7.1229,-3.19178 -7.1229,-7.1276 0,-3.93581 3.1872,-7.12759 7.123,-7.12759 z m -25.04866,29.93492 21.35496,-14.9976 h 7.4849 l 21.2574,14.9976 v 8.80283 l -17.3132,-8.65436 7.2854,22.35262 h -10.4964 l -4.5245,-14.10203 -4.5243,14.10203 h -10.49649 l 7.28539,-22.35262 -17.31316,8.65436 z"
           id="path999"
           inkscape:connector-curvature="0"
           inkscape:export-filename="/home/krother/Desktop/TLI_pictures/green.png"
           inkscape:export-xdpi="150.87215"
           inkscape:export-ydpi="150.87215"
           sodipodi:nodetypes="ssssscccccccccccccc" />
      </g>
    </g>
  </g>
</svg>
