<?xml version="1.0" encoding="UTF-8" standalone="no"?>
<!-- Created with Inkscape (http://www.inkscape.org/) -->

<svg
   xmlns:dc="http://purl.org/dc/elements/1.1/"
   xmlns:cc="http://creativecommons.org/ns#"
   xmlns:rdf="http://www.w3.org/1999/02/22-rdf-syntax-ns#"
   xmlns:svg="http://www.w3.org/2000/svg"
   xmlns="http://www.w3.org/2000/svg"
   xmlns:sodipodi="http://sodipodi.sourceforge.net/DTD/sodipodi-0.dtd"
   xmlns:inkscape="http://www.inkscape.org/namespaces/inkscape"
   width="105mm"
   height="55mm"
   viewBox="0 0 105 55"
   version="1.1"
   id="svg3505"
   inkscape:version="0.92.2 (5c3e80d, 2017-08-06)"
   sodipodi:docname="intro_ball.svg">
  <defs
     id="defs3499" />
  <sodipodi:namedview
     id="base"
     pagecolor="#ffffff"
     bordercolor="#666666"
     borderopacity="1.0"
     inkscape:pageopacity="0.0"
     inkscape:pageshadow="2"
     inkscape:zoom="0.98994949"
     inkscape:cx="89.385993"
     inkscape:cy="67.169391"
     inkscape:document-units="mm"
     inkscape:current-layer="g4265"
     showgrid="false"
     inkscape:object-nodes="false"
     inkscape:window-width="1533"
     inkscape:window-height="845"
     inkscape:window-x="67"
     inkscape:window-y="27"
     inkscape:window-maximized="1" />
  <metadata
     id="metadata3502">
    <rdf:RDF>
      <cc:Work
         rdf:about="">
        <dc:format>image/svg+xml</dc:format>
        <dc:type
           rdf:resource="http://purl.org/dc/dcmitype/StillImage" />
        <dc:title></dc:title>
      </cc:Work>
    </rdf:RDF>
  </metadata>
  <g
     inkscape:label="Layer 1"
     inkscape:groupmode="layer"
     id="layer1"
     transform="translate(0,-242)">
    <path
       style="fill:none;stroke:#000000;stroke-width:0.50332832;stroke-linecap:butt;stroke-linejoin:miter;stroke-miterlimit:4;stroke-dasharray:2.01331333, 2.01331333;stroke-dashoffset:0;stroke-opacity:1"
       d="m 33.89835,271.70586 c 15.25813,-13.60696 25.327276,-6.74132 36.052517,1.34523"
       id="path4269"
       inkscape:connector-curvature="0"
       sodipodi:nodetypes="cc" />
    <rect
       style="fill:#b3b3b3;fill-opacity:1;stroke:none;stroke-width:0.56434375;stroke-miterlimit:4;stroke-dasharray:none;stroke-opacity:1"
       id="rect3707"
       width="105.46706"
       height="11.838142"
       x="0.26726952"
       y="285.69638" />
    <path
       inkscape:export-ydpi="149.99072"
       inkscape:export-xdpi="149.99072"
       inkscape:export-filename="/home/krother/Desktop/lehre/Teaching/pictures/teaching.png"
       inkscape:connector-curvature="0"
       id="path3070"
       d="m 21.43393,265.8075 c -1.988086,0 -3.600337,1.61225 -3.600337,3.60032 0,1.98808 1.612251,3.60035 3.600337,3.60035 1.988076,0 3.597987,-1.61227 3.597987,-3.60035 0,-1.98807 -1.609911,-3.60032 -3.597987,-3.60032 z m 14.384927,3.90738 -7.553789,2.88603 -4.96534,0.75182 h -3.780826 c 0,0 -1.205274,0.0898 -1.770747,1.01221 -0.565473,0.92235 -0.187309,3.33958 -0.215646,4.4465 -0.02834,1.10693 -0.006,2.192 -0.006,2.192 l -3.680025,11.29089 h 5.302055 l 1.818918,-7.12332 1.666565,6.97096 h 4.697312 l -2.990525,-11.43626 6.106087,-4.3225 3.118785,-3.21481 -7.656232,3.53227 -2.250056,0.31116 10.637475,-4.99471 z"
       style="fill:#80b940;fill-opacity:1;stroke:#000000;stroke-width:0.41817096"
       sodipodi:nodetypes="ssssscccczzccccccccccccc" />
    <g
       id="g4265"
       transform="translate(0,193.50313)">
      <path
         sodipodi:nodetypes="ssssssss"
         inkscape:connector-curvature="0"
         id="path3709"
         d="m 54.590374,61.679315 c 0,3.714786 -5.661486,6.726216 -12.645285,6.726216 -2.379736,0 -4.605937,-0.349662 -6.506923,-0.957664 -0.777262,-0.248596 -6.351432,3.930403 -7.008222,3.601672 -0.506382,-0.253451 3.877807,-4.999647 3.455391,-5.294162 -1.622161,-1.130995 -2.585532,-2.543687 -2.585532,-4.076062 -1e-6,-3.714787 5.661487,-6.726216 12.645286,-6.726216 6.983799,-1e-6 12.645285,3.011429 12.645285,6.726216 z"
         style="fill:#b3d789;fill-opacity:1;stroke:#000000;stroke-width:0.50332832;stroke-miterlimit:4;stroke-dasharray:none;stroke-opacity:1" />
      <text
         xml:space="preserve"
         style="font-style:normal;font-weight:normal;font-size:2.50902557px;line-height:0.01%;font-family:sans-serif;letter-spacing:0px;word-spacing:0px;fill:#000000;fill-opacity:1;stroke:none;stroke-width:0.20908548"
         x="34.388908"
         y="60.955502"
         id="text4300"><tspan
           sodipodi:role="line"
           x="34.388908"
           y="60.955502"
           id="tspan4294"
           style="stroke-width:0.20908548"><tspan
             x="34.388908"
             y="60.955502"
             style="font-style:italic;font-weight:normal;font-size:2.9271965px;line-height:1.25;font-family:sans-serif;-inkscape-font-specification:'Sans Bold';stroke-width:0.20908548"
             id="tspan4290">from Matt</tspan><tspan
             dx="0"
             x="48.819073"
             y="60.955502"
             style="font-style:italic;font-weight:normal;font-size:2.9271965px;line-height:1.25;font-family:sans-serif;-inkscape-font-specification:'Sans Bold';stroke-width:0.20908548"
             id="tspan4292" /></tspan><tspan
           sodipodi:role="line"
           x="34.388908"
           y="64.614494"
           id="tspan4298"
           style="stroke-width:0.20908548"><tspan
             x="34.388908"
             y="64.614494"
             style="font-style:italic;font-weight:normal;font-size:2.9271965px;line-height:1.25;font-family:sans-serif;-inkscape-font-specification:'Sans Bold';stroke-width:0.20908548"
             id="tspan4296">to Harry</tspan></tspan></text>
      <flowRoot
         xml:space="preserve"
         id="flowRoot4302"
         style="font-style:normal;font-weight:normal;font-size:40px;line-height:1.25;font-family:sans-serif;letter-spacing:0px;word-spacing:0px;fill:#000000;fill-opacity:1;stroke:none"
         transform="matrix(0.26458333,0,0,0.26458333,0,-6.50313)"><flowRegion
           id="flowRegion4304"><rect
             id="rect4306"
             width="1286.9343"
             height="749.5332"
             x="-256.57874"
             y="-186.3029" /></flowRegion><flowPara
           id="flowPara4308"></flowPara></flowRoot>      <flowRoot
         xml:space="preserve"
         id="flowRoot4310"
         style="fill:black;fill-opacity:1;stroke:none;font-family:sans-serif;font-style:normal;font-weight:normal;font-size:40px;line-height:1.25;letter-spacing:0px;word-spacing:0px"><flowRegion
           id="flowRegion4312"><rect
             id="rect4314"
             width="1222.2845"
             height="806.10175"
             x="-248.49753"
             y="-422.46118" /></flowRegion><flowPara
           id="flowPara4316"></flowPara></flowRoot>    </g>
    <path
       sodipodi:nodetypes="sssssccccczzccccccccccccc"
       style="fill:#80b940;fill-opacity:1;stroke:#000000;stroke-width:0.41817096"
       d="m 84.035238,265.8075 c 1.988086,0 3.600337,1.61225 3.600337,3.60032 0,1.98808 -1.612251,3.60035 -3.600337,3.60035 -1.988076,0 -3.597987,-1.61227 -3.597987,-3.60035 0,-1.98807 1.609911,-3.60032 3.597987,-3.60032 z m -14.519452,7.13597 4.997823,1.27173 4.877736,0.39216 2.778095,-1.25463 h 3.780826 c 0,0 1.20527,0.0898 1.770744,1.01221 0.565474,0.92235 0.187309,3.33958 0.215646,4.4465 0.02834,1.10693 0.006,2.192 0.006,2.192 l 3.680025,11.29089 h -5.302055 l -1.818918,-7.12332 -1.666565,6.97096 h -4.697312 l 2.990525,-11.43626 -7.854901,-1.63202 -2.715216,-2.81123 4.293129,1.5144 6.958404,-0.76503 -9.292226,-1.76612 z"
       id="path3705"
       inkscape:connector-curvature="0"
       inkscape:export-filename="/home/krother/Desktop/lehre/Teaching/pictures/teaching.png"
       inkscape:export-xdpi="149.99072"
       inkscape:export-ydpi="149.99072" />
    <circle
       style="fill:#b3d789;fill-opacity:1;stroke:#000000;stroke-width:0.43226078;stroke-miterlimit:4;stroke-dasharray:none;stroke-opacity:1"
       id="path4267"
       cx="58.583557"
       cy="265.45047"
       r="3.4659038" />
  </g>
</svg>
