<?xml version="1.0" encoding="UTF-8" standalone="no"?>
<!-- Created with Inkscape (http://www.inkscape.org/) -->

<svg
   xmlns:dc="http://purl.org/dc/elements/1.1/"
   xmlns:cc="http://creativecommons.org/ns#"
   xmlns:rdf="http://www.w3.org/1999/02/22-rdf-syntax-ns#"
   xmlns:svg="http://www.w3.org/2000/svg"
   xmlns="http://www.w3.org/2000/svg"
   xmlns:sodipodi="http://sodipodi.sourceforge.net/DTD/sodipodi-0.dtd"
   xmlns:inkscape="http://www.inkscape.org/namespaces/inkscape"
   width="90mm"
   height="40mm"
   viewBox="0 0 90 40"
   version="1.1"
   id="svg3270"
   inkscape:version="0.92.5 (2060ec1f9f, 2020-04-08)"
   sodipodi:docname="pingu.svg"
   inkscape:export-filename="/home/kristian/projects/online_teaching_survival_guide/images/pingu.png"
   inkscape:export-xdpi="149.22499"
   inkscape:export-ydpi="149.22499">
  <defs
     id="defs3264" />
  <sodipodi:namedview
     id="base"
     pagecolor="#ffffff"
     bordercolor="#666666"
     borderopacity="1.0"
     inkscape:pageopacity="0.0"
     inkscape:pageshadow="2"
     inkscape:zoom="1.979899"
     inkscape:cx="10.96809"
     inkscape:cy="122.3855"
     inkscape:document-units="mm"
     inkscape:current-layer="layer1"
     showgrid="false"
     inkscape:window-width="1848"
     inkscape:window-height="1016"
     inkscape:window-x="72"
     inkscape:window-y="27"
     inkscape:window-maximized="1" />
  <metadata
     id="metadata3267">
    <rdf:RDF>
      <cc:Work
         rdf:about="">
        <dc:format>image/svg+xml</dc:format>
        <dc:type
           rdf:resource="http://purl.org/dc/dcmitype/StillImage" />
        <dc:title />
      </cc:Work>
    </rdf:RDF>
  </metadata>
  <g
     inkscape:label="Layer 1"
     inkscape:groupmode="layer"
     id="layer1"
     transform="translate(0,-257)">
    <path
       style="fill:#ffffff;fill-opacity:0.50196078;stroke:#000000;stroke-width:0.5;stroke-linecap:round;stroke-linejoin:round;stroke-miterlimit:4;stroke-dasharray:none;stroke-dashoffset:0;stroke-opacity:1"
       d="m 40.001108,263.06042 h 32.878634 c 1.526488,0 2.755394,1.22891 2.755394,2.7554 v 10.89958 c 0,1.52649 -1.228906,2.75539 -2.755394,2.75539 H 40.001108 c -1.526488,0 -2.755393,-1.2289 -2.755393,-2.75539 v -1.79597 l -4.819196,-0.0472 4.819196,-7.37054 v -1.68582 c 0,-1.52649 1.228905,-2.7554 2.755393,-2.7554 z"
       id="rect3831"
       inkscape:connector-curvature="0"
       sodipodi:nodetypes="csssssscccssc" />
    <g
       id="g3857"
       transform="translate(0.01567897,1.1387222)">
      <flowRoot
         transform="matrix(0.26458333,0,0,0.26458333,2.3623512,-3.7797619)"
         style="font-style:normal;font-weight:normal;font-size:40px;line-height:1.25;font-family:sans-serif;letter-spacing:0px;word-spacing:0px;fill:#000000;fill-opacity:1;stroke:none"
         id="flowRoot3833"
         xml:space="preserve"><flowRegion
           id="flowRegion3835"><rect
             y="993.23395"
             x="150.71428"
             height="66.151207"
             width="390.72748"
             id="rect3837" /></flowRegion><flowPara
           style="font-size:16px"
           id="flowPara3839">how was my</flowPara></flowRoot>      <flowRoot
         xml:space="preserve"
         id="flowRoot3847"
         style="font-style:normal;font-weight:normal;font-size:40px;line-height:1.25;font-family:sans-serif;letter-spacing:0px;word-spacing:0px;fill:#000000;fill-opacity:1;stroke:none"
         transform="matrix(0.26458333,0,0,0.26458333,2.3623512,2.0552456)"><flowRegion
           id="flowRegion3843"><rect
             id="rect3841"
             width="390.72748"
             height="66.151207"
             x="150.71428"
             y="993.23395" /></flowRegion><flowPara
           id="flowPara3845"
           style="font-size:16px">bash lesson?</flowPara></flowRoot>    </g>
    <g
       id="g3798"
       inkscape:export-xdpi="37.369999"
       inkscape:export-ydpi="37.369999"
       transform="matrix(0.03635446,0,0,0.03635446,6.2203886,264.04713)">
      <path
         style="fill:#333333;fill-opacity:1;stroke:none;stroke-width:3.20000005;stroke-opacity:1"
         d="m -606.63333,115.06667 c -45.82152,0 -80.05963,32.67045 -82.96667,72.73333 -3.16513,43.61975 10.28462,78.98861 -15.08495,130.93502 -29.41303,34.97406 -72.19424,95.80904 -80.27546,163.19831 -9.23629,77.02143 34.56091,143.42117 101.6114,163.44198 18.59074,5.55106 51.32485,-2.86482 72.96238,-2.86482 27.96761,0 55.12696,7.54984 79.72981,-1.60474 63.08177,-23.47235 96.48575,-86.93779 106.66308,-158.97242 7.86828,-55.69127 -45.52696,-130.84155 -85.65464,-177.89035 -17.46229,-40.91262 -10.75133,-81.15366 -14.01829,-116.24298 0,-40.16821 -37.14515,-72.73333 -82.96666,-72.73333 z"
         id="path3094"
         inkscape:connector-curvature="0"
         sodipodi:nodetypes="sscsssssccs"
         transform="matrix(1.2281624,0,0,1.2281624,1135.6716,-23.74193)" />
      <ellipse
         ry="29.361767"
         rx="19.664303"
         cy="227.38982"
         cx="-660.77448"
         style="fill:#ffffff;stroke:#ffffff;stroke-width:3.20000005;stroke-linecap:round;stroke-miterlimit:4;stroke-dasharray:none;stroke-dashoffset:0;stroke-opacity:1"
         id="path3111"
         transform="matrix(1.2281624,0,0,1.2281624,1135.6716,-23.74193)" />
      <ellipse
         ry="35.826744"
         rx="25.321157"
         cy="228.46732"
         cx="-591.00659"
         style="fill:#ffffff;stroke:#ffffff;stroke-width:3.20000005;stroke-linecap:round;stroke-miterlimit:4;stroke-dasharray:none;stroke-dashoffset:0;stroke-opacity:1"
         id="path3113"
         transform="matrix(1.2281624,0,0,1.2281624,1135.6716,-23.74193)" />
      <ellipse
         ry="15.354319"
         rx="8.0812206"
         cy="237.0873"
         cx="-660.50507"
         style="fill:#000000;fill-opacity:1;stroke:#000000;stroke-width:3.20000005;stroke-linecap:round;stroke-miterlimit:4;stroke-dasharray:none;stroke-dashoffset:0;stroke-opacity:1"
         id="path3115"
         transform="matrix(1.2281624,0,0,1.2281624,1135.6716,-23.74193)" />
      <ellipse
         ry="17.50931"
         rx="12.12183"
         cy="234.9323"
         cx="-594.50848"
         style="fill:#000000;fill-opacity:1;stroke:#000000;stroke-width:3.20000005;stroke-linecap:round;stroke-miterlimit:4;stroke-dasharray:none;stroke-dashoffset:0;stroke-opacity:1"
         id="path3117"
         transform="matrix(1.2281624,0,0,1.2281624,1135.6716,-23.74193)" />
      <path
         style="fill:#cccccc;fill-opacity:1;stroke:#e6e6e6;stroke-width:1.06666672px;stroke-linecap:butt;stroke-linejoin:miter;stroke-opacity:1"
         d="m -731.61982,486.79699 c -1.14606,-40.24262 14.75936,-73.31 33.43391,-106.73424 16.94274,-30.32461 24.51034,-61.59789 26.36713,-83.98256 l 107.21085,-11.3137 30.16989,81.88969 c 15.15817,29.9537 31.33733,60.98355 36.63486,94.28091 2.61217,16.41866 -2.74501,49.79986 -2.74501,49.79986 88.57394,113.9686 -29.08621,-106.70026 12.57223,41.27198 l -57.23704,43.07641 c -38.78193,30.55283 -85.17308,38.27801 -145.46197,4.30999 l -3.23249,-16.16244 c 18.39395,-0.38966 30.51257,-5.96328 16.16245,-33.40238 -38.66674,-34.62021 -55.08029,-42.47968 -53.87481,-63.03352 z"
         id="path3135"
         inkscape:connector-curvature="0"
         sodipodi:nodetypes="cscccaccccccc"
         transform="matrix(1.2281624,0,0,1.2281624,1135.6716,-23.74193)" />
      <path
         sodipodi:nodetypes="sccscccssss"
         inkscape:connector-curvature="0"
         id="path3131"
         d="m -514.79602,495.08882 c 16.8726,-6.83334 24.58031,-1.54533 46.77927,13.51301 16.88458,3.57479 44.30396,-6.60229 54.16744,15.63573 4.43443,10.94929 1.79638,15.91613 5.53341,23.55698 8.81412,18.02165 11.61605,19.33941 19.87021,37.92974 5.23775,12.93281 -5.67696,21.24696 -23.1602,28.32761 -19.75359,9.41135 -24.69296,12.69882 -41.71048,27.80716 -27.19213,34.36318 -55.09423,44.44019 -84.29035,25.42108 -6.91683,-4.5058 -13.52174,-16.12246 -14.02107,-24.13593 -1.84533,-29.61512 16.33854,-57.57975 15.18244,-86.97783 -1.06493,-27.07938 4.77674,-54.2442 21.64933,-61.07755 z"
         style="fill:#ff9955;fill-opacity:1;stroke:#000000;stroke-width:3.20000005;stroke-linecap:round;stroke-miterlimit:4;stroke-dasharray:none;stroke-dashoffset:0;stroke-opacity:1"
         transform="matrix(1.2281624,0,0,1.2281624,1135.6716,-23.74193)" />
      <ellipse
         ry="63.84164"
         rx="84.044693"
         cy="435.34656"
         cx="-621.17651"
         style="fill:#ffffff;stroke:#ffffff;stroke-width:3.20000005;stroke-linecap:round;stroke-miterlimit:4;stroke-dasharray:none;stroke-dashoffset:0;stroke-opacity:1"
         id="path3137"
         transform="matrix(1.2281624,0,0,1.2281624,1135.6716,-23.74193)" />
      <path
         style="fill:#ff9955;fill-opacity:1;stroke:#000000;stroke-width:4.26666689;stroke-linecap:butt;stroke-linejoin:miter;stroke-opacity:1"
         d="m -683.67124,272.37527 c 0.79016,-7.89885 14.03776,-15.28486 20.47242,-19.93367 6.5002,-4.69616 12.3187,-10.95504 19.93368,-13.46869 7.85188,-2.59186 17.50467,-5.00235 24.78241,-1.07751 13.42369,7.23932 36.67274,13.31769 45.25484,20.47243 7.04958,5.87711 15.11871,9.94292 12.92995,18.85618 -2.92351,11.90538 -19.43202,18.32901 -30.16989,24.24366 -11.53762,6.35516 -22.3855,17.32024 -35.55738,17.23994 -11.24344,-0.0686 -20.61465,-9.15896 -30.16988,-15.08494 -10.80783,-6.70283 -28.8673,-17.34088 -27.47615,-31.2474 z"
         id="path3090"
         inkscape:connector-curvature="0"
         sodipodi:nodetypes="ssssssssss"
         transform="matrix(1.2281624,0,0,1.2281624,1135.6716,-23.74193)" />
      <path
         style="fill:none;stroke:#000000;stroke-width:4.26666689;stroke-linecap:butt;stroke-linejoin:miter;stroke-opacity:1"
         d="m -673.43503,273.99152 c 44.38379,42.92451 67.74985,12.28693 95.89715,-1.61625"
         id="path3109"
         inkscape:connector-curvature="0"
         sodipodi:nodetypes="cc"
         transform="matrix(1.2281624,0,0,1.2281624,1135.6716,-23.74193)" />
      <path
         style="fill:#ff9955;fill-opacity:1;stroke:#000000;stroke-width:3.20000005;stroke-linecap:round;stroke-miterlimit:4;stroke-dasharray:none;stroke-dashoffset:0;stroke-opacity:1"
         d="m -766.09915,494.77292 c -18.20382,0 -17.55099,9.94537 -35.66041,29.73418 -11.65163,12.73215 -40.60181,11.77859 -41.39628,36.0929 0,11.81318 4.60144,15.23678 4.00592,23.72166 -1.40459,20.0124 -4.32838,17.38696 -5.0005,37.71624 0,13.95319 12.57695,23.07835 31.43959,23.07835 23.1252,-2.69927 30.23322,-2.07365 51.79746,10.14331 38.10284,21.64287 71.45212,21.38959 91.37378,-7.1983 4.71962,-6.77274 3.41849,-24.81592 -0.44761,-31.85284 -14.46757,-26.33328 -40.68071,-57.16239 -51.29283,-79.31011 -11.7103,-24.43963 -26.6153,-42.12539 -44.81912,-42.12539 z"
         id="path3119"
         inkscape:connector-curvature="0"
         sodipodi:nodetypes="sscscccssss"
         transform="matrix(1.2281624,0,0,1.2281624,1135.6716,-23.74193)" />
      <text
         clip-path="none"
         id="text3147"
         y="173.50133"
         x="-1.6662292"
         style="font-style:normal;font-weight:normal;font-size:12.80000019px;line-height:0%;font-family:sans-serif;letter-spacing:0px;word-spacing:0px;fill:#000000;fill-opacity:1;stroke:none;stroke-width:1.06666672"
         xml:space="preserve"><tspan
           style="font-size:42.66666794px;line-height:1.25;font-family:sans-serif;stroke-width:1.06666672"
           y="173.50133"
           x="-1.6662292"
           id="tspan3149"
           sodipodi:role="line"> </tspan><tspan
           style="font-size:42.66666794px;line-height:1.25;font-family:sans-serif;stroke-width:1.06666672"
           y="226.83466"
           x="-1.6662292"
           id="tspan3151"
           sodipodi:role="line"> </tspan></text>
    </g>
  </g>
</svg>
