<svg xmlns="http://www.w3.org/2000/svg" xmlns:xlink="http://www.w3.org/1999/xlink" version="1.1" x="0px" y="0px" viewBox="0 0 100 100" style="enable-background:new 0 0 100 100;" xml:space="preserve"><path d="M11,81.4882812h4.2163086v3.8359375C15.2163086,87.9023438,17.3325195,90,19.9335938,90  c2.6015625,0,4.7177734-2.0976562,4.7177734-4.6757812v-3.8359375h4.2158203c0.5522461,0,1-0.4477539,1-1v-6.5  c0-0.5522461-0.4477539-1-1-1H27.996582v-1.5898438H72.003418v1.5898438h-0.8710938c-0.5522461,0-1,0.4477539-1,1v6.5  c0,0.5522461,0.4477539,1,1,1h4.2163086v3.8359375C75.3486328,87.9023438,77.4648438,90,80.0664062,90  c2.6010742,0,4.7172852-2.0976562,4.7172852-4.6757812v-3.8359375H89c0.5522461,0,1-0.4477539,1-1v-6.5c0-0.5522461-0.4477539-1-1-1  h-0.8710938V26.7314453H89c0.5522461,0,1-0.4477539,1-1v-6.5c0-0.5522461-0.4477539-1-1-1h-4.2163086v-3.5556641  C84.7836914,12.0976562,82.6674805,10,80.0664062,10c-2.6015625,0-4.7177734,2.0976562-4.7177734,4.6757812v3.5556641h-4.2163086  c-0.5522461,0-1,0.4477539-1,1v6.5c0,0.5522461,0.4477539,1,1,1h0.8710938v1.5H27.996582v-1.5h0.8706055  c0.5522461,0,1-0.4477539,1-1v-6.5c0-0.5522461-0.4477539-1-1-1h-4.2158203v-3.5556641  C24.6513672,12.0976562,22.5351562,10,19.9335938,10c-2.6010742,0-4.7172852,2.0976562-4.7172852,4.6757812v3.5556641H11  c-0.5522461,0-1,0.4477539-1,1v6.5c0,0.5522461,0.4477539,1,1,1h0.8710938v46.2568359H11c-0.5522461,0-1,0.4477539-1,1v6.5  C10,81.0405273,10.4477539,81.4882812,11,81.4882812z M22.6513672,85.3242188C22.6513672,86.7998047,21.4321289,88,19.9335938,88  s-2.7172852-1.2001953-2.7172852-2.6757812v-3.8359375h5.4350586V85.3242188z M27.8671875,79.4882812H12v-4.5h15.8671875V79.4882812  z M82.7836914,85.3242188c0,1.4755859-1.21875,2.6757812-2.7172852,2.6757812s-2.7177734-1.2001953-2.7177734-2.6757812v-3.8359375  h5.4350586V85.3242188z M88,79.4882812H72.1323242v-4.5H88V79.4882812z M77.3486328,14.6757812  C77.3486328,13.2001953,78.5678711,12,80.0664062,12s2.7172852,1.2001953,2.7172852,2.6757812v3.5556641h-5.4350586V14.6757812z   M72.1323242,20.2314453H88v4.5H72.1323242V20.2314453z M86.1289062,26.7314453v46.2568359H74.003418V26.7314453H86.1289062z   M72.003418,30.2314453v39.1669922H27.996582V30.2314453H72.003418z M17.2163086,14.6757812  c0-1.4755859,1.21875-2.6757812,2.7172852-2.6757812s2.7177734,1.2001953,2.7177734,2.6757812v3.5556641h-5.4350586V14.6757812z   M12,20.2314453h15.8671875v4.5H12V20.2314453z M13.8710938,26.7314453H25.996582v46.2568359H13.8710938V26.7314453z"></path></svg>