<svg xmlns="http://www.w3.org/2000/svg" xml:space="preserve" x="0px" y="0px" viewBox="0 0 100 100"><path d="M88.174 74.42a6.105 6.105 0 0 0-3.732-2.868l-13.777-3.698-4.792-1.238c8.941-2.95 13.746-8.004 15.367-15.999 1.405-6.93-.009-14.17-4.324-22.132-4.815-8.884-3.814-14.735-3.805-14.785a1.36 1.36 0 0 0-2.26-1.264c-.215.199-4.109 3.897-6.861 12.586-.768-4.054-2.204-6.98-4.096-9.823-5.68-8.534-15-10.119-15.394-10.182-.544-.087-1.085.165-1.373.636s-.263 1.072.061 1.518c.187.257 4.514 6.415-.274 16.338-.782 1.62-1.48 2.891-2.096 4.013-1.036 1.886-1.877 3.418-2.609 5.577-2.246-11.583-9.263-14.868-9.638-15.035a1.358 1.358 0 0 0-1.525.293 1.37 1.37 0 0 0-.26 1.536c.125.267 2.998 6.6-1.565 13.266-2.953 4.313-5.865 9.05-6.218 15.32-.49 8.716 4.616 15.182 14.048 18.378l-17.493 4.695a6.105 6.105 0 0 0-3.732 2.868 6.125 6.125 0 0 0-.614 4.672 6.117 6.117 0 0 0 2.864 3.739 6.1 6.1 0 0 0 4.664.615l6.961-1.869a6.13 6.13 0 0 0-1.297 3.769c0 3.395 2.757 6.157 6.146 6.157a6.104 6.104 0 0 0 3.919-1.419l.031-.022 9.353-7.861v6.607l.001.012-.001.024C43.854 92.238 46.611 95 50 95c3.389 0 6.146-2.762 6.146-6.157l-.001-.024.001-.012v-7.003l9.819 8.254.031.022a6.114 6.114 0 0 0 3.919 1.419c3.389 0 6.146-2.762 6.146-6.157 0-1.349-.44-2.593-1.177-3.609l6.375 1.711a6.1 6.1 0 0 0 4.664-.615 6.109 6.109 0 0 0 2.863-3.739 6.111 6.111 0 0 0-.612-4.67zm-51.065-9.259c-.039-.046-.077-.093-.123-.134-3.866-3.443-4.655-8.102-4.747-10.851 2.726 2.012 7.659 6.199 10.639 11.924a45.37 45.37 0 0 1-5.769-.939zm17.993-1.089A6.14 6.14 0 0 0 50 61.343a6.11 6.11 0 0 0-4.041 1.529c.743-6.933 5.349-13.003 7.485-15.484 1.676 2.633 4.763 9.009 1.658 16.684zM46.576 67.5A3.43 3.43 0 0 1 50 64.071a3.43 3.43 0 0 1 3.423 3.429v16.233A6.105 6.105 0 0 0 50 82.686a6.098 6.098 0 0 0-3.424 1.047V67.5zm17.366-3.139c-1.006.302-2.063.58-3.181.831l-.507.115c-.95.215-1.734.392-2.618.537 2.716-5.616 7.931-10.62 10.582-12.936.501 2.908.631 8.318-4.276 11.453zM21.721 48.632c.313-5.568 3.01-9.935 5.745-13.931 3.064-4.475 3.303-8.845 2.894-11.882 2.799 2.924 6.505 9.138 5.698 21.188a1.364 1.364 0 0 0 1.228 1.449 1.365 1.365 0 0 0 1.481-1.189c1.184-9.511 2.408-11.739 4.436-15.431a84.022 84.022 0 0 0 2.162-4.14c3.539-7.335 2.653-12.988 1.493-16.194 2.936 1.06 7.566 3.394 10.771 8.209 2.953 4.437 4.59 8.868 4.215 18.386a1.363 1.363 0 0 0 1.248 1.413 1.358 1.358 0 0 0 1.463-1.188c1.136-8.996 3.869-14.742 5.857-17.883.308 2.909 1.305 7.167 4.112 12.346 3.997 7.375 5.322 14.011 4.049 20.288-1.094 5.395-3.924 9.266-8.884 11.958 2.224-4.279 1.584-9.306.614-12.026a1.36 1.36 0 0 0-2.111-.622c-.285.219-5.011 3.891-9.084 9.102.15-2.87-.337-5.386-.959-7.345-1.307-4.114-3.443-6.684-3.533-6.792a1.362 1.362 0 0 0-1.997-.092c-.376.372-7.823 7.848-9.249 17.369-4.738-6.913-11.35-10.929-11.69-11.133a1.362 1.362 0 0 0-2.043.958c-.05.316-.966 6.562 2.638 12.207-5.845-2.351-11.019-6.762-10.554-15.025zm-3.686 32.179a3.402 3.402 0 0 1-2.598-.343 3.405 3.405 0 0 1-1.595-2.082 3.41 3.41 0 0 1 .342-2.602 3.404 3.404 0 0 1 2.079-1.598l22.163-5.949c.841.155 1.709.287 2.599.4L30.36 77.503l-12.325 3.308zm9.092 4.535c0-1.891 1.536-3.43 3.424-3.43a3.43 3.43 0 0 1 0 6.859 3.43 3.43 0 0 1-3.424-3.429zm9.533-.659a6.167 6.167 0 0 0-4.371-5.243l11.565-9.615v8.811l-7.194 6.047zM50 92.273a3.43 3.43 0 0 1 0-6.859 3.43 3.43 0 0 1 0 6.859zm6.146-22.839L68.178 79.44a6.166 6.166 0 0 0-4.372 5.243l-7.66-6.439v-8.81zm13.77 19.338a3.43 3.43 0 0 1 0-6.859 3.43 3.43 0 0 1 0 6.859zm16.242-10.386a3.403 3.403 0 0 1-1.595 2.082 3.402 3.402 0 0 1-2.598.343L70.336 77.69l-11.233-9.341c.478-.096.951-.2 1.448-.312.063.027.127.054.196.072l9.226 2.382 13.765 3.695a3.404 3.404 0 0 1 2.079 1.598c.456.793.578 1.717.341 2.602z"></path><path d="M49.79 14.54c1.802 1.227 3.296 2.721 4.44 4.441 2.07 3.11 3.898 6.671 3.532 15.955a5.44 5.44 0 0 0 5.447 5.67 5.439 5.439 0 0 0 5.396-4.77 1.363 1.363 0 0 0-1.179-1.524 1.363 1.363 0 0 0-1.522 1.181 2.716 2.716 0 0 1-2.926 2.376 2.72 2.72 0 0 1-2.496-2.825c.397-10.101-1.659-14.078-3.987-17.576-1.34-2.014-3.081-3.758-5.175-5.184a1.36 1.36 0 0 0-1.891.361 1.366 1.366 0 0 0 .361 1.895zM70.933 31.738c3.521 6.495 4.71 12.226 3.636 17.521a1.363 1.363 0 0 0 1.335 1.636c.634 0 1.202-.446 1.333-1.092 1.206-5.949-.073-12.284-3.911-19.366a41.988 41.988 0 0 1-2.467-5.405 1.36 1.36 0 1 0-2.553.947 44.8 44.8 0 0 0 2.627 5.759zM31.982 43.734a5.424 5.424 0 0 0 5.446 5.82 5.42 5.42 0 0 0 5.39-4.78 1.362 1.362 0 1 0-2.701-.338 2.713 2.713 0 0 1-2.961 2.377 2.712 2.712 0 0 1-2.457-2.897c.33-4.928-.084-9.277-1.231-12.925a1.36 1.36 0 1 0-2.596.819c1.044 3.324 1.418 7.335 1.11 11.924z"></path><circle cx="50" cy="88.843" r="1.705"></circle><circle cx="69.916" cy="85.343" r="1.705"></circle><circle cx="30.55" cy="85.346" r="1.705"></circle></svg>