<svg xmlns="http://www.w3.org/2000/svg" data-name="Layer 1" viewBox="0 0 100 100" x="0px" y="0px"><title>CHRISTMAS ICONS SET</title><path d="M57.82,27.12l12.47,13.3a2.31,2.31,0,0,1-.14,3,2.23,2.23,0,0,1-1.52.69h-6l.55.69L74.86,58.57A2.1,2.1,0,0,1,73.2,62H67.65L80.26,77.42a2.31,2.31,0,0,1-.28,3A2.93,2.93,0,0,1,78.6,81H58.09a10.38,10.38,0,0,0,.69,2.22,11.32,11.32,0,0,0,2.91,3.88A2.2,2.2,0,0,1,60.31,91H40.08a2.19,2.19,0,0,1-1.52-3.74,12.31,12.31,0,0,0,3-4A10.38,10.38,0,0,0,42.16,81H21.51a2.19,2.19,0,0,1-2.22-2.22A2.23,2.23,0,0,1,20,77.28L32.46,62H26.91A2.16,2.16,0,0,1,24.7,60a2.91,2.91,0,0,1,.55-1.52l11.5-13.58.69-.69h-6.1a2.16,2.16,0,0,1-2.08-2.22A2.29,2.29,0,0,1,30,40.28L42.3,27.12,43,23l-3.46-3.6a1.46,1.46,0,0,1-.69-1.25,2,2,0,0,1,1.66-2.36l5.27-1,2.36-4.57a2.18,2.18,0,0,1,1-1,2.15,2.15,0,0,1,2.91,1l2.22,4.57,5.27,1h0a1.69,1.69,0,0,1,1.25.55,2.17,2.17,0,0,1,0,3L57.12,23ZM47,24.9l2.08-1a2.37,2.37,0,0,1,1.94,0h0l1.94,1-.28-2.22a2.2,2.2,0,0,1,.55-1.94l1.52-1.52-2.22-.42a2,2,0,0,1-1.66-1.25l-.83-1.66-1,1.8a2.15,2.15,0,0,1-1.52,1.11h0l-2.22.42,1.52,1.52a2.48,2.48,0,0,1,.55,1.94h0Zm4-1Zm8.87,43.65A2.93,2.93,0,0,0,57,70.49a3,3,0,0,0,2.91,2.91,2.93,2.93,0,0,0,2.91-2.91,2.84,2.84,0,0,0-2.91-2.91ZM43.68,62.32a2.84,2.84,0,1,0,0,5.68,2.84,2.84,0,0,0,2.91-2.91,2.81,2.81,0,0,0-2.91-2.77Zm8.73-13.44a2.9,2.9,0,0,0-2.77,2.91,2.81,2.81,0,0,0,2.77,2.91,2.84,2.84,0,0,0,2.91-2.91,2.93,2.93,0,0,0-2.91-2.91ZM48.25,34A2.9,2.9,0,0,0,45.48,37a2.81,2.81,0,0,0,2.77,2.91A2.84,2.84,0,0,0,51.16,37,2.93,2.93,0,0,0,48.25,34ZM53.8,81H46.59a19.11,19.11,0,0,1-1.11,4l-.83,1.66H55.74A4.68,4.68,0,0,1,54.91,85a13.32,13.32,0,0,1-1.11-4Z"></path></svg>