<svg xmlns="http://www.w3.org/2000/svg" xmlns:xlink="http://www.w3.org/1999/xlink" version="1.1" x="0px" y="0px" viewBox="0 0 100 100" enable-background="new 0 0 100 100" xml:space="preserve"><path fill="#000000" d="M89.1444,53.3346c-1.8448-1.8206-4.2903-2.8234-6.8855-2.8234c-1.922,0-5.5103,0.5623-7.9443,4.3289  c-1.3565,2.0995-5.3779,8.4676-5.3976,8.4996c-0.0137,0.0205-1.44,2.0137-2.7147,1.6269c-1.4386-0.4404-1.937-1.1438-1.8384-2.5943  c0.7736-11.3709,4.4432-37.2687,4.4843-37.5585c0.5897-4.5666-2.6472-8.7618-7.2259-9.3528  c-0.3692-0.0461-0.7289-0.0694-1.0694-0.0694c-1.1036,0-2.1643,0.2184-3.1374,0.6166l0.3738-3.2645  c0.2889-2.2097-0.3021-4.4003-1.6632-6.1677c-1.3629-1.7697-3.3332-2.9017-5.5555-3.1883c-0.3738-0.047-0.723-0.0698-1.0671-0.0698  c-4.1807,0-7.7389,3.1321-8.2807,7.3195l-2.822,24.6516l-5.5874-19.7232c-0.9881-3.6285-4.3003-6.1627-8.0548-6.1627  c-0.7389,0-1.4797,0.1002-2.1995,0.2974c-4.4418,1.2127-7.0708,5.8124-5.8535,10.2768l1.4044,4.9494  c-1.2615-0.262-2.6335-0.2241-3.8864,0.1194c-2.173,0.5931-3.9799,2-5.0886,3.961c-1.0954,1.9386-1.367,4.1807-0.7645,6.3131  c2.2565,7.9868,3.7755,15.8115,5.2446,23.3786c3.9484,20.3412,7.372,37.9846,23.687,37.9837c0.4391,0,0.8895-0.013,1.3478-0.0388  h13.7193c14.2273,0,29.477-15.3061,37.6249-29.5272C92.8733,62.0918,92.5392,56.6824,89.1444,53.3346z M85.9395,64.7926  c-7.738,13.5053-21.7536,27.1772-33.5701,27.1772H38.582c-0.0461,0-0.0922,0.0014-0.1383,0.0041  c-12.8467,0.7526-15.906-11.8359-20.2406-34.166c-1.4181-7.3044-3.0251-15.5838-5.335-23.7586  c-0.2611-0.9238-0.1415-1.8978,0.3359-2.7428c0.4902-0.8674,1.2894-1.4897,2.2533-1.7526c0.3072-0.0844,0.6312-0.1271,0.9621-0.1271  c1.6554,0,3.115,1.1155,3.5619,2.7549l6.052,20.6717c0.3619,1.2348,1.6508,1.9455,2.89,1.5888  c1.2364-0.3562,1.9521-1.6451,1.6011-2.8832l-9.3159-32.8342c-0.5331-1.956,0.6248-3.9815,2.5833-4.5162  c0.3195-0.0876,0.6449-0.1319,0.9667-0.1319c1.6518,0,3.1095,1.1173,3.5518,2.7401l8.712,30.7516  c0.0438,1.1995,0.9941,2.1769,2.2017,2.2458c1.2378,0.0767,2.314-0.8364,2.4551-2.0671l4.183-36.5439  c0.2369-1.8309,1.8024-3.2116,3.6413-3.2116c0.1474,0,0.3058,0.011,0.477,0.0324c0.9749,0.1257,1.8425,0.6244,2.4427,1.4037  c0.5988,0.7773,0.8585,1.7401,0.7271,2.7476l-4.3975,38.4287c-0.1461,1.2768,0.7663,2.4322,2.0424,2.5858  c1.2752,0.1545,2.4368-0.7522,2.5979-2.0274l3.5231-27.8901c0.2364-1.8282,1.8001-3.207,3.6367-3.207  c0.1483,0,0.3136,0.0112,0.4811,0.0322c2.0128,0.2597,3.4386,2.107,3.183,4.0886c-0.152,1.0694-3.7307,26.3271-4.5158,37.8693  c-0.2456,3.6162,1.6253,6.306,5.1328,7.38c3.7362,1.1447,6.7823-1.6846,8.0142-3.5682c0.0406-0.0639,4.0488-6.4112,5.3921-8.4904  c1.1707-1.8115,2.8316-2.1917,4.0187-2.1917c1.3583,0,2.6376,0.5242,3.602,1.476c0.0005,0.0005,0.0009,0.0007,0.0014,0.0011  C88.096,58.8638,87.2996,62.4181,85.9395,64.7926z"></path></svg>