<svg xmlns="http://www.w3.org/2000/svg" viewBox="0 0 64 64" x="0px" y="0px"><path d="M50.985,60.25h-8.23v-1.369c0-2.619-2.131-4.75-4.75-4.75h-12.039c-2.619,0-4.75,2.131-4.75,4.75v1.369H12.985c-.414,0-.75,.336-.75,.75s.336,.75,.75,.75H50.985c.414,0,.75-.336,.75-.75s-.336-.75-.75-.75Z"></path><path d="M23.56,17.715c-.414,0-.75,.336-.75,.75s.336,.75,.75,.75h1.656v21.648h-1.656c-.414,0-.75,.336-.75,.75s.336,.75,.75,.75h1.656v5.946h-1.656c-.414,0-.75,.336-.75,.75s.336,.75,.75,.75h1.656v2.871c.246-.03,.496-.049,.75-.049h5.27v-4.248h-1.656c-.414,0-.75-.336-.75-.75s.336-.75,.75-.75h1.656v-7.173h-1.656c-.414,0-.75-.336-.75-.75s.336-.75,.75-.75h1.656v-7.173h-1.656c-.414,0-.75-.336-.75-.75s.336-.75,.75-.75h1.656v-7.173h-1.656c-.414,0-.75-.336-.75-.75s.336-.75,.75-.75h1.656v-7.173h-1.656c-.414,0-.75-.336-.75-.75s.336-.75,.75-.75h1.656v-2.022c0-.414,.336-.75,.75-.75s.75,.336,.75,.75v6.359h1.656c.414,0,.75,.336,.75,.75s-.336,.75-.75,.75h-1.656v7.173h1.656c.414,0,.75,.336,.75,.75s-.336,.75-.75,.75h-1.656v7.173h1.656c.414,0,.75,.336,.75,.75s-.336,.75-.75,.75h-1.656v7.173h1.656c.414,0,.75,.336,.75,.75s-.336,.75-.75,.75h-1.656v8.584h5.27c.254,0,.504,.02,.75,.049V27.592h1.656c.414,0,.75-.336,.75-.75s-.336-.75-.75-.75h-1.656v-5.13h1.656c.414,0,.75-.336,.75-.75s-.336-.75-.75-.75h-1.656v-5.13h1.656c.414,0,.75-.336,.75-.75s-.336-.75-.75-.75h-1.656v-3.811c0-3.733-3.037-6.77-6.77-6.77s-6.77,3.037-6.77,6.77v1.21h-1.656c-.414,0-.75,.336-.75,.75s.336,.75,.75,.75h1.656v5.985h-1.656Z"></path><path d="M57.966,32.238h-1.686v-4.195h1.686c.414,0,.75-.336,.75-.75s-.336-.75-.75-.75h-1.686v-1.331c0-3.17-2.579-5.75-5.75-5.75-3.119,0-5.659,2.497-5.742,5.596h-1.694c-.414,0-.75,.336-.75,.75s.336,.75,.75,.75h1.687v6.904h-4.525v5h6.275c1.792,0,3.25-1.458,3.25-3.25v-11c0-.414,.336-.75,.75-.75s.75,.336,.75,.75v11c0,2.619-2.131,4.75-4.75,4.75h-6.275v5h3.525v1.628c0,.414,.336,.75,.75,.75s.75-.336,.75-.75v-1.628h1.25c1.555,0,3.022-.376,4.328-1.026l1.207,1.357c.148,.167,.354,.251,.561,.251,.178,0,.355-.063,.499-.19,.309-.275,.337-.749,.062-1.059l-1.018-1.144c1.305-.929,2.368-2.17,3.087-3.615l1.534,.701c.101,.046,.207,.068,.312,.068,.284,0,.556-.163,.682-.438,.173-.377,.007-.822-.37-.994l-1.586-.725c.294-.927,.454-1.914,.454-2.937v-1.474h1.686c.414,0,.75-.336,.75-.75s-.336-.75-.75-.75Z"></path><path d="M17.44,34.918h1.279v1.656c0,.414,.336,.75,.75,.75s.75-.336,.75-.75v-1.656h3.496v-5h-6.275c-2.619,0-4.75-2.131-4.75-4.75V14.168c0-.414,.336-.75,.75-.75s.75,.336,.75,.75v11c0,1.792,1.458,3.25,3.25,3.25h6.275v-5h-4.525v-6.876h1.716c.414,0,.75-.336,.75-.75s-.336-.75-.75-.75h-1.722c-.068-3.112-2.615-5.624-5.744-5.624-3.171,0-5.75,2.58-5.75,5.75v1.359h-1.656c-.414,0-.75,.336-.75,.75s.336,.75,.75,.75h1.656v4.195h-1.656c-.414,0-.75,.336-.75,.75s.336,.75,.75,.75h1.656v1.446c0,1.037,.166,2.034,.467,2.972l-1.57,.718c-.377,.172-.543,.617-.37,.994,.126,.275,.397,.438,.682,.438,.104,0,.211-.021,.312-.068l1.521-.695c.725,1.442,1.793,2.68,3.103,3.605l-1.021,1.147c-.275,.31-.247,.784,.062,1.059,.144,.127,.321,.189,.499,.189,.206,0,.412-.085,.561-.251l1.216-1.366c1.297,.639,2.749,1.008,4.29,1.008Z"></path></svg>