<svg xmlns="http://www.w3.org/2000/svg" xmlns:xlink="http://www.w3.org/1999/xlink" version="1.1" x="0px" y="0px" viewBox="0 0 100 100" enable-background="new 0 0 100 100" xml:space="preserve"><g><circle cx="63.461" cy="51.923" r="5.626"></circle><circle cx="36.539" cy="51.923" r="5.626"></circle><path d="M53.719,42.285c0,0,11.14-5.979,14.851-15.467c0.624,1.029,0.188,12.793-4.95,14.641   C58.466,43.318,54.132,42.079,53.719,42.285z"></path><path d="M46.281,42.285c0,0-11.14-5.979-14.851-15.467c-0.624,1.029-0.188,12.793,4.95,14.641   C41.534,43.318,45.868,42.079,46.281,42.285z"></path><path d="M89.104,50.323c-9.717-10.863,0.909-17.886-10.258-33.917c-6.562-9.42-16.633-12.968-19.82-13.892   C55.957,1.142,52.873,0.385,50,0.385c-2.996,0-6.204,0.793-9.381,2.235c-3.526,1.072-13.131,4.693-19.465,13.787   C9.987,32.437,20.613,39.46,10.896,50.323c-11.926,13.326-7.531,34.292,0.961,37.019c8.409,2.695,16.612-0.053,21.87-2.519   c3.261,2.604,6.756,4.448,9.844,5.586C46.079,94.771,50,100,50,100s3.912-5.218,6.421-9.576c3.113-1.154,6.587-3.029,9.816-5.616   c5.257,2.47,13.478,5.235,21.905,2.534C96.635,84.615,101.029,63.649,89.104,50.323z M66.098,16.304   c3.72,4.192,9.726,13.176,8.159,26.245c-0.118,0.983,0.19,1.969,0.848,2.709c0.018,0.02,0.039,0.033,0.057,0.052   c-0.325,4.55-1.112,10.354-1.996,15.142c-1.312,0.427-2.293,1.605-2.389,3.052c-0.314,4.771-2.11,8.687-4.63,11.809   C64.911,70.845,62,65.781,54,65.411v5.473c0,0,7.3,0.703,10.948,5.813c-3.068,3.273-6.833,5.521-9.896,6.82   c-2.771-2.121-5.033-6.595-5.033-6.595s-2.239,4.449-5,6.578c-3.045-1.312-6.838-3.579-9.907-6.878   C38.779,71.582,46,70.884,46,70.884v-5.473c-8,0.367-10.859,5.352-12.115,9.793c-2.494-3.117-4.328-7.019-4.703-11.761   c-0.088-1.109-0.675-2.06-1.549-2.628c-0.933-5.178-1.679-11.537-2.17-16.503c0.237-0.557,0.351-1.166,0.273-1.78   c-1.637-13.1,4.258-22.007,7.915-26.15c5.534-6.269,12.198-9.075,16.348-9.075C54.853,7.308,61.323,10.923,66.098,16.304z"></path></g></svg>