<svg xmlns="http://www.w3.org/2000/svg" xmlns:xlink="http://www.w3.org/1999/xlink" version="1.1" x="0px" y="0px" viewBox="0 0 100 100" enable-background="new 0 0 100 100" xml:space="preserve"><g><path fill="#000000" d="M97.661,36.794c-0.113-0.535-0.622-1.039-1.493-0.877c-15.195,2.831-22.611-2.05-29.885,3.427   c-1.501-2.563-3.307-5.122-4.713-6.235c-0.26-0.206-0.601-0.292-0.907-0.313c-1.958-2.359-4.458-2.556-6.224-1.958   c-2.578-2.839-6.484-2.637-8.879,0c-1.662-0.562-4.201-0.477-6.224,1.958c-0.434,0.03-0.716,0.165-0.906,0.313   c-1.407,1.114-3.212,3.673-4.714,6.235c-7.287-5.489-14.61-0.582-29.885-3.427c-0.868-0.164-1.379,0.341-1.493,0.877   c-0.604,2.85,18.258,17.538,21.202,18.241c1.879,0.449,3.146,0.337,3.943,0.175c-0.512,5.316,3.001,8.801,7.044,11.761   c2.06,1.509,6.064,1.056,8.948,2.557c2.482,1.297,3.232,1.688,6.524,1.688s4.041-0.392,6.524-1.688   c2.922-1.524,6.751-0.948,8.947-2.557c4.043-2.96,7.557-6.444,7.044-11.761c0.891,0.181,2.177,0.248,3.943-0.175   C79.981,54.194,98.202,39.323,97.661,36.794z M55.456,50.933c0.337-1.292,0.816-2.635,1.353-3.17   c0.406-0.405,7.517-5.981,11.641-0.837c1.192,1.489,1.696,3.171,1.816,4.032C65.535,49.795,63.309,47.179,55.456,50.933z    M53.833,54.855c0.01-0.396-0.116-0.736-0.292-1.017c0.105-0.02,0.21-0.04,0.309-0.063C54.046,53.822,54.406,54.43,53.833,54.855z    M52.202,55.983c-0.379,0.402-1.64,0.471-2.202,0.471c-0.563,0-1.824-0.068-2.203-0.471c-1.158-1.227-0.414-1.836-0.039-1.989   c0.78,0.054,3.704,0.054,4.484,0C52.601,54.142,53.376,54.74,52.202,55.983z M46.167,54.855c-0.478-0.355-0.347-1.001-0.016-1.079   c0.098,0.022,0.203,0.043,0.309,0.063C46.283,54.119,46.157,54.458,46.167,54.855z M29.734,50.958   c0.121-0.861,0.625-2.543,1.817-4.032c4.013-5.008,11.002,0.199,11.64,0.836c0.534,0.534,1.015,1.877,1.352,3.17   C36.733,47.198,35.117,49.641,29.734,50.958z M61.582,51.383c0.575,0,1.043,0.468,1.043,1.043c0,0.574-0.468,1.041-1.043,1.041   c-0.574,0-1.042-0.467-1.042-1.041C60.54,51.851,61.008,51.383,61.582,51.383z M63.027,50.982c0.939,0.105,2,0.392,3.028,0.719   c-0.833,1.06-1.84,1.776-3.006,2.139C63.734,53.131,63.903,51.861,63.027,50.982z M60.37,54.06   c-1.286-0.144-2.642-0.604-3.951-1.368c0.944-0.448,2.152-0.972,3.431-1.334C59.22,52.373,59.617,53.501,60.37,54.06z    M38.418,53.467c-0.575,0-1.043-0.467-1.043-1.041c0-0.575,0.468-1.043,1.043-1.043c0.575,0,1.042,0.468,1.042,1.043   C39.46,53,38.993,53.467,38.418,53.467z M36.951,53.84c-1.167-0.362-2.174-1.079-3.006-2.139c1.029-0.328,2.09-0.615,3.029-0.72   C36.076,51.881,36.29,53.156,36.951,53.84z M40.15,51.357c1.278,0.362,2.486,0.886,3.431,1.334   c-1.31,0.766-2.665,1.226-3.952,1.368C40.636,53.313,40.613,52.104,40.15,51.357z M53.192,51.871c-1.379,0.265-5.207,0.225-6.385,0   c-0.203-1.036-0.669-3.021-1.443-4.447c3.131-0.789,6.385-0.726,9.271,0.001C53.861,48.85,53.396,50.835,53.192,51.871z    M41.833,54.588c-3.283,2.361-7.425,0.122-8.669-2.263C35.544,55.352,38.887,55.581,41.833,54.588z M66.836,52.326   c-1.311,2.509-5.481,4.559-8.67,2.261C62.226,55.959,65.124,54.502,66.836,52.326z M39.505,34.824   c0.278,0.078,0.776,0.058,1.087-0.389c1.207-1.733,3.182-2.338,4.824-1.5c0.219,0.11,0.889,0.22,1.269-0.313   c1.748-2.449,4.882-2.451,6.629,0c0.112,0.168,0.652,0.627,1.269,0.313c1.646-0.836,3.619-0.232,4.825,1.5   c0.327,0.47,0.839,0.458,1.086,0.389c1.558,1.356,3.966,5.09,5.475,8.116c-1.609-0.412-3.611-0.29-6.263,0.774   c0.006-2.644,0.265-6.446,0.517-7.709c0.132-0.667-0.847-0.864-0.98-0.196c-0.281,1.407-0.561,5.616-0.534,8.345   c-1.023,0.49-1.95,1.054-2.675,1.637c0.719-4.836,0.404-8.878-0.964-12.011c-0.275-0.63-1.191-0.23-0.916,0.4   c1.367,3.131,1.615,7.267,0.761,12.281c-3.174-0.805-6.655-0.805-9.829,0c-0.854-5.015-0.606-9.15,0.761-12.281   c0.274-0.625-0.644-1.026-0.916-0.4c-1.369,3.133-1.683,7.174-0.963,12.01c-0.726-0.587-1.651-1.154-2.675-1.646   c0.025-2.729-0.254-6.929-0.535-8.334c-0.133-0.673-1.115-0.477-0.98,0.196c0.252,1.261,0.51,5.054,0.517,7.697   c-2.508-1.007-4.564-1.197-6.263-0.762C35.54,39.914,37.948,36.181,39.505,34.824z M24.006,53.09   c-2.388-0.57-11.467-7.928-16.442-12.63c17.686,0.236,18.23,7.326,16.991,10.224c-0.267,0.617,0.673,0.951,0.917,0.4   C26.384,49,28.11,39.438,6.526,39.457c-0.464-0.459-0.891-0.892-1.227-1.261c14.432,2.223,21.165-2.036,27.432,2.914   c-0.657,1.238-1.535,3.306-1.537,3.313c-2.479,2.105-4.24,6.682-3.134,8.086c-0.05,0.156-0.112,0.317-0.156,0.471   C27.9,52.98,26.666,53.727,24.006,53.09z M64.29,65.357c-1.854,1.356-5.314,0.629-8.691,2.397c-2.37,1.238-2.798,1.461-5.599,1.461   c-2.801,0-3.228-0.223-5.598-1.461c-3.272-1.709-6.941-1.115-8.692-2.397c-4.742-3.473-7.513-6.941-5.689-12.421   c0.562-0.118,1.238-0.334,2.051-0.61c1.33,3.317,6.84,6.135,10.8,2.724c-2.514,3.263-3.074,6.033-5.157,7.124   c-0.68,0.358-0.036,1.173,0.464,0.887c2.722-1.559,3.343-5.218,6.667-8.783c-0.078,0.951,0.977,1.725,1.82,1.903   c0.8,1.127,1.384,1.273,3.334,1.273c2.011,0,2.585-0.22,3.333-1.273c0.96-0.202,1.899-0.979,1.821-1.903   c3.147,3.377,4.042,7.407,6.666,8.783c0.495,0.254,1.127-0.537,0.465-0.887c-2.105-1.103-2.594-3.799-5.157-7.124   c3.896,3.357,9.437,0.676,10.8-2.724c0.813,0.275,1.488,0.492,2.051,0.609C71.803,58.415,69.032,61.885,64.29,65.357z    M75.994,53.09c-2.652,0.633-3.887-0.1-3.897-0.106c-0.043-0.154-0.106-0.317-0.157-0.475c0.992-1.258-0.376-5.741-3.128-8.082   c-0.003-0.008-0.886-2.08-1.543-3.318c6.264-4.946,13.019-0.697,27.433-2.914c-0.336,0.369-0.763,0.802-1.227,1.261   C70.896,39.44,73.959,49.773,74.528,51.084c0.231,0.531,1.176,0.194,0.916-0.402c-0.313-0.676-3.627-9.934,16.99-10.221   C87.459,45.164,78.382,52.52,75.994,53.09z"></path><path fill="#000000" d="M50,60.555c-0.313,0-7.664,0.015-8.646,1.325c-0.417,0.554,0.449,1.069,0.796,0.604   c0.402-0.43,3.918-0.93,7.85-0.93s7.448,0.5,7.846,0.925c0.409,0.541,1.206-0.058,0.801-0.6C57.664,60.569,50.313,60.555,50,60.555   z"></path><path fill="#000000" d="M50,63.666c-5.809,0-6.675,0.885-7.205,2.042c-0.266,0.583,0.641,0.997,0.909,0.416   c0.282-0.615,0.667-1.458,6.295-1.458s6.014,0.843,6.295,1.458c0.266,0.58,1.205,0.231,0.91-0.416   C56.675,64.551,55.809,63.666,50,63.666z"></path></g></svg>