<svg xmlns="http://www.w3.org/2000/svg" xmlns:xlink="http://www.w3.org/1999/xlink" version="1.1" x="0px" y="0px" viewBox="0 0 100 100" enable-background="new 0 0 100 100" xml:space="preserve"><path fill-rule="evenodd" clip-rule="evenodd" d="M56.517,39.27c-11.444,10.483-11.45,10.483-5.382,23.434  c1.782,3.798,4.021,7.46,5.18,11.435c0.565,1.932-0.873,4.451-1.408,6.706c-2.078-0.94-5.257-1.33-6.068-2.919  c-4.971-9.782-10.016-19.611-13.86-29.866c-3.683-9.834,6.618-12.889,11.091-18.53c3.351-4.224,7.625-1.439,11.107,1.231  c5.08,3.891,10.312,7.611,15.086,11.85c1.299,1.153,1.2,3.896,1.74,5.907c-1.964-0.114-4.354,0.447-5.813-0.473  C64.163,45.504,60.527,42.351,56.517,39.27z"></path><path fill-rule="evenodd" clip-rule="evenodd" d="M4.62,72.704c0.135-10.275,8.27-18.063,18.649-17.844  c10.021,0.207,17.829,8.146,17.824,18.125c-0.005,10.047-8.374,18.363-18.416,18.296C12.568,91.219,4.484,82.902,4.62,72.704z   M22.511,85.546C29.68,85.671,35.217,80.45,35.41,73.38c0.192-7.205-5.563-13.231-12.634-13.227  c-6.738,0.011-12.65,5.876-12.754,12.649C9.913,79.624,15.591,85.422,22.511,85.546z"></path><path fill-rule="evenodd" clip-rule="evenodd" d="M96.601,73.037c-0.026,10.13-8.317,18.354-18.396,18.244  c-10.166-0.104-18.073-8.316-17.943-18.634c0.125-10.063,7.912-17.756,18.032-17.803C88.59,54.792,96.627,62.777,96.601,73.037z   M78.605,85.546c7.044-0.077,12.53-5.667,12.452-12.681c-0.078-6.919-5.808-12.686-12.629-12.717  c-6.956-0.026-13.06,6.233-12.842,13.18C65.8,80.201,71.577,85.624,78.605,85.546z"></path><path fill-rule="evenodd" clip-rule="evenodd" d="M71.354,17.322c0.021,4.836-3.943,8.868-8.687,8.821  c-4.727-0.042-8.618-4.146-8.509-8.972c0.099-4.613,3.813-8.395,8.363-8.515C67.301,8.532,71.338,12.49,71.354,17.322z"></path><path fill-rule="evenodd" clip-rule="evenodd" d="M54.459,64.58c-0.301-6.084-7.792-9.985-2.368-16.183  C62.491,53.016,62.917,55.296,54.459,64.58z"></path><path fill-rule="evenodd" clip-rule="evenodd" d="M31.442,46.858c0,0-4.602-3.54-7.08-1.239c0,0-3.717,5.84,1.416,6.548  c0,0,4.248,1.594,9.204-0.177L31.442,46.858z"></path><path fill-rule="evenodd" clip-rule="evenodd" d="M55.238,13.56c0,0,0.186,6.724-3.844,7.584  C51.395,21.144,50.025,15.609,55.238,13.56z"></path><path fill-rule="evenodd" clip-rule="evenodd" d="M46.082,23.067c0,0-4.054,1.461-3.092,4.494  C42.99,27.562,46.77,27.21,46.082,23.067z"></path><path fill-rule="evenodd" clip-rule="evenodd" d="M50.492,18.489c0,0-4.601,4.321-3.349,7.442  C47.143,25.932,51.482,23.145,50.492,18.489z"></path><ellipse transform="matrix(0.9988 0.0489 -0.0489 0.9988 1.3976 -1.9785)" fill-rule="evenodd" clip-rule="evenodd" cx="41.137" cy="27.576" rx="1.064" ry="1.087"></ellipse><path fill-rule="evenodd" clip-rule="evenodd" d="M48.333,80.5c0,0-3,2-0.667,4c0,0,4.166,3.334,5.833,3.667  c0,0,5.666,2.833,3-1.667c0,0-2-2.667-3.333-3.5C53.167,83,49.333,82.5,48.333,80.5z"></path></svg>