<svg xmlns="http://www.w3.org/2000/svg" xmlns:xlink="http://www.w3.org/1999/xlink" version="1.2" baseProfile="tiny" x="0px" y="0px" viewBox="0 0 512 512" xml:space="preserve"><g><path d="M474.4618225,242.4806366c-5.0615234-4.4306641-11.2929688-6.3759766-16.6650391-7.1679688   c-0.4609375-3.2109375-1.5615234-6.7226563-3.7626953-10.2158203   c-6.2294922-9.8867188-18.7451172-15.5917969-37.2011719-16.9580078   c-3.7758789-0.2797852-7.3447266-0.2883301-10.7324219-0.0842285c2.9589844-3.4177246,5.2805176-7.0212402,6.9150391-10.8171387   c1.7763672-4.125,2.5341797-7.9619141,2.7285156-11.3066406c15.4257813-3.1660156,25.8496094-9.9462891,31.0488281-20.2246094   c5.671875-11.2099609,3.3466797-23.1220703,0.53125-30.9375c0.6181641-0.4140625,1.2333984-0.8251953,1.84375-1.2324219   c9.3652344-6.2480469,19.0488281-12.7089844,17.0478516-23.4179688   c-1.7080078-9.1396484-11.1523438-14.2060547-24.8085938-19.0009766   c-13.0693359-4.5888672-33.2529297-9.8623047-63.5205078-16.5976563   c-90.2236328-20.0751953-148.4658203,3.7382813-170.0224609,15.4101563   c-8.4101563-9.8779297-27.4003906-21.2539063-69.0576172-12.484375   c-24.4208984,5.1386719-41.4511719,14.9208984-50.6171875,29.0761719   c-5.8378906,9.0136719-7.0205078,17.6181641-7.0107422,23.1503906   c-14.8876953,14.9775391-20.3701172,28.9775391-16.2988281,41.6630859   c5.5566406,17.3134766,27.3916016,24.921875,40.4423828,27.9804688   c-0.2365723,5.2145996,0.0449219,10.1660156,0.8330078,14.8391113c-5.6359863-0.2453613-16.5200195-0.5349121-27.9169922,0.1774902   c-25.8330078,1.6171875-39.7099609,7.4931641-43.6708984,18.4912109   c-3.7929688,10.5351563,3.0185547,20.2402344,11.5488281,28.0263824   c-9.2851563,8.4931641-20.3916016,21.9882813-16.7070313,35.6171875c4.8125,17.796875,29.3359375,21.7089844,47.3642578,23.1035156   c0.0771484,0.0068359,0.1533203,0.0117188,0.2304688,0.015625l39.3271484,2.1308594   c0.4775391,0.0263672,0.9511719,0.0380859,1.4248047,0.0380859c12.3398438,0,23.1672363-8.5878906,26.0874023-20.4414063   c16.121582,4.3046875,34.1606445,13.7751465,43.9077148,34.2958984   c6.0107422,12.6621094,16.7832031,22.4990234,30.3359375,27.6992188l10.5078125,4.0263672v57.9160156H76.1219788   c-5.5224609,0-10,4.4775391-10,10s4.4775391,10,10,10H238.594635h50.8603516h146.4130859c5.5224609,0,10-4.4775391,10-10   s-4.4775391-10-10-10H299.4549866v-26.3955078c6.2578125-4.03125,17.6953125-11.5703125,28.7578125-19.7451172   c23.2451172-17.1757813,28.4462891-25.0302734,30.3779297-29.9492188c0.7490234-1.9023438,1.5273438-4.1386719,2.4287109-6.7275391   c2.9736328-8.5366211,7.253418-20.7919922,14.3513184-31.8513184c7.7954102,1.8813477,17.8588867,2.9431152,30.0754395,3.1569824   c0.6992188,0.0126953,1.3847656,0.0195313,2.0683594,0.0185547c32.1972656-0.0009766,46.0302734-13.7626953,51.6972656-23.0576172   c4.4443359-0.1601563,9.9042969-1.2900391,14.6816406-4.9853516c4.2978516-3.3261719,9.421875-9.8828125,9.421875-22.2333984   C483.3153381,252.5314178,478.500885,246.0167694,474.4618225,242.4806366z M133.7997131,244.283371   c-1.2363281,6.1621094-4.2011719,11.7539215-4.21875,11.7861481c-1.4885254,2.7492676-1.5495605,5.8935547-0.4370117,8.5847168   c-4.8044434,0.1218262-9.6538086,0.5524902-14.5200195,1.2980957c-4.5419922,0.7128906-8.5058594,3.6015625-10.6337891,7.7880859   l-1.6396484,3.2792969c-2.2558594,4.5117188-2.0078125,9.7597656,0.6640625,14.0400391   c2.6474609,4.2412109,7.1953125,6.7617188,12.1982422,6.7617188c0.0439453,0,0.0888672,0,0.1337891-0.0009766   c2.2299805-0.0229492,5.1328125,0.0253906,8.4963379,0.2526855c-1.208252,2.3149414-3.6855469,3.8425293-6.4367676,3.6730957   l-39.203125-2.1240234c-26.6054688-2.0761719-29.4697266-8.3125-29.4873047-8.375   c-1.0097656-3.71875,8.6191406-14.9228516,19.0693359-22.1933594c2.671875-1.8486328,4.2792969-4.8808594,4.3095703-8.1298828   c0.0292969-3.2490234-1.5205078-6.3105621-4.1572266-8.2089996c-9.9384766-7.1533203-13.0585938-11.4550781-14.0117188-13.2197266   c2.0800781-1.3242188,8.8632813-4.3847656,27.9580078-5.3359375c13.8964844-0.6943359,26.7714844,0.1503906,26.8984375,0.1591797   c0.8535156,0.0566406,1.7148438,0.0058594,2.5585938-0.1572266c3.1103516-0.5966797,5.9677734-0.9970703,8.5058594-1.1904297   c9.8251953-0.7597656,12.6767578,1.5380859,13.3164063,2.2607422   C134.4188538,236.651535,134.6581116,240.0314178,133.7997131,244.283371z M126.2955627,212.9095917   c-1.3137207-5.8425293-1.4018555-12.6010742-0.2272949-20.201416c0.4111328-2.6621094-0.2753906-5.3779297-1.8925781-7.5322266   s-4.0419922-3.5654297-6.7128906-3.9130859c-11.9570313-1.5576172-30.8876953-7.7353516-33.5429688-16.0488281   c-1.7128906-5.3632813,3.5302734-14.2128906,14.3857422-24.28125c2.6699219-2.4775391,3.8662109-5.8505859,2.9912109-9.3759766   c-0.3017578-1.9482422-2.90625-25.1689453,41.6289063-34.5400391c35.9482422-7.5683594,49.5449219,2.5458984,51.8125,9.1083984   c0.5966797,3.3544922,2.8066406,5.8476563,5.9726563,7.1503906c3.2099609,1.3173828,6.8066406,0.5371094,9.6132813-1.5058594   c0.5693359-0.4140625,58.1445313-41.109375,163.21875-17.7265625c25.2753906,5.6240234,43.5478516,10.2539063,55.8603516,14.15625   c6.8369141,2.1660156,11.1425781,3.9033203,13.828125,5.1767578c-1.6533203,1.1806641-3.5498047,2.4462891-5.1630859,3.5224609   c-2.8486328,1.9013672-6.0791016,4.0556641-9.2734375,6.4521484c-4.09375,3.0703125-5.234375,8.6923828-2.6103516,13.0859375   c1.9453125,3.3339844,6.2285156,13.4785156,2.7373047,20.2919922c-3.7285156,7.2744141-15.7841797,9.8818359-25.2402344,10.7880859   c-3.2285156,0.3085938-6.1064453,2.1640625-7.7197266,4.9765625c-1.6142578,2.8125-1.7646484,6.2333984-0.4023438,9.1767578   c0.0117188,0.0263672,0.9726563,3.2773438-0.9130859,7.6582031c-2.2695313,5.2705078-10.1044922,15.4658203-37.078125,24.5341797   c-2.1083984,0.7080078-3.8867188,2.0507813-5.1152344,3.9042969c-0.4462891,0.6557617-8.3505859,12.0029297-25.0820313,20.15625   c0.6655273-2.8562012,0.4682617-5.8876953-0.6591797-8.6679688c-1.7412109-4.2919922-5.4716797-7.4990234-9.9853516-8.5800781   l-1.7636719-0.4208984c-5.4951172-1.3115234-11.2685547,0.7324219-14.7011719,5.1806641l-15.9343262,20.559082   c-6.9147949-0.3837891-14.1105957-1.4511719-21.4680176-3.2094727c-2.4931641-0.5947266-5.1542969-0.1904297-7.3740234,1.0947266   c-0.0339355,0.0197754-2.5629883,1.4707031-6.9101563,3.2294922l-20.6982422-20.6982422   c-3.2001953-3.1992188-7.7832031-4.7148438-12.2558594-4.0605469c-4.4697266,0.6552734-8.4179688,3.421875-10.5449219,7.3720703   l-1.8564453,3.4199219c-3.390625,6.2646484-1.6259766,14.1806641,4.0908203,18.4033203   c0.6318359,0.4682617,1.3615723,1.0195313,2.1538086,1.6303711c-10.496582-0.9499512-20.5522461-4.0734863-30.0561523-9.3911133   c-1.5410156-0.8632813-3.3291016-1.2949219-5.0791016-1.2714844c-0.1235352-0.0024414-9.4956055,0.1083984-20.0341797-3.0151367   c-0.059082-8.5478516-3.1523438-14.128418-6.1542969-17.5209961   C143.23526,216.4349823,135.8983459,213.4076385,126.2955627,212.9095917z M342.6737366,294.7872925   c-10.3769531,10.9643555-17.8242188,22.7714844-22.2216797,35.2539063l-23.8525391,15.3964844l-0.4179688-2.2841797   c-3.3095703-18.1054688-2.7841797-36.34375,1.5625-54.2177734l1.0410156-4.2978516l13.0209961-20.5854492   c7.4682617-1.4934082,14.1608887-3.6748047,20.1020508-6.2387695c-1.0913086,2.5930176-1.9121094,5.4443359-2.3691406,8.5878906   C327.8356018,278.1095581,332.622467,288.0658569,342.6737366,294.7872925z M155.8238831,267.309021   c-0.0249023-0.2011719-0.0388184-0.3984375-0.072998-0.6027832c-0.4477539-2.682373-1.5932617-4.9716797-3.112793-6.9509277   c8.2822266,2.0334473,15.4838867,2.5803223,19.277832,2.7155762c13.8730469,7.2900391,29.015625,10.9970703,44.6396484,10.9970703   c4.3684082,0,8.7758789-0.2971191,13.2023926-0.8798828c3.3566895,4.2539063,5.6872559,8.2363281,6.8063965,11.6826172   c3.9707031,12.2226563-1.4833984,31.1386719-4.7460938,38.9013672c-0.8144531-0.6474609-2.1083984-1.9492188-3.7607422-4.5175781   C223.3761292,311.3720093,199.3565979,277.2106323,155.8238831,267.309021z M342.1327209,335.8556519   c-0.8320313,2.3886719-1.5507813,4.4511719-2.1474609,5.9697266c-2.2080078,5.0693359-21.8408203,21.4521484-53.8710938,41.8242188   c-4.1699219,2.6484375-6.6591797,7.1835938-6.6591797,12.1318359v29.4697266H248.594635v-61.7802734   c0-5.9072266-3.7050781-11.3017578-9.2314453-13.4277344l-14.1162109-5.4082031   c-8.7304688-3.3505859-15.6308594-9.6015625-19.4287109-17.6044922   c-2.5722656-5.4130859-5.5498047-10.2373047-8.8339844-14.5361328c8.359375,8.125,13.1669922,15.2919922,14.2509766,16.9775391   c8.3183594,12.9296875,19.0996094,17.2607422,30.359375,12.1982422l0.1601563-0.0722656   c2.2246094-0.84375,7.7246094-3.3554688,13.2099609-25.2294922c2.4199219-9.6494141,4.5078125-23.3798828,1.3828125-35.6425781   c2.2460938,0.6728516,4.6523438,0.7919922,7.0175781,0.2998047l16.6269531-3.4306641   c-0.1679688,0.4707031-0.3105469,0.9492188-0.4257813,1.4316406l-1.2578125,5.1914063   c-5.0126953,20.609375-5.6181641,41.6474609-1.8007813,62.5322266l1.9296875,10.5537109   c0.8623047,4.7324219,4.0117188,8.6992188,8.4257813,10.6113281c4.4140625,1.9140625,9.4667969,1.4990234,13.5146484-1.1123047   l32.5654297-21.0205078c2.7207031-1.7490234,4.796875-4.4296875,5.8476563-7.546875   c0.0117188-0.0322266,0.0224609-0.0654297,0.0332031-0.0976563c2.1054688-6.4667969,5.3066406-12.7705078,9.5761719-18.875   C345.7127991,325.5753784,343.6981506,331.3605347,342.1327209,335.8556519z M461.6756897,269.8800659   c-1.3720703,1.0878906-4.6054688,0.9355469-6.0996094,0.6074219c-2.6201172-0.7353516-5.3134766-0.3378906-7.6611328,1.046875   c-2.3623047,1.3935547-3.9287109,3.7285156-4.5449219,6.4013672c-0.0380859,0.1640625-4.7128906,16.3662109-37.5703125,15.8076172   c-5.5751953-0.0976563-10.2368164-0.378418-14.1335449-0.760498c2.0759277-1.4614258,4.213623-2.7541504,6.423584-3.8293457   c4.625-2.2480469,7.7148438-6.8271484,8.0634766-11.9511719c0.3496094-5.125-2.0927734-10.0800781-6.3457031-12.9150391   c-2.3652344-1.5878906-5.1289063-2.4267578-7.9921875-2.4267578c-2.2236328,0-4.4482422,0.5244141-6.4326172,1.5166016   c-5.5229492,2.7614746-15.8515625,8.4448242-26.9853516,17.1772461c-5.2954102-2.1193848-9.8920898-5.6008301-9.0673828-11.2739258   c1.8056641-12.4140625,17.0273438-14.230484,17.6054688-14.2939606c4.0292969-0.3847656,7.3583984-2.9423828,8.5419922-6.8056641   c0.2177734-0.5810547,2.3730469-6.0546875,7.9462891-11.0712891c7.7578125-6.9833984,18.5048828-10.0185547,31.9326172-9.0253906   c15.8066406,1.1699219,20.4179688,5.6601563,21.6669922,7.5361328c1.6269531,2.4433594,0.9267578,5.2802734,0.7529297,5.8740234   c-1.4238281,3.28125-0.8916016,6.8671875,1.2548828,9.7421875c2.1689453,2.9033203,5.8369141,4.1845703,9.4257813,3.7070313   c2.2880859-0.3037109,9.5830078-0.2597656,12.8300781,2.5849762c0.5546875,0.4853516,2.0283203,1.7753906,2.0283203,5.953125   C463.3153381,266.6720581,462.7020569,269.0636597,461.6756897,269.8800659z"></path></g></svg>