<svg xmlns="http://www.w3.org/2000/svg" xmlns:xlink="http://www.w3.org/1999/xlink" xml:space="preserve" version="1.1" style="shape-rendering:geometricPrecision;text-rendering:geometricPrecision;image-rendering:optimizeQuality;" viewBox="0 0 1667 1860" x="0px" y="0px" fill-rule="evenodd" clip-rule="evenodd"><defs><style type="text/css">
   
    .fil0 {fill:black;fill-rule:nonzero}
   
  </style></defs><g><g><path class="fil0" d="M817 787c53,13 107,-18 121,-71 14,-54 -18,-108 -71,-122 -53,-14 -107,18 -121,71 -14,53 18,108 71,122z"></path><path class="fil0" d="M806 1465l21 104c2,-4 5,-8 6,-12l65 -194 -120 0 -8 25 29 57c3,6 6,13 7,20z"></path><path class="fil0" d="M1255 1370c-27,0 -53,5 -78,13l-56 -192c-3,-10 -12,-17 -23,-17l-61 0c-4,-6 -8,-11 -14,-15l-124 -81 -43 -207c0,0 0,-1 -1,-2 -6,-27 -23,-51 -50,-64 -26,-14 -56,-14 -81,-4 -1,0 -1,0 -2,0 -21,9 -39,25 -51,47l-153 297c-15,30 -14,65 1,93 -9,-1 -17,1 -22,4 -9,5 -23,17 -4,46 19,29 38,26 60,26l22 -3 7 0 11 21 -55 74c-37,-23 -81,-36 -127,-36 -135,0 -244,110 -244,244 0,135 109,245 244,245 104,0 192,-65 228,-156l85 23 0 2c5,27 29,46 55,46 4,0 8,-1 12,-2 30,-6 50,-35 44,-66l-3 -13 283 -325 -24 -71 -368 0 24 48 325 0 -252 288 -32 -165c-1,-5 -3,-10 -6,-14l-96 -187 26 11 209 0c-1,-21 -14,-40 -34,-48l-155 -67 63 -122 1 -2 15 77c3,12 10,23 21,29l140 92c8,5 17,7 26,7 15,0 30,-7 38,-21 1,0 1,-1 1,-1l43 0 53 182c-73,42 -123,121 -123,211 0,135 110,245 245,245 135,0 245,-110 245,-245 0,-135 -110,-245 -245,-245zm-844 441l0 0c-108,0 -197,-88 -197,-197 0,-108 89,-196 197,-196 36,0 69,10 98,27l-117 155c-5,6 -6,15 -4,22 3,8 9,13 17,15l187 53c-29,71 -99,121 -181,121zm194 -168l0 0 -154 -42 96 -128c37,36 61,86 61,141 0,10 -2,20 -3,29zm108 31l0 0 -61 -17c2,-14 3,-28 3,-43 0,-71 -30,-135 -79,-180l41 -54 61 119 35 175zm542 138l0 0c-108,0 -197,-88 -197,-197 0,-68 36,-129 89,-164l27 93c33,87 70,95 81,95 0,0 0,0 0,0 13,0 26,-10 26,-23 0,-13 -8,-24 -22,-24 0,0 -19,-7 -40,-63l-28 -99c20,-7 42,-12 64,-12 109,0 197,89 197,197 0,109 -88,197 -197,197z"></path></g></g></svg>