<svg xmlns="http://www.w3.org/2000/svg" data-name="Layer 1" viewBox="0 0 100 100" x="0px" y="0px"><path d="M41.26033,67.67566l-9.476.0003-10.69655.00015L14.21562,67.676a11.14629,11.14629,0,0,1-8.025-3.408,10.647,10.647,0,0,0,.70271,1.45392l8.7868,15.21947a11.17436,11.17436,0,0,0,9.67353,5.5846L41.262,86.53a1.66255,1.66255,0,0,0,1.66289-1.66282l-.002-15.52912A1.66248,1.66248,0,0,0,41.26033,67.67566Z"></path><path d="M53.7942,13.69717a11.14585,11.14585,0,0,1,6.96386-5.24568A10.62554,10.62554,0,0,0,59.1478,8.333h-17.574a11.17359,11.17359,0,0,0-9.67307,5.58513l-7.9577,13.775a1.66246,1.66246,0,0,0,.60848,2.27152l13.44971,7.76286a1.66269,1.66269,0,0,0,2.27092-.6087L45.01,28.91226l5.348-9.26359Z"></path><path d="M7.80449,60.20172a7.40981,7.40981,0,0,0,6.41528,3.70509l9.0404.00257L28.01672,55.678l2.865-4.969.90224.51787,3.547,2.05021L27.36521,37.95039l-11.40547.453-5.852.3126.99.57277,3.26452,1.884.19491.11149L10.203,48.823,8.02587,52.59247,6.89816,54.54958l-.01278.02224a4.17369,4.17369,0,0,0,.06217,4.14566Z"></path><path d="M73.77355,67.6802l-9.5069-.00363-5.73572.00325-.00272-1.0402.0022-4.0971L49.24,77.10459l6.095,9.65091L58.53161,91.667l.00114-1.14359-.00061-3.76915-.001-.22456,8.70587.00144,4.35289.00068L73.84866,86.53l.02586-.00016a4.17349,4.17349,0,0,0,3.55912-2.1266l.85686-1.48447a7.41016,7.41016,0,0,0,.00113-7.40814Z"></path><path d="M68.03527,50.20826l4.7381,8.20645,5.34846,9.26344,3.43606,5.9515a11.14613,11.14613,0,0,1,1.061,8.65383,10.65449,10.65449,0,0,0,.90784-1.33539l8.78694-15.21948a11.17355,11.17355,0,0,0-.00038-11.16988L84.36263,40.77978a1.66225,1.66225,0,0,0-2.27136-.6087L68.64359,47.93727A1.66259,1.66259,0,0,0,68.03527,50.20826Z"></path><path d="M57.05614,15.5856,52.534,23.41336l4.75035,8.23489,2.8707,4.96591-.8996.52233L55.7063,39.18307l13.14446.58261a6.48381,6.48381,0,0,0,6.02652-3.46094l3.39552-6.46067,2.65544-5.22427-.991.571-3.26384,1.8851-.19393.113-4.35169-7.54019-2.17583-3.77006-1.13119-1.95522-.01294-.02231a4.0619,4.0619,0,0,0-3.5107-2.0189H63.47264A7.41025,7.41025,0,0,0,57.05614,15.5856Z"></path></svg>