<svg xmlns="http://www.w3.org/2000/svg" viewBox="0 0 60 60" x="0px" y="0px"><title>Movies - Solid - 088 - Titanic</title><path d="M58,27.09644v4.5238l-1.81055,1.90808L54.04,31.26855Zm-10.05286-1.9386,5.08545-5.35559,2.152,2.26575-5.06433,5.33264Zm7.4386-7.83362,2.15234,2.26563-.975,1.02661-2.1521-2.26562Zm-8.2373-8.67578,2.15137,2.26563-.97491,1.02661L46.17352,9.675Zm-2.35437,2.479,2.15137,2.26563-5.09167,5.36145L39.70233,16.489Zm-10.97614-.83521,5.09186-5.36157,2.15149,2.26587-5.09143,5.36182Zm7.44574-7.84009L43.415,4.71777,42.44067,5.7439,40.28925,3.47827ZM21.99023,7.88281a.59364.59364,0,0,1,.44141-.2002h.002a.62868.62868,0,0,1,.45508.20605L27.002,12.21875a2.60159,2.60159,0,0,0,1.90527.82813H28.917a2.57929,2.57929,0,0,0,1.88965-.82812l1.039-1.09448,3.39752,3.5769.00964.00671,2.334,2.45789.00885.01392,3.4707,3.655a1.90082,1.90082,0,0,0,.06348,2.54321l2.3584,2.49219a1.81515,1.81515,0,0,0,1.30566.55469h.01367a1.78563,1.78563,0,0,0,1.1571-.43164l3.39954,3.58008a.98916.98916,0,0,0,.23517.16382l7.7348,7.98218A1.98582,1.98582,0,0,1,55,35.75a1,1,0,0,0-2,0,2,2,0,0,1-4,0,.99942.99942,0,0,0-1-1,.98678.98678,0,0,0-.85706.51489L21.48206,8.41748ZM13.60547,3.07227,19.35913,9.0918c.0202.02246.02948.05042.052.07129.01129.0105.02634.01318.038.02295L46.28882,37.26636A1.98156,1.98156,0,0,1,45,37.75a2.00261,2.00261,0,0,1-2-2,.99942.99942,0,0,0-1-1,.98228.98228,0,0,0-.81921.45874l-29.139-30.491Zm-3.18164,10.79a4.61025,4.61025,0,0,0,1.2373-3.16211V7.21387l28.67981,30.0094A1.99162,1.99162,0,0,1,37,35.75a1,1,0,0,0-2,0,2,2,0,0,1-4,0,1,1,0,0,0-2,0,2,2,0,0,1-4,0,.99534.99534,0,0,0-1.89777-.42456L6.53534,17.99426ZM5.2627,19.55664l16.97119,17.755A1.97988,1.97988,0,0,1,21,37.75a2.00261,2.00261,0,0,1-2-2,.99942.99942,0,0,0-1-1,.98636.98636,0,0,0-.651.25476L5.84082,22.96973A3.13859,3.13859,0,0,1,5.2627,19.55664ZM58,58H2V39.623a3.9956,3.9956,0,0,0,4-1.23047,3.99382,3.99382,0,0,0,6,0,3.99382,3.99382,0,0,0,6,0,3.99382,3.99382,0,0,0,6,0,3.99382,3.99382,0,0,0,6,0,3.99382,3.99382,0,0,0,6,0,3.95994,3.95994,0,0,0,5.77063.21167.998.998,0,0,0,.39929.08618,1.023,1.023,0,0,0,.127-.02393,3.92563,3.92563,0,0,0,5.53821-.12183.9952.9952,0,0,0,.12781.02563,1.00594,1.00594,0,0,0,.19073-.036A3.96772,3.96772,0,0,0,54,38.39258,3.9956,3.9956,0,0,0,58,39.623Z"></path></svg>