<svg xmlns="http://www.w3.org/2000/svg" xmlns:xlink="http://www.w3.org/1999/xlink" version="1.1" x="0px" y="0px" viewBox="0 0 100 100" style="enable-background:new 0 0 100 100;" xml:space="preserve"><g><path d="M33.2,57.6c-2.6,2.6-2.6,6.8,0,9.3c2.6,2.6,6.8,2.6,9.3,0c2.6-2.6,2.6-6.8,0-9.3C40,55,35.8,55,33.2,57.6z"></path><path d="M23.5,23.7c-14.6,14.6-14.6,38.3,0,53c14.6,14.6,38.3,14.6,53,0C91,62,91,38.3,76.4,23.7C61.8,9.1,38.1,9.1,23.5,23.7z    M66.7,42.8c-2.6,2.6-6.8,2.6-9.3,0c-2.6-2.6-2.6-6.8,0-9.3c2.6-2.6,6.8-2.6,9.3,0C69.3,36,69.3,40.2,66.7,42.8z M49.6,27.2   c-6.2,6.2-6.2,16.3,0,22.6c0.4,0.4,1.9,1.9,2.3,2.3c6.2,6.2,6.2,16.3,0,22.6c-3.9,3.9-10.1,6.2-14.6,4.8c-3.6-1.6-7-3.8-9.9-6.7   c-12.5-12.5-12.5-32.7,0-45.2c11.5-11.5,29.5-12.4,42-2.8l-0.1,0.1C63.1,21.1,54.9,21.8,49.6,27.2z"></path></g></svg>